<svg width="37" height="36" viewBox="0 0 37 36" fill="none" xmlns="http://www.w3.org/2000/svg">
<path d="M32.2727 9C31.8352 9 31.4758 8.85938 31.1946 8.57812C30.9133 8.29688 30.7727 7.9375 30.7727 7.5C30.7727 7.0625 30.9133 6.70312 31.1946 6.42188C31.4758 6.14062 31.8352 6 32.2727 6C32.7102 6 33.0696 6.14062 33.3508 6.42188C33.6321 6.70312 33.7727 7.0625 33.7727 7.5C33.7727 7.9375 33.6321 8.29688 33.3508 8.57812C33.0696 8.85938 32.7102 9 32.2727 9ZM4.52271 9H11.2727C11.5852 9 11.804 9.14062 11.929 9.42188C12.054 9.70312 12.0383 9.96875 11.8821 10.2188L7.56958 15.75C9.03833 15.7812 10.2571 16.2969 11.2258 17.2969C12.2258 18.2969 12.7415 19.5312 12.7727 21V21.75C12.7415 23.25 12.2258 24.4844 11.2258 25.4531C10.2571 26.4531 9.02271 26.9688 7.52271 27H7.28833C6.25708 27 5.36646 26.6406 4.61646 25.9219L4.00708 25.2656C3.69458 24.9219 3.69458 24.5781 4.00708 24.2344C4.35083 23.9219 4.69458 23.9219 5.03833 24.2344L5.69458 24.8438C6.13208 25.2812 6.66333 25.5 7.28833 25.5H7.52271C8.58521 25.4688 9.47583 25.1094 10.1946 24.4219C10.8821 23.7031 11.2415 22.8125 11.2727 21.75V21C11.2415 19.9375 10.8821 19.0625 10.1946 18.375C9.47583 17.6562 8.58521 17.2812 7.52271 17.25H6.02271C5.71021 17.25 5.49146 17.1094 5.36646 16.8281C5.24146 16.5469 5.25708 16.2812 5.41333 16.0312L9.72583 10.5H4.52271C4.05396 10.4688 3.80396 10.2188 3.77271 9.75C3.80396 9.28125 4.05396 9.03125 4.52271 9ZM24.7727 12.75V23.25C24.804 23.875 25.0227 24.4062 25.429 24.8438C25.8665 25.25 26.3977 25.4688 27.0227 25.5C27.6477 25.4688 28.179 25.25 28.6165 24.8438C29.0227 24.4062 29.2415 23.875 29.2727 23.25V12.75C29.2415 12.125 29.0227 11.5938 28.6165 11.1562C28.179 10.75 27.6477 10.5312 27.0227 10.5C26.3977 10.5312 25.8665 10.75 25.429 11.1562C25.0227 11.5938 24.804 12.125 24.7727 12.75ZM30.7727 23.25C30.7415 24.3125 30.3821 25.2031 29.6946 25.9219C28.9758 26.6094 28.0852 26.9688 27.0227 27C25.9602 26.9688 25.0696 26.6094 24.3508 25.9219C23.6633 25.2031 23.304 24.3125 23.2727 23.25V12.75C23.304 11.6875 23.6633 10.7969 24.3508 10.0781C25.0696 9.39062 25.9602 9.03125 27.0227 9C28.0852 9.03125 28.9758 9.39062 29.6946 10.0781C30.3821 10.7969 30.7415 11.6875 30.7727 12.75V23.25ZM15.7727 14.25V15.75C16.429 15.2812 17.179 15.0312 18.0227 15C19.0852 15.0312 19.9758 15.3906 20.6946 16.0781C21.3821 16.7969 21.7415 17.6875 21.7727 18.75V23.25C21.7415 24.3125 21.3821 25.2031 20.6946 25.9219C19.9758 26.6094 19.0852 26.9688 18.0227 27C16.9602 26.9688 16.0696 26.6094 15.3508 25.9219C14.6633 25.2031 14.304 24.3125 14.2727 23.25V19.5V14.25C14.304 12.75 14.8196 11.5156 15.8196 10.5469C16.7883 9.54688 18.0227 9.03125 19.5227 9C19.9915 9.03125 20.2415 9.28125 20.2727 9.75C20.2415 10.2188 19.9915 10.4688 19.5227 10.5C18.4602 10.5312 17.5696 10.8906 16.8508 11.5781C16.1633 12.2969 15.804 13.1875 15.7727 14.25ZM18.0227 16.5C17.3977 16.5312 16.8665 16.75 16.429 17.1562C16.0227 17.5938 15.804 18.125 15.7727 18.75V23.25C15.804 23.875 16.0227 24.4062 16.429 24.8438C16.8665 25.25 17.3977 25.4688 18.0227 25.5C18.6477 25.4688 19.179 25.25 19.6165 24.8438C20.0227 24.4062 20.2415 23.875 20.2727 23.25V18.75C20.2415 18.125 20.0227 17.5938 19.6165 17.1562C19.179 16.75 18.6477 16.5312 18.0227 16.5Z" fill="#000000"/>
</svg>
