<svg width="36" height="36" viewBox="0 0 36 36" fill="none" xmlns="http://www.w3.org/2000/svg">
<path d="M10.5 7.5C10.0625 7.5 9.70312 7.64062 9.42188 7.92188C9.14062 8.20312 9 8.5625 9 9V27C9 27.4375 9.14062 27.7969 9.42188 28.0781C9.70312 28.3594 10.0625 28.5 10.5 28.5H24C24.4375 28.5 24.7969 28.3594 25.0781 28.0781C25.3594 27.7969 25.5 27.4375 25.5 27V9C25.5 8.5625 25.3594 8.20312 25.0781 7.92188C24.7969 7.64062 24.4375 7.5 24 7.5H10.5ZM7.5 9C7.53125 8.15625 7.82812 7.45312 8.39062 6.89062C8.95312 6.32812 9.65625 6.03125 10.5 6H24C24.8438 6.03125 25.5469 6.32812 26.1094 6.89062C26.6719 7.45312 26.9688 8.15625 27 9V27C26.9688 27.8438 26.6719 28.5469 26.1094 29.1094C25.5469 29.6719 24.8438 29.9688 24 30H10.5C9.65625 29.9688 8.95312 29.6719 8.39062 29.1094C7.82812 28.5469 7.53125 27.8438 7.5 27V9ZM18.75 15C18.75 14.5625 18.6094 14.2031 18.3281 13.9219C18.0469 13.6406 17.6875 13.5 17.25 13.5C16.8125 13.5 16.4531 13.6406 16.1719 13.9219C15.8906 14.2031 15.75 14.5625 15.75 15C15.75 15.4375 15.8906 15.7969 16.1719 16.0781C16.4531 16.3594 16.8125 16.5 17.25 16.5C17.6875 16.5 18.0469 16.3594 18.3281 16.0781C18.6094 15.7969 18.75 15.4375 18.75 15ZM14.25 15C14.2812 13.875 14.7812 13.0156 15.75 12.4219C16.75 11.8594 17.75 11.8594 18.75 12.4219C19.7188 13.0156 20.2188 13.875 20.25 15C20.2188 16.125 19.7188 16.9844 18.75 17.5781C17.75 18.1406 16.75 18.1406 15.75 17.5781C14.7812 16.9844 14.2812 16.125 14.25 15ZM15.75 21C15.125 21.0312 14.5938 21.25 14.1562 21.6562C13.75 22.0938 13.5312 22.625 13.5 23.25C13.4688 23.7188 13.2188 23.9688 12.75 24C12.2812 23.9688 12.0312 23.7188 12 23.25C12.0312 22.1875 12.3906 21.2969 13.0781 20.5781C13.7969 19.8906 14.6875 19.5312 15.75 19.5H18.75C19.8125 19.5312 20.7031 19.8906 21.4219 20.5781C22.1094 21.2969 22.4688 22.1875 22.5 23.25C22.4688 23.7188 22.2188 23.9688 21.75 24C21.2812 23.9688 21.0312 23.7188 21 23.25C20.9688 22.625 20.75 22.0938 20.3438 21.6562C19.9062 21.25 19.375 21.0312 18.75 21H15.75ZM30 9.75V12.75C29.9688 13.2188 29.7188 13.4688 29.25 13.5C28.7812 13.4688 28.5312 13.2188 28.5 12.75V9.75C28.5312 9.28125 28.7812 9.03125 29.25 9C29.7188 9.03125 29.9688 9.28125 30 9.75ZM29.25 15C29.7188 15.0312 29.9688 15.2812 30 15.75V18.75C29.9688 19.2188 29.7188 19.4688 29.25 19.5C28.7812 19.4688 28.5312 19.2188 28.5 18.75V15.75C28.5312 15.2812 28.7812 15.0312 29.25 15ZM30 21.75V24.75C29.9688 25.2188 29.7188 25.4688 29.25 25.5C28.7812 25.4688 28.5312 25.2188 28.5 24.75V21.75C28.5312 21.2812 28.7812 21.0312 29.25 21C29.7188 21.0312 29.9688 21.2812 30 21.75Z" fill="#000000"/>
</svg>
