<svg width="36" height="36" viewBox="0 0 36 36" fill="none" xmlns="http://www.w3.org/2000/svg">
<path d="M28.2656 12.5156L23.7656 17.0156C23.4219 17.3281 23.0781 17.3281 22.7344 17.0156C22.4219 16.6719 22.4219 16.3281 22.7344 15.9844L25.9219 12.75H8.25C7.78125 12.7188 7.53125 12.4688 7.5 12C7.53125 11.5312 7.78125 11.2812 8.25 11.25H25.9219L22.7344 8.01562C22.4219 7.67188 22.4219 7.32812 22.7344 6.98438C23.0781 6.67187 23.4219 6.67187 23.7656 6.98438L28.2656 11.4844C28.5781 11.8281 28.5781 12.1719 28.2656 12.5156ZM12.2344 29.0156L7.73438 24.5156C7.42188 24.1719 7.42188 23.8281 7.73438 23.4844L12.2344 18.9844C12.5781 18.6719 12.9219 18.6719 13.2656 18.9844C13.5781 19.3281 13.5781 19.6719 13.2656 20.0156L10.0781 23.25H27.75C28.2188 23.2812 28.4688 23.5312 28.5 24C28.4688 24.4688 28.2188 24.7188 27.75 24.75H10.0781L13.2656 27.9844C13.5781 28.3281 13.5781 28.6719 13.2656 29.0156C12.9219 29.3281 12.5781 29.3281 12.2344 29.0156Z" fill="#000000"/>
</svg>
