<svg width="36" height="36" viewBox="0 0 36 36" fill="none" xmlns="http://www.w3.org/2000/svg">
<path d="M9.75 7.5H26.25C26.7188 7.53125 26.9688 7.78125 27 8.25C26.9688 8.71875 26.7188 8.96875 26.25 9H9.75C9.28125 8.96875 9.03125 8.71875 9 8.25C9.03125 7.78125 9.28125 7.53125 9.75 7.5ZM18.5156 12.2344L24.5156 18.2344C24.8281 18.5781 24.8281 18.9219 24.5156 19.2656C24.1719 19.5781 23.8281 19.5781 23.4844 19.2656L18.75 14.5781V19.5V27.75C18.7188 28.2188 18.4688 28.4688 18 28.5C17.5312 28.4688 17.2812 28.2188 17.25 27.75V19.5V14.5781L12.5156 19.2656C12.1719 19.5781 11.8281 19.5781 11.4844 19.2656C11.1719 18.9219 11.1719 18.5781 11.4844 18.2344L17.4844 12.2344C17.8281 11.9219 18.1719 11.9219 18.5156 12.2344Z" fill="#000000"/>
</svg>
