<svg width="36" height="36" viewBox="0 0 36 36" fill="none" xmlns="http://www.w3.org/2000/svg">
<path d="M9.23438 15.8906H9.28125C9.15625 16.2656 8.89062 16.4688 8.48438 16.5C7.95312 16.4375 7.71875 16.1562 7.78125 15.6562C8.34375 13.2812 9.5625 11.3438 11.4375 9.84375C13.2812 8.34375 15.4688 7.5625 18 7.5C19.9375 7.53125 21.6875 8 23.25 8.90625C24.8125 9.8125 26.0625 11.0469 27 12.6094V9.75C27.0312 9.28125 27.2812 9.03125 27.75 9C28.2188 9.03125 28.4688 9.28125 28.5 9.75V14.25C28.4688 14.7188 28.2188 14.9688 27.75 15H27.0469H23.25C22.7812 14.9688 22.5312 14.7188 22.5 14.25C22.5312 13.7812 22.7812 13.5312 23.25 13.5H25.7812C25 12.125 23.9219 11.0312 22.5469 10.2188C21.2031 9.4375 19.6875 9.03125 18 9C15.8438 9.03125 13.9688 9.6875 12.375 10.9688C10.8125 12.2188 9.76562 13.8594 9.23438 15.8906ZM26.7656 20.1562V20.1094C26.8594 19.7344 27.1094 19.5312 27.5156 19.5C28.0469 19.5625 28.2812 19.8438 28.2188 20.3438C27.6562 22.7188 26.4531 24.6562 24.6094 26.1562C22.7344 27.6562 20.5312 28.4375 18 28.5C16.0625 28.4688 14.3125 28 12.75 27.0938C11.1875 26.1875 9.9375 24.9688 9 23.4375V26.25C8.96875 26.7188 8.71875 26.9688 8.25 27C7.8125 26.9688 7.5625 26.7188 7.5 26.25V21.75C7.5625 21.2812 7.8125 21.0312 8.25 21H8.95312H12.75C13.2188 21.0312 13.4688 21.2812 13.5 21.75C13.4688 22.2188 13.2188 22.4688 12.75 22.5H10.2188C11 23.875 12.0781 24.9688 13.4531 25.7812C14.7969 26.5625 16.3125 26.9688 18 27C20.1562 26.9688 22.0312 26.3125 23.625 25.0312C25.1875 23.7812 26.2344 22.1562 26.7656 20.1562Z" fill="#000000"/>
</svg>
