<svg width="37" height="36" viewBox="0 0 37 36" fill="none" xmlns="http://www.w3.org/2000/svg">
<path d="M19.2883 6.23438L25.2883 12.2344C25.6008 12.5781 25.6008 12.9219 25.2883 13.2656C24.9446 13.5781 24.6008 13.5781 24.2571 13.2656L19.5227 8.57812V21.75C19.4915 22.2188 19.2415 22.4688 18.7727 22.5C18.304 22.4688 18.054 22.2188 18.0227 21.75V8.57812L13.2883 13.2656C12.9446 13.5781 12.6008 13.5781 12.2571 13.2656C11.9446 12.9219 11.9446 12.5781 12.2571 12.2344L18.2571 6.23438C18.6008 5.92187 18.9446 5.92187 19.2883 6.23438ZM9.77271 21.75V26.25C9.80396 26.875 10.0227 27.4062 10.429 27.8438C10.8665 28.25 11.3977 28.4688 12.0227 28.5H25.5227C26.1477 28.4688 26.679 28.25 27.1165 27.8438C27.5227 27.4062 27.7415 26.875 27.7727 26.25V21.75C27.804 21.2812 28.054 21.0312 28.5227 21C28.9915 21.0312 29.2415 21.2812 29.2727 21.75V26.25C29.2415 27.3125 28.8821 28.2031 28.1946 28.9219C27.4758 29.6094 26.5852 29.9688 25.5227 30H12.0227C10.9602 29.9688 10.0696 29.6094 9.35083 28.9219C8.66333 28.2031 8.30396 27.3125 8.27271 26.25V21.75C8.30396 21.2812 8.55396 21.0312 9.02271 21C9.49146 21.0312 9.74146 21.2812 9.77271 21.75Z" fill="#000000"/>
</svg>
