<svg width="36" height="36" viewBox="0 0 36 36" fill="none" xmlns="http://www.w3.org/2000/svg">
<path d="M9.75 28.5C9.28125 28.4688 9.03125 28.2188 9 27.75C9.03125 27.2812 9.28125 27.0312 9.75 27H26.25C26.7188 27.0312 26.9688 27.2812 27 27.75C26.9688 28.2188 26.7188 28.4688 26.25 28.5H9.75ZM18.5156 23.7656C18.1719 24.0781 17.8281 24.0781 17.4844 23.7656L11.4844 17.7656C11.1719 17.4219 11.1719 17.0781 11.4844 16.7344C11.8281 16.4219 12.1719 16.4219 12.5156 16.7344L17.25 21.4219V16.5V8.25C17.2812 7.78125 17.5312 7.53125 18 7.5C18.4688 7.53125 18.7188 7.78125 18.75 8.25V16.5V21.4219L23.4844 16.7344C23.8281 16.4219 24.1719 16.4219 24.5156 16.7344C24.8281 17.0781 24.8281 17.4219 24.5156 17.7656L18.5156 23.7656Z" fill="#000000"/>
</svg>
