<svg width="36" height="36" viewBox="0 0 36 36" fill="none" xmlns="http://www.w3.org/2000/svg">
<path d="M13.5 9.75V16.125L21.8906 9.28125C22.1094 9.09375 22.375 9 22.6875 9C23.0625 9 23.375 9.125 23.625 9.375C23.875 9.625 24 9.9375 24 10.3125V25.6875C24 26.0625 23.875 26.375 23.625 26.625C23.375 26.875 23.0625 27 22.6875 27C22.375 27 22.1094 26.9062 21.8906 26.7188L13.5 19.875V26.25C13.4688 26.7188 13.2188 26.9688 12.75 27C12.2812 26.9688 12.0312 26.7188 12 26.25V18.6562V17.3438V9.75C12.0312 9.28125 12.2812 9.03125 12.75 9C13.2188 9.03125 13.4688 9.28125 13.5 9.75ZM22.5 10.7344L13.5469 18L22.5 25.2656V10.7344Z" fill="#000000"/>
</svg>
