<svg width="36" height="36" viewBox="0 0 36 36" fill="none" xmlns="http://www.w3.org/2000/svg">
<path d="M6.75 7.5C6.28125 7.53125 6.03125 7.78125 6 8.25V12.75C5.96875 13.2188 5.71875 13.4688 5.25 13.5C4.78125 13.4688 4.53125 13.2188 4.5 12.75V8.25C4.53125 7.625 4.75 7.09375 5.15625 6.65625C5.59375 6.25 6.125 6.03125 6.75 6H11.25C11.7188 6.03125 11.9688 6.28125 12 6.75C11.9688 7.21875 11.7188 7.46875 11.25 7.5H6.75ZM11.25 12C11.7188 12.0312 11.9688 12.2812 12 12.75V23.25C11.9688 23.7188 11.7188 23.9688 11.25 24C10.7812 23.9688 10.5312 23.7188 10.5 23.25V12.75C10.5312 12.2812 10.7812 12.0312 11.25 12ZM13.5 12.75C13.5312 12.2812 13.7812 12.0312 14.25 12C14.7188 12.0312 14.9688 12.2812 15 12.75V23.25C14.9688 23.7188 14.7188 23.9688 14.25 24C13.7812 23.9688 13.5312 23.7188 13.5 23.25V12.75ZM24 12.75C24.0312 12.2812 24.2812 12.0312 24.75 12C25.2188 12.0312 25.4688 12.2812 25.5 12.75V23.25C25.4688 23.7188 25.2188 23.9688 24.75 24C24.2812 23.9688 24.0312 23.7188 24 23.25V12.75ZM17.25 12C17.7188 12.0312 17.9688 12.2812 18 12.75V23.25C17.9688 23.7188 17.7188 23.9688 17.25 24C16.7812 23.9688 16.5312 23.7188 16.5 23.25V12.75C16.5312 12.2812 16.7812 12.0312 17.25 12ZM20.25 12.75C20.2812 12.2812 20.5312 12.0312 21 12C21.4688 12.0312 21.7188 12.2812 21.75 12.75V23.25C21.7188 23.7188 21.4688 23.9688 21 24C20.5312 23.9688 20.2812 23.7188 20.25 23.25V12.75ZM30 8.25C29.9688 7.78125 29.7188 7.53125 29.25 7.5H24.75C24.2812 7.46875 24.0312 7.21875 24 6.75C24.0312 6.28125 24.2812 6.03125 24.75 6H29.25C29.875 6.03125 30.4062 6.25 30.8438 6.65625C31.25 7.09375 31.4688 7.625 31.5 8.25V12.75C31.4688 13.2188 31.2188 13.4688 30.75 13.5C30.2812 13.4688 30.0312 13.2188 30 12.75V8.25ZM6.75 28.5H11.25C11.7188 28.5312 11.9688 28.7812 12 29.25C11.9688 29.7188 11.7188 29.9688 11.25 30H6.75C6.125 29.9688 5.59375 29.75 5.15625 29.3438C4.75 28.9062 4.53125 28.375 4.5 27.75V23.25C4.53125 22.7812 4.78125 22.5312 5.25 22.5C5.71875 22.5312 5.96875 22.7812 6 23.25V27.75C6.03125 28.2188 6.28125 28.4688 6.75 28.5ZM30 27.75V23.25C30.0312 22.7812 30.2812 22.5312 30.75 22.5C31.2188 22.5312 31.4688 22.7812 31.5 23.25V27.75C31.4688 28.375 31.25 28.9062 30.8438 29.3438C30.4062 29.75 29.875 29.9688 29.25 30H24.75C24.2812 29.9688 24.0312 29.7188 24 29.25C24.0312 28.7812 24.2812 28.5312 24.75 28.5H29.25C29.7188 28.4688 29.9688 28.2188 30 27.75Z" fill="#000000"/>
</svg>
