<svg width="36" height="36" viewBox="0 0 36 36" fill="none" xmlns="http://www.w3.org/2000/svg">
<path d="M7.5 9.75C7.53125 9.28125 7.78125 9.03125 8.25 9H27.75C28.2188 9.03125 28.4688 9.28125 28.5 9.75C28.4688 10.2188 28.2188 10.4688 27.75 10.5H8.25C7.78125 10.4688 7.53125 10.2188 7.5 9.75ZM7.5 17.25C7.53125 16.7812 7.78125 16.5312 8.25 16.5H27.75C28.2188 16.5312 28.4688 16.7812 28.5 17.25C28.4688 17.7188 28.2188 17.9688 27.75 18H8.25C7.78125 17.9688 7.53125 17.7188 7.5 17.25ZM28.5 24.75C28.4688 25.2188 28.2188 25.4688 27.75 25.5H8.25C7.78125 25.4688 7.53125 25.2188 7.5 24.75C7.53125 24.2812 7.78125 24.0312 8.25 24H27.75C28.2188 24.0312 28.4688 24.2812 28.5 24.75Z" fill="#000000"/>
</svg>
