<svg width="36" height="36" viewBox="0 0 36 36" fill="none" xmlns="http://www.w3.org/2000/svg">
<path d="M17.25 6.75C17.2812 6.28125 17.5312 6.03125 18 6C18.4688 6.03125 18.7188 6.28125 18.75 6.75V7.54688C20.6875 7.76563 22.2812 8.5625 23.5312 9.9375C24.8125 11.3125 25.4688 13 25.5 15V16.3594C25.5312 18.4844 26.2812 20.3125 27.75 21.8438L27.8906 21.9844C28.2969 22.3906 28.5 22.875 28.5 23.4375C28.5 24.0312 28.2969 24.5156 27.8906 24.8906C27.5156 25.2969 27.0312 25.5 26.4375 25.5H9.5625C8.96875 25.5 8.48438 25.2969 8.10938 24.8906C7.70312 24.5156 7.5 24.0312 7.5 23.4375C7.5 22.875 7.70312 22.375 8.10938 21.9375L8.25 21.8438C9.71875 20.3125 10.4688 18.4844 10.5 16.3594V15C10.5312 13 11.1875 11.3125 12.4688 9.9375C13.7188 8.5625 15.3125 7.76563 17.25 7.54688V6.75ZM18 9C16.3125 9.03125 14.8906 9.60938 13.7344 10.7344C12.6094 11.8906 12.0312 13.3125 12 15V16.3594C11.9688 18.8906 11.0625 21.0625 9.28125 22.875L9.1875 23.0156C9.0625 23.1406 9 23.2812 9 23.4375C9.03125 23.7812 9.21875 23.9688 9.5625 24H26.4375C26.7812 23.9688 26.9688 23.7812 27 23.4375C27 23.2812 26.9375 23.1406 26.8125 23.0156L26.7188 22.875C24.9375 21.0625 24.0312 18.8906 24 16.3594V15C23.9688 13.3125 23.375 11.8906 22.2188 10.7344C21.0938 9.60938 19.6875 9.03125 18 9ZM16.5938 27.5156C16.8438 28.1406 17.3125 28.4688 18 28.5C18.6875 28.4688 19.1562 28.1406 19.4062 27.5156C19.5938 27.0781 19.9219 26.9219 20.3906 27.0469C20.7969 27.2344 20.9375 27.5469 20.8125 27.9844C20.5938 28.5781 20.2344 29.0625 19.7344 29.4375C19.2344 29.8125 18.6562 30 18 30C17.3438 30 16.7656 29.8125 16.2656 29.4375C15.7656 29.0625 15.4062 28.5781 15.1875 27.9844C15.0625 27.5469 15.2031 27.2344 15.6094 27.0469C16.0781 26.9219 16.4062 27.0781 16.5938 27.5156Z" fill="#000000"/>
</svg>
