<svg width="37" height="36" viewBox="0 0 37 36" fill="none" xmlns="http://www.w3.org/2000/svg">
<path d="M11.2727 7.45312C11.2727 7.04687 11.4133 6.70312 11.6946 6.42188C11.9758 6.14062 12.3196 6 12.7258 6H20.3665C20.7727 6 21.1008 6.14062 21.3508 6.42188C21.6321 6.67187 21.7727 7 21.7727 7.40625C21.7727 7.5625 21.7571 7.70312 21.7258 7.82812L19.804 13.5H26.4602C26.8352 13.5 27.1477 13.625 27.3977 13.875C27.6477 14.125 27.7727 14.4375 27.7727 14.8125C27.7727 15.0938 27.6946 15.3438 27.5383 15.5625L18.0227 29.4844C17.7727 29.8281 17.4446 30 17.0383 30C16.6633 29.9688 16.3665 29.8125 16.1477 29.5312C15.929 29.25 15.8508 28.9219 15.9133 28.5469L18.2102 19.5H11.2258C10.8196 19.5 10.4758 19.3594 10.1946 19.0781C9.91333 18.7969 9.77271 18.4531 9.77271 18.0469C9.77271 17.9844 9.77271 17.9219 9.77271 17.8594L11.2727 7.45312ZM12.7727 7.5C12.7727 7.5625 12.7727 7.60937 12.7727 7.64062L11.2727 18H19.1477C19.3977 18 19.6008 18.0938 19.7571 18.2812C19.8821 18.4688 19.929 18.6875 19.8977 18.9375L17.8352 27.0938L26.1321 15H18.7727C18.5227 15 18.3196 14.8906 18.1633 14.6719C18.0071 14.4844 17.9758 14.2656 18.0696 14.0156L20.2258 7.5H12.7727Z" fill="#000000"/>
</svg>
