<svg width="36" height="36" viewBox="0 0 36 36" fill="none" xmlns="http://www.w3.org/2000/svg">
<path d="M6.75 8.34375L18 9.60938L29.25 8.34375C29.9688 8.28125 30.4844 8.57812 30.7969 9.23438L32.2969 12.7031C32.5156 13.2656 32.5 13.7969 32.25 14.2969C32 14.7969 31.5781 15.125 30.9844 15.2812L23.5312 17.0156C22.5625 17.2031 21.7812 16.9062 21.1875 16.125L18 11.6719L14.8125 16.125C14.2188 16.9062 13.4375 17.2031 12.4688 17.0156L5.01562 15.2812C4.42188 15.125 4 14.7969 3.75 14.2969C3.5 13.7969 3.48438 13.2656 3.70312 12.7031L5.20312 9.23438C5.51562 8.57812 6.03125 8.26562 6.75 8.29688V8.34375ZM6.60938 9.79688L5.10938 13.3125C5.01562 13.5625 5.09375 13.7344 5.34375 13.8281L12.8438 15.5625C13.1562 15.625 13.4062 15.5156 13.5938 15.2344L16.6406 10.9688L6.60938 9.79688ZM28.5 17.1094L30 16.6875V23.7656C30 24.2656 29.8438 24.7188 29.5312 25.125C29.2188 25.5312 28.8125 25.7969 28.3125 25.9219L18.5625 28.3594C18.1875 28.4531 17.8125 28.4531 17.4375 28.3594L7.6875 25.9219C7.1875 25.7969 6.78125 25.5312 6.46875 25.125C6.15625 24.7188 6 24.2656 6 23.7656V16.6875L7.5 17.1094V23.7656C7.53125 24.1094 7.71875 24.3438 8.0625 24.4688L17.25 26.7656V15.75C17.2812 15.2812 17.5312 15.0312 18 15C18.4688 15.0312 18.7188 15.2812 18.75 15.75V26.7656L27.9375 24.4688C28.2812 24.3438 28.4688 24.1094 28.5 23.7656V17.1094ZM19.3594 10.9688L22.4062 15.2344C22.5938 15.4844 22.8594 15.5938 23.2031 15.5625L30.6562 13.8281C30.9062 13.7344 30.9844 13.5625 30.8906 13.3125L29.3906 9.79688L19.3594 10.9688Z" fill="#000000"/>
</svg>
