<svg width="37" height="36" viewBox="0 0 37 36" fill="none" xmlns="http://www.w3.org/2000/svg">
<path d="M18.7727 7.5C17.929 7.53125 17.2258 7.82812 16.6633 8.39062C16.1008 8.95312 15.804 9.65625 15.7727 10.5H21.7727C21.7415 9.65625 21.4446 8.95312 20.8821 8.39062C20.3196 7.82812 19.6165 7.53125 18.7727 7.5ZM14.2727 10.5C14.304 9.21875 14.7415 8.15625 15.5852 7.3125C16.429 6.46875 17.4915 6.03125 18.7727 6C20.054 6.03125 21.1165 6.46875 21.9602 7.3125C22.804 8.15625 23.2415 9.21875 23.2727 10.5V10.6875C23.2727 11.0625 23.1477 11.375 22.8977 11.625C22.6477 11.875 22.3352 12 21.9602 12H15.5852C15.2102 12 14.8977 11.875 14.6477 11.625C14.3977 11.375 14.2727 11.0625 14.2727 10.6875V10.5ZM8.50708 10.7344C8.85083 10.4219 9.19458 10.4219 9.53833 10.7344L13.2883 14.4375C14.1008 13.8438 15.054 13.5312 16.1477 13.5H21.3977C22.4915 13.5312 23.4446 13.8438 24.2571 14.4375L28.0071 10.7344C28.3508 10.4219 28.6946 10.4219 29.0383 10.7344C29.3508 11.0781 29.3508 11.4219 29.0383 11.7656L25.3352 15.5156C25.929 16.3281 26.2415 17.2812 26.2727 18.375V18.75H30.0227C30.4915 18.7812 30.7415 19.0312 30.7727 19.5C30.7415 19.9688 30.4915 20.2188 30.0227 20.25H26.2727V21C26.2415 22.4375 25.8821 23.7344 25.1946 24.8906L29.0383 28.7344C29.3508 29.0781 29.3508 29.4219 29.0383 29.7656C28.6946 30.0781 28.3508 30.0781 28.0071 29.7656L24.304 26.0625C22.8665 27.625 21.0227 28.4375 18.7727 28.5C16.5227 28.4375 14.679 27.625 13.2415 26.0625L9.53833 29.7656C9.19458 30.0781 8.85083 30.0781 8.50708 29.7656C8.19458 29.4219 8.19458 29.0781 8.50708 28.7344L12.3508 24.8906C11.6633 23.7344 11.304 22.4375 11.2727 21V20.25H7.52271C7.05396 20.2188 6.80396 19.9688 6.77271 19.5C6.80396 19.0312 7.05396 18.7812 7.52271 18.75H11.2727V18.375C11.304 17.2812 11.6165 16.3281 12.2102 15.5156L8.50708 11.7656C8.19458 11.4219 8.19458 11.0781 8.50708 10.7344ZM12.7727 21C12.804 22.5625 13.304 23.8906 14.2727 24.9844C15.2727 26.0781 16.5227 26.7344 18.0227 26.9531V18C18.054 17.5312 18.304 17.2812 18.7727 17.25C19.2415 17.2812 19.4915 17.5312 19.5227 18V26.9531C21.0227 26.7344 22.2727 26.0781 23.2727 24.9844C24.2415 23.8906 24.7415 22.5625 24.7727 21V19.5V18.375C24.7415 17.4062 24.4133 16.6094 23.7883 15.9844C23.1633 15.3594 22.3665 15.0312 21.3977 15H16.1477C15.179 15.0312 14.3821 15.3594 13.7571 15.9844C13.1321 16.6094 12.804 17.4062 12.7727 18.375V19.5V21Z" fill="#000000"/>
</svg>
