<svg width="36" height="36" viewBox="0 0 36 36" fill="none" xmlns="http://www.w3.org/2000/svg">
<path d="M12.75 6C13.2188 6.03125 13.4688 6.28125 13.5 6.75V9H22.5V6.75C22.5312 6.28125 22.7812 6.03125 23.25 6C23.7188 6.03125 23.9688 6.28125 24 6.75V9H25.5C26.3438 9.03125 27.0469 9.32812 27.6094 9.89062C28.1719 10.4531 28.4688 11.1562 28.5 12V13.5V15V27C28.4688 27.8438 28.1719 28.5469 27.6094 29.1094C27.0469 29.6719 26.3438 29.9688 25.5 30H10.5C9.65625 29.9688 8.95312 29.6719 8.39062 29.1094C7.82812 28.5469 7.53125 27.8438 7.5 27V15V13.5V12C7.53125 11.1562 7.82812 10.4531 8.39062 9.89062C8.95312 9.32812 9.65625 9.03125 10.5 9H12V6.75C12.0312 6.28125 12.2812 6.03125 12.75 6ZM27 15H22.125V18.375H27V15ZM27 19.875H22.125V23.625H27V19.875ZM27 25.125H22.125V28.5H25.5C25.9375 28.5 26.2969 28.3594 26.5781 28.0781C26.8594 27.7969 27 27.4375 27 27V25.125ZM20.625 23.625V19.875H15.375V23.625H20.625ZM15.375 25.125V28.5H20.625V25.125H15.375ZM13.875 23.625V19.875H9V23.625H13.875ZM9 25.125V27C9 27.4375 9.14062 27.7969 9.42188 28.0781C9.70312 28.3594 10.0625 28.5 10.5 28.5H13.875V25.125H9ZM9 18.375H13.875V15H9V18.375ZM15.375 18.375H20.625V15H15.375V18.375ZM25.5 10.5H10.5C10.0625 10.5 9.70312 10.6406 9.42188 10.9219C9.14062 11.2031 9 11.5625 9 12V13.5H27V12C27 11.5625 26.8594 11.2031 26.5781 10.9219C26.2969 10.6406 25.9375 10.5 25.5 10.5Z" fill="#000000"/>
</svg>
