<svg width="36" height="36" viewBox="0 0 36 36" fill="none" xmlns="http://www.w3.org/2000/svg">
<path d="M6 8.25C6.03125 7.625 6.25 7.09375 6.65625 6.65625C7.09375 6.25 7.625 6.03125 8.25 6H12.75C13.2188 6.03125 13.4688 6.28125 13.5 6.75C13.4688 7.21875 13.2188 7.46875 12.75 7.5H8.25C7.78125 7.53125 7.53125 7.78125 7.5 8.25V12.75C7.46875 13.2188 7.21875 13.4688 6.75 13.5C6.28125 13.4688 6.03125 13.2188 6 12.75V8.25ZM16.1719 10.5H19.8281C20.6719 10.5312 21.2656 10.9375 21.6094 11.7188L21.7031 12H22.875C23.625 12.0312 24.25 12.2812 24.75 12.75C25.2188 13.25 25.4688 13.875 25.5 14.625V21.375C25.4688 22.125 25.2188 22.75 24.75 23.25C24.25 23.7188 23.625 23.9688 22.875 24H13.125C12.375 23.9688 11.75 23.7188 11.25 23.25C10.7812 22.75 10.5312 22.125 10.5 21.375V14.625C10.5312 13.875 10.7812 13.25 11.25 12.75C11.75 12.2812 12.375 12.0312 13.125 12H14.2969L14.3906 11.7188C14.7344 10.9375 15.3281 10.5312 16.1719 10.5ZM15.7969 12.2344L15.5156 13.0312C15.3906 13.3438 15.1562 13.5 14.8125 13.5H13.125C12.4375 13.5625 12.0625 13.9375 12 14.625V21.375C12.0625 22.0625 12.4375 22.4375 13.125 22.5H22.875C23.5625 22.4375 23.9375 22.0625 24 21.375V14.625C23.9375 13.9375 23.5625 13.5625 22.875 13.5H21.1875C20.8438 13.4688 20.6094 13.3125 20.4844 13.0312L20.2031 12.2344C20.1406 12.0781 20.0156 12 19.8281 12H16.1719C15.9844 12 15.8594 12.0781 15.7969 12.2344ZM16.5 18C16.5 18.4375 16.6406 18.7969 16.9219 19.0781C17.2031 19.3594 17.5625 19.5 18 19.5C18.4375 19.5 18.7969 19.3594 19.0781 19.0781C19.3594 18.7969 19.5 18.4375 19.5 18C19.5 17.5625 19.3594 17.2031 19.0781 16.9219C18.7969 16.6406 18.4375 16.5 18 16.5C17.5625 16.5 17.2031 16.6406 16.9219 16.9219C16.6406 17.2031 16.5 17.5625 16.5 18ZM21 18C20.9688 19.125 20.4688 19.9844 19.5 20.5781C18.5 21.1406 17.5 21.1406 16.5 20.5781C15.5312 19.9844 15.0312 19.125 15 18C15.0312 16.875 15.5312 16.0156 16.5 15.4219C17.5 14.8594 18.5 14.8594 19.5 15.4219C20.4688 16.0156 20.9688 16.875 21 18ZM27.75 6C28.375 6.03125 28.9062 6.25 29.3438 6.65625C29.75 7.09375 29.9688 7.625 30 8.25V12.75C29.9688 13.2188 29.7188 13.4688 29.25 13.5C28.7812 13.4688 28.5312 13.2188 28.5 12.75V8.25C28.4688 7.78125 28.2188 7.53125 27.75 7.5H23.25C22.7812 7.46875 22.5312 7.21875 22.5 6.75C22.5312 6.28125 22.7812 6.03125 23.25 6H27.75ZM6 27.75V23.25C6.03125 22.7812 6.28125 22.5312 6.75 22.5C7.21875 22.5312 7.46875 22.7812 7.5 23.25V27.75C7.53125 28.2188 7.78125 28.4688 8.25 28.5H12.75C13.2188 28.5312 13.4688 28.7812 13.5 29.25C13.4688 29.7188 13.2188 29.9688 12.75 30H8.25C7.625 29.9688 7.09375 29.75 6.65625 29.3438C6.25 28.9062 6.03125 28.375 6 27.75ZM27.75 30H23.25C22.7812 29.9688 22.5312 29.7188 22.5 29.25C22.5312 28.7812 22.7812 28.5312 23.25 28.5H27.75C28.2188 28.4688 28.4688 28.2188 28.5 27.75V23.25C28.5312 22.7812 28.7812 22.5312 29.25 22.5C29.7188 22.5312 29.9688 22.7812 30 23.25V27.75C29.9688 28.375 29.75 28.9062 29.3438 29.3438C28.9062 29.75 28.375 29.9688 27.75 30Z" fill="#000000"/>
</svg>
