<svg width="36" height="36" viewBox="0 0 36 36" fill="none" xmlns="http://www.w3.org/2000/svg">
<path d="M22.4062 17.7188L17.0625 12.0938C17 12.0312 16.9219 12 16.8281 12C16.6406 12.0312 16.5312 12.1406 16.5 12.3281V23.6719C16.5312 23.8594 16.6406 23.9688 16.8281 24C16.9219 24 17 23.9688 17.0625 23.9062L22.4062 18.2812C22.4688 18.1875 22.5 18.0938 22.5 18C22.5 17.9062 22.4688 17.8125 22.4062 17.7188ZM23.4844 16.6875C23.8281 17.0625 24 17.5 24 18C24 18.5 23.8281 18.9375 23.4844 19.3125L18.1875 24.9375C17.8125 25.3125 17.3594 25.5 16.8281 25.5C16.2969 25.4688 15.8594 25.2812 15.5156 24.9375C15.1719 24.5938 15 24.1719 15 23.6719V12.3281C15 11.7969 15.1719 11.3594 15.5156 11.0156C15.8906 10.6719 16.3281 10.5 16.8281 10.5C17.3594 10.5 17.8125 10.6875 18.1875 11.0625L23.4844 16.6875Z" fill="#000000"/>
</svg>
