<svg width="36" height="36" viewBox="0 0 36 36" fill="none" xmlns="http://www.w3.org/2000/svg">
<path d="M18.2812 22.4062L23.9062 17.0625C23.9688 17 24 16.9219 24 16.8281C23.9688 16.6406 23.8594 16.5312 23.6719 16.5H12.3281C12.1406 16.5312 12.0312 16.6406 12 16.8281C12 16.9219 12.0312 17 12.0938 17.0625L17.7188 22.4062C17.8125 22.4688 17.9062 22.5 18 22.5C18.0938 22.5 18.1875 22.4688 18.2812 22.4062ZM19.3125 23.4844C18.9375 23.8281 18.5 24 18 24C17.5 24 17.0625 23.8281 16.6875 23.4844L11.0625 18.1875C10.6875 17.8125 10.5 17.3594 10.5 16.8281C10.5 16.2969 10.6719 15.8594 11.0156 15.5156C11.3594 15.1719 11.7969 15 12.3281 15H23.6719C24.2031 15.0312 24.6406 15.2188 24.9844 15.5625C25.3281 15.9062 25.5 16.3281 25.5 16.8281C25.5 17.3594 25.3125 17.8125 24.9375 18.1875L19.3125 23.4844Z" fill="#000000"/>
</svg>
