<svg width="36" height="36" viewBox="0 0 36 36" fill="none" xmlns="http://www.w3.org/2000/svg">
<path d="M13.5938 18.2812L18.9375 23.9062C19 23.9688 19.0781 24 19.1719 24C19.3594 23.9688 19.4688 23.8594 19.5 23.6719V12.3281C19.4688 12.1406 19.3594 12.0312 19.1719 12C19.0781 12 19 12.0312 18.9375 12.0938L13.5938 17.7188C13.5312 17.8125 13.5 17.9062 13.5 18C13.5 18.0938 13.5312 18.1875 13.5938 18.2812ZM12.5156 19.3125C12.1719 18.9375 12 18.5 12 18C12 17.5 12.1719 17.0625 12.5156 16.6875L17.8125 11.0625C18.1875 10.6875 18.6406 10.5 19.1719 10.5C19.6719 10.5312 20.0938 10.7188 20.4375 11.0625C20.7812 11.4062 20.9688 11.8281 21 12.3281V23.6719C20.9688 24.2031 20.7812 24.6406 20.4375 24.9844C20.0938 25.3281 19.6719 25.5 19.1719 25.5C18.6406 25.5 18.1875 25.3125 17.8125 24.9375L12.5156 19.3125Z" fill="#000000"/>
</svg>
