<svg width="36" height="36" viewBox="0 0 36 36" fill="none" xmlns="http://www.w3.org/2000/svg">
<path d="M17.7188 13.5938L12.0938 18.9375C12.0312 19 12 19.0781 12 19.1719C12.0312 19.3594 12.1406 19.4688 12.3281 19.5H23.6719C23.8594 19.4688 23.9688 19.3594 24 19.1719C24 19.0781 23.9688 19 23.9062 18.9375L18.2812 13.5938C18.1875 13.5312 18.0938 13.5 18 13.5C17.9062 13.5 17.8125 13.5312 17.7188 13.5938ZM16.6875 12.5156C17.0625 12.1719 17.5 12 18 12C18.5 12 18.9375 12.1719 19.3125 12.5156L24.9375 17.8594C25.3125 18.2031 25.5 18.6406 25.5 19.1719C25.5 19.7031 25.3281 20.1406 24.9844 20.4844C24.6406 20.8281 24.2031 21 23.6719 21H12.3281C11.7969 21 11.3594 20.8281 11.0156 20.4844C10.6719 20.1406 10.5 19.7031 10.5 19.1719C10.5 18.6406 10.6875 18.1875 11.0625 17.8125L16.6875 12.5156Z" fill="#000000"/>
</svg>
