<svg width="36" height="36" viewBox="0 0 36 36" fill="none" xmlns="http://www.w3.org/2000/svg">
<path d="M5.25 6H7.03125C8.0625 6.0625 8.76562 6.5625 9.14062 7.5H29.8125C30.3125 7.53125 30.7031 7.71875 30.9844 8.0625C31.2656 8.4375 31.3594 8.875 31.2656 9.375L29.2969 17.25C29.1094 17.9062 28.75 18.4375 28.2188 18.8438C27.6875 19.2812 27.0781 19.5 26.3906 19.5H11.625L12 21.2812C12.1875 22.0312 12.6719 22.4375 13.4531 22.5H27.75C28.2188 22.5312 28.4688 22.7812 28.5 23.25C28.4688 23.7188 28.2188 23.9688 27.75 24H13.4531C12.7344 24 12.1094 23.7812 11.5781 23.3438C11.0469 22.9062 10.7031 22.3281 10.5469 21.6094L7.78125 8.10938C7.65625 7.73438 7.40625 7.53125 7.03125 7.5H5.25C4.78125 7.46875 4.53125 7.21875 4.5 6.75C4.53125 6.28125 4.78125 6.03125 5.25 6ZM9.46875 9L11.2969 18H26.3906C27.1094 17.9688 27.5938 17.5938 27.8438 16.875L29.8125 9H9.46875ZM12.375 27.375C12.4375 28.0625 12.8125 28.4375 13.5 28.5C14.1875 28.4375 14.5625 28.0625 14.625 27.375C14.5625 26.6875 14.1875 26.3125 13.5 26.25C12.8125 26.3125 12.4375 26.6875 12.375 27.375ZM16.125 27.375C16.0938 28.375 15.6562 29.125 14.8125 29.625C13.9375 30.125 13.0625 30.125 12.1875 29.625C11.3438 29.125 10.9062 28.375 10.875 27.375C10.9062 26.375 11.3438 25.625 12.1875 25.125C13.0625 24.625 13.9375 24.625 14.8125 25.125C15.6562 25.625 16.0938 26.375 16.125 27.375ZM25.5 26.25C24.8125 26.3125 24.4375 26.6875 24.375 27.375C24.4375 28.0625 24.8125 28.4375 25.5 28.5C26.1875 28.4375 26.5625 28.0625 26.625 27.375C26.5625 26.6875 26.1875 26.3125 25.5 26.25ZM25.5 30C24.5 29.9688 23.75 29.5312 23.25 28.6875C22.75 27.8125 22.75 26.9375 23.25 26.0625C23.75 25.2188 24.5 24.7812 25.5 24.75C26.5 24.7812 27.25 25.2188 27.75 26.0625C28.25 26.9375 28.25 27.8125 27.75 28.6875C27.25 29.5312 26.5 29.9688 25.5 30Z" fill="#000000"/>
</svg>
