<svg width="37" height="36" viewBox="0 0 37 36" fill="none" xmlns="http://www.w3.org/2000/svg">
<path d="M4.52271 6H7.52271C8.14771 6.03125 8.67896 6.25 9.11646 6.65625C9.52271 7.09375 9.74146 7.625 9.77271 8.25V23.25C9.80396 23.7188 10.054 23.9688 10.5227 24H14.2727H27.7727H33.0227C33.4915 24.0312 33.7415 24.2812 33.7727 24.75C33.7415 25.2188 33.4915 25.4688 33.0227 25.5H30.3508C30.6321 25.9375 30.7727 26.4375 30.7727 27C30.7415 27.8438 30.4446 28.5469 29.8821 29.1094C29.3196 29.6719 28.6165 29.9688 27.7727 30C26.929 29.9688 26.2258 29.6719 25.6633 29.1094C25.1008 28.5469 24.804 27.8438 24.7727 27C24.7727 26.4375 24.9133 25.9375 25.1946 25.5H16.8508C17.1321 25.9375 17.2727 26.4375 17.2727 27C17.2415 27.8438 16.9446 28.5469 16.3821 29.1094C15.8196 29.6719 15.1165 29.9688 14.2727 30C13.429 29.9688 12.7258 29.6719 12.1633 29.1094C11.6008 28.5469 11.304 27.8438 11.2727 27C11.2727 26.4375 11.4133 25.9375 11.6946 25.5H10.5227C9.89771 25.4688 9.36646 25.25 8.92896 24.8438C8.52271 24.4062 8.30396 23.875 8.27271 23.25V8.25C8.24146 7.78125 7.99146 7.53125 7.52271 7.5H4.52271C4.05396 7.46875 3.80396 7.21875 3.77271 6.75C3.80396 6.28125 4.05396 6.03125 4.52271 6ZM29.2727 27C29.2727 26.5625 29.1321 26.2031 28.8508 25.9219C28.5696 25.6406 28.2102 25.5 27.7727 25.5C27.3352 25.5 26.9758 25.6406 26.6946 25.9219C26.4133 26.2031 26.2727 26.5625 26.2727 27C26.2727 27.4375 26.4133 27.7969 26.6946 28.0781C26.9758 28.3594 27.3352 28.5 27.7727 28.5C28.2102 28.5 28.5696 28.3594 28.8508 28.0781C29.1321 27.7969 29.2727 27.4375 29.2727 27ZM14.2727 28.5C14.7102 28.5 15.0696 28.3594 15.3508 28.0781C15.6321 27.7969 15.7727 27.4375 15.7727 27C15.7727 26.5625 15.6321 26.2031 15.3508 25.9219C15.0696 25.6406 14.7102 25.5 14.2727 25.5C13.8352 25.5 13.4758 25.6406 13.1946 25.9219C12.9133 26.2031 12.7727 26.5625 12.7727 27C12.7727 27.4375 12.9133 27.7969 13.1946 28.0781C13.4758 28.3594 13.8352 28.5 14.2727 28.5ZM14.2727 9V19.5H20.2727V9H14.2727ZM12.7727 9C12.7727 8.5625 12.9133 8.20312 13.1946 7.92188C13.4758 7.64062 13.8352 7.5 14.2727 7.5H20.2727C20.7102 7.5 21.0696 7.64062 21.3508 7.92188C21.6321 8.20312 21.7727 8.5625 21.7727 9V19.5C21.7727 19.9375 21.6321 20.2969 21.3508 20.5781C21.0696 20.8594 20.7102 21 20.2727 21H14.2727C13.8352 21 13.4758 20.8594 13.1946 20.5781C12.9133 20.2969 12.7727 19.9375 12.7727 19.5V9ZM27.7727 9H24.7727V12H27.7727V9ZM24.7727 7.5H27.7727C28.2102 7.5 28.5696 7.64062 28.8508 7.92188C29.1321 8.20312 29.2727 8.5625 29.2727 9V12C29.2727 12.4375 29.1321 12.7969 28.8508 13.0781C28.5696 13.3594 28.2102 13.5 27.7727 13.5H24.7727C24.3352 13.5 23.9758 13.3594 23.6946 13.0781C23.4133 12.7969 23.2727 12.4375 23.2727 12V9C23.2727 8.5625 23.4133 8.20312 23.6946 7.92188C23.9758 7.64062 24.3352 7.5 24.7727 7.5ZM24.7727 16.5V19.5H30.7727V16.5H24.7727ZM23.2727 16.5C23.2727 16.0625 23.4133 15.7031 23.6946 15.4219C23.9758 15.1406 24.3352 15 24.7727 15H30.7727C31.2102 15 31.5696 15.1406 31.8508 15.4219C32.1321 15.7031 32.2727 16.0625 32.2727 16.5V19.5C32.2727 19.9375 32.1321 20.2969 31.8508 20.5781C31.5696 20.8594 31.2102 21 30.7727 21H24.7727C24.3352 21 23.9758 20.8594 23.6946 20.5781C23.4133 20.2969 23.2727 19.9375 23.2727 19.5V16.5Z" fill="#000000"/>
</svg>
