<svg width="36" height="36" viewBox="0 0 36 36" fill="none" xmlns="http://www.w3.org/2000/svg">
<path d="M21 7.5H15C14.5625 7.5 14.2031 7.64062 13.9219 7.92188C13.6406 8.20312 13.5 8.5625 13.5 9V16.5H12V9C12.0312 8.15625 12.3281 7.45312 12.8906 6.89062C13.4531 6.32812 14.1562 6.03125 15 6H21C21.8438 6.03125 22.5469 6.32812 23.1094 6.89062C23.6719 7.45312 23.9688 8.15625 24 9V16.5H22.5V9C22.5 8.5625 22.3594 8.20312 22.0781 7.92188C21.7969 7.64062 21.4375 7.5 21 7.5ZM10.5 12.75V16.5C10.4688 16.9688 10.2188 17.2188 9.75 17.25C9.28125 17.2188 9.03125 16.9688 9 16.5V12.75C9.03125 12.2812 9.28125 12.0312 9.75 12C10.2188 12.0312 10.4688 12.2812 10.5 12.75ZM27 12.75V16.5C26.9688 16.9688 26.7188 17.2188 26.25 17.25C25.7812 17.2188 25.5312 16.9688 25.5 16.5V12.75C25.5312 12.2812 25.7812 12.0312 26.25 12C26.7188 12.0312 26.9688 12.2812 27 12.75ZM24 19.5H12L10.5 22.5H18H25.5L24 19.5ZM18.75 24V26.25H19.5C20.3438 26.2812 21.0469 26.5781 21.6094 27.1406C22.1719 27.7031 22.4688 28.4062 22.5 29.25C22.4688 29.7188 22.2188 29.9688 21.75 30C21.2812 29.9688 21.0312 29.7188 21 29.25C21 28.8125 20.8594 28.4531 20.5781 28.1719C20.2969 27.8906 19.9375 27.75 19.5 27.75H18.75V29.25C18.7188 29.7188 18.4688 29.9688 18 30C17.5312 29.9688 17.2812 29.7188 17.25 29.25V27.75H16.5C16.0625 27.75 15.7031 27.8906 15.4219 28.1719C15.1406 28.4531 15 28.8125 15 29.25C14.9688 29.7188 14.7188 29.9688 14.25 30C13.7812 29.9688 13.5312 29.7188 13.5 29.25C13.5312 28.4062 13.8281 27.7031 14.3906 27.1406C14.9531 26.5781 15.6562 26.2812 16.5 26.25H17.25V24H10.5C9.9375 23.9688 9.51562 23.7344 9.23438 23.2969C8.95312 22.8281 8.92188 22.3438 9.14062 21.8438L10.6406 18.8438C10.9531 18.3125 11.4062 18.0312 12 18H24C24.5938 18.0312 25.0469 18.3125 25.3594 18.8438L26.8594 21.8438C27.0781 22.3438 27.0469 22.8281 26.7656 23.2969C26.4844 23.7656 26.0625 24 25.5 24H18.75Z" fill="#000000"/>
</svg>
