<svg width="36" height="36" viewBox="0 0 36 36" fill="none" xmlns="http://www.w3.org/2000/svg">
<path d="M18.75 9H17.25C16.7812 9.03125 16.5312 9.28125 16.5 9.75V26.25C16.5312 26.7188 16.7812 26.9688 17.25 27H18.75C19.2188 26.9688 19.4688 26.7188 19.5 26.25V9.75C19.4688 9.28125 19.2188 9.03125 18.75 9ZM17.25 7.5H18.75C19.375 7.53125 19.9062 7.75 20.3438 8.15625C20.75 8.59375 20.9688 9.125 21 9.75V26.25C20.9688 26.875 20.75 27.4062 20.3438 27.8438C19.9062 28.25 19.375 28.4688 18.75 28.5H17.25C16.625 28.4688 16.0938 28.25 15.6562 27.8438C15.25 27.4062 15.0312 26.875 15 26.25V9.75C15.0312 9.125 15.25 8.59375 15.6562 8.15625C16.0938 7.75 16.625 7.53125 17.25 7.5ZM11.25 18H9.75C9.28125 18.0312 9.03125 18.2812 9 18.75V26.25C9.03125 26.7188 9.28125 26.9688 9.75 27H11.25C11.7188 26.9688 11.9688 26.7188 12 26.25V18.75C11.9688 18.2812 11.7188 18.0312 11.25 18ZM9.75 16.5H11.25C11.875 16.5312 12.4062 16.75 12.8438 17.1562C13.25 17.5938 13.4688 18.125 13.5 18.75V26.25C13.4688 26.875 13.25 27.4062 12.8438 27.8438C12.4062 28.25 11.875 28.4688 11.25 28.5H9.75C9.125 28.4688 8.59375 28.25 8.15625 27.8438C7.75 27.4062 7.53125 26.875 7.5 26.25V18.75C7.53125 18.125 7.75 17.5938 8.15625 17.1562C8.59375 16.75 9.125 16.5312 9.75 16.5ZM24.75 12C24.2812 12.0312 24.0312 12.2812 24 12.75V26.25C24.0312 26.7188 24.2812 26.9688 24.75 27H26.25C26.7188 26.9688 26.9688 26.7188 27 26.25V12.75C26.9688 12.2812 26.7188 12.0312 26.25 12H24.75ZM22.5 12.75C22.5312 12.125 22.75 11.5938 23.1562 11.1562C23.5938 10.75 24.125 10.5312 24.75 10.5H26.25C26.875 10.5312 27.4062 10.75 27.8438 11.1562C28.25 11.5938 28.4688 12.125 28.5 12.75V26.25C28.4688 26.875 28.25 27.4062 27.8438 27.8438C27.4062 28.25 26.875 28.4688 26.25 28.5H24.75C24.125 28.4688 23.5938 28.25 23.1562 27.8438C22.75 27.4062 22.5312 26.875 22.5 26.25V12.75Z" fill="#000000"/>
</svg>
