<svg width="37" height="36" viewBox="0 0 37 36" fill="none" xmlns="http://www.w3.org/2000/svg">
<path d="M7.52271 7.5C7.99146 7.53125 8.24146 7.78125 8.27271 8.25V24.75C8.30396 25.375 8.52271 25.9062 8.92896 26.3438C9.36646 26.75 9.89771 26.9688 10.5227 27H30.0227C30.4915 27.0312 30.7415 27.2812 30.7727 27.75C30.7415 28.2188 30.4915 28.4688 30.0227 28.5H10.5227C9.46021 28.4688 8.56958 28.1094 7.85083 27.4219C7.16333 26.7031 6.80396 25.8125 6.77271 24.75V8.25C6.80396 7.78125 7.05396 7.53125 7.52271 7.5ZM13.5227 18C13.9915 18.0312 14.2415 18.2812 14.2727 18.75V23.25C14.2415 23.7188 13.9915 23.9688 13.5227 24C13.054 23.9688 12.804 23.7188 12.7727 23.25V18.75C12.804 18.2812 13.054 18.0312 13.5227 18ZM18.7727 12.75V23.25C18.7415 23.7188 18.4915 23.9688 18.0227 24C17.554 23.9688 17.304 23.7188 17.2727 23.25V12.75C17.304 12.2812 17.554 12.0312 18.0227 12C18.4915 12.0312 18.7415 12.2812 18.7727 12.75ZM22.5227 15C22.9915 15.0312 23.2415 15.2812 23.2727 15.75V23.25C23.2415 23.7188 22.9915 23.9688 22.5227 24C22.054 23.9688 21.804 23.7188 21.7727 23.25V15.75C21.804 15.2812 22.054 15.0312 22.5227 15ZM27.7727 11.25V23.25C27.7415 23.7188 27.4915 23.9688 27.0227 24C26.554 23.9688 26.304 23.7188 26.2727 23.25V11.25C26.304 10.7812 26.554 10.5312 27.0227 10.5C27.4915 10.5312 27.7415 10.7812 27.7727 11.25Z" fill="#000000"/>
</svg>
