<svg width="37" height="36" viewBox="0 0 37 36" fill="none" xmlns="http://www.w3.org/2000/svg">
<path d="M26.0852 25.5469C27.0852 24.5781 27.8665 23.4531 28.429 22.1719C28.9915 20.8906 29.2727 19.5 29.2727 18C29.2415 16.0312 28.7571 14.2656 27.8196 12.7031C26.9133 11.1094 25.6633 9.85938 24.0696 8.95312C22.5071 8.01562 20.7415 7.53125 18.7727 7.5C16.804 7.53125 15.0383 8.01562 13.4758 8.95312C11.8821 9.85938 10.6321 11.1094 9.72583 12.7031C8.78833 14.2656 8.30396 16.0312 8.27271 18C8.27271 19.5 8.55396 20.8906 9.11646 22.1719C9.67896 23.4531 10.4602 24.5781 11.4602 25.5469C11.804 24.2031 12.5071 23.1094 13.5696 22.2656C14.6008 21.4531 15.8352 21.0312 17.2727 21H20.2727C21.7102 21.0312 22.9446 21.4531 23.9758 22.2656C25.0383 23.1094 25.7415 24.2031 26.0852 25.5469ZM24.7727 26.625C24.6477 25.4375 24.1633 24.4688 23.3196 23.7188C22.5071 22.9375 21.4915 22.5312 20.2727 22.5H17.2727C16.054 22.5312 15.0383 22.9375 14.2258 23.7188C13.3821 24.4688 12.8977 25.4375 12.7727 26.625C14.5227 27.8438 16.5227 28.4688 18.7727 28.5C21.0227 28.4688 23.0227 27.8438 24.7727 26.625ZM18.7727 30C16.5852 29.9688 14.5852 29.4375 12.7727 28.4062C10.9602 27.3438 9.49146 25.875 8.36646 24C7.30396 22.0938 6.77271 20.0938 6.77271 18C6.77271 15.9062 7.30396 13.9062 8.36646 12C9.49146 10.125 10.9602 8.65625 12.7727 7.59375C14.5852 6.5625 16.5852 6.03125 18.7727 6C20.9602 6.03125 22.9602 6.5625 24.7727 7.59375C26.5852 8.65625 28.054 10.125 29.179 12C30.2415 13.9062 30.7727 15.9062 30.7727 18C30.7727 20.0938 30.2415 22.0938 29.179 24C28.054 25.875 26.5852 27.3438 24.7727 28.4062C22.9602 29.4375 20.9602 29.9688 18.7727 30ZM18.7727 18C19.6165 17.9688 20.2727 17.5938 20.7415 16.875C21.1165 16.125 21.1165 15.375 20.7415 14.625C20.2727 13.9062 19.6165 13.5312 18.7727 13.5C17.929 13.5312 17.2727 13.9062 16.804 14.625C16.429 15.375 16.429 16.125 16.804 16.875C17.2727 17.5938 17.929 17.9688 18.7727 18ZM15.0227 15.75C15.054 14.3438 15.679 13.2656 16.8977 12.5156C18.1477 11.8281 19.3977 11.8281 20.6477 12.5156C21.8665 13.2656 22.4915 14.3438 22.5227 15.75C22.4915 17.1562 21.8665 18.2344 20.6477 18.9844C19.3977 19.6719 18.1477 19.6719 16.8977 18.9844C15.679 18.2344 15.054 17.1562 15.0227 15.75Z" fill="#000000"/>
</svg>
