<svg width="36" height="36" viewBox="0 0 36 36" fill="none" xmlns="http://www.w3.org/2000/svg">
<path d="M18 7.5C16.0938 7.53125 14.3438 8 12.75 8.90625C11.1562 9.84375 9.875 11.125 8.90625 12.75C7.96875 14.4062 7.5 16.1562 7.5 18C7.5 19.8438 7.96875 21.5938 8.90625 23.25C9.875 24.875 11.1562 26.1562 12.75 27.0938C14.3438 28 16.0938 28.4688 18 28.5C19.9062 28.4688 21.6562 28 23.25 27.0938C24.8438 26.1562 26.125 24.875 27.0938 23.25C28.0312 21.5938 28.5 19.8438 28.5 18C28.5 16.1562 28.0312 14.4062 27.0938 12.75C26.125 11.125 24.8438 9.84375 23.25 8.90625C21.6562 8 19.9062 7.53125 18 7.5ZM18 30C15.8125 29.9688 13.8125 29.4375 12 28.4062C10.1875 27.3438 8.71875 25.875 7.59375 24C6.53125 22.0938 6 20.0938 6 18C6 15.9062 6.53125 13.9062 7.59375 12C8.71875 10.125 10.1875 8.65625 12 7.59375C13.8125 6.5625 15.8125 6.03125 18 6C20.1875 6.03125 22.1875 6.5625 24 7.59375C25.8125 8.65625 27.2812 10.125 28.4062 12C29.4688 13.9062 30 15.9062 30 18C30 20.0938 29.4688 22.0938 28.4062 24C27.2812 25.875 25.8125 27.3438 24 28.4062C22.1875 29.4375 20.1875 29.9688 18 30ZM18 12C18.4688 12.0312 18.7188 12.2812 18.75 12.75V18.75C18.7188 19.2188 18.4688 19.4688 18 19.5C17.5312 19.4688 17.2812 19.2188 17.25 18.75V12.75C17.2812 12.2812 17.5312 12.0312 18 12ZM19.125 22.5C19.0625 23.1875 18.6875 23.5625 18 23.625C17.3125 23.5625 16.9375 23.1875 16.875 22.5C16.9375 21.8125 17.3125 21.4375 18 21.375C18.6875 21.4375 19.0625 21.8125 19.125 22.5Z" fill="#000000"/>
</svg>
