<svg width="36" height="36" viewBox="0 0 36 36" fill="none" xmlns="http://www.w3.org/2000/svg">
<path d="M28.5 18C28.4688 16.0938 28 14.3438 27.0938 12.75C26.1562 11.1562 24.875 9.875 23.25 8.90625C21.5938 7.96875 19.8438 7.5 18 7.5C16.1562 7.5 14.4062 7.96875 12.75 8.90625C11.125 9.875 9.84375 11.1562 8.90625 12.75C8 14.3438 7.53125 16.0938 7.5 18C7.53125 19.9062 8 21.6562 8.90625 23.25C9.84375 24.8438 11.125 26.125 12.75 27.0938C14.4062 28.0312 16.1562 28.5 18 28.5C19.8438 28.5 21.5938 28.0312 23.25 27.0938C24.875 26.125 26.1562 24.8438 27.0938 23.25C28 21.6562 28.4688 19.9062 28.5 18ZM6 18C6.03125 15.8125 6.5625 13.8125 7.59375 12C8.65625 10.1875 10.125 8.71875 12 7.59375C13.9062 6.53125 15.9062 6 18 6C20.0938 6 22.0938 6.53125 24 7.59375C25.875 8.71875 27.3438 10.1875 28.4062 12C29.4375 13.8125 29.9688 15.8125 30 18C29.9688 20.1875 29.4375 22.1875 28.4062 24C27.3438 25.8125 25.875 27.2812 24 28.4062C22.0938 29.4688 20.0938 30 18 30C15.9062 30 13.9062 29.4688 12 28.4062C10.125 27.2812 8.65625 25.8125 7.59375 24C6.5625 22.1875 6.03125 20.1875 6 18ZM13.9219 13.9688C14.0781 13.375 14.3906 12.9062 14.8594 12.5625C15.2969 12.1875 15.8281 12 16.4531 12H19.125C19.9688 12.0312 20.6719 12.3281 21.2344 12.8906C21.7969 13.4531 22.0938 14.1562 22.125 15C22.0938 16.2188 21.5469 17.125 20.4844 17.7188L18.75 18.5625V19.5C18.7188 19.9688 18.4688 20.2188 18 20.25C17.5312 20.2188 17.2812 19.9688 17.25 19.5V18.1406C17.25 17.8281 17.3906 17.5938 17.6719 17.4375L19.8281 16.3594C20.3281 16.0469 20.5938 15.5938 20.625 15C20.625 14.5625 20.4844 14.2031 20.2031 13.9219C19.9219 13.6406 19.5625 13.5 19.125 13.5H16.4531C15.8906 13.5312 15.5312 13.8125 15.375 14.3438C15.1875 14.7812 14.875 14.9688 14.4375 14.9062C14 14.75 13.8281 14.4375 13.9219 13.9688ZM16.875 22.5C16.9375 21.8125 17.3125 21.4375 18 21.375C18.6875 21.4375 19.0625 21.8125 19.125 22.5C19.0625 23.1875 18.6875 23.5625 18 23.625C17.3125 23.5625 16.9375 23.1875 16.875 22.5Z" fill="#000000"/>
</svg>
