<svg width="37" height="36" viewBox="0 0 37 36" fill="none" xmlns="http://www.w3.org/2000/svg">
<path d="M18.7727 7.5C16.8665 7.53125 15.1165 8 13.5227 8.90625C11.929 9.84375 10.6477 11.125 9.67896 12.75C8.74146 14.4062 8.27271 16.1562 8.27271 18C8.27271 19.8438 8.74146 21.5938 9.67896 23.25C10.6477 24.875 11.929 26.1562 13.5227 27.0938C15.1165 28 16.8665 28.4688 18.7727 28.5C20.679 28.4688 22.429 28 24.0227 27.0938C25.6165 26.1562 26.8977 24.875 27.8665 23.25C28.804 21.5938 29.2727 19.8438 29.2727 18C29.2727 16.1562 28.804 14.4062 27.8665 12.75C26.8977 11.125 25.6165 9.84375 24.0227 8.90625C22.429 8 20.679 7.53125 18.7727 7.5ZM18.7727 30C16.5852 29.9688 14.5852 29.4375 12.7727 28.4062C10.9602 27.3438 9.49146 25.875 8.36646 24C7.30396 22.0938 6.77271 20.0938 6.77271 18C6.77271 15.9062 7.30396 13.9062 8.36646 12C9.49146 10.125 10.9602 8.65625 12.7727 7.59375C14.5852 6.5625 16.5852 6.03125 18.7727 6C20.9602 6.03125 22.9602 6.5625 24.7727 7.59375C26.5852 8.65625 28.054 10.125 29.179 12C30.2415 13.9062 30.7727 15.9062 30.7727 18C30.7727 20.0938 30.2415 22.0938 29.179 24C28.054 25.875 26.5852 27.3438 24.7727 28.4062C22.9602 29.4375 20.9602 29.9688 18.7727 30ZM14.2727 17.25H23.2727C23.7415 17.2812 23.9915 17.5312 24.0227 18C23.9915 18.4688 23.7415 18.7188 23.2727 18.75H14.2727C13.804 18.7188 13.554 18.4688 13.5227 18C13.554 17.5312 13.804 17.2812 14.2727 17.25Z" fill="#000000"/>
</svg>
