<svg width="36" height="36" viewBox="0 0 36 36" fill="none" xmlns="http://www.w3.org/2000/svg">
<path d="M15.8438 9.1875C15.7188 9.53125 15.4688 9.71875 15.0938 9.75H14.25C13.7812 9.78125 13.5312 10.0312 13.5 10.5V12H18H22.5V10.5C22.4688 10.0312 22.2188 9.78125 21.75 9.75H20.9062C20.5312 9.71875 20.2969 9.53125 20.2031 9.1875C20.0469 8.6875 19.7812 8.28125 19.4062 7.96875C19 7.65625 18.5312 7.5 18 7.5C17.4688 7.5 17 7.65625 16.5938 7.96875C16.2188 8.28125 15.9688 8.6875 15.8438 9.1875ZM18 6C18.7812 6 19.4688 6.20312 20.0625 6.60938C20.6875 7.01563 21.1406 7.5625 21.4219 8.25H21.75C22.7812 8.3125 23.4844 8.8125 23.8594 9.75H24C24.8438 9.78125 25.5469 10.0781 26.1094 10.6406C26.6719 11.2031 26.9688 11.9062 27 12.75V27C26.9688 27.8438 26.6719 28.5469 26.1094 29.1094C25.5469 29.6719 24.8438 29.9688 24 30H12C11.1562 29.9688 10.4531 29.6719 9.89062 29.1094C9.32812 28.5469 9.03125 27.8438 9 27V12.75C9.03125 11.9062 9.32812 11.2031 9.89062 10.6406C10.4531 10.0781 11.1562 9.78125 12 9.75H12.1406C12.5156 8.8125 13.2188 8.3125 14.25 8.25H14.5781C14.8594 7.5625 15.3125 7.01563 15.9375 6.60938C16.5312 6.20312 17.2188 6 18 6ZM24 11.25V12C24 12.4375 23.8594 12.7969 23.5781 13.0781C23.2969 13.3594 22.9375 13.5 22.5 13.5H18H13.5C13.0625 13.5 12.7031 13.3594 12.4219 13.0781C12.1406 12.7969 12 12.4375 12 12V11.25C11.5625 11.25 11.2031 11.3906 10.9219 11.6719C10.6406 11.9531 10.5 12.3125 10.5 12.75V27C10.5 27.4375 10.6406 27.7969 10.9219 28.0781C11.2031 28.3594 11.5625 28.5 12 28.5H24C24.4375 28.5 24.7969 28.3594 25.0781 28.0781C25.3594 27.7969 25.5 27.4375 25.5 27V12.75C25.5 12.3125 25.3594 11.9531 25.0781 11.6719C24.7969 11.3906 24.4375 11.25 24 11.25ZM18.75 9.75C18.7188 10.2188 18.4688 10.4688 18 10.5C17.5312 10.4688 17.2812 10.2188 17.25 9.75C17.2812 9.28125 17.5312 9.03125 18 9C18.4688 9.03125 18.7188 9.28125 18.75 9.75ZM15.375 18.75C15.3125 19.4375 14.9375 19.8125 14.25 19.875C13.5625 19.8125 13.1875 19.4375 13.125 18.75C13.1875 18.0625 13.5625 17.6875 14.25 17.625C14.9375 17.6875 15.3125 18.0625 15.375 18.75ZM17.25 18H21.75C22.2188 18.0312 22.4688 18.2812 22.5 18.75C22.4688 19.2188 22.2188 19.4688 21.75 19.5H17.25C16.7812 19.4688 16.5312 19.2188 16.5 18.75C16.5312 18.2812 16.7812 18.0312 17.25 18ZM17.25 22.5H21.75C22.2188 22.5312 22.4688 22.7812 22.5 23.25C22.4688 23.7188 22.2188 23.9688 21.75 24H17.25C16.7812 23.9688 16.5312 23.7188 16.5 23.25C16.5312 22.7812 16.7812 22.5312 17.25 22.5ZM14.25 24.375C13.5625 24.3125 13.1875 23.9375 13.125 23.25C13.1875 22.5625 13.5625 22.1875 14.25 22.125C14.9375 22.1875 15.3125 22.5625 15.375 23.25C15.3125 23.9375 14.9375 24.3125 14.25 24.375Z" fill="#000000"/>
</svg>
