<svg width="36" height="36" viewBox="0 0 36 36" fill="none" xmlns="http://www.w3.org/2000/svg">
<path d="M28.5 18C28.4688 16.0938 28 14.3438 27.0938 12.75C26.1562 11.1562 24.875 9.875 23.25 8.90625C21.5938 7.96875 19.8438 7.5 18 7.5C16.1562 7.5 14.4062 7.96875 12.75 8.90625C11.125 9.875 9.84375 11.1562 8.90625 12.75C8 14.3438 7.53125 16.0938 7.5 18C7.53125 19.9062 8 21.6562 8.90625 23.25C9.84375 24.8438 11.125 26.125 12.75 27.0938C14.4062 28.0312 16.1562 28.5 18 28.5C19.8438 28.5 21.5938 28.0312 23.25 27.0938C24.875 26.125 26.1562 24.8438 27.0938 23.25C28 21.6562 28.4688 19.9062 28.5 18ZM6 18C6.03125 15.8125 6.5625 13.8125 7.59375 12C8.65625 10.1875 10.125 8.71875 12 7.59375C13.9062 6.53125 15.9062 6 18 6C20.0938 6 22.0938 6.53125 24 7.59375C25.875 8.71875 27.3438 10.1875 28.4062 12C29.4375 13.8125 29.9688 15.8125 30 18C29.9688 20.1875 29.4375 22.1875 28.4062 24C27.3438 25.8125 25.875 27.2812 24 28.4062C22.0938 29.4688 20.0938 30 18 30C15.9062 30 13.9062 29.4688 12 28.4062C10.125 27.2812 8.65625 25.8125 7.59375 24C6.5625 22.1875 6.03125 20.1875 6 18ZM17.25 11.25C17.2812 10.7812 17.5312 10.5312 18 10.5C18.4688 10.5312 18.7188 10.7812 18.75 11.25V17.5781L22.9219 20.3906C23.2656 20.6719 23.3281 21.0156 23.1094 21.4219C22.8281 21.7656 22.4844 21.8281 22.0781 21.6094L17.5781 18.6094C17.3594 18.4531 17.25 18.25 17.25 18V11.25Z" fill="#000000"/>
</svg>
