<svg width="36" height="36" viewBox="0 0 36 36" fill="none" xmlns="http://www.w3.org/2000/svg">
<path d="M18 9C14.9062 9.0625 12.3906 9.90625 10.4531 11.5312C8.54688 13.125 7.5625 15.0312 7.5 17.25C7.5625 19 8.1875 20.5625 9.375 21.9375C9.625 22.25 9.73438 22.625 9.70312 23.0625C9.57812 24.3125 9.1875 25.5 8.53125 26.625C8.5 26.6562 8.48438 26.6875 8.48438 26.7188C8.45312 26.7188 8.4375 26.7344 8.4375 26.7656C8.96875 26.6094 9.48438 26.4219 9.98438 26.2031L10.2656 26.9062L9.98438 26.2031C10.7656 25.8594 11.5156 25.4375 12.2344 24.9375C12.6719 24.6562 13.125 24.5938 13.5938 24.75C15.0312 25.25 16.5 25.5 18 25.5C21.0938 25.4375 23.6094 24.5938 25.5469 22.9688C27.4531 21.375 28.4375 19.4688 28.5 17.25C28.4375 15.0312 27.4531 13.125 25.5469 11.5312C23.6094 9.90625 21.0938 9.0625 18 9ZM6 17.25C6.03125 15.4375 6.57812 13.7969 7.64062 12.3281C8.70312 10.8594 10.1406 9.6875 11.9531 8.8125C13.7344 7.96875 15.75 7.53125 18 7.5C20.25 7.53125 22.2656 7.96875 24.0469 8.8125C25.8594 9.6875 27.2969 10.8594 28.3594 12.3281C29.4219 13.7969 29.9688 15.4375 30 17.25C29.9688 19.0625 29.4219 20.7031 28.3594 22.1719C27.2969 23.6406 25.8594 24.8125 24.0469 25.6875C22.2656 26.5312 20.25 26.9688 18 27C16.3125 26.9688 14.6875 26.6875 13.125 26.1562C12.3125 26.7188 11.4688 27.2031 10.5938 27.6094C9.40625 28.1406 8.125 28.4375 6.75 28.5C6.4375 28.5 6.20312 28.3438 6.04688 28.0312C5.95312 27.75 6.01562 27.4844 6.23438 27.2344C6.60938 26.8281 6.9375 26.375 7.21875 25.875C7.78125 24.9375 8.125 23.9531 8.25 22.9219C6.84375 21.3281 6.09375 19.4375 6 17.25Z" fill="#000000"/>
</svg>
