<svg width="37" height="36" viewBox="0 0 37 36" fill="none" xmlns="http://www.w3.org/2000/svg">
<path d="M8.27271 9C7.83521 9 7.47583 9.14062 7.19458 9.42188C6.91333 9.70312 6.77271 10.0625 6.77271 10.5V12H30.7727V10.5C30.7727 10.0625 30.6321 9.70312 30.3508 9.42188C30.0696 9.14062 29.7102 9 29.2727 9H8.27271ZM6.77271 13.5V16.5H30.7727V13.5H6.77271ZM6.77271 18V25.5C6.77271 25.9375 6.91333 26.2969 7.19458 26.5781C7.47583 26.8594 7.83521 27 8.27271 27H29.2727C29.7102 27 30.0696 26.8594 30.3508 26.5781C30.6321 26.2969 30.7727 25.9375 30.7727 25.5V18H6.77271ZM5.27271 10.5C5.30396 9.65625 5.60083 8.95312 6.16333 8.39062C6.72583 7.82812 7.42896 7.53125 8.27271 7.5H29.2727C30.1165 7.53125 30.8196 7.82812 31.3821 8.39062C31.9446 8.95312 32.2415 9.65625 32.2727 10.5V25.5C32.2415 26.3438 31.9446 27.0469 31.3821 27.6094C30.8196 28.1719 30.1165 28.4688 29.2727 28.5H8.27271C7.42896 28.4688 6.72583 28.1719 6.16333 27.6094C5.60083 27.0469 5.30396 26.3438 5.27271 25.5V10.5ZM9.77271 23.25C9.80396 22.7812 10.054 22.5312 10.5227 22.5H13.5227C13.9915 22.5312 14.2415 22.7812 14.2727 23.25C14.2415 23.7188 13.9915 23.9688 13.5227 24H10.5227C10.054 23.9688 9.80396 23.7188 9.77271 23.25ZM15.7727 23.25C15.804 22.7812 16.054 22.5312 16.5227 22.5H22.5227C22.9915 22.5312 23.2415 22.7812 23.2727 23.25C23.2415 23.7188 22.9915 23.9688 22.5227 24H16.5227C16.054 23.9688 15.804 23.7188 15.7727 23.25Z" fill="#000000"/>
</svg>
