<svg width="37" height="36" viewBox="0 0 37 36" fill="none" xmlns="http://www.w3.org/2000/svg">
<path d="M18.7727 6C19.2415 6.03125 19.4915 6.28125 19.5227 6.75V8.29688C21.9602 8.51562 24.0071 9.45312 25.6633 11.1094C27.3196 12.7656 28.2571 14.8125 28.4758 17.25H30.0227C30.4915 17.2812 30.7415 17.5312 30.7727 18C30.7415 18.4688 30.4915 18.7188 30.0227 18.75H28.4758C28.2571 21.1875 27.3196 23.2344 25.6633 24.8906C24.0071 26.5469 21.9602 27.4844 19.5227 27.7031V29.25C19.4915 29.7188 19.2415 29.9688 18.7727 30C18.304 29.9688 18.054 29.7188 18.0227 29.25V27.7031C15.5852 27.4844 13.5383 26.5469 11.8821 24.8906C10.2258 23.2344 9.28833 21.1875 9.06958 18.75H7.52271C7.05396 18.7188 6.80396 18.4688 6.77271 18C6.80396 17.5312 7.05396 17.2812 7.52271 17.25H9.06958C9.28833 14.8125 10.2258 12.7656 11.8821 11.1094C13.5383 9.45312 15.5852 8.51562 18.0227 8.29688V6.75C18.054 6.28125 18.304 6.03125 18.7727 6ZM10.5696 18.75C10.7883 20.7812 11.5852 22.4688 12.9602 23.8125C14.304 25.1875 15.9915 25.9844 18.0227 26.2031V24C18.054 23.5312 18.304 23.2812 18.7727 23.25C19.2415 23.2812 19.4915 23.5312 19.5227 24V26.2031C21.554 25.9844 23.2415 25.1875 24.5852 23.8125C25.9602 22.4688 26.7571 20.7812 26.9758 18.75H24.7727C24.304 18.7188 24.054 18.4688 24.0227 18C24.054 17.5312 24.304 17.2812 24.7727 17.25H26.9758C26.7571 15.2188 25.9602 13.5312 24.5852 12.1875C23.2415 10.8125 21.554 10.0156 19.5227 9.79688V12C19.4915 12.4688 19.2415 12.7188 18.7727 12.75C18.304 12.7188 18.054 12.4688 18.0227 12V9.79688C15.9915 10.0156 14.304 10.8125 12.9602 12.1875C11.5852 13.5312 10.7883 15.2188 10.5696 17.25H12.7727C13.2415 17.2812 13.4915 17.5312 13.5227 18C13.4915 18.4688 13.2415 18.7188 12.7727 18.75H10.5696ZM18.7727 16.875C19.4602 16.9375 19.8352 17.3125 19.8977 18C19.8352 18.6875 19.4602 19.0625 18.7727 19.125C18.0852 19.0625 17.7102 18.6875 17.6477 18C17.7102 17.3125 18.0852 16.9375 18.7727 16.875Z" fill="#000000"/>
</svg>
