<svg width="37" height="36" viewBox="0 0 37 36" fill="none" xmlns="http://www.w3.org/2000/svg">
<path d="M27.7727 9.75C27.7727 9.71875 27.679 9.60938 27.4915 9.42188C27.1477 9.14062 26.554 8.84375 25.7102 8.53125C23.929 7.875 21.6165 7.53125 18.7727 7.5C15.929 7.53125 13.6165 7.875 11.8352 8.53125C10.9915 8.84375 10.3977 9.14062 10.054 9.42188C9.86646 9.60938 9.77271 9.71875 9.77271 9.75V14.5312C10.4602 15.0312 11.5383 15.4688 13.0071 15.8438C14.6633 16.2812 16.5852 16.5 18.7727 16.5C20.9602 16.5 22.8821 16.2812 24.5383 15.8438C26.0071 15.4688 27.0852 15.0312 27.7727 14.5312V9.75ZM27.7727 16.3125C26.9602 16.7188 26.0071 17.0625 24.9133 17.3438C23.1008 17.7812 21.054 18 18.7727 18C16.4915 18 14.4446 17.7656 12.6321 17.2969C11.5383 17.0469 10.5852 16.7188 9.77271 16.3125V20.5312C10.4602 21.0625 11.5383 21.5 13.0071 21.8438C14.6633 22.2812 16.5852 22.5 18.7727 22.5C20.9602 22.5 22.8821 22.2812 24.5383 21.8438C26.0071 21.4688 27.0852 21.0312 27.7727 20.5312V16.3125ZM9.77271 26.25C9.77271 26.2812 9.86646 26.3906 10.054 26.5781C10.3977 26.8594 10.9915 27.1562 11.8352 27.4688C13.6165 28.125 15.929 28.4688 18.7727 28.5C21.6165 28.4688 23.929 28.125 25.7102 27.4688C26.554 27.1562 27.1477 26.8594 27.4915 26.5781C27.679 26.3906 27.7727 26.2812 27.7727 26.25V22.3125C26.9602 22.7188 26.0071 23.0625 24.9133 23.3438C23.1008 23.7812 21.054 24 18.7727 24C16.4915 24 14.4446 23.7812 12.6321 23.3438C11.5383 23.0625 10.5852 22.7188 9.77271 22.3125V26.25ZM9.77271 9.79688C9.77271 9.76562 9.77271 9.76562 9.77271 9.79688V9.79688ZM29.2727 26.25C29.2102 27.3125 28.179 28.2031 26.179 28.9219C24.2102 29.6094 21.7415 29.9688 18.7727 30C15.804 29.9688 13.3352 29.6094 11.3665 28.9219C9.36646 28.2031 8.33521 27.3125 8.27271 26.25V9.75C8.33521 8.6875 9.36646 7.79687 11.3665 7.07812C13.3352 6.39062 15.804 6.03125 18.7727 6C21.7415 6.03125 24.2102 6.39062 26.179 7.07812C28.179 7.79687 29.2102 8.6875 29.2727 9.75V26.25Z" fill="#000000"/>
</svg>
