<svg width="36" height="36" viewBox="0 0 36 36" fill="none" xmlns="http://www.w3.org/2000/svg">
<path d="M27 18C27 18.4375 26.8594 18.7969 26.5781 19.0781C26.2969 19.3594 25.9375 19.5 25.5 19.5C25.0625 19.5 24.7031 19.3594 24.4219 19.0781C24.1406 18.7969 24 18.4375 24 18C24 17.5625 24.1406 17.2031 24.4219 16.9219C24.7031 16.6406 25.0625 16.5 25.5 16.5C25.9375 16.5 26.2969 16.6406 26.5781 16.9219C26.8594 17.2031 27 17.5625 27 18ZM19.5 18C19.5 18.4375 19.3594 18.7969 19.0781 19.0781C18.7969 19.3594 18.4375 19.5 18 19.5C17.5625 19.5 17.2031 19.3594 16.9219 19.0781C16.6406 18.7969 16.5 18.4375 16.5 18C16.5 17.5625 16.6406 17.2031 16.9219 16.9219C17.2031 16.6406 17.5625 16.5 18 16.5C18.4375 16.5 18.7969 16.6406 19.0781 16.9219C19.3594 17.2031 19.5 17.5625 19.5 18ZM10.5 19.5C10.0625 19.5 9.70312 19.3594 9.42188 19.0781C9.14062 18.7969 9 18.4375 9 18C9 17.5625 9.14062 17.2031 9.42188 16.9219C9.70312 16.6406 10.0625 16.5 10.5 16.5C10.9375 16.5 11.2969 16.6406 11.5781 16.9219C11.8594 17.2031 12 17.5625 12 18C12 18.4375 11.8594 18.7969 11.5781 19.0781C11.2969 19.3594 10.9375 19.5 10.5 19.5Z" fill="#000000"/>
</svg>
