<svg width="36" height="36" viewBox="0 0 36 36" fill="none" xmlns="http://www.w3.org/2000/svg">
<path d="M18 24C18.4375 24 18.7969 24.1406 19.0781 24.4219C19.3594 24.7031 19.5 25.0625 19.5 25.5C19.5 25.9375 19.3594 26.2969 19.0781 26.5781C18.7969 26.8594 18.4375 27 18 27C17.5625 27 17.2031 26.8594 16.9219 26.5781C16.6406 26.2969 16.5 25.9375 16.5 25.5C16.5 25.0625 16.6406 24.7031 16.9219 24.4219C17.2031 24.1406 17.5625 24 18 24ZM18 16.5C18.4375 16.5 18.7969 16.6406 19.0781 16.9219C19.3594 17.2031 19.5 17.5625 19.5 18C19.5 18.4375 19.3594 18.7969 19.0781 19.0781C18.7969 19.3594 18.4375 19.5 18 19.5C17.5625 19.5 17.2031 19.3594 16.9219 19.0781C16.6406 18.7969 16.5 18.4375 16.5 18C16.5 17.5625 16.6406 17.2031 16.9219 16.9219C17.2031 16.6406 17.5625 16.5 18 16.5ZM19.5 10.5C19.5 10.9375 19.3594 11.2969 19.0781 11.5781C18.7969 11.8594 18.4375 12 18 12C17.5625 12 17.2031 11.8594 16.9219 11.5781C16.6406 11.2969 16.5 10.9375 16.5 10.5C16.5 10.0625 16.6406 9.70312 16.9219 9.42188C17.2031 9.14062 17.5625 9 18 9C18.4375 9 18.7969 9.14062 19.0781 9.42188C19.3594 9.70312 19.5 10.0625 19.5 10.5Z" fill="#000000"/>
</svg>
