<svg width="37" height="36" viewBox="0 0 37 36" fill="none" xmlns="http://www.w3.org/2000/svg">
<path d="M9.77271 10.5C9.33521 10.5 8.97583 10.6406 8.69458 10.9219C8.41333 11.2031 8.27271 11.5625 8.27271 12V13.875L17.4602 20.5781C18.3352 21.1719 19.2102 21.1719 20.0852 20.5781L29.2727 13.875V12C29.2727 11.5625 29.1321 11.2031 28.8508 10.9219C28.5696 10.6406 28.2102 10.5 27.7727 10.5H9.77271ZM8.27271 15.75V24C8.27271 24.4375 8.41333 24.7969 8.69458 25.0781C8.97583 25.3594 9.33521 25.5 9.77271 25.5H27.7727C28.2102 25.5 28.5696 25.3594 28.8508 25.0781C29.1321 24.7969 29.2727 24.4375 29.2727 24V15.75L20.9758 21.7969C20.3196 22.2969 19.5852 22.5469 18.7727 22.5469C17.9602 22.5469 17.2258 22.2969 16.5696 21.7969L8.27271 15.75ZM6.77271 12C6.80396 11.1562 7.10083 10.4531 7.66333 9.89062C8.22583 9.32812 8.92896 9.03125 9.77271 9H27.7727C28.6165 9.03125 29.3196 9.32812 29.8821 9.89062C30.4446 10.4531 30.7415 11.1562 30.7727 12V24C30.7415 24.8438 30.4446 25.5469 29.8821 26.1094C29.3196 26.6719 28.6165 26.9688 27.7727 27H9.77271C8.92896 26.9688 8.22583 26.6719 7.66333 26.1094C7.10083 25.5469 6.80396 24.8438 6.77271 24V12Z" fill="#000000"/>
</svg>
