<svg width="36" height="36" viewBox="0 0 36 36" fill="none" xmlns="http://www.w3.org/2000/svg">
<path d="M14.25 7.5C14.7188 7.53125 14.9688 7.78125 15 8.25C14.9688 8.71875 14.7188 8.96875 14.25 9H9V14.25C8.96875 14.7188 8.71875 14.9688 8.25 15C7.78125 14.9688 7.53125 14.7188 7.5 14.25V8.25C7.53125 7.78125 7.78125 7.53125 8.25 7.5H14.25ZM7.5 21.75C7.53125 21.2812 7.78125 21.0312 8.25 21C8.71875 21.0312 8.96875 21.2812 9 21.75V27H14.25C14.7188 27.0312 14.9688 27.2812 15 27.75C14.9688 28.2188 14.7188 28.4688 14.25 28.5H8.25C7.78125 28.4688 7.53125 28.2188 7.5 27.75V21.75ZM27.75 7.5C28.2188 7.53125 28.4688 7.78125 28.5 8.25V14.25C28.4688 14.7188 28.2188 14.9688 27.75 15C27.2812 14.9688 27.0312 14.7188 27 14.25V9H21.75C21.2812 8.96875 21.0312 8.71875 21 8.25C21.0312 7.78125 21.2812 7.53125 21.75 7.5H27.75ZM27 21.75C27.0312 21.2812 27.2812 21.0312 27.75 21C28.2188 21.0312 28.4688 21.2812 28.5 21.75V27.75C28.4688 28.2188 28.2188 28.4688 27.75 28.5H21.75C21.2812 28.4688 21.0312 28.2188 21 27.75C21.0312 27.2812 21.2812 27.0312 21.75 27H27V21.75Z" fill="#000000"/>
</svg>
