<svg width="36" height="36" viewBox="0 0 36 36" fill="none" xmlns="http://www.w3.org/2000/svg">
<path d="M4.21875 6.14062L32.7188 28.6875C33.0625 29 33.1094 29.3438 32.8594 29.7188C32.5156 30.0625 32.1562 30.1094 31.7812 29.8594L3.28125 7.35938C2.9375 7.01563 2.89062 6.65625 3.14062 6.28125C3.48438 5.96875 3.84375 5.92187 4.21875 6.14062ZM31.4062 18.5625C30.9062 19.7812 30.0625 21.1719 28.875 22.7344L27.7031 21.8438C28.7969 20.375 29.5625 19.0938 30 18C29.6875 17.2188 29.2031 16.3281 28.5469 15.3281C27.8594 14.3281 27.0156 13.3438 26.0156 12.375C24.9844 11.4062 23.8125 10.6094 22.5 9.98438C21.1562 9.35938 19.6562 9.03125 18 9C16.125 9.03125 14.4531 9.4375 12.9844 10.2188L11.7188 9.23438C13.5 8.14062 15.5938 7.5625 18 7.5C19.9062 7.53125 21.6094 7.90625 23.1094 8.625C24.6094 9.34375 25.9219 10.2344 27.0469 11.2969C28.1406 12.3281 29.0469 13.3906 29.7656 14.4844C30.4844 15.5781 31.0312 16.5625 31.4062 17.4375C31.5312 17.8125 31.5312 18.1875 31.4062 18.5625ZM7.125 13.2656L8.34375 14.2031C7.21875 15.6406 6.4375 16.9062 6 18C6.3125 18.7812 6.79688 19.6719 7.45312 20.6719C8.14062 21.6719 8.98438 22.6562 9.98438 23.625C11.0156 24.5938 12.1875 25.3906 13.5 26.0156C14.8438 26.6406 16.3438 26.9688 18 27C19.875 26.9688 21.5469 26.5625 23.0156 25.7812L24.2812 26.7656C22.5 27.8594 20.4062 28.4375 18 28.5C16.0938 28.4688 14.3906 28.0938 12.8906 27.375C11.3906 26.6562 10.0938 25.7656 9 24.7031C7.875 23.6719 6.95312 22.6094 6.23438 21.5156C5.51562 20.4219 4.98438 19.4375 4.64062 18.5625C4.48438 18.1875 4.48438 17.8125 4.64062 17.4375C5.10938 16.2188 5.9375 14.8281 7.125 13.2656ZM18 24C16.3125 23.9688 14.8906 23.375 13.7344 22.2188C12.6094 21.0938 12.0312 19.6875 12 18C12 17.6875 12.0156 17.3906 12.0469 17.1094L13.5 18.2812C13.5938 19.4688 14.0625 20.4688 14.9062 21.2812C15.75 22.0625 16.7812 22.4688 18 22.5C18.25 22.5 18.5156 22.4844 18.7969 22.4531L20.2031 23.5781C19.5156 23.8594 18.7812 24 18 24ZM24 18C24 18.3125 23.9844 18.6094 23.9531 18.8906L22.5 17.7188C22.4062 16.5312 21.9375 15.5312 21.0938 14.7188C20.25 13.9375 19.2188 13.5312 18 13.5C17.75 13.5 17.5 13.5312 17.25 13.5938L15.7969 12.4219C16.4844 12.1406 17.2188 12 18 12C19.6875 12.0312 21.1094 12.6094 22.2656 13.7344C23.3906 14.8906 23.9688 16.3125 24 18Z" fill="#000000"/>
</svg>
