<svg width="36" height="36" viewBox="0 0 36 36" fill="none" xmlns="http://www.w3.org/2000/svg">
<path d="M9.98438 12.375C8.98438 13.3438 8.14062 14.3281 7.45312 15.3281C6.79688 16.3281 6.3125 17.2188 6 18C6.3125 18.7812 6.79688 19.6719 7.45312 20.6719C8.14062 21.6719 8.98438 22.6562 9.98438 23.625C11.0156 24.5938 12.1875 25.3906 13.5 26.0156C14.8438 26.6406 16.3438 26.9688 18 27C19.6562 26.9688 21.1562 26.6406 22.5 26.0156C23.8125 25.3906 24.9844 24.5938 26.0156 23.625C27.0156 22.6562 27.8594 21.6719 28.5469 20.6719C29.2031 19.6719 29.6875 18.7812 30 18C29.6875 17.2188 29.2031 16.3281 28.5469 15.3281C27.8594 14.3281 27.0156 13.3438 26.0156 12.375C24.9844 11.4062 23.8125 10.6094 22.5 9.98438C21.1562 9.35938 19.6562 9.03125 18 9C16.3438 9.03125 14.8438 9.35938 13.5 9.98438C12.1875 10.6094 11.0156 11.4062 9.98438 12.375ZM18 7.5C19.9062 7.53125 21.6094 7.90625 23.1094 8.625C24.6094 9.34375 25.9219 10.2344 27.0469 11.2969C28.1406 12.3281 29.0469 13.3906 29.7656 14.4844C30.4844 15.5781 31.0312 16.5625 31.4062 17.4375C31.5625 17.8125 31.5625 18.1875 31.4062 18.5625C31.0312 19.4375 30.4844 20.4219 29.7656 21.5156C29.0469 22.6094 28.1406 23.6719 27.0469 24.7031C25.9219 25.7656 24.6094 26.6562 23.1094 27.375C21.6094 28.0938 19.9062 28.4688 18 28.5C16.0938 28.4688 14.3906 28.0938 12.8906 27.375C11.3906 26.6562 10.0781 25.7656 8.95312 24.7031C7.85938 23.6719 6.95312 22.6094 6.23438 21.5156C5.51562 20.4219 4.98438 19.4375 4.64062 18.5625C4.48438 18.1875 4.48438 17.8125 4.64062 17.4375C4.98438 16.5625 5.51562 15.5781 6.23438 14.4844C6.95312 13.3906 7.85938 12.3281 8.95312 11.2969C10.0781 10.2344 11.3906 9.34375 12.8906 8.625C14.3906 7.90625 16.0938 7.53125 18 7.5ZM13.5 18C13.5 18.8125 13.7031 19.5625 14.1094 20.25C14.5156 20.9375 15.0625 21.4844 15.75 21.8906C16.4688 22.2969 17.2188 22.5 18 22.5C18.7812 22.5 19.5312 22.2969 20.25 21.8906C20.9375 21.4844 21.4844 20.9375 21.8906 20.25C22.2969 19.5625 22.5 18.8125 22.5 18C22.5 17.1875 22.2969 16.4375 21.8906 15.75C21.4844 15.0625 20.9375 14.5156 20.25 14.1094C19.5312 13.7031 18.7812 13.5 18 13.5C17.2188 13.5 16.4688 13.7031 15.75 14.1094C15.0625 14.5156 14.5156 15.0625 14.1094 15.75C13.7031 16.4375 13.5 17.1875 13.5 18ZM24 18C24 19.0938 23.7344 20.0938 23.2031 21C22.6719 21.9062 21.9375 22.6406 21 23.2031C20.0625 23.7344 19.0625 24 18 24C16.9375 24 15.9375 23.7344 15 23.2031C14.0625 22.6406 13.3281 21.9062 12.7969 21C12.2656 20.0938 12 19.0938 12 18C12 16.9062 12.2656 15.9062 12.7969 15C13.3281 14.0938 14.0625 13.3594 15 12.7969C15.9375 12.2656 16.9375 12 18 12C19.0625 12 20.0625 12.2656 21 12.7969C21.9375 13.3594 22.6719 14.0938 23.2031 15C23.7344 15.9062 24 16.9062 24 18Z" fill="#000000"/>
</svg>
