<svg width="36" height="36" viewBox="0 0 36 36" fill="none" xmlns="http://www.w3.org/2000/svg">
<path d="M24 28.5C24.4375 28.5 24.7969 28.3594 25.0781 28.0781C25.3594 27.7969 25.5 27.4375 25.5 27V15H20.25C19.625 14.9688 19.0938 14.75 18.6562 14.3438C18.25 13.9062 18.0312 13.375 18 12.75V7.5H12C11.5625 7.5 11.2031 7.64062 10.9219 7.92188C10.6406 8.20312 10.5 8.5625 10.5 9V27C10.5 27.4375 10.6406 27.7969 10.9219 28.0781C11.2031 28.3594 11.5625 28.5 12 28.5H24ZM20.25 13.5H25.5C25.4375 13.375 25.3594 13.2656 25.2656 13.1719L19.8281 7.73438C19.7344 7.64062 19.625 7.57813 19.5 7.54688V12.75C19.5312 13.2188 19.7812 13.4688 20.25 13.5ZM12 6H19.3125C19.9375 6 20.4688 6.21875 20.9062 6.65625L26.3438 12.0938C26.7812 12.5312 27 13.0625 27 13.6875V27C26.9688 27.8438 26.6719 28.5469 26.1094 29.1094C25.5469 29.6719 24.8438 29.9688 24 30H12C11.1562 29.9688 10.4531 29.6719 9.89062 29.1094C9.32812 28.5469 9.03125 27.8438 9 27V9C9.03125 8.15625 9.32812 7.45312 9.89062 6.89062C10.4531 6.32812 11.1562 6.03125 12 6ZM12 9.75C12.0312 9.28125 12.2812 9.03125 12.75 9H15.75C16.2188 9.03125 16.4688 9.28125 16.5 9.75C16.4688 10.2188 16.2188 10.4688 15.75 10.5H12.75C12.2812 10.4688 12.0312 10.2188 12 9.75ZM12 12.75C12.0312 12.2812 12.2812 12.0312 12.75 12H15.75C16.2188 12.0312 16.4688 12.2812 16.5 12.75C16.4688 13.2188 16.2188 13.4688 15.75 13.5H12.75C12.2812 13.4688 12.0312 13.2188 12 12.75ZM19.5 26.25C19.5312 25.7812 19.7812 25.5312 20.25 25.5H23.25C23.7188 25.5312 23.9688 25.7812 24 26.25C23.9688 26.7188 23.7188 26.9688 23.25 27H20.25C19.7812 26.9688 19.5312 26.7188 19.5 26.25ZM22.5 21.75V18.75H13.5V21.75H22.5ZM13.5 17.25H22.5C22.9375 17.25 23.2969 17.3906 23.5781 17.6719C23.8594 17.9531 24 18.3125 24 18.75V21.75C24 22.1875 23.8594 22.5469 23.5781 22.8281C23.2969 23.1094 22.9375 23.25 22.5 23.25H13.5C13.0625 23.25 12.7031 23.1094 12.4219 22.8281C12.1406 22.5469 12 22.1875 12 21.75V18.75C12 18.3125 12.1406 17.9531 12.4219 17.6719C12.7031 17.3906 13.0625 17.25 13.5 17.25Z" fill="#000000"/>
</svg>
