<svg width="36" height="36" viewBox="0 0 36 36" fill="none" xmlns="http://www.w3.org/2000/svg">
<path d="M24 28.5C24.4375 28.5 24.7969 28.3594 25.0781 28.0781C25.3594 27.7969 25.5 27.4375 25.5 27V15H20.25C19.625 14.9688 19.0938 14.75 18.6562 14.3438C18.25 13.9062 18.0312 13.375 18 12.75V7.5H12C11.5625 7.5 11.2031 7.64062 10.9219 7.92188C10.6406 8.20312 10.5 8.5625 10.5 9V27C10.5 27.4375 10.6406 27.7969 10.9219 28.0781C11.2031 28.3594 11.5625 28.5 12 28.5H24ZM20.25 13.5H25.5C25.4375 13.375 25.3594 13.2656 25.2656 13.1719L19.8281 7.73438C19.7344 7.64062 19.625 7.57813 19.5 7.54688V12.75C19.5312 13.2188 19.7812 13.4688 20.25 13.5ZM12 6H19.3125C19.9375 6 20.4688 6.21875 20.9062 6.65625L26.3438 12.0938C26.7812 12.5312 27 13.0625 27 13.6875V27C26.9688 27.8438 26.6719 28.5469 26.1094 29.1094C25.5469 29.6719 24.8438 29.9688 24 30H12C11.1562 29.9688 10.4531 29.6719 9.89062 29.1094C9.32812 28.5469 9.03125 27.8438 9 27V9C9.03125 8.15625 9.32812 7.45312 9.89062 6.89062C10.4531 6.32812 11.1562 6.03125 12 6ZM18.75 17.25V22.9219L21.2344 20.4844C21.5781 20.1719 21.9219 20.1719 22.2656 20.4844C22.5781 20.8281 22.5781 21.1719 22.2656 21.5156L18.5156 25.2656C18.1719 25.5781 17.8281 25.5781 17.4844 25.2656L13.7344 21.5156C13.4219 21.1719 13.4219 20.8281 13.7344 20.4844C14.0781 20.1719 14.4219 20.1719 14.7656 20.4844L17.25 22.9219V17.25C17.2812 16.7812 17.5312 16.5312 18 16.5C18.4688 16.5312 18.7188 16.7812 18.75 17.25Z" fill="#000000"/>
</svg>
