<svg width="36" height="36" viewBox="0 0 36 36" fill="none" xmlns="http://www.w3.org/2000/svg">
<path d="M6 9.375C6 8.84375 6.1875 8.40625 6.5625 8.0625C6.90625 7.6875 7.34375 7.5 7.875 7.5H28.1719C28.6719 7.5 29.0938 7.6875 29.4375 8.0625C29.8125 8.40625 30 8.84375 30 9.375C30 9.8125 29.8594 10.2031 29.5781 10.5469L21 20.9062V26.9062C21 27.3438 20.8438 27.7188 20.5312 28.0312C20.2188 28.3438 19.8438 28.5 19.4062 28.5C19.0625 28.5 18.7344 28.3906 18.4219 28.1719L15.5625 25.9688C15.1875 25.6562 15 25.25 15 24.75V20.9062L6.42188 10.5469C6.14062 10.2031 6 9.8125 6 9.375ZM7.875 9C7.65625 9.03125 7.53125 9.15625 7.5 9.375C7.5 9.4375 7.53125 9.5 7.59375 9.5625L16.3125 20.1562C16.4375 20.2812 16.5 20.4375 16.5 20.625V24.75L19.3594 27C19.3594 27 19.375 27 19.4062 27C19.4688 27 19.5 26.9688 19.5 26.9062V20.625C19.5 20.4375 19.5625 20.2812 19.6875 20.1562L28.4062 9.5625C28.4688 9.5 28.5 9.4375 28.5 9.375C28.4688 9.15625 28.3594 9.03125 28.1719 9H7.875Z" fill="#000000"/>
</svg>
