<svg width="36" height="36" viewBox="0 0 36 36" fill="none" xmlns="http://www.w3.org/2000/svg">
<path d="M21.8906 6.28125C22.1094 6.09375 22.3594 6 22.6406 6C23.0781 6.03125 23.4062 6.20312 23.625 6.51562C23.8438 6.82813 23.8906 7.17188 23.7656 7.54688L20.5781 16.5H25.7344C26.0781 16.5 26.375 16.625 26.625 16.875C26.875 17.125 27 17.4219 27 17.7656C27 18.1406 26.8594 18.4531 26.5781 18.7031L14.1094 29.7188C13.8906 29.9062 13.6406 30 13.3594 30C12.9219 29.9688 12.5938 29.7969 12.375 29.4844C12.1562 29.1719 12.1094 28.8281 12.2344 28.4531L15.4219 19.5H10.2188C9.46875 19.4375 9.0625 19.0312 9 18.2812C9 17.9375 9.14062 17.6406 9.42188 17.3906L21.8906 6.28125ZM21.8906 8.29688L10.9688 18H16.5C16.75 18 16.9531 18.1094 17.1094 18.3281C17.2656 18.5469 17.2969 18.7656 17.2031 18.9844L14.1094 27.75L25.125 18H19.5C19.25 18 19.0469 17.8906 18.8906 17.6719C18.7344 17.4531 18.7031 17.2344 18.7969 17.0156L21.8906 8.29688Z" fill="#000000"/>
</svg>
