<svg width="36" height="36" viewBox="0 0 36 36" fill="none" xmlns="http://www.w3.org/2000/svg">
<path d="M22.5 9.75C22.5312 9.28125 22.7812 9.03125 23.25 9C23.7188 9.03125 23.9688 9.28125 24 9.75V17.3438V18.6562V26.25C23.9688 26.7188 23.7188 26.9688 23.25 27C22.7812 26.9688 22.5312 26.7188 22.5 26.25V19.875L14.1094 26.7188C13.8906 26.9062 13.625 27 13.3125 27C12.9375 27 12.625 26.875 12.375 26.625C12.125 26.375 12 26.0625 12 25.6875V10.3125C12 9.9375 12.125 9.625 12.375 9.375C12.625 9.125 12.9375 9 13.3125 9C13.625 9 13.8906 9.09375 14.1094 9.28125L22.5 16.125V9.75ZM13.5 10.7344V25.2656L22.4531 18L13.5 10.7344Z" fill="#000000"/>
</svg>
