<svg width="36" height="36" viewBox="0 0 36 36" fill="none" xmlns="http://www.w3.org/2000/svg">
<path d="M18 7.5C16.0938 7.53125 14.3438 8 12.75 8.90625C11.1562 9.84375 9.875 11.125 8.90625 12.75C7.96875 14.4062 7.5 16.1562 7.5 18C7.5 19.8438 7.96875 21.5938 8.90625 23.25C9.875 24.875 11.1562 26.1562 12.75 27.0938C14.3438 28 16.0938 28.4688 18 28.5C19.9062 28.4688 21.6562 28 23.25 27.0938C24.8438 26.1562 26.125 24.875 27.0938 23.25C28.0312 21.5938 28.5 19.8438 28.5 18C28.5 16.1562 28.0312 14.4062 27.0938 12.75C26.125 11.125 24.8438 9.84375 23.25 8.90625C21.6562 8 19.9062 7.53125 18 7.5ZM18 30C15.8125 29.9688 13.8125 29.4375 12 28.4062C10.1875 27.3438 8.71875 25.875 7.59375 24C6.53125 22.0938 6 20.0938 6 18C6 15.9062 6.53125 13.9062 7.59375 12C8.71875 10.125 10.1875 8.65625 12 7.59375C13.8125 6.5625 15.8125 6.03125 18 6C20.1875 6.03125 22.1875 6.5625 24 7.59375C25.8125 8.65625 27.2812 10.125 28.4062 12C29.4688 13.9062 30 15.9062 30 18C30 20.0938 29.4688 22.0938 28.4062 24C27.2812 25.875 25.8125 27.3438 24 28.4062C22.1875 29.4375 20.1875 29.9688 18 30ZM18 21C17.5625 21 17.2031 21.1406 16.9219 21.4219C16.6406 21.7031 16.5 22.0625 16.5 22.5C16.5 22.9375 16.6406 23.2969 16.9219 23.5781C17.2031 23.8594 17.5625 24 18 24C18.4375 24 18.7969 23.8594 19.0781 23.5781C19.3594 23.2969 19.5 22.9375 19.5 22.5C19.5 22.0625 19.3594 21.7031 19.0781 21.4219C18.7969 21.1406 18.4375 21 18 21ZM18 25.5C17.1562 25.4688 16.4531 25.1719 15.8906 24.6094C15.3281 24.0469 15.0312 23.3438 15 22.5C15 21.7812 15.2188 21.1562 15.6562 20.625C16.0625 20.125 16.5938 19.7812 17.25 19.5938V10.5C17.2812 10.0312 17.5312 9.78125 18 9.75C18.4688 9.78125 18.7188 10.0312 18.75 10.5V19.5938C19.4062 19.7812 19.9375 20.125 20.3438 20.625C20.7812 21.1562 21 21.7812 21 22.5C20.9688 23.3438 20.6719 24.0469 20.1094 24.6094C19.5469 25.1719 18.8438 25.4688 18 25.5ZM12.75 13.875C12.0625 13.8125 11.6875 13.4375 11.625 12.75C11.6875 12.0625 12.0625 11.6875 12.75 11.625C13.4375 11.6875 13.8125 12.0625 13.875 12.75C13.8125 13.4375 13.4375 13.8125 12.75 13.875ZM11.625 18C11.5625 18.6875 11.1875 19.0625 10.5 19.125C9.8125 19.0625 9.4375 18.6875 9.375 18C9.4375 17.3125 9.8125 16.9375 10.5 16.875C11.1875 16.9375 11.5625 17.3125 11.625 18ZM25.5 19.125C24.8125 19.0625 24.4375 18.6875 24.375 18C24.4375 17.3125 24.8125 16.9375 25.5 16.875C26.1875 16.9375 26.5625 17.3125 26.625 18C26.5625 18.6875 26.1875 19.0625 25.5 19.125ZM24.375 12.75C24.3125 13.4375 23.9375 13.8125 23.25 13.875C22.5625 13.8125 22.1875 13.4375 22.125 12.75C22.1875 12.0625 22.5625 11.6875 23.25 11.625C23.9375 11.6875 24.3125 12.0625 24.375 12.75Z" fill="#000000"/>
</svg>
