<svg width="36" height="36" viewBox="0 0 36 36" fill="none" xmlns="http://www.w3.org/2000/svg">
<path d="M18 28.5C18.4062 28.5 18.8594 28.2969 19.3594 27.8906C19.8594 27.4844 20.375 26.7969 20.9062 25.8281C21.375 24.8906 21.75 23.7812 22.0312 22.5H13.9688C14.25 23.7812 14.625 24.8906 15.0938 25.8281C15.625 26.7969 16.1406 27.4844 16.6406 27.8906C17.1406 28.2969 17.5938 28.5 18 28.5ZM13.6875 21H22.3125C22.4375 20.0625 22.5 19.0625 22.5 18C22.5 16.9375 22.4375 15.9375 22.3125 15H13.6875C13.5625 15.9375 13.5 16.9375 13.5 18C13.5 19.0625 13.5625 20.0625 13.6875 21ZM13.9688 13.5H22.0312C21.75 12.2188 21.375 11.1094 20.9062 10.1719C20.375 9.20312 19.8594 8.51562 19.3594 8.10938C18.8594 7.70312 18.4062 7.5 18 7.5C17.5938 7.5 17.1406 7.70312 16.6406 8.10938C16.1406 8.51562 15.625 9.20312 15.0938 10.1719C14.625 11.1094 14.25 12.2188 13.9688 13.5ZM23.8125 15C23.9375 15.9688 24 16.9688 24 18C24 19.0312 23.9375 20.0312 23.8125 21H28.0781C28.3594 20.0312 28.5 19.0312 28.5 18C28.5 16.9688 28.3594 15.9688 28.0781 15H23.8125ZM27.5156 13.5C26.8906 12.2188 26.0469 11.1094 24.9844 10.1719C23.9219 9.23438 22.7188 8.53125 21.375 8.0625C22.375 9.40625 23.1094 11.2188 23.5781 13.5H27.5156ZM12.4219 13.5C12.8906 11.2188 13.6406 9.40625 14.6719 8.0625C13.2969 8.53125 12.0781 9.23438 11.0156 10.1719C9.95312 11.1094 9.125 12.2188 8.53125 13.5H12.4219ZM7.92188 15C7.64062 15.9688 7.5 16.9688 7.5 18C7.5 19.0312 7.64062 20.0312 7.92188 21H12.1875C12.0625 20.0312 12 19.0312 12 18C12 16.9688 12.0625 15.9688 12.1875 15H7.92188ZM21.375 27.9375C22.7188 27.4688 23.9219 26.7656 24.9844 25.8281C26.0469 24.8906 26.875 23.7812 27.4688 22.5H23.5781C23.1094 24.7812 22.375 26.5938 21.375 27.9375ZM14.6719 27.9375C13.6406 26.5938 12.8906 24.7812 12.4219 22.5H8.53125C9.125 23.7812 9.95312 24.8906 11.0156 25.8281C12.0781 26.7656 13.2969 27.4688 14.6719 27.9375ZM18 30C15.8125 29.9688 13.8125 29.4375 12 28.4062C10.1875 27.3438 8.71875 25.875 7.59375 24C6.53125 22.0938 6 20.0938 6 18C6 15.9062 6.53125 13.9062 7.59375 12C8.71875 10.125 10.1875 8.65625 12 7.59375C13.8125 6.5625 15.8125 6.03125 18 6C20.1875 6.03125 22.1875 6.5625 24 7.59375C25.8125 8.65625 27.2812 10.125 28.4062 12C29.4688 13.9062 30 15.9062 30 18C30 20.0938 29.4688 22.0938 28.4062 24C27.2812 25.875 25.8125 27.3438 24 28.4062C22.1875 29.4375 20.1875 29.9688 18 30Z" fill="#000000"/>
</svg>
