<svg width="36" height="36" viewBox="0 0 36 36" fill="none" xmlns="http://www.w3.org/2000/svg">
<path d="M9.375 13.5C9.15625 13.5312 9.03125 13.6562 9 13.875V16.125C9.03125 16.3438 9.15625 16.4688 9.375 16.5H11.625C11.8438 16.4688 11.9688 16.3438 12 16.125V13.875C11.9688 13.6562 11.8438 13.5312 11.625 13.5H9.375ZM7.5 13.875C7.5 13.3438 7.6875 12.9062 8.0625 12.5625C8.40625 12.1875 8.84375 12 9.375 12H11.625C12.1562 12 12.5938 12.1875 12.9375 12.5625C13.3125 12.9062 13.5 13.3438 13.5 13.875V16.125C13.5 16.6562 13.3125 17.0938 12.9375 17.4375C12.5938 17.8125 12.1562 18 11.625 18H9.375C8.84375 18 8.40625 17.8125 8.0625 17.4375C7.6875 17.0938 7.5 16.6562 7.5 16.125V13.875ZM9.375 21C9.15625 21.0312 9.03125 21.1562 9 21.375V23.625C9.03125 23.8438 9.15625 23.9688 9.375 24H11.625C11.8438 23.9688 11.9688 23.8438 12 23.625V21.375C11.9688 21.1562 11.8438 21.0312 11.625 21H9.375ZM7.5 21.375C7.5 20.8438 7.6875 20.4062 8.0625 20.0625C8.40625 19.6875 8.84375 19.5 9.375 19.5H11.625C12.1562 19.5 12.5938 19.6875 12.9375 20.0625C13.3125 20.4062 13.5 20.8438 13.5 21.375V23.625C13.5 24.1562 13.3125 24.5938 12.9375 24.9375C12.5938 25.3125 12.1562 25.5 11.625 25.5H9.375C8.84375 25.5 8.40625 25.3125 8.0625 24.9375C7.6875 24.5938 7.5 24.1562 7.5 23.625V21.375ZM19.125 13.5H16.875C16.6562 13.5312 16.5312 13.6562 16.5 13.875V16.125C16.5312 16.3438 16.6562 16.4688 16.875 16.5H19.125C19.3438 16.4688 19.4688 16.3438 19.5 16.125V13.875C19.4688 13.6562 19.3438 13.5312 19.125 13.5ZM16.875 12H19.125C19.6562 12 20.0938 12.1875 20.4375 12.5625C20.8125 12.9062 21 13.3438 21 13.875V16.125C21 16.6562 20.8125 17.0938 20.4375 17.4375C20.0938 17.8125 19.6562 18 19.125 18H16.875C16.3438 18 15.9062 17.8125 15.5625 17.4375C15.1875 17.0938 15 16.6562 15 16.125V13.875C15 13.3438 15.1875 12.9062 15.5625 12.5625C15.9062 12.1875 16.3438 12 16.875 12ZM16.875 21C16.6562 21.0312 16.5312 21.1562 16.5 21.375V23.625C16.5312 23.8438 16.6562 23.9688 16.875 24H19.125C19.3438 23.9688 19.4688 23.8438 19.5 23.625V21.375C19.4688 21.1562 19.3438 21.0312 19.125 21H16.875ZM15 21.375C15 20.8438 15.1875 20.4062 15.5625 20.0625C15.9062 19.6875 16.3438 19.5 16.875 19.5H19.125C19.6562 19.5 20.0938 19.6875 20.4375 20.0625C20.8125 20.4062 21 20.8438 21 21.375V23.625C21 24.1562 20.8125 24.5938 20.4375 24.9375C20.0938 25.3125 19.6562 25.5 19.125 25.5H16.875C16.3438 25.5 15.9062 25.3125 15.5625 24.9375C15.1875 24.5938 15 24.1562 15 23.625V21.375ZM26.625 13.5H24.375C24.1562 13.5312 24.0312 13.6562 24 13.875V16.125C24.0312 16.3438 24.1562 16.4688 24.375 16.5H26.625C26.8438 16.4688 26.9688 16.3438 27 16.125V13.875C26.9688 13.6562 26.8438 13.5312 26.625 13.5ZM24.375 12H26.625C27.1562 12 27.5938 12.1875 27.9375 12.5625C28.3125 12.9062 28.5 13.3438 28.5 13.875V16.125C28.5 16.6562 28.3125 17.0938 27.9375 17.4375C27.5938 17.8125 27.1562 18 26.625 18H24.375C23.8438 18 23.4062 17.8125 23.0625 17.4375C22.6875 17.0938 22.5 16.6562 22.5 16.125V13.875C22.5 13.3438 22.6875 12.9062 23.0625 12.5625C23.4062 12.1875 23.8438 12 24.375 12ZM24.375 21C24.1562 21.0312 24.0312 21.1562 24 21.375V23.625C24.0312 23.8438 24.1562 23.9688 24.375 24H26.625C26.8438 23.9688 26.9688 23.8438 27 23.625V21.375C26.9688 21.1562 26.8438 21.0312 26.625 21H24.375ZM22.5 21.375C22.5 20.8438 22.6875 20.4062 23.0625 20.0625C23.4062 19.6875 23.8438 19.5 24.375 19.5H26.625C27.1562 19.5 27.5938 19.6875 27.9375 20.0625C28.3125 20.4062 28.5 20.8438 28.5 21.375V23.625C28.5 24.1562 28.3125 24.5938 27.9375 24.9375C27.5938 25.3125 27.1562 25.5 26.625 25.5H24.375C23.8438 25.5 23.4062 25.3125 23.0625 24.9375C22.6875 24.5938 22.5 24.1562 22.5 23.625V21.375Z" fill="#000000"/>
</svg>
