<svg width="37" height="36" viewBox="0 0 37 36" fill="none" xmlns="http://www.w3.org/2000/svg">
<path d="M15.7727 10.5C15.7415 10.0312 15.4915 9.78125 15.0227 9.75C14.554 9.78125 14.304 10.0312 14.2727 10.5C14.304 10.9688 14.554 11.2188 15.0227 11.25C15.4915 11.2188 15.7415 10.9688 15.7727 10.5ZM12.7727 10.5C12.804 9.65625 13.179 9 13.8977 8.53125C14.6477 8.15625 15.3977 8.15625 16.1477 8.53125C16.8665 9 17.2415 9.65625 17.2727 10.5C17.2415 11.3438 16.8665 12 16.1477 12.4688C15.3977 12.8438 14.6477 12.8438 13.8977 12.4688C13.179 12 12.804 11.3438 12.7727 10.5ZM15.7727 18C15.7415 17.5312 15.4915 17.2812 15.0227 17.25C14.554 17.2812 14.304 17.5312 14.2727 18C14.304 18.4688 14.554 18.7188 15.0227 18.75C15.4915 18.7188 15.7415 18.4688 15.7727 18ZM12.7727 18C12.804 17.1562 13.179 16.5 13.8977 16.0312C14.6477 15.6562 15.3977 15.6562 16.1477 16.0312C16.8665 16.5 17.2415 17.1562 17.2727 18C17.2415 18.8438 16.8665 19.5 16.1477 19.9688C15.3977 20.3438 14.6477 20.3438 13.8977 19.9688C13.179 19.5 12.804 18.8438 12.7727 18ZM15.0227 26.25C15.4915 26.2188 15.7415 25.9688 15.7727 25.5C15.7415 25.0312 15.4915 24.7812 15.0227 24.75C14.554 24.7812 14.304 25.0312 14.2727 25.5C14.304 25.9688 14.554 26.2188 15.0227 26.25ZM15.0227 23.25C15.8665 23.2812 16.5227 23.6562 16.9915 24.375C17.3665 25.125 17.3665 25.875 16.9915 26.625C16.5227 27.3438 15.8665 27.7188 15.0227 27.75C14.179 27.7188 13.5227 27.3438 13.054 26.625C12.679 25.875 12.679 25.125 13.054 24.375C13.5227 23.6562 14.179 23.2812 15.0227 23.25ZM23.2727 10.5C23.2415 10.0312 22.9915 9.78125 22.5227 9.75C22.054 9.78125 21.804 10.0312 21.7727 10.5C21.804 10.9688 22.054 11.2188 22.5227 11.25C22.9915 11.2188 23.2415 10.9688 23.2727 10.5ZM20.2727 10.5C20.304 9.65625 20.679 9 21.3977 8.53125C22.1477 8.15625 22.8977 8.15625 23.6477 8.53125C24.3665 9 24.7415 9.65625 24.7727 10.5C24.7415 11.3438 24.3665 12 23.6477 12.4688C22.8977 12.8438 22.1477 12.8438 21.3977 12.4688C20.679 12 20.304 11.3438 20.2727 10.5ZM22.5227 18.75C22.9915 18.7188 23.2415 18.4688 23.2727 18C23.2415 17.5312 22.9915 17.2812 22.5227 17.25C22.054 17.2812 21.804 17.5312 21.7727 18C21.804 18.4688 22.054 18.7188 22.5227 18.75ZM22.5227 15.75C23.3665 15.7812 24.0227 16.1562 24.4915 16.875C24.8665 17.625 24.8665 18.375 24.4915 19.125C24.0227 19.8438 23.3665 20.2188 22.5227 20.25C21.679 20.2188 21.0227 19.8438 20.554 19.125C20.179 18.375 20.179 17.625 20.554 16.875C21.0227 16.1562 21.679 15.7812 22.5227 15.75ZM23.2727 25.5C23.2415 25.0312 22.9915 24.7812 22.5227 24.75C22.054 24.7812 21.804 25.0312 21.7727 25.5C21.804 25.9688 22.054 26.2188 22.5227 26.25C22.9915 26.2188 23.2415 25.9688 23.2727 25.5ZM20.2727 25.5C20.304 24.6562 20.679 24 21.3977 23.5312C22.1477 23.1562 22.8977 23.1562 23.6477 23.5312C24.3665 24 24.7415 24.6562 24.7727 25.5C24.7415 26.3438 24.3665 27 23.6477 27.4688C22.8977 27.8438 22.1477 27.8438 21.3977 27.4688C20.679 27 20.304 26.3438 20.2727 25.5Z" fill="#000000"/>
</svg>
