<svg width="36" height="36" viewBox="0 0 36 36" fill="none" xmlns="http://www.w3.org/2000/svg">
<path d="M7.5 18V20.25C7.46875 20.7188 7.21875 20.9688 6.75 21C6.28125 20.9688 6.03125 20.7188 6 20.25V18C6.03125 15.75 6.57812 13.7344 7.64062 11.9531C8.70312 10.1406 10.1406 8.70312 11.9531 7.64062C13.7344 6.57812 15.75 6.03125 18 6C20.25 6.03125 22.2656 6.57812 24.0469 7.64062C25.8594 8.70312 27.2969 10.1406 28.3594 11.9531C29.4219 13.7344 29.9688 15.75 30 18V24.75C29.9688 25.8125 29.6094 26.7031 28.9219 27.4219C28.2031 28.1094 27.3125 28.4688 26.25 28.5H22.3594C21.9844 29.4375 21.2812 29.9375 20.25 30H17.25C16.625 29.9688 16.0938 29.75 15.6562 29.3438C15.25 28.9062 15.0312 28.375 15 27.75C15.0312 27.125 15.25 26.5938 15.6562 26.1562C16.0938 25.75 16.625 25.5312 17.25 25.5H20.25C21.2812 25.5625 21.9844 26.0625 22.3594 27H26.25C26.875 27 27.4062 26.7812 27.8438 26.3438C28.25 25.9062 28.4688 25.375 28.5 24.75V18C28.4688 16.0312 27.9844 14.2656 27.0469 12.7031C26.1406 11.1094 24.8906 9.85938 23.2969 8.95312C21.7344 8.01562 19.9688 7.53125 18 7.5C16.0312 7.53125 14.2656 8.01562 12.7031 8.95312C11.1094 9.85938 9.85938 11.1094 8.95312 12.7031C8.01562 14.2656 7.53125 16.0312 7.5 18ZM21 27.75C20.9688 27.2812 20.7188 27.0312 20.25 27H17.25C16.7812 27.0312 16.5312 27.2812 16.5 27.75C16.5312 28.2188 16.7812 28.4688 17.25 28.5H20.25C20.7188 28.4688 20.9688 28.2188 21 27.75ZM12.75 16.5C12.125 16.5312 11.5938 16.75 11.1562 17.1562C10.75 17.5938 10.5312 18.125 10.5 18.75V20.25C10.5312 20.875 10.75 21.4062 11.1562 21.8438C11.5938 22.25 12.125 22.4688 12.75 22.5H13.5V16.5H12.75ZM9 18.75C9.03125 17.6875 9.39062 16.7969 10.0781 16.0781C10.7969 15.3906 11.6875 15.0312 12.75 15H13.5C13.9375 15 14.2969 15.1406 14.5781 15.4219C14.8594 15.7031 15 16.0625 15 16.5V22.5C15 22.9375 14.8594 23.2969 14.5781 23.5781C14.2969 23.8594 13.9375 24 13.5 24H12.75C11.6875 23.9688 10.7969 23.6094 10.0781 22.9219C9.39062 22.2031 9.03125 21.3125 9 20.25V18.75ZM22.5 16.5V22.5H23.25C23.875 22.4688 24.4062 22.25 24.8438 21.8438C25.25 21.4062 25.4688 20.875 25.5 20.25V18.75C25.4688 18.125 25.25 17.5938 24.8438 17.1562C24.4062 16.75 23.875 16.5312 23.25 16.5H22.5ZM23.25 15C24.3125 15.0312 25.2031 15.3906 25.9219 16.0781C26.6094 16.7969 26.9688 17.6875 27 18.75V20.25C26.9688 21.3125 26.6094 22.2031 25.9219 22.9219C25.2031 23.6094 24.3125 23.9688 23.25 24H22.5C22.0625 24 21.7031 23.8594 21.4219 23.5781C21.1406 23.2969 21 22.9375 21 22.5V16.5C21 16.0625 21.1406 15.7031 21.4219 15.4219C21.7031 15.1406 22.0625 15 22.5 15H23.25Z" fill="#000000"/>
</svg>
