<svg width="37" height="36" viewBox="0 0 37 36" fill="none" xmlns="http://www.w3.org/2000/svg">
<path d="M18.2102 12.1406L17.6477 11.4844L17.4602 11.25C16.8352 10.5625 16.1008 10.0781 15.2571 9.79688C14.3821 9.51562 13.4915 9.45312 12.5852 9.60938C11.304 9.85938 10.2727 10.4531 9.49146 11.3906C8.71021 12.3281 8.30396 13.4531 8.27271 14.7656V14.9062C8.27271 16.0625 8.60083 17.0938 9.25708 18C9.28833 18 9.33521 18 9.39771 18H12.5383C12.8508 18 13.0852 17.8438 13.2415 17.5312L14.6946 13.9688C14.8508 13.6875 15.0852 13.5312 15.3977 13.5C15.7102 13.5 15.9446 13.6406 16.1008 13.9219L18.8196 20.0156L21.1165 15.4219C21.2415 15.1406 21.4602 15 21.7727 15C22.0852 15 22.304 15.1406 22.429 15.4219L23.554 17.5781C23.679 17.8594 23.8977 18 24.2102 18H28.1477C28.2102 18 28.2727 18 28.3352 18C28.9602 17.0938 29.2727 16.0625 29.2727 14.9062V14.7656C29.2415 13.4531 28.8352 12.3281 28.054 11.3906C27.2727 10.4531 26.2415 9.85938 24.9602 9.60938C24.054 9.45312 23.1633 9.51562 22.2883 9.79688C21.4446 10.0781 20.7102 10.5625 20.0852 11.25L19.8977 11.4844L19.3352 12.1406C19.179 12.2969 18.9915 12.375 18.7727 12.375C18.554 12.375 18.3665 12.2969 18.2102 12.1406ZM26.929 19.5H26.8821H24.2102C23.304 19.4688 22.6321 19.0625 22.1946 18.2812L21.7727 17.4375L19.429 22.0781C19.304 22.3594 19.0852 22.5 18.7727 22.5C18.4602 22.4688 18.2258 22.3281 18.0696 22.0781L15.4446 16.125L14.6008 18.1406C14.1946 19.0156 13.5071 19.4688 12.5383 19.5H10.6165H8.50708C7.38208 18.1875 6.80396 16.6562 6.77271 14.9062V14.7656C6.80396 13.1094 7.31958 11.6719 8.31958 10.4531C9.35083 9.23438 10.679 8.45312 12.304 8.10938C14.304 7.79687 16.1008 8.25 17.6946 9.46875C18.0071 9.6875 18.304 9.95312 18.5852 10.2656L18.7727 10.5L18.9602 10.2656C19.179 10.0469 19.3977 9.84375 19.6165 9.65625C19.679 9.59375 19.7571 9.51562 19.8508 9.42188C21.4446 8.23438 23.2415 7.79687 25.2415 8.10938C26.8665 8.45312 28.1946 9.23438 29.2258 10.4531C30.2258 11.6719 30.7415 13.1094 30.7727 14.7656V14.9062C30.7415 16.6562 30.179 18.1875 29.0852 19.5H29.0383H26.929ZM10.054 21H12.2571L18.6321 26.9531C18.6633 26.9844 18.7102 27 18.7727 27C18.8352 27 18.8821 26.9844 18.9133 26.9531L25.2883 21H27.4915L19.9446 28.0312C19.8821 28.0625 19.8352 28.0938 19.804 28.125C19.804 28.125 19.804 28.1406 19.804 28.1719C19.4915 28.3906 19.1477 28.5 18.7727 28.5C18.3352 28.5 17.9446 28.3438 17.6008 28.0312L10.054 21Z" fill="#000000"/>
</svg>
