<svg width="37" height="36" viewBox="0 0 37 36" fill="none" xmlns="http://www.w3.org/2000/svg">
<path d="M19.2883 6.1875L32.0383 17.4375C32.3508 17.7812 32.3665 18.1406 32.0852 18.5156C31.7415 18.8281 31.3821 18.8438 31.0071 18.5625L29.2727 17.0156V26.25C29.2415 27.3125 28.8821 28.2031 28.1946 28.9219C27.4758 29.6094 26.5852 29.9688 25.5227 30H12.0227C10.9602 29.9688 10.0696 29.6094 9.35083 28.9219C8.66333 28.2031 8.30396 27.3125 8.27271 26.25V17.0156L6.53833 18.5625C6.16333 18.8438 5.80396 18.8281 5.46021 18.5156C5.17896 18.1406 5.19458 17.7812 5.50708 17.4375L18.2571 6.1875C18.6008 5.9375 18.9446 5.9375 19.2883 6.1875ZM9.77271 26.25C9.80396 26.875 10.0227 27.4062 10.429 27.8438C10.8665 28.25 11.3977 28.4688 12.0227 28.5H15.0227V21C15.0227 20.5625 15.1633 20.2031 15.4446 19.9219C15.7258 19.6406 16.0852 19.5 16.5227 19.5H21.0227C21.4602 19.5 21.8196 19.6406 22.1008 19.9219C22.3821 20.2031 22.5227 20.5625 22.5227 21V28.5H25.5227C26.1477 28.4688 26.679 28.25 27.1165 27.8438C27.5227 27.4062 27.7415 26.875 27.7727 26.25V15.7031L18.7727 7.73438L9.77271 15.7031V26.25ZM16.5227 28.5H21.0227V21H16.5227V28.5Z" fill="#000000"/>
</svg>
