<svg width="36" height="36" viewBox="0 0 36 36" fill="none" xmlns="http://www.w3.org/2000/svg">
<path d="M25.5 15C25.4375 12.875 24.7031 11.1094 23.2969 9.70312C21.8906 8.29688 20.125 7.5625 18 7.5C15.875 7.5625 14.1094 8.29688 12.7031 9.70312C11.2969 11.1094 10.5625 12.875 10.5 15C10.5 15.75 10.7656 16.7344 11.2969 17.9531C11.8281 19.2031 12.5 20.5 13.3125 21.8438C14.125 23.1562 14.9531 24.375 15.7969 25.5C16.6406 26.6562 17.375 27.625 18 28.4062C18.625 27.625 19.3594 26.6562 20.2031 25.5C21.0469 24.375 21.875 23.1562 22.6875 21.8438C23.5312 20.5 24.2188 19.2031 24.75 17.9531C25.25 16.7344 25.5 15.75 25.5 15ZM27 15C26.9375 16.4062 26.4375 18.0312 25.5 19.875C24.5312 21.7188 23.4375 23.5 22.2188 25.2188C21 26.9688 19.9688 28.3594 19.125 29.3906C18.8125 29.7656 18.4375 29.9531 18 29.9531C17.5625 29.9531 17.1875 29.7656 16.875 29.3906C16.0312 28.3594 15 26.9688 13.7812 25.2188C12.5625 23.5 11.4688 21.7188 10.5 19.875C9.5625 18.0312 9.0625 16.4062 9 15C9.0625 12.4375 9.9375 10.3125 11.625 8.625C13.3125 6.9375 15.4375 6.0625 18 6C20.5625 6.0625 22.6875 6.9375 24.375 8.625C26.0625 10.3125 26.9375 12.4375 27 15ZM15.75 15C15.7812 15.8438 16.1562 16.5 16.875 16.9688C17.625 17.3438 18.375 17.3438 19.125 16.9688C19.8438 16.5 20.2188 15.8438 20.25 15C20.2188 14.1562 19.8438 13.5 19.125 13.0312C18.375 12.6562 17.625 12.6562 16.875 13.0312C16.1562 13.5 15.7812 14.1562 15.75 15ZM18 18.75C16.5938 18.7188 15.5156 18.0938 14.7656 16.875C14.0781 15.625 14.0781 14.375 14.7656 13.125C15.5156 11.9062 16.5938 11.2812 18 11.25C19.4062 11.2812 20.4844 11.9062 21.2344 13.125C21.9219 14.375 21.9219 15.625 21.2344 16.875C20.4844 18.0938 19.4062 18.7188 18 18.75Z" fill="#000000"/>
</svg>
