<svg width="36" height="36" viewBox="0 0 36 36" fill="none" xmlns="http://www.w3.org/2000/svg">
<path d="M13.5 12V15H22.5V12C22.4688 10.7188 22.0312 9.65625 21.1875 8.8125C20.3438 7.96875 19.2812 7.53125 18 7.5C16.7188 7.53125 15.6562 7.96875 14.8125 8.8125C13.9688 9.65625 13.5312 10.7188 13.5 12ZM12 15V12C12.0312 10.3125 12.6094 8.89062 13.7344 7.73438C14.8906 6.60938 16.3125 6.03125 18 6C19.6875 6.03125 21.1094 6.60938 22.2656 7.73438C23.3906 8.89062 23.9688 10.3125 24 12V15H24.75C25.8125 15.0312 26.7031 15.3906 27.4219 16.0781C28.1094 16.7969 28.4688 17.6875 28.5 18.75V26.25C28.4688 27.3125 28.1094 28.2031 27.4219 28.9219C26.7031 29.6094 25.8125 29.9688 24.75 30H11.25C10.1875 29.9688 9.29688 29.6094 8.57812 28.9219C7.89062 28.2031 7.53125 27.3125 7.5 26.25V18.75C7.53125 17.6875 7.89062 16.7969 8.57812 16.0781C9.29688 15.3906 10.1875 15.0312 11.25 15H12ZM9 18.75V26.25C9.03125 26.875 9.25 27.4062 9.65625 27.8438C10.0938 28.25 10.625 28.4688 11.25 28.5H24.75C25.375 28.4688 25.9062 28.25 26.3438 27.8438C26.75 27.4062 26.9688 26.875 27 26.25V18.75C26.9688 18.125 26.75 17.5938 26.3438 17.1562C25.9062 16.75 25.375 16.5312 24.75 16.5H11.25C10.625 16.5312 10.0938 16.75 9.65625 17.1562C9.25 17.5938 9.03125 18.125 9 18.75Z" fill="#000000"/>
</svg>
