<svg width="36" height="36" viewBox="0 0 36 36" fill="none" xmlns="http://www.w3.org/2000/svg">
<path d="M24 15.75C24 14.25 23.625 12.875 22.875 11.625C22.1562 10.375 21.1562 9.375 19.875 8.625C18.5625 7.875 17.1875 7.5 15.75 7.5C14.3125 7.5 12.9375 7.875 11.625 8.625C10.3438 9.375 9.34375 10.375 8.625 11.625C7.875 12.875 7.5 14.25 7.5 15.75C7.5 17.25 7.875 18.625 8.625 19.875C9.34375 21.125 10.3438 22.125 11.625 22.875C12.9375 23.625 14.3125 24 15.75 24C17.1875 24 18.5625 23.625 19.875 22.875C21.1562 22.125 22.1562 21.125 22.875 19.875C23.625 18.625 24 17.25 24 15.75ZM22.0781 23.1562C20.3281 24.6562 18.2188 25.4375 15.75 25.5C13 25.4375 10.7031 24.4844 8.85938 22.6406C7.01562 20.7969 6.0625 18.5 6 15.75C6.0625 13 7.01562 10.7031 8.85938 8.85938C10.7031 7.01563 13 6.0625 15.75 6C18.5 6.0625 20.7969 7.01563 22.6406 8.85938C24.4844 10.7031 25.4375 13 25.5 15.75C25.4375 18.2188 24.6562 20.3281 23.1562 22.0781L29.7656 28.7344C30.0781 29.0781 30.0781 29.4219 29.7656 29.7656C29.4219 30.0781 29.0781 30.0781 28.7344 29.7656L22.0781 23.1562Z" fill="#000000"/>
</svg>
