<svg width="36" height="36" viewBox="0 0 36 36" fill="none" xmlns="http://www.w3.org/2000/svg">
<path d="M25.3594 9.14062C24.6406 8.45312 23.8125 8.10938 22.875 8.10938C21.9375 8.10938 21.1094 8.45312 20.3906 9.14062L11.3906 18.1406C10.2969 19.2969 9.75 20.625 9.75 22.125C9.75 23.625 10.2969 24.9531 11.3906 26.1094C12.5469 27.2031 13.875 27.75 15.375 27.75C16.875 27.75 18.2031 27.2031 19.3594 26.1094L26.4844 18.9844C26.8281 18.6719 27.1719 18.6719 27.5156 18.9844C27.8281 19.3281 27.8281 19.6719 27.5156 20.0156L20.3906 27.1406C18.9531 28.5469 17.2812 29.25 15.375 29.25C13.4688 29.25 11.7969 28.5469 10.3594 27.1406C8.95312 25.7031 8.25 24.0312 8.25 22.125C8.25 20.2188 8.95312 18.5469 10.3594 17.1094L19.3594 8.10938C20.3906 7.10938 21.5625 6.60938 22.875 6.60938C24.1875 6.60938 25.3594 7.10938 26.3906 8.10938C27.3594 9.14062 27.8594 10.3125 27.8906 11.625C27.8906 12.9375 27.3906 14.1094 26.3906 15.1406L17.8125 23.7656C17.0938 24.4219 16.2969 24.7344 15.4219 24.7031C14.5156 24.6406 13.75 24.25 13.125 23.5312C12.625 22.875 12.3906 22.1562 12.4219 21.375C12.4844 20.5938 12.7969 19.9219 13.3594 19.3594L20.4844 12.2344C20.8281 11.9219 21.1719 11.9219 21.5156 12.2344C21.8281 12.5781 21.8281 12.9219 21.5156 13.2656L14.4375 20.3906C14.125 20.7031 13.9531 21.0625 13.9219 21.4688C13.9219 21.875 14.0469 22.25 14.2969 22.5938C14.6094 22.9688 15 23.1719 15.4688 23.2031C15.9375 23.2031 16.3594 23.0469 16.7344 22.7344L25.3594 14.1094C26.0469 13.3906 26.3906 12.5625 26.3906 11.625C26.3906 10.6875 26.0469 9.85938 25.3594 9.14062Z" fill="#000000"/>
</svg>
