<svg width="36" height="36" viewBox="0 0 36 36" fill="none" xmlns="http://www.w3.org/2000/svg">
<path d="M12.75 10.5C12.2812 10.5312 12.0312 10.7812 12 11.25V24.75C12.0312 25.2188 12.2812 25.4688 12.75 25.5H15C15.4688 25.4688 15.7188 25.2188 15.75 24.75V11.25C15.7188 10.7812 15.4688 10.5312 15 10.5H12.75ZM10.5 11.25C10.5312 10.625 10.75 10.0938 11.1562 9.65625C11.5938 9.25 12.125 9.03125 12.75 9H15C15.625 9.03125 16.1562 9.25 16.5938 9.65625C17 10.0938 17.2188 10.625 17.25 11.25V24.75C17.2188 25.375 17 25.9062 16.5938 26.3438C16.1562 26.75 15.625 26.9688 15 27H12.75C12.125 26.9688 11.5938 26.75 11.1562 26.3438C10.75 25.9062 10.5312 25.375 10.5 24.75V11.25ZM21 10.5C20.5312 10.5312 20.2812 10.7812 20.25 11.25V24.75C20.2812 25.2188 20.5312 25.4688 21 25.5H23.25C23.7188 25.4688 23.9688 25.2188 24 24.75V11.25C23.9688 10.7812 23.7188 10.5312 23.25 10.5H21ZM18.75 11.25C18.7812 10.625 19 10.0938 19.4062 9.65625C19.8438 9.25 20.375 9.03125 21 9H23.25C23.875 9.03125 24.4062 9.25 24.8438 9.65625C25.25 10.0938 25.4688 10.625 25.5 11.25V24.75C25.4688 25.375 25.25 25.9062 24.8438 26.3438C24.4062 26.75 23.875 26.9688 23.25 27H21C20.375 26.9688 19.8438 26.75 19.4062 26.3438C19 25.9062 18.7812 25.375 18.75 24.75V11.25Z" fill="#000000"/>
</svg>
