<svg width="36" height="36" viewBox="0 0 36 36" fill="none" xmlns="http://www.w3.org/2000/svg">
<path d="M24.5625 7.875L21.9844 10.4062L25.5938 14.0156L28.125 11.4375C28.5625 10.9062 28.5625 10.375 28.125 9.84375L26.1562 7.875C25.625 7.4375 25.0938 7.4375 24.5625 7.875ZM20.9062 11.4844L10.6406 21.75H11.25C11.7188 21.7812 11.9688 22.0312 12 22.5V24H13.5C13.9688 24.0312 14.2188 24.2812 14.25 24.75V25.3594L24.5156 15.0938L20.9062 11.4844ZM9.14062 23.8125L7.875 28.125L12.1875 26.8594C12.4062 26.7969 12.5938 26.7188 12.75 26.625V25.5H11.25C10.7812 25.4688 10.5312 25.2188 10.5 24.75V23.25H9.375C9.28125 23.4062 9.20312 23.5938 9.14062 23.8125ZM27.1875 6.79688L29.2031 8.8125C29.7031 9.34375 29.9531 9.95312 29.9531 10.6406C29.9531 11.3594 29.7031 11.9844 29.2031 12.5156L14.5312 27.1406C14 27.7031 13.375 28.0938 12.6562 28.3125L6.98438 29.9531C6.67188 30.0469 6.42188 29.9844 6.23438 29.7656C6.01562 29.5781 5.95312 29.3438 6.04688 29.0625L7.6875 23.3906C7.90625 22.6406 8.28125 22 8.8125 21.4688L23.4844 6.79688C24.0156 6.29687 24.6406 6.04688 25.3594 6.04688C26.0469 6.04688 26.6562 6.29687 27.1875 6.79688ZM21.5156 15.5156L15.5156 21.5156C15.1719 21.7969 14.8281 21.7969 14.4844 21.5156C14.1719 21.1406 14.1719 20.7812 14.4844 20.4375L20.4844 14.4375C20.8281 14.1562 21.1719 14.1562 21.5156 14.4375C21.8281 14.7812 21.8281 15.1406 21.5156 15.5156Z" fill="#000000"/>
</svg>
