<svg width="36" height="36" viewBox="0 0 36 36" fill="none" xmlns="http://www.w3.org/2000/svg">
<path d="M9 9C8.5625 9 8.20312 9.14062 7.92188 9.42188C7.64062 9.70312 7.5 10.0625 7.5 10.5V21.4219L10.6875 18.2812C11.0625 17.9062 11.5 17.7188 12 17.7188C12.5 17.7188 12.9375 17.9062 13.3125 18.2812L16.5 21.4219L22.6875 15.2812C23.0625 14.9062 23.5 14.7188 24 14.7188C24.5 14.7188 24.9375 14.9062 25.3125 15.2812L28.5 18.4219V10.5C28.5 10.0625 28.3594 9.70312 28.0781 9.42188C27.7969 9.14062 27.4375 9 27 9H9ZM7.5 23.5781V25.5C7.5 25.9375 7.64062 26.2969 7.92188 26.5781C8.20312 26.8594 8.5625 27 9 27H10.9219L15.4219 22.5L12.2812 19.3125C12.0938 19.1875 11.9062 19.1875 11.7188 19.3125L7.5 23.5781ZM24.2812 16.3125C24.0938 16.1875 23.9062 16.1875 23.7188 16.3125L13.0781 27H27C27.4375 27 27.7969 26.8594 28.0781 26.5781C28.3594 26.2969 28.5 25.9375 28.5 25.5V20.5781L24.2812 16.3125ZM6 10.5C6.03125 9.65625 6.32812 8.95312 6.89062 8.39062C7.45312 7.82812 8.15625 7.53125 9 7.5H27C27.8438 7.53125 28.5469 7.82812 29.1094 8.39062C29.6719 8.95312 29.9688 9.65625 30 10.5V25.5C29.9688 26.3438 29.6719 27.0469 29.1094 27.6094C28.5469 28.1719 27.8438 28.4688 27 28.5H9C8.15625 28.4688 7.45312 28.1719 6.89062 27.6094C6.32812 27.0469 6.03125 26.3438 6 25.5V10.5ZM13.5 12.75C13.4688 12.2812 13.2188 12.0312 12.75 12C12.2812 12.0312 12.0312 12.2812 12 12.75C12.0312 13.2188 12.2812 13.4688 12.75 13.5C13.2188 13.4688 13.4688 13.2188 13.5 12.75ZM10.5 12.75C10.5312 11.9062 10.9062 11.25 11.625 10.7812C12.375 10.4062 13.125 10.4062 13.875 10.7812C14.5938 11.25 14.9688 11.9062 15 12.75C14.9688 13.5938 14.5938 14.25 13.875 14.7188C13.125 15.0938 12.375 15.0938 11.625 14.7188C10.9062 14.25 10.5312 13.5938 10.5 12.75Z" fill="#000000"/>
</svg>
