<svg width="36" height="36" viewBox="0 0 36 36" fill="none" xmlns="http://www.w3.org/2000/svg">
<path d="M11.625 9.09375C11.375 8.96875 11.125 8.96875 10.875 9.09375C10.625 9.25 10.5 9.46875 10.5 9.75V26.25C10.5 26.5312 10.625 26.75 10.875 26.9062C11.125 27.0312 11.375 27.0312 11.625 26.9062L25.125 18.6562C25.375 18.5 25.5 18.2812 25.5 18C25.5 17.7188 25.375 17.5 25.125 17.3438L11.625 9.09375ZM10.1719 7.78125C10.9219 7.375 11.6719 7.39063 12.4219 7.82812L25.9219 16.0781C26.6094 16.5156 26.9688 17.1562 27 18C26.9688 18.8438 26.6094 19.4844 25.9219 19.9219L12.4219 28.1719C11.6719 28.6094 10.9219 28.625 10.1719 28.2188C9.42188 27.7812 9.03125 27.125 9 26.25V9.75C9.03125 8.875 9.42188 8.21875 10.1719 7.78125Z" fill="#000000"/>
</svg>
