<svg width="36" height="36" viewBox="0 0 36 36" fill="none" xmlns="http://www.w3.org/2000/svg">
<path d="M10.5 13.5H9V9C9.03125 8.15625 9.32812 7.45312 9.89062 6.89062C10.4531 6.32812 11.1562 6.03125 12 6H22.7812C23.5938 6 24.2969 6.29687 24.8906 6.89062L26.1094 8.10938C26.7031 8.70312 27 9.42188 27 10.2656V13.5H25.5V10.2656C25.5 9.82812 25.3594 9.46875 25.0781 9.1875L23.8125 7.92188C23.5312 7.64062 23.1875 7.5 22.7812 7.5H12C11.5625 7.5 11.2031 7.64062 10.9219 7.92188C10.6406 8.20312 10.5 8.5625 10.5 9V13.5ZM27 16.5H9C8.5625 16.5 8.20312 16.6406 7.92188 16.9219C7.64062 17.2031 7.5 17.5625 7.5 18V24H9V22.5C9 22.0625 9.14062 21.7031 9.42188 21.4219C9.70312 21.1406 10.0625 21 10.5 21H25.5C25.9375 21 26.2969 21.1406 26.5781 21.4219C26.8594 21.7031 27 22.0625 27 22.5V24H28.5V18C28.5 17.5625 28.3594 17.2031 28.0781 16.9219C27.7969 16.6406 27.4375 16.5 27 16.5ZM27 25.5V28.5C27 28.9375 26.8594 29.2969 26.5781 29.5781C26.2969 29.8594 25.9375 30 25.5 30H10.5C10.0625 30 9.70312 29.8594 9.42188 29.5781C9.14062 29.2969 9 28.9375 9 28.5V25.5H7.5C7.0625 25.5 6.70312 25.3594 6.42188 25.0781C6.14062 24.7969 6 24.4375 6 24V18C6.03125 17.1562 6.32812 16.4531 6.89062 15.8906C7.45312 15.3281 8.15625 15.0312 9 15H27C27.8438 15.0312 28.5469 15.3281 29.1094 15.8906C29.6719 16.4531 29.9688 17.1562 30 18V24C30 24.4375 29.8594 24.7969 29.5781 25.0781C29.2969 25.3594 28.9375 25.5 28.5 25.5H27ZM10.5 22.5V28.5H25.5V22.5H10.5ZM26.25 17.625C26.9375 17.6875 27.3125 18.0625 27.375 18.75C27.3125 19.4375 26.9375 19.8125 26.25 19.875C25.5625 19.8125 25.1875 19.4375 25.125 18.75C25.1875 18.0625 25.5625 17.6875 26.25 17.625Z" fill="#000000"/>
</svg>
