<svg width="36" height="36" viewBox="0 0 36 36" fill="none" xmlns="http://www.w3.org/2000/svg">
<path d="M6.70312 18.75C6.26562 18.6875 6.03125 18.4219 6 17.9531V17.5781C6.1875 15.3281 7.04688 13.4688 8.57812 12C10.1094 10.5625 12 9.8125 14.25 9.75H21V7.6875C21 7.3125 21.125 7 21.375 6.75C21.625 6.5 21.9375 6.375 22.3125 6.375C22.625 6.375 22.9062 6.48437 23.1562 6.70312L26.7656 9.9375C26.9219 10.0938 27 10.2812 27 10.5C27 10.7188 26.9219 10.9062 26.7656 11.0625L23.1562 14.2969C22.9062 14.5156 22.625 14.625 22.3125 14.625C21.9375 14.625 21.625 14.5 21.375 14.25C21.125 14 21 13.6875 21 13.3125V11.25H14.25C12.4062 11.2812 10.8594 11.9062 9.60938 13.125C8.35938 14.3125 7.65625 15.8281 7.5 17.6719V18.0469C7.4375 18.4844 7.17188 18.7188 6.70312 18.75ZM22.5 12.8906L25.125 10.5L22.5 8.15625V12.8438V12.8906ZM29.2969 17.25C29.7344 17.3125 29.9688 17.5781 30 18.0469V18.4219C29.8125 20.6719 28.9531 22.5312 27.4219 24C25.8906 25.4375 24 26.1875 21.75 26.25H15V28.3125C15 28.6875 14.875 29 14.625 29.25C14.375 29.5 14.0625 29.625 13.6875 29.625C13.375 29.625 13.0938 29.5156 12.8438 29.2969L9.23438 26.0625C9.07812 25.9062 9 25.7188 9 25.5C9 25.2812 9.07812 25.0938 9.23438 24.9375L12.8438 21.7031C13.0938 21.4844 13.375 21.375 13.6875 21.375C14.0625 21.375 14.375 21.5 14.625 21.75C14.875 22 15 22.3125 15 22.6875V24.75H21.75C23.5938 24.7188 25.1406 24.0938 26.3906 22.875C27.6406 21.6875 28.3438 20.1719 28.5 18.3281V17.9531C28.5625 17.5156 28.8281 17.2812 29.2969 17.25ZM13.5 23.1562L10.875 25.5L13.5 27.8906V23.1562Z" fill="#000000"/>
</svg>
