<svg width="36" height="36" viewBox="0 0 36 36" fill="none" xmlns="http://www.w3.org/2000/svg">
<path d="M19.875 13.5H19.5H14.25C12.3438 13.5625 10.75 14.2188 9.46875 15.4688C8.21875 16.75 7.5625 18.3438 7.5 20.25C7.5 21.3125 7.65625 22.25 7.96875 23.0625C8.28125 23.875 8.65625 24.5469 9.09375 25.0781C9.03125 24.7656 9 24.4062 9 24C9.03125 22.3125 9.60938 20.8906 10.7344 19.7344C11.8906 18.6094 13.3125 18.0312 15 18H19.5H19.875C20.5625 18.0625 20.9375 18.4375 21 19.125V19.5V20.25V22.5L28.5 15.75L21 9V11.25V12V12.375C20.9375 13.0625 20.5625 13.4375 19.875 13.5ZM19.5 20.25V19.5H18H15C13.7188 19.5312 12.6562 19.9688 11.8125 20.8125C10.9688 21.6562 10.5312 22.7188 10.5 24C10.5312 24.7188 10.6562 25.2812 10.875 25.6875C11.0938 26.125 11.3125 26.4531 11.5312 26.6719C11.8125 26.9219 11.9688 27.2188 12 27.5625C11.9375 28.125 11.625 28.4375 11.0625 28.5C10.9375 28.5 10.8125 28.4688 10.6875 28.4062C10.375 28.25 9.84375 27.875 9.09375 27.2812C8.34375 26.6562 7.65625 25.7656 7.03125 24.6094C6.375 23.4531 6.03125 22 6 20.25C6.0625 17.9062 6.875 15.9688 8.4375 14.4375C9.96875 12.875 11.9062 12.0625 14.25 12H18H19.5V11.25V10.5V9C19.5312 8.375 19.8281 7.92188 20.3906 7.64062C20.9844 7.39063 21.5156 7.46875 21.9844 7.875L29.4844 14.625C29.8281 14.9375 30 15.3125 30 15.75C30 16.1875 29.8281 16.5625 29.4844 16.875L21.9844 23.625C21.5156 24.0312 20.9844 24.1094 20.3906 23.8594C19.8281 23.5781 19.5312 23.125 19.5 22.5V21V20.25Z" fill="#000000"/>
</svg>
