<svg width="36" height="36" viewBox="0 0 36 36" fill="none" xmlns="http://www.w3.org/2000/svg">
<path d="M26.0156 7.73438L29.7656 11.4844C30.0781 11.8281 30.0781 12.1719 29.7656 12.5156L26.0156 16.2656C25.6719 16.5781 25.3281 16.5781 24.9844 16.2656C24.6719 15.9219 24.6719 15.5781 24.9844 15.2344L27.4219 12.75H24.75H22.125C21.625 12.75 21.2188 12.9531 20.9062 13.3594L18.375 16.7344L17.4375 15.5156L19.7344 12.4688C20.3281 11.6875 21.125 11.2812 22.125 11.25H24.75H27.4219L24.9844 8.76562C24.6719 8.42188 24.6719 8.07812 24.9844 7.73438C25.3281 7.42187 25.6719 7.42187 26.0156 7.73438ZM11.8594 22.9688V22.9219L14.625 19.2656L15.5625 20.4844L13.0312 23.8594C12.5938 24.4219 12 24.7188 11.25 24.75H6.75C6.28125 24.7188 6.03125 24.4688 6 24C6.03125 23.5312 6.28125 23.2812 6.75 23.25H11.25C11.5 23.25 11.7031 23.1562 11.8594 22.9688ZM24.9844 28.2656C24.6719 27.9219 24.6719 27.5781 24.9844 27.2344L27.4219 24.75H24.75H22.125C21.125 24.7188 20.3281 24.3125 19.7344 23.5312L11.8594 13.0312C11.7031 12.8438 11.5 12.75 11.25 12.75H6.75C6.28125 12.7188 6.03125 12.4688 6 12C6.03125 11.5312 6.28125 11.2812 6.75 11.25H11.25C12 11.2812 12.5938 11.5781 13.0312 12.1406L20.9062 22.6406C21.2188 23.0469 21.625 23.25 22.125 23.25H24.75H27.4219L24.9844 20.7656C24.6719 20.4219 24.6719 20.0781 24.9844 19.7344C25.3281 19.4219 25.6719 19.4219 26.0156 19.7344L29.7656 23.4844C30.0781 23.8281 30.0781 24.1719 29.7656 24.5156L26.0156 28.2656C25.6719 28.5781 25.3281 28.5781 24.9844 28.2656Z" fill="#000000"/>
</svg>
