<svg width="36" height="36" viewBox="0 0 36 36" fill="none" xmlns="http://www.w3.org/2000/svg">
<path d="M12.0938 14.4375C12.0312 14.5 12 14.5781 12 14.6719C12.0312 14.8594 12.1406 14.9688 12.3281 15H23.6719C23.8594 14.9688 23.9688 14.8594 24 14.6719C24 14.5781 23.9688 14.5 23.9062 14.4375L18.2812 9.09375C18.1875 9.03125 18.0938 9 18 9C17.9062 9 17.8125 9.03125 17.7188 9.09375L12.0938 14.4375ZM11.0625 13.3125L16.6875 8.01562C17.0625 7.67188 17.5 7.5 18 7.5C18.5 7.5 18.9375 7.67188 19.3125 8.01562L24.9375 13.3594C25.3125 13.7031 25.5 14.1406 25.5 14.6719C25.5 15.2031 25.3281 15.6406 24.9844 15.9844C24.6406 16.3281 24.2031 16.5 23.6719 16.5H12.3281C11.7969 16.5 11.3594 16.3281 11.0156 15.9844C10.6719 15.6406 10.5 15.2031 10.5 14.6719C10.5 14.1406 10.6875 13.6875 11.0625 13.3125ZM12.0938 21.5625L17.7188 26.9062C17.8125 26.9688 17.9062 27 18 27C18.0938 27 18.1875 26.9688 18.2812 26.9062L23.9062 21.5625C23.9688 21.5 24 21.4219 24 21.3281C23.9688 21.1406 23.8594 21.0312 23.6719 21H12.3281C12.1406 21.0312 12.0312 21.1406 12 21.3281C12 21.4219 12.0312 21.5 12.0938 21.5625ZM11.0625 22.6875C10.6875 22.3125 10.5 21.8594 10.5 21.3281C10.5 20.7969 10.6719 20.3594 11.0156 20.0156C11.3594 19.6719 11.7969 19.5 12.3281 19.5H23.6719C24.2031 19.5 24.6406 19.6719 24.9844 20.0156C25.3281 20.3594 25.5 20.7969 25.5 21.3281C25.5 21.8594 25.3125 22.3125 24.9375 22.6875L19.3125 27.9844C18.9375 28.3281 18.5 28.5 18 28.5C17.5 28.5 17.0625 28.3281 16.6875 27.9844L11.0625 22.6875Z" fill="#000000"/>
</svg>
