<svg width="36" height="36" viewBox="0 0 36 36" fill="none" xmlns="http://www.w3.org/2000/svg">
<path d="M10.5 9C10.0625 9 9.70312 9.14062 9.42188 9.42188C9.14062 9.70312 9 10.0625 9 10.5V25.5C9 25.9375 9.14062 26.2969 9.42188 26.5781C9.70312 26.8594 10.0625 27 10.5 27H25.5C25.9375 27 26.2969 26.8594 26.5781 26.5781C26.8594 26.2969 27 25.9375 27 25.5V10.5C27 10.0625 26.8594 9.70312 26.5781 9.42188C26.2969 9.14062 25.9375 9 25.5 9H10.5ZM7.5 10.5C7.53125 9.65625 7.82812 8.95312 8.39062 8.39062C8.95312 7.82812 9.65625 7.53125 10.5 7.5H25.5C26.3438 7.53125 27.0469 7.82812 27.6094 8.39062C28.1719 8.95312 28.4688 9.65625 28.5 10.5V25.5C28.4688 26.3438 28.1719 27.0469 27.6094 27.6094C27.0469 28.1719 26.3438 28.4688 25.5 28.5H10.5C9.65625 28.4688 8.95312 28.1719 8.39062 27.6094C7.82812 27.0469 7.53125 26.3438 7.5 25.5V10.5ZM12.375 13.5C12.4375 12.8125 12.8125 12.4375 13.5 12.375C14.1875 12.4375 14.5625 12.8125 14.625 13.5C14.5625 14.1875 14.1875 14.5625 13.5 14.625C12.8125 14.5625 12.4375 14.1875 12.375 13.5ZM16.5 13.5C16.5312 13.0312 16.7812 12.7812 17.25 12.75H23.25C23.7188 12.7812 23.9688 13.0312 24 13.5C23.9688 13.9688 23.7188 14.2188 23.25 14.25H17.25C16.7812 14.2188 16.5312 13.9688 16.5 13.5ZM16.5 18C16.5312 17.5312 16.7812 17.2812 17.25 17.25H23.25C23.7188 17.2812 23.9688 17.5312 24 18C23.9688 18.4688 23.7188 18.7188 23.25 18.75H17.25C16.7812 18.7188 16.5312 18.4688 16.5 18ZM16.5 22.5C16.5312 22.0312 16.7812 21.7812 17.25 21.75H23.25C23.7188 21.7812 23.9688 22.0312 24 22.5C23.9688 22.9688 23.7188 23.2188 23.25 23.25H17.25C16.7812 23.2188 16.5312 22.9688 16.5 22.5ZM13.5 19.125C12.8125 19.0625 12.4375 18.6875 12.375 18C12.4375 17.3125 12.8125 16.9375 13.5 16.875C14.1875 16.9375 14.5625 17.3125 14.625 18C14.5625 18.6875 14.1875 19.0625 13.5 19.125ZM12.375 22.5C12.4375 21.8125 12.8125 21.4375 13.5 21.375C14.1875 21.4375 14.5625 21.8125 14.625 22.5C14.5625 23.1875 14.1875 23.5625 13.5 23.625C12.8125 23.5625 12.4375 23.1875 12.375 22.5Z" fill="#000000"/>
</svg>
