<svg width="37" height="36" viewBox="0 0 37 36" fill="none" xmlns="http://www.w3.org/2000/svg">
<path d="M18.7727 12.6094C20.304 12.6406 21.5696 13.1719 22.5696 14.2031C23.6008 15.2031 24.1321 16.4688 24.1633 18C24.1321 19.5312 23.6008 20.7969 22.5696 21.7969C21.5696 22.8281 20.304 23.3594 18.7727 23.3906C17.2415 23.3594 15.9758 22.8281 14.9758 21.7969C13.9446 20.7969 13.4133 19.5312 13.3821 18C13.4133 16.4688 13.9446 15.2031 14.9758 14.2031C15.9758 13.1719 17.2415 12.6406 18.7727 12.6094ZM18.7727 21.5156C19.7727 21.4844 20.6008 21.1406 21.2571 20.4844C21.9133 19.8281 22.2571 19 22.2883 18C22.2571 17 21.9133 16.1719 21.2571 15.5156C20.6008 14.8594 19.7727 14.5156 18.7727 14.4844C17.7727 14.5156 16.9446 14.8594 16.2883 15.5156C15.6321 16.1719 15.2883 17 15.2571 18C15.2883 19 15.6321 19.8281 16.2883 20.4844C16.9446 21.1406 17.7727 21.4844 18.7727 21.5156ZM25.6633 12.375C25.6321 12.0312 25.5071 11.7344 25.2883 11.4844C25.0383 11.2656 24.7415 11.1562 24.3977 11.1562C24.0227 11.1562 23.7258 11.2656 23.5071 11.4844C23.2571 11.7344 23.1321 12.0312 23.1321 12.375C23.1946 13.1562 23.6165 13.5781 24.3977 13.6406C25.1477 13.5781 25.5696 13.1562 25.6633 12.375ZM29.2258 13.6875V13.6406C29.2571 14.2656 29.2727 15.1562 29.2727 16.3125C29.2727 17.4375 29.2727 18.5625 29.2727 19.6875C29.2727 20.8125 29.2571 21.6875 29.2258 22.3125C29.2258 24.0312 28.6477 25.5 27.4915 26.7188C26.2727 27.875 24.8196 28.4375 23.1321 28.4062C22.5071 28.4375 21.6165 28.4688 20.4602 28.5C19.3352 28.5 18.2102 28.5 17.0852 28.5C15.929 28.4688 15.054 28.4375 14.4602 28.4062C12.7415 28.4375 11.2727 27.875 10.054 26.7188C8.89771 25.5 8.33521 24.0312 8.36646 22.3125C8.30396 21.6875 8.27271 20.8125 8.27271 19.6875C8.27271 18.5625 8.27271 17.4375 8.27271 16.3125C8.27271 15.1562 8.30396 14.2656 8.36646 13.6406C8.33521 11.9531 8.89771 10.5 10.054 9.28125C11.304 8.125 12.7727 7.54688 14.4602 7.54688C15.054 7.51562 15.929 7.5 17.0852 7.5C18.2102 7.5 19.3352 7.5 20.4602 7.5C21.6165 7.5 22.5071 7.51562 23.1321 7.54688C24.8196 7.54688 26.2727 8.125 27.4915 9.28125C28.6477 10.5 29.2258 11.9688 29.2258 13.6875ZM26.9758 24.1875C27.1946 23.5625 27.3196 22.7188 27.3508 21.6562C27.4133 20.5938 27.429 19.625 27.3977 18.75C27.3977 18.4688 27.3977 18.2188 27.3977 18C27.3977 17.7812 27.3977 17.5312 27.3977 17.25C27.429 16.375 27.4133 15.4062 27.3508 14.3438C27.3196 13.2812 27.1946 12.4375 26.9758 11.8125C26.5696 10.875 25.8977 10.2031 24.9602 9.79688C24.3352 9.57812 23.4915 9.45312 22.429 9.42188C21.3665 9.39062 20.3977 9.375 19.5227 9.375C19.2415 9.375 18.9915 9.375 18.7727 9.375C18.554 9.375 18.304 9.375 18.0227 9.375C17.1477 9.34375 16.179 9.35938 15.1165 9.42188C14.0852 9.45312 13.2415 9.57812 12.5852 9.79688C11.6477 10.2031 10.9758 10.875 10.5696 11.8125C10.3508 12.4375 10.2258 13.2812 10.1946 14.3438C10.1633 15.4062 10.1477 16.375 10.1477 17.25C10.1477 17.5312 10.1477 17.7812 10.1477 18C10.1477 18.2188 10.1477 18.4688 10.1477 18.75C10.1477 19.625 10.1633 20.5938 10.1946 21.6562C10.2258 22.6875 10.3508 23.5312 10.5696 24.1875C10.9758 25.125 11.6477 25.7969 12.5852 26.2031C13.2415 26.4219 14.0852 26.5469 15.1165 26.5781C16.179 26.6094 17.1477 26.625 18.0227 26.625C18.304 26.625 18.554 26.625 18.7727 26.625C18.9915 26.625 19.2415 26.625 19.5227 26.625C20.3977 26.625 21.3665 26.6094 22.429 26.5781C23.4915 26.5469 24.3352 26.4219 24.9602 26.2031C25.8977 25.7969 26.5696 25.125 26.9758 24.1875Z" fill="#000000"/>
</svg>
