<svg width="37" height="36" viewBox="0 0 37 36" fill="none" xmlns="http://www.w3.org/2000/svg">
<path d="M31.054 11.8125C31.2102 12.5312 31.3352 13.3594 31.429 14.2969C31.4915 15.2656 31.5383 16.125 31.5696 16.875C31.5696 17.5938 31.5696 17.9688 31.5696 18C31.5696 18.0625 31.5696 18.4531 31.5696 19.1719C31.5383 19.9219 31.4915 20.7656 31.429 21.7031C31.3352 22.6719 31.2102 23.5156 31.054 24.2344C30.679 25.3906 29.9133 26.1406 28.7571 26.4844C28.0071 26.6406 26.8508 26.7656 25.2883 26.8594C23.7258 26.9219 22.2727 26.9688 20.929 27C19.5852 27 18.8665 27 18.7727 27C18.679 27 17.9602 27 16.6165 27C15.2727 26.9688 13.8196 26.9219 12.2571 26.8594C10.6946 26.7656 9.53833 26.6406 8.78833 26.4844C7.63208 26.1406 6.86646 25.3906 6.49146 24.2344C6.33521 23.5156 6.21021 22.6719 6.11646 21.7031C6.05396 20.7656 6.00708 19.9219 5.97583 19.1719C5.97583 18.4531 5.97583 18.0625 5.97583 18C5.97583 17.9688 5.97583 17.5938 5.97583 16.875C6.00708 16.125 6.05396 15.2656 6.11646 14.2969C6.21021 13.3594 6.33521 12.5312 6.49146 11.8125C6.86646 10.6562 7.63208 9.89062 8.78833 9.51562C9.53833 9.35938 10.6946 9.23438 12.2571 9.14062C13.8196 9.07812 15.2727 9.03125 16.6165 9C17.9602 9 18.679 9 18.7727 9C18.8665 9 19.5852 9 20.929 9C22.2727 9.03125 23.7258 9.07812 25.2883 9.14062C26.8508 9.23438 28.0071 9.35938 28.7571 9.51562C29.9133 9.89062 30.679 10.6562 31.054 11.8125ZM16.1477 21.8438L22.8508 18L16.1477 14.2031V21.8438Z" fill="#000000"/>
</svg>
