<svg width="37" height="36" viewBox="0 0 37 36" fill="none" xmlns="http://www.w3.org/2000/svg">
<path d="M12.9602 27H8.60083V12.9844H12.9602V27ZM10.804 11.0625C10.0852 11.0312 9.49146 10.7812 9.02271 10.3125C8.55396 9.84375 8.30396 9.25 8.27271 8.53125C8.30396 7.5625 8.72583 6.82813 9.53833 6.32812C10.3821 5.89063 11.2258 5.89063 12.0696 6.32812C12.8821 6.82813 13.304 7.5625 13.3352 8.53125C13.304 9.25 13.054 9.84375 12.5852 10.3125C12.1165 10.7812 11.5227 11.0312 10.804 11.0625ZM29.2727 27H24.9133V20.1562C24.9758 19.3125 24.8821 18.5 24.6321 17.7188C24.3821 16.9375 23.7258 16.5156 22.6633 16.4531C21.5696 16.4844 20.8508 16.8594 20.5071 17.5781C20.1633 18.2969 20.0071 19.125 20.0383 20.0625V27H15.679V12.9844H19.8977V14.9062H19.9446C20.2258 14.3125 20.7102 13.7969 21.3977 13.3594C22.1165 12.8906 23.0071 12.6406 24.0696 12.6094C26.1946 12.6719 27.6165 13.3125 28.3352 14.5312C29.0227 15.7812 29.3352 17.375 29.2727 19.3125V27Z" fill="#000000"/>
</svg>
