<svg width="36" height="36" viewBox="0 0 36 36" fill="none" xmlns="http://www.w3.org/2000/svg">
<path d="M15.1406 13.9219C14.8906 14.3906 14.5 14.6719 13.9688 14.7656L7.54688 15.7031L12.2344 20.3438C12.5781 20.6875 12.7188 21.125 12.6562 21.6562L11.5312 28.1719L17.2969 25.125C17.7656 24.875 18.2344 24.875 18.7031 25.125L24.4688 28.1719L23.3438 21.6562C23.2812 21.125 23.4219 20.6875 23.7656 20.3438L28.4531 15.7031L21.9844 14.7656C21.4844 14.6719 21.1094 14.3906 20.8594 13.9219L18 7.96875L15.1406 13.9219ZM24.4219 29.8594L18 26.4375L11.5781 29.8594C11.1719 30.0781 10.7812 30.0469 10.4062 29.7656C10.0312 29.4844 9.875 29.125 9.9375 28.6875L11.1562 21.375L5.95312 16.2188C5.64062 15.9062 5.54688 15.5312 5.67188 15.0938C5.82812 14.6562 6.14062 14.4062 6.60938 14.3438L13.7812 13.2656L16.9688 6.65625C17.1875 6.25 17.5312 6.03125 18 6C18.4688 6.03125 18.8125 6.25 19.0312 6.65625L22.2188 13.2656L29.3906 14.2969C29.8594 14.3906 30.1719 14.6562 30.3281 15.0938C30.4531 15.5312 30.3594 15.9062 30.0469 16.2188L24.8438 21.375L26.0625 28.6875C26.125 29.125 25.9688 29.4844 25.5938 29.7656C25.2188 30.0469 24.8281 30.0781 24.4219 29.8594Z" fill="#000000"/>
</svg>
