<svg width="37" height="36" viewBox="0 0 37 36" fill="none" xmlns="http://www.w3.org/2000/svg">
<path d="M29.6946 11.6719L27.0227 7.5H10.5227L7.85083 11.6719C7.44458 12.3906 7.39771 13.0938 7.71021 13.7812C8.02271 14.4375 8.53833 14.8438 9.25708 15C9.38208 15 9.49146 15 9.58521 15C10.3977 14.9688 11.054 14.6875 11.554 14.1562C11.8665 13.8125 12.2415 13.6406 12.679 13.6406C13.1165 13.6406 13.4758 13.8125 13.7571 14.1562C14.2571 14.6875 14.9133 14.9688 15.7258 15C16.5071 14.9688 17.1477 14.6875 17.6477 14.1562C17.9602 13.8125 18.3352 13.6406 18.7727 13.6406C19.2102 13.6406 19.5852 13.8125 19.8977 14.1562C20.3977 14.6875 21.0383 14.9688 21.8196 15C22.6321 14.9688 23.2883 14.6875 23.7883 14.1562C24.0696 13.8125 24.429 13.6406 24.8665 13.6406C25.304 13.6406 25.679 13.8125 25.9915 14.1562C26.4915 14.6875 27.1321 14.9688 27.9133 15C28.0696 15 28.1946 15 28.2883 15C29.0071 14.8438 29.5227 14.4375 29.8352 13.7812C30.1477 13.0938 30.1008 12.3906 29.6946 11.6719ZM27.9133 16.5H27.9602C26.9915 16.4688 26.1633 16.2031 25.4758 15.7031C25.2571 15.5156 25.054 15.3281 24.8665 15.1406C24.679 15.3281 24.4758 15.5156 24.2571 15.7031C23.5696 16.2031 22.7571 16.4688 21.8196 16.5C20.8821 16.4688 20.0696 16.2031 19.3821 15.7031C19.1633 15.5469 18.9602 15.3594 18.7727 15.1406C18.5852 15.3594 18.3821 15.5469 18.1633 15.7031C17.4758 16.2031 16.6633 16.4688 15.7258 16.5C14.7883 16.4688 13.9758 16.2031 13.2883 15.7031C13.0696 15.5469 12.8508 15.3594 12.6321 15.1406C12.4446 15.3594 12.2415 15.5469 12.0227 15.7031C11.3352 16.2031 10.5227 16.4688 9.58521 16.5C9.39771 16.5 9.21021 16.4844 9.02271 16.4531C7.71021 16.2031 6.80396 15.5 6.30396 14.3438C5.83521 13.1875 5.92896 12.0312 6.58521 10.875L9.30396 6.60938C9.55396 6.20312 9.92896 6 10.429 6H27.1165C27.6165 6 27.9915 6.20312 28.2415 6.60938L30.9602 10.875C31.6165 12.0312 31.7102 13.1875 31.2415 14.3438C30.7415 15.5 29.8352 16.2031 28.5227 16.4531C28.3352 16.4844 28.1321 16.5 27.9133 16.5ZM9.02271 18C9.49146 18.0312 9.74146 18.2812 9.77271 18.75V22.5H27.7727V18.75C27.804 18.2812 28.054 18.0312 28.5227 18C28.9915 18.0312 29.2415 18.2812 29.2727 18.75V22.5V23.25V24V27C29.2415 27.8438 28.9446 28.5469 28.3821 29.1094C27.8196 29.6719 27.1165 29.9688 26.2727 30H11.2727C10.429 29.9688 9.72583 29.6719 9.16333 29.1094C8.60083 28.5469 8.30396 27.8438 8.27271 27V24V23.25V22.5V18.75C8.30396 18.2812 8.55396 18.0312 9.02271 18ZM9.77271 24V27C9.77271 27.4375 9.91333 27.7969 10.1946 28.0781C10.4758 28.3594 10.8352 28.5 11.2727 28.5H26.2727C26.7102 28.5 27.0696 28.3594 27.3508 28.0781C27.6321 27.7969 27.7727 27.4375 27.7727 27V24H9.77271Z" fill="#000000"/>
</svg>
