<svg width="36" height="36" viewBox="0 0 36 36" fill="none" xmlns="http://www.w3.org/2000/svg">
<path d="M9 16.7812C9 17.1875 9.14062 17.5312 9.42188 17.8125L8.39062 18.8906L9.42188 17.8125L17.6719 26.0625C17.9844 26.3438 18.3438 26.4844 18.75 26.4844C19.1562 26.4844 19.5156 26.3438 19.8281 26.0625L26.0625 19.8281C26.3438 19.5156 26.4844 19.1562 26.4844 18.75C26.4844 18.3438 26.3438 17.9844 26.0625 17.6719L17.8125 9.42188C17.5312 9.14062 17.1875 9 16.7812 9H9.75C9.28125 9.03125 9.03125 9.28125 9 9.75V16.7812ZM7.5 16.7812V9.75C7.53125 9.125 7.75 8.59375 8.15625 8.15625C8.59375 7.75 9.125 7.53125 9.75 7.5H16.7344C17.5781 7.5 18.2969 7.79687 18.8906 8.39062L27.1406 16.6406C27.7031 17.2656 27.9844 17.9688 27.9844 18.75C27.9844 19.5625 27.7031 20.2656 27.1406 20.8594L20.8594 27.1406C20.2344 27.7344 19.5312 28.0312 18.75 28.0312C17.9375 28.0312 17.2344 27.7344 16.6406 27.1406L8.39062 18.8906C7.79688 18.2969 7.5 17.5938 7.5 16.7812ZM12.75 13.875C12.0625 13.8125 11.6875 13.4375 11.625 12.75C11.6875 12.0625 12.0625 11.6875 12.75 11.625C13.4375 11.6875 13.8125 12.0625 13.875 12.75C13.8125 13.4375 13.4375 13.8125 12.75 13.875Z" fill="#000000"/>
</svg>
