<svg width="36" height="36" viewBox="0 0 36 36" fill="none" xmlns="http://www.w3.org/2000/svg">
<path d="M19.5469 26.1562C19.7969 26.8125 20.25 27.0781 20.9062 26.9531C21.5625 26.7031 21.8281 26.25 21.7031 25.5938L21.5156 24.7969C21.2344 23.8594 20.8438 22.9688 20.3438 22.125C20.1875 21.875 20.1719 21.625 20.2969 21.375C20.4531 21.125 20.6719 21 20.9531 21H27C27.4375 21 27.7969 20.8594 28.0781 20.5781C28.3594 20.2969 28.5 19.9375 28.5 19.5C28.4688 18.9375 28.2344 18.5156 27.7969 18.2344C27.4531 17.9531 27.375 17.625 27.5625 17.25C27.6875 17.0312 27.75 16.7812 27.75 16.5C27.7188 15.875 27.4531 15.4219 26.9531 15.1406C26.7344 15.0469 26.5938 14.8906 26.5312 14.6719C26.5 14.4219 26.5469 14.2031 26.6719 14.0156C26.8906 13.7656 27 13.4688 27 13.125C26.9688 12.4062 26.625 11.9219 25.9688 11.6719C25.5938 11.5156 25.4219 11.2344 25.4531 10.8281C25.4844 10.7344 25.5 10.625 25.5 10.5C25.5 10.0625 25.3594 9.70312 25.0781 9.42188C24.7969 9.14062 24.4375 9 24 9H19.8281C19.0469 9 18.3438 9.20312 17.7188 9.60938L15.9375 10.8281C15.5 11.1094 15.1406 11.4688 14.8594 11.9062C14.5781 12.25 14.2344 12.3125 13.8281 12.0938C13.4844 11.8125 13.4062 11.4688 13.5938 11.0625C14 10.4688 14.5 9.96875 15.0938 9.5625L16.875 8.39062C17.7812 7.79687 18.75 7.5 19.7812 7.5H24C24.8438 7.53125 25.5469 7.82812 26.1094 8.39062C26.6719 8.95312 26.9688 9.65625 27 10.5V10.5469C27.9375 11.1094 28.4375 11.9688 28.5 13.125C28.5 13.5312 28.4219 13.9219 28.2656 14.2969C28.8906 14.8594 29.2188 15.5938 29.25 16.5C29.25 16.8125 29.2031 17.1094 29.1094 17.3906C29.6719 17.9531 29.9688 18.6562 30 19.5C29.9688 20.3438 29.6719 21.0469 29.1094 21.6094C28.5469 22.1719 27.8438 22.4688 27 22.5H22.2188C22.5312 23.125 22.7812 23.7656 22.9688 24.4219L23.1562 25.1719C23.3438 25.8906 23.2656 26.5625 22.9219 27.1875C22.5469 27.7812 22.0156 28.1875 21.3281 28.4062C20.6094 28.5938 19.9375 28.5156 19.3125 28.1719C18.7188 27.8281 18.3125 27.2969 18.0938 26.5781L17.8594 25.7812C17.4219 24.2188 16.5156 22.9844 15.1406 22.0781L15 21.9844L15.375 21.4219L15 21.9844C14.4375 21.6406 13.9844 21.2031 13.6406 20.6719C13.3906 20.2656 13.4531 19.9219 13.8281 19.6406C14.2031 19.4219 14.5469 19.4844 14.8594 19.8281C15.1094 20.2031 15.4219 20.5 15.7969 20.7188L15.9375 20.8125C17.6562 21.9375 18.7812 23.4688 19.3125 25.4062L19.5469 26.1562ZM7.5 22.5H10.5V12H7.5V22.5ZM6 22.5V12C6 11.5625 6.14062 11.2031 6.42188 10.9219C6.70312 10.6406 7.0625 10.5 7.5 10.5H10.5C10.9375 10.5 11.2969 10.6406 11.5781 10.9219C11.8594 11.2031 12 11.5625 12 12V22.5C12 22.9375 11.8594 23.2969 11.5781 23.5781C11.2969 23.8594 10.9375 24 10.5 24H7.5C7.0625 24 6.70312 23.8594 6.42188 23.5781C6.14062 23.2969 6 22.9375 6 22.5Z" fill="#000000"/>
</svg>
