<svg width="36" height="36" viewBox="0 0 36 36" fill="none" xmlns="http://www.w3.org/2000/svg">
<path d="M19.5469 9.84375L19.3125 10.5938C18.7812 12.5312 17.6562 14.0625 15.9375 15.1875L15.7969 15.2812C15.4219 15.5 15.1094 15.7969 14.8594 16.1719C14.5469 16.5156 14.2031 16.5781 13.8281 16.3594C13.4531 16.0781 13.3906 15.7344 13.6406 15.3281C13.9844 14.7969 14.4375 14.3594 15 14.0156L15.1406 13.9219C16.5156 13.0156 17.4219 11.7812 17.8594 10.2188L18.0938 9.42188C18.3125 8.70312 18.7188 8.17188 19.3125 7.82812C19.9375 7.48438 20.6094 7.40625 21.3281 7.59375C22.0156 7.8125 22.5469 8.21875 22.9219 8.8125C23.2656 9.4375 23.3438 10.1094 23.1562 10.8281L22.9688 11.5781C22.7812 12.2344 22.5312 12.875 22.2188 13.5H27C27.8438 13.5312 28.5469 13.8281 29.1094 14.3906C29.6719 14.9531 29.9688 15.6562 30 16.5C29.9688 17.3438 29.6719 18.0469 29.1094 18.6094C29.2031 18.8906 29.25 19.1875 29.25 19.5C29.2188 20.4062 28.8906 21.1406 28.2656 21.7031C28.4219 22.0781 28.5 22.4688 28.5 22.875C28.4375 24.0312 27.9375 24.8906 27 25.4531V25.5C26.9688 26.3438 26.6719 27.0469 26.1094 27.6094C25.5469 28.1719 24.8438 28.4688 24 28.5H19.7812C18.75 28.5 17.7812 28.2031 16.875 27.6094L15.0938 26.4375C14.5 26.0312 14 25.5312 13.5938 24.9375C13.4062 24.5312 13.4844 24.1875 13.8281 23.9062C14.2344 23.6875 14.5781 23.75 14.8594 24.0938C15.1406 24.5312 15.5 24.8906 15.9375 25.1719L17.7188 26.3906C18.3438 26.7969 19.0469 27 19.8281 27H24C24.4375 27 24.7969 26.8594 25.0781 26.5781C25.3594 26.2969 25.5 25.9375 25.5 25.5C25.5 25.375 25.4844 25.2656 25.4531 25.1719C25.4219 24.7656 25.5938 24.4844 25.9688 24.3281C26.625 24.0781 26.9688 23.5938 27 22.875C27 22.5312 26.8906 22.2344 26.6719 21.9844C26.5469 21.7969 26.5 21.5781 26.5312 21.3281C26.5938 21.1094 26.7344 20.9531 26.9531 20.8594C27.4531 20.5781 27.7188 20.125 27.75 19.5C27.75 19.2188 27.6875 18.9688 27.5625 18.75C27.375 18.375 27.4531 18.0469 27.7969 17.7656C28.2344 17.4844 28.4688 17.0625 28.5 16.5C28.5 16.0625 28.3594 15.7031 28.0781 15.4219C27.7969 15.1406 27.4375 15 27 15H20.9531C20.6719 15 20.4531 14.875 20.2969 14.625C20.1719 14.375 20.1875 14.125 20.3438 13.875C20.8438 13.0312 21.2344 12.1406 21.5156 11.2031L21.7031 10.4062C21.8281 9.75 21.5625 9.29688 20.9062 9.04688C20.25 8.92188 19.7969 9.1875 19.5469 9.84375ZM7.5 16.5V27H10.5V16.5H7.5ZM6 16.5C6 16.0625 6.14062 15.7031 6.42188 15.4219C6.70312 15.1406 7.0625 15 7.5 15H10.5C10.9375 15 11.2969 15.1406 11.5781 15.4219C11.8594 15.7031 12 16.0625 12 16.5V27C12 27.4375 11.8594 27.7969 11.5781 28.0781C11.2969 28.3594 10.9375 28.5 10.5 28.5H7.5C7.0625 28.5 6.70312 28.3594 6.42188 28.0781C6.14062 27.7969 6 27.4375 6 27V16.5Z" fill="#000000"/>
</svg>
