<svg width="36" height="36" viewBox="0 0 36 36" fill="none" xmlns="http://www.w3.org/2000/svg">
<path d="M15.1875 7.875L14.4844 9H21.5156L20.8125 7.875C20.6562 7.625 20.4375 7.5 20.1562 7.5H15.8438C15.5625 7.5 15.3438 7.625 15.1875 7.875ZM22.0781 7.07812L23.2969 9H25.5H27H27.75C28.2188 9.03125 28.4688 9.28125 28.5 9.75C28.4688 10.2188 28.2188 10.4688 27.75 10.5H27V26.25C26.9688 27.3125 26.6094 28.2031 25.9219 28.9219C25.2031 29.6094 24.3125 29.9688 23.25 30H12.75C11.6875 29.9688 10.7969 29.6094 10.0781 28.9219C9.39062 28.2031 9.03125 27.3125 9 26.25V10.5H8.25C7.78125 10.4688 7.53125 10.2188 7.5 9.75C7.53125 9.28125 7.78125 9.03125 8.25 9H9H10.5H12.7031L13.9219 7.07812C14.3906 6.39062 15.0312 6.03125 15.8438 6H20.1562C20.9688 6.03125 21.6094 6.39062 22.0781 7.07812ZM10.5 10.5V26.25C10.5312 26.875 10.75 27.4062 11.1562 27.8438C11.5938 28.25 12.125 28.4688 12.75 28.5H23.25C23.875 28.4688 24.4062 28.25 24.8438 27.8438C25.25 27.4062 25.4688 26.875 25.5 26.25V10.5H10.5ZM14.25 14.25V24.75C14.2188 25.2188 13.9688 25.4688 13.5 25.5C13.0312 25.4688 12.7812 25.2188 12.75 24.75V14.25C12.7812 13.7812 13.0312 13.5312 13.5 13.5C13.9688 13.5312 14.2188 13.7812 14.25 14.25ZM18.75 14.25V24.75C18.7188 25.2188 18.4688 25.4688 18 25.5C17.5312 25.4688 17.2812 25.2188 17.25 24.75V14.25C17.2812 13.7812 17.5312 13.5312 18 13.5C18.4688 13.5312 18.7188 13.7812 18.75 14.25ZM23.25 14.25V24.75C23.2188 25.2188 22.9688 25.4688 22.5 25.5C22.0312 25.4688 21.7812 25.2188 21.75 24.75V14.25C21.7812 13.7812 22.0312 13.5312 22.5 13.5C22.9688 13.5312 23.2188 13.7812 23.25 14.25Z" fill="#000000"/>
</svg>
