<svg width="36" height="36" viewBox="0 0 36 36" fill="none" xmlns="http://www.w3.org/2000/svg">
<path d="M7.64062 25.6875C7.54688 25.8438 7.5 26 7.5 26.1562C7.5625 26.6875 7.84375 26.9688 8.34375 27H27.6562C28.1562 26.9688 28.4375 26.6875 28.5 26.1562C28.5 26 28.4688 25.8438 28.4062 25.6875L18.9844 9.5625C18.7344 9.1875 18.4062 9 18 9C17.5938 9 17.2812 9.1875 17.0625 9.5625L7.64062 25.6875ZM6.32812 24.9375L15.75 8.8125C16.2812 7.96875 17.0312 7.53125 18 7.5C18.9688 7.53125 19.7188 7.96875 20.25 8.8125L29.6719 24.9375C29.8906 25.3125 30 25.7188 30 26.1562C29.9688 26.8125 29.7344 27.3594 29.2969 27.7969C28.8594 28.2344 28.3125 28.4688 27.6562 28.5H8.34375C7.6875 28.4688 7.14062 28.2344 6.70312 27.7969C6.26562 27.3594 6.03125 26.8125 6 26.1562C6 25.7188 6.10938 25.3125 6.32812 24.9375ZM18 13.5C18.4688 13.5312 18.7188 13.7812 18.75 14.25V20.25C18.7188 20.7188 18.4688 20.9688 18 21C17.5312 20.9688 17.2812 20.7188 17.25 20.25V14.25C17.2812 13.7812 17.5312 13.5312 18 13.5ZM16.875 24C16.9375 23.3125 17.3125 22.9375 18 22.875C18.6875 22.9375 19.0625 23.3125 19.125 24C19.0625 24.6875 18.6875 25.0625 18 25.125C17.3125 25.0625 16.9375 24.6875 16.875 24Z" fill="#000000"/>
</svg>
