<svg width="36" height="36" viewBox="0 0 36 36" fill="none" xmlns="http://www.w3.org/2000/svg">
<path d="M6 7.5C5.5625 7.5 5.20312 7.64062 4.92188 7.92188C4.64062 8.20312 4.5 8.5625 4.5 9V22.5C4.5 22.9375 4.64062 23.2969 4.92188 23.5781C5.20312 23.8594 5.5625 24 6 24H6.28125C6.59375 23.125 7.125 22.4062 7.875 21.8438C8.625 21.3125 9.5 21.0312 10.5 21C11.5 21.0312 12.375 21.3125 13.125 21.8438C13.875 22.4062 14.4219 23.125 14.7656 24H21V9C21 8.5625 20.8594 8.20312 20.5781 7.92188C20.2969 7.64062 19.9375 7.5 19.5 7.5H6ZM6 25.5C5.15625 25.4688 4.45312 25.1719 3.89062 24.6094C3.32812 24.0469 3.03125 23.3438 3 22.5V9C3.03125 8.15625 3.32812 7.45312 3.89062 6.89062C4.45312 6.32812 5.15625 6.03125 6 6H19.5C20.3438 6.03125 21.0469 6.32812 21.6094 6.89062C22.1719 7.45312 22.4688 8.15625 22.5 9V10.5H25.5469C26.2344 10.5 26.8125 10.7656 27.2812 11.2969L30.9375 15.6094C31.3125 16.0156 31.5 16.5 31.5 17.0625V24H32.25C32.7188 24.0312 32.9688 24.2812 33 24.75C32.9688 25.2188 32.7188 25.4688 32.25 25.5H30C29.9688 26.7812 29.5312 27.8438 28.6875 28.6875C27.8438 29.5312 26.7812 29.9688 25.5 30C24.2188 29.9688 23.1562 29.5312 22.3125 28.6875C21.4688 27.8438 21.0312 26.7812 21 25.5H15C14.9688 26.7812 14.5312 27.8438 13.6875 28.6875C12.8438 29.5312 11.7812 29.9688 10.5 30C9.21875 29.9688 8.15625 29.5312 7.3125 28.6875C6.46875 27.8438 6.03125 26.7812 6 25.5ZM22.5 16.5H29.7656L26.1094 12.2812C25.9844 12.0938 25.7969 12 25.5469 12H22.5V16.5ZM22.5 18V22.125C23.3125 21.4062 24.3125 21.0312 25.5 21C26.5 21.0312 27.375 21.3125 28.125 21.8438C28.875 22.4062 29.4219 23.125 29.7656 24H30V18H22.5ZM13.5 25.5C13.4688 24.375 12.9688 23.5156 12 22.9219C11 22.3594 10 22.3594 9 22.9219C8.03125 23.5156 7.53125 24.375 7.5 25.5C7.53125 26.625 8.03125 27.4844 9 28.0781C10 28.6406 11 28.6406 12 28.0781C12.9688 27.4844 13.4688 26.625 13.5 25.5ZM25.5 28.5C26.625 28.4688 27.4844 27.9688 28.0781 27C28.6406 26 28.6406 25 28.0781 24C27.4844 23.0312 26.625 22.5312 25.5 22.5C24.375 22.5312 23.5156 23.0312 22.9219 24C22.3594 25 22.3594 26 22.9219 27C23.5156 27.9688 24.375 28.4688 25.5 28.5Z" fill="#000000"/>
</svg>
