<svg width="36" height="36" viewBox="0 0 36 36" fill="none" xmlns="http://www.w3.org/2000/svg">
<path d="M13.5 12V15H24.75C25.8125 15.0312 26.7031 15.3906 27.4219 16.0781C28.1094 16.7969 28.4688 17.6875 28.5 18.75V26.25C28.4688 27.3125 28.1094 28.2031 27.4219 28.9219C26.7031 29.6094 25.8125 29.9688 24.75 30H11.25C10.1875 29.9688 9.29688 29.6094 8.57812 28.9219C7.89062 28.2031 7.53125 27.3125 7.5 26.25V18.75C7.53125 17.6875 7.89062 16.7969 8.57812 16.0781C9.29688 15.3906 10.1875 15.0312 11.25 15H12V12C12.0312 10.3125 12.6094 8.89062 13.7344 7.73438C14.8906 6.60938 16.3125 6.03125 18 6C19.375 6.03125 20.5781 6.4375 21.6094 7.21875C22.6406 8 23.3594 9.03125 23.7656 10.3125C23.8594 10.75 23.6875 11.0469 23.25 11.2031C22.7812 11.2969 22.4688 11.1406 22.3125 10.7344C22.0312 9.76562 21.5 8.98438 20.7188 8.39062C19.9375 7.82812 19.0312 7.53125 18 7.5C16.7188 7.53125 15.6562 7.96875 14.8125 8.8125C13.9688 9.65625 13.5312 10.7188 13.5 12ZM9 18.75V26.25C9.03125 26.875 9.25 27.4062 9.65625 27.8438C10.0938 28.25 10.625 28.4688 11.25 28.5H24.75C25.375 28.4688 25.9062 28.25 26.3438 27.8438C26.75 27.4062 26.9688 26.875 27 26.25V18.75C26.9688 18.125 26.75 17.5938 26.3438 17.1562C25.9062 16.75 25.375 16.5312 24.75 16.5H11.25C10.625 16.5312 10.0938 16.75 9.65625 17.1562C9.25 17.5938 9.03125 18.125 9 18.75Z" fill="#000000"/>
</svg>
