<svg width="36" height="36" viewBox="0 0 36 36" fill="none" xmlns="http://www.w3.org/2000/svg">
<path d="M18.75 8.57812V23.25C18.7188 23.7188 18.4688 23.9688 18 24C17.5312 23.9688 17.2812 23.7188 17.25 23.25V8.57812L12.5156 13.2656C12.1719 13.5781 11.8281 13.5781 11.4844 13.2656C11.1719 12.9219 11.1719 12.5781 11.4844 12.2344L17.4844 6.23438C17.8281 5.92187 18.1719 5.92187 18.5156 6.23438L24.5156 12.2344C24.8281 12.5781 24.8281 12.9219 24.5156 13.2656C24.1719 13.5781 23.8281 13.5781 23.4844 13.2656L18.75 8.57812ZM15.75 22.5H9C8.5625 22.5 8.20312 22.6406 7.92188 22.9219C7.64062 23.2031 7.5 23.5625 7.5 24V27C7.5 27.4375 7.64062 27.7969 7.92188 28.0781C8.20312 28.3594 8.5625 28.5 9 28.5H27C27.4375 28.5 27.7969 28.3594 28.0781 28.0781C28.3594 27.7969 28.5 27.4375 28.5 27V24C28.5 23.5625 28.3594 23.2031 28.0781 22.9219C27.7969 22.6406 27.4375 22.5 27 22.5H20.25V21H27C27.8438 21.0312 28.5469 21.3281 29.1094 21.8906C29.6719 22.4531 29.9688 23.1562 30 24V27C29.9688 27.8438 29.6719 28.5469 29.1094 29.1094C28.5469 29.6719 27.8438 29.9688 27 30H9C8.15625 29.9688 7.45312 29.6719 6.89062 29.1094C6.32812 28.5469 6.03125 27.8438 6 27V24C6.03125 23.1562 6.32812 22.4531 6.89062 21.8906C7.45312 21.3281 8.15625 21.0312 9 21H15.75V22.5ZM24 25.5C24.0625 24.8125 24.4375 24.4375 25.125 24.375C25.8125 24.4375 26.1875 24.8125 26.25 25.5C26.1875 26.1875 25.8125 26.5625 25.125 26.625C24.4375 26.5625 24.0625 26.1875 24 25.5Z" fill="#000000"/>
</svg>
