<svg width="36" height="36" viewBox="0 0 36 36" fill="none" xmlns="http://www.w3.org/2000/svg">
<path d="M22.5 12C22.5 11.1875 22.2969 10.4375 21.8906 9.75C21.4844 9.0625 20.9375 8.51562 20.25 8.10938C19.5312 7.70312 18.7812 7.5 18 7.5C17.2188 7.5 16.4688 7.70312 15.75 8.10938C15.0625 8.51562 14.5156 9.0625 14.1094 9.75C13.7031 10.4375 13.5 11.1875 13.5 12C13.5 12.8125 13.7031 13.5625 14.1094 14.25C14.5156 14.9375 15.0625 15.4844 15.75 15.8906C16.4688 16.2969 17.2188 16.5 18 16.5C18.7812 16.5 19.5312 16.2969 20.25 15.8906C20.9375 15.4844 21.4844 14.9375 21.8906 14.25C22.2969 13.5625 22.5 12.8125 22.5 12ZM12 12C12 10.9062 12.2656 9.90625 12.7969 9C13.3281 8.09375 14.0625 7.35938 15 6.79688C15.9375 6.26563 16.9375 6 18 6C19.0625 6 20.0625 6.26563 21 6.79688C21.9375 7.35938 22.6719 8.09375 23.2031 9C23.7344 9.90625 24 10.9062 24 12C24 13.0938 23.7344 14.0938 23.2031 15C22.6719 15.9062 21.9375 16.6406 21 17.2031C20.0625 17.7344 19.0625 18 18 18C16.9375 18 15.9375 17.7344 15 17.2031C14.0625 16.6406 13.3281 15.9062 12.7969 15C12.2656 14.0938 12 13.0938 12 12ZM9 28.5H27C26.9375 26.5938 26.25 25 24.9375 23.7188C23.6562 22.4688 22.0625 21.8125 20.1562 21.75H15.8438C13.9375 21.8125 12.3438 22.4688 11.0625 23.7188C9.75 25 9.0625 26.5938 9 28.5ZM7.5 28.5938C7.5625 26.25 8.375 24.2812 9.9375 22.6875C11.5312 21.125 13.5 20.3125 15.8438 20.25H20.1562C22.5 20.3125 24.4688 21.125 26.0625 22.6875C27.625 24.2812 28.4375 26.25 28.5 28.5938C28.5 29 28.3594 29.3281 28.0781 29.5781C27.8281 29.8594 27.5 30 27.0938 30H8.90625C8.5 30 8.17188 29.8594 7.92188 29.5781C7.64062 29.3281 7.5 29 7.5 28.5938Z" fill="#000000"/>
</svg>
