<svg width="36" height="36" viewBox="0 0 36 36" fill="none" xmlns="http://www.w3.org/2000/svg">
<path d="M4.21875 6.14062L32.7188 28.6875C33.0625 29 33.1094 29.3438 32.8594 29.7188C32.5156 30.0625 32.1562 30.1094 31.7812 29.8594L3.28125 7.35938C2.9375 7.01563 2.89062 6.65625 3.14062 6.28125C3.48438 5.96875 3.84375 5.92187 4.21875 6.14062ZM30 18C29.9688 19.7188 29.5469 21.2656 28.7344 22.6406L27.5156 21.7031C28.1719 20.6094 28.5 19.375 28.5 18C28.5 16.8125 28.25 15.7344 27.75 14.7656C27.2812 13.7656 26.625 12.9219 25.7812 12.2344C25.4375 11.8906 25.4062 11.5312 25.6875 11.1562C26 10.8438 26.3438 10.8125 26.7188 11.0625C27.75 11.9062 28.5469 12.9219 29.1094 14.1094C29.7031 15.2969 30 16.5938 30 18ZM25.125 19.7812L23.9062 18.8438C23.9688 18.5625 24 18.2812 24 18C23.9688 17 23.5625 16.2031 22.7812 15.6094C22.4688 15.2969 22.4219 14.9375 22.6406 14.5312C22.9531 14.2188 23.3125 14.1719 23.7188 14.3906C24.8438 15.2656 25.4375 16.4688 25.5 18C25.5 18.6562 25.375 19.25 25.125 19.7812ZM19.5 8.90625V15.375L18 14.2031V9.14062L15 11.8125L13.7812 10.875L17.1562 7.875C17.4375 7.625 17.75 7.5 18.0938 7.5C18.5 7.5 18.8281 7.64062 19.0781 7.92188C19.3594 8.17188 19.5 8.5 19.5 8.90625ZM7.125 15C6.4375 15.0625 6.0625 15.4375 6 16.125V19.875C6.0625 20.5625 6.4375 20.9375 7.125 21H11.1094C11.2969 21 11.4688 21.0625 11.625 21.1875L18 26.8594V21.8438L19.5 23.0156V27.0938C19.5 27.5 19.3594 27.8281 19.0781 28.0781C18.8281 28.3594 18.5 28.5 18.0938 28.5C17.75 28.5 17.4375 28.3906 17.1562 28.1719L17.6719 27.6094L17.1562 28.1719L10.8281 22.5H7.125C6.375 22.4688 5.75 22.2188 5.25 21.75C4.78125 21.25 4.53125 20.625 4.5 19.875V16.125C4.53125 15.375 4.78125 14.75 5.25 14.25C5.75 13.7812 6.375 13.5312 7.125 13.5H7.45312L9.375 15H7.125Z" fill="#000000"/>
</svg>
