<svg width="36" height="36" viewBox="0 0 36 36" fill="none" xmlns="http://www.w3.org/2000/svg">
<path d="M19.5 9.14062L13.125 14.8125C12.9688 14.9375 12.7969 15 12.6094 15H8.625C7.9375 15.0625 7.5625 15.4375 7.5 16.125V19.875C7.5625 20.5625 7.9375 20.9375 8.625 21H12.6094C12.7969 21 12.9688 21.0625 13.125 21.1875L19.5 26.8594V9.14062ZM18.6562 7.875C18.9375 7.625 19.25 7.5 19.5938 7.5C20 7.5 20.3281 7.64062 20.5781 7.92188C20.8594 8.17188 21 8.5 21 8.90625V27.0938C21 27.5 20.8594 27.8281 20.5781 28.0781C20.3281 28.3594 20 28.5 19.5938 28.5C19.25 28.5 18.9375 28.3906 18.6562 28.1719L19.1719 27.6094L18.6562 28.1719L12.3281 22.5H8.625C7.875 22.4688 7.25 22.2188 6.75 21.75C6.28125 21.25 6.03125 20.625 6 19.875V16.125C6.03125 15.375 6.28125 14.75 6.75 14.25C7.25 13.7812 7.875 13.5312 8.625 13.5H12.3281L18.6562 7.875ZM24.1406 14.5312C24.4531 14.1875 24.8125 14.1406 25.2188 14.3906C26.3438 15.2656 26.9375 16.4688 27 18C26.9375 19.5312 26.3438 20.7344 25.2188 21.6094C24.8125 21.8281 24.4531 21.7812 24.1406 21.4688C23.9219 21.0625 23.9688 20.7031 24.2812 20.3906C25.0625 19.8281 25.4688 19.0312 25.5 18C25.4688 17 25.0625 16.2031 24.2812 15.6094C23.9688 15.2969 23.9219 14.9375 24.1406 14.5312ZM28.2188 11.0625C29.25 11.9062 30.0469 12.9219 30.6094 14.1094C31.2031 15.2969 31.5 16.5938 31.5 18C31.5 19.4062 31.2031 20.7031 30.6094 21.8906C30.0469 23.0781 29.25 24.0938 28.2188 24.9375C27.8438 25.1875 27.5 25.1562 27.1875 24.8438C26.9062 24.4688 26.9375 24.125 27.2812 23.8125C28.125 23.0938 28.7812 22.2344 29.25 21.2344C29.75 20.2656 30 19.1875 30 18C30 16.8125 29.75 15.7344 29.25 14.7656C28.7812 13.7656 28.125 12.9219 27.2812 12.2344C26.9375 11.8906 26.9062 11.5312 27.1875 11.1562C27.5 10.8438 27.8438 10.8125 28.2188 11.0625Z" fill="#000000"/>
</svg>
