<svg width="36" height="36" viewBox="0 0 36 36" fill="none" xmlns="http://www.w3.org/2000/svg">
<path d="M18 6C18.375 6.03125 18.625 6.21875 18.75 6.5625L22.6875 22.3125L24.4219 17.9062C24.8281 17 25.5312 16.5312 26.5312 16.5H32.25C32.7188 16.5312 32.9688 16.7812 33 17.25C32.9688 17.7188 32.7188 17.9688 32.25 18H26.5312C26.1875 18 25.9531 18.1562 25.8281 18.4688L23.2031 25.0312C23.0469 25.3438 22.7969 25.5 22.4531 25.5C22.1094 25.4688 21.8906 25.2812 21.7969 24.9375L18.0938 10.1719L14.25 29.3906C14.1562 29.7656 13.9219 29.9688 13.5469 30C13.1406 29.9688 12.8906 29.7812 12.7969 29.4375L10.0781 18.5625C9.95312 18.2188 9.70312 18.0312 9.32812 18H3.75C3.28125 17.9688 3.03125 17.7188 3 17.25C3.03125 16.7812 3.28125 16.5312 3.75 16.5H9.32812C9.85938 16.5 10.3281 16.6562 10.7344 16.9688C11.1094 17.2812 11.375 17.6875 11.5312 18.1875L13.4062 25.8281L17.25 6.60938C17.3438 6.23438 17.5938 6.03125 18 6Z" fill="#000000"/>
</svg>
