<svg width="36" height="36" viewBox="0 0 36 36" fill="none" xmlns="http://www.w3.org/2000/svg">
<path d="M24.2344 25.2656L18 19.0781L11.8125 25.2656C11.4375 25.5469 11.0781 25.5469 10.7344 25.2656C10.4531 24.9219 10.4531 24.5781 10.7344 24.2344L16.9219 18L10.7344 11.8125C10.4531 11.4375 10.4531 11.0781 10.7344 10.7344C11.0781 10.4531 11.4375 10.4531 11.8125 10.7344L18 16.9219L24.2344 10.7344C24.5781 10.4531 24.9219 10.4531 25.2656 10.7344C25.5469 11.0781 25.5469 11.4375 25.2656 11.8125L19.0781 18L25.2656 24.2344C25.5469 24.5781 25.5469 24.9219 25.2656 25.2656C24.9219 25.5469 24.5781 25.5469 24.2344 25.2656Z" fill="#000000"/>
</svg>
