<svg width="37" height="36" viewBox="0 0 37 36" fill="none" xmlns="http://www.w3.org/2000/svg">
<path d="M17.2258 7.78125L16.6165 9.98438C16.429 10.5781 16.0696 11 15.5383 11.25C15.1946 11.4062 14.8665 11.5938 14.554 11.8125C14.0852 12.125 13.554 12.2344 12.9602 12.1406L10.6633 11.5781C10.6008 11.5469 10.5383 11.5469 10.4758 11.5781C10.2258 11.8906 9.99146 12.2344 9.77271 12.6094L9.58521 12.9375C9.39771 13.2812 9.22583 13.6406 9.06958 14.0156C9.06958 14.0781 9.10083 14.1406 9.16333 14.2031L10.7571 15.8906C11.1633 16.3281 11.3508 16.8438 11.3196 17.4375C11.2883 17.625 11.2727 17.8125 11.2727 18C11.2727 18.1875 11.2883 18.3906 11.3196 18.6094C11.3508 19.1719 11.1633 19.6719 10.7571 20.1094L9.16333 21.7969C9.10083 21.8281 9.05396 21.8906 9.02271 21.9844C9.17896 22.3594 9.36646 22.7188 9.58521 23.0625L9.77271 23.3906C9.99146 23.7656 10.2258 24.1094 10.4758 24.4219C10.5383 24.4531 10.6008 24.4531 10.6633 24.4219L12.9133 23.8594C13.5383 23.7656 14.0696 23.875 14.5071 24.1875C14.8508 24.4062 15.1946 24.5938 15.5383 24.75C16.0383 25 16.3977 25.4219 16.6165 26.0156L17.2258 28.2188C17.2571 28.2812 17.304 28.3438 17.3665 28.4062C17.8352 28.4688 18.304 28.5 18.7727 28.5C19.2415 28.5 19.7102 28.4688 20.179 28.4062C20.2415 28.3438 20.2883 28.2812 20.3196 28.2188L20.929 26.0156C21.1165 25.4219 21.4758 25 22.0071 24.75C22.3508 24.5938 22.6946 24.4062 23.0383 24.1875C23.5071 23.875 24.0227 23.7656 24.5852 23.8594L26.8821 24.4219C26.9446 24.4531 27.0071 24.4531 27.0696 24.4219C27.3196 24.1094 27.554 23.7656 27.7727 23.3906L27.9602 23.0625C28.1477 22.7188 28.3196 22.3594 28.4758 21.9844C28.4758 21.8906 28.4446 21.8281 28.3821 21.7969L26.7883 20.1094C26.3821 19.6719 26.2102 19.1719 26.2727 18.6094C26.2727 18.3906 26.2727 18.1875 26.2727 18C26.2727 17.8125 26.2727 17.625 26.2727 17.4375C26.2102 16.8438 26.3821 16.3281 26.7883 15.8906L28.3821 14.2031C28.4446 14.1719 28.4915 14.1094 28.5227 14.0156C28.3665 13.6406 28.179 13.2812 27.9602 12.9375L27.7727 12.6094C27.554 12.2344 27.3196 11.8906 27.0696 11.5781C27.0071 11.5469 26.9446 11.5469 26.8821 11.5781L24.6321 12.1406C24.0071 12.2344 23.4758 12.125 23.0383 11.8125C22.6946 11.5938 22.3508 11.4062 22.0071 11.25C21.5071 11 21.1477 10.5938 20.929 10.0312L20.3196 7.78125C20.2883 7.71875 20.2415 7.65625 20.179 7.59375C19.7102 7.53125 19.2415 7.5 18.7727 7.5C18.304 7.5 17.8352 7.53125 17.3665 7.59375C17.304 7.65625 17.2571 7.71875 17.2258 7.78125ZM18.7727 6C19.3977 6 19.9915 6.04688 20.554 6.14062C20.6477 6.14062 20.7258 6.17188 20.7883 6.23438C21.2571 6.45313 21.5696 6.82813 21.7258 7.35938L22.3821 9.60938C22.4133 9.70312 22.5071 9.79688 22.6633 9.89062C23.0696 10.0781 23.4758 10.3125 23.8821 10.5938C24.0071 10.6562 24.1321 10.6875 24.2571 10.6875L26.5071 10.125C27.0383 10 27.5227 10.0781 27.9602 10.3594C28.0227 10.3906 28.0852 10.4375 28.1477 10.5C28.4915 10.9062 28.804 11.3438 29.0852 11.8125L29.2727 12.1875C29.5227 12.6562 29.7415 13.1406 29.929 13.6406C29.9602 13.7031 29.9915 13.7812 30.0227 13.875C30.0227 14.4062 29.8352 14.875 29.4602 15.2812L27.8665 16.9219C27.7727 17.0156 27.7258 17.1406 27.7258 17.2969C27.7571 17.5156 27.7727 17.75 27.7727 18C27.7727 18.25 27.7571 18.4844 27.7258 18.7031C27.7258 18.8594 27.7727 18.9844 27.8665 19.0781L29.4602 20.7656C29.8352 21.1406 30.0227 21.5938 30.0227 22.125C29.9915 22.2188 29.9602 22.2969 29.929 22.3594C29.7415 22.8594 29.5227 23.3438 29.2727 23.8125L29.0852 24.1875H29.0383C28.7883 24.6562 28.4915 25.0938 28.1477 25.5C28.0852 25.5625 28.0227 25.6094 27.9602 25.6406C27.5227 25.9219 27.0383 26.0156 26.5071 25.9219L24.2571 25.3594C24.1321 25.3281 24.0071 25.3438 23.8821 25.4062C23.4758 25.6875 23.0696 25.9219 22.6633 26.1094C22.5071 26.2031 22.4133 26.2969 22.3821 26.3906L21.7258 28.6406C21.5696 29.1719 21.2571 29.5625 20.7883 29.8125C20.7258 29.8438 20.6477 29.8594 20.554 29.8594C19.9915 29.9531 19.3977 30 18.7727 30C18.1477 30 17.554 29.9531 16.9915 29.8594C16.8977 29.8594 16.8196 29.8438 16.7571 29.8125C16.2883 29.5625 15.9758 29.1719 15.8196 28.6406L15.1633 26.3906C15.1321 26.2969 15.0383 26.2031 14.8821 26.1094C14.4758 25.9219 14.0696 25.6875 13.6633 25.4062C13.5383 25.3438 13.4133 25.3281 13.2883 25.3594L11.0383 25.9219C10.5071 26.0156 10.0227 25.9375 9.58521 25.6875C9.52271 25.625 9.46021 25.5625 9.39771 25.5C9.05396 25.0938 8.75708 24.6562 8.50708 24.1875H8.46021L8.27271 23.8125C8.02271 23.3438 7.80396 22.8594 7.61646 22.3594C7.58521 22.2969 7.56958 22.2188 7.56958 22.125C7.53833 21.625 7.71021 21.1719 8.08521 20.7656L9.67896 19.0781C9.77271 18.9844 9.81958 18.8594 9.81958 18.7031C9.78833 18.4844 9.77271 18.25 9.77271 18C9.77271 17.875 9.77271 17.7656 9.77271 17.6719C9.77271 17.5469 9.78833 17.4219 9.81958 17.2969C9.81958 17.1406 9.77271 17.0156 9.67896 16.9219L8.08521 15.2812C7.71021 14.875 7.52271 14.4062 7.52271 13.875C7.55396 13.7812 7.58521 13.7031 7.61646 13.6406C7.80396 13.1406 8.02271 12.6562 8.27271 12.1875L8.46021 11.8125H8.50708C8.75708 11.3438 9.05396 10.9062 9.39771 10.5C9.46021 10.4375 9.52271 10.3906 9.58521 10.3594C10.0227 10.0781 10.5071 10 11.0383 10.125L13.2883 10.6875C13.4133 10.6875 13.5383 10.6562 13.6633 10.5938C14.0696 10.3125 14.4758 10.0781 14.8821 9.89062C15.0383 9.79688 15.1321 9.70312 15.1633 9.60938L15.8196 7.35938C15.9758 6.82813 16.2883 6.45313 16.7571 6.23438C16.8196 6.17188 16.8977 6.14062 16.9915 6.14062C17.554 6.04688 18.1477 6 18.7727 6ZM16.1477 18C16.179 19 16.6165 19.75 17.4602 20.25C18.3352 20.75 19.2102 20.75 20.0852 20.25C20.929 19.75 21.3665 19 21.3977 18C21.3665 17 20.929 16.25 20.0852 15.75C19.2102 15.25 18.3352 15.25 17.4602 15.75C16.6165 16.25 16.179 17 16.1477 18ZM22.8977 18C22.8352 19.5625 22.1477 20.75 20.8352 21.5625C19.4602 22.3125 18.0852 22.3125 16.7102 21.5625C15.3977 20.75 14.7102 19.5625 14.6477 18C14.7102 16.4375 15.3977 15.25 16.7102 14.4375C18.0852 13.6875 19.4602 13.6875 20.8352 14.4375C22.1477 15.25 22.8352 16.4375 22.8977 18Z" fill="#000000"/>
</svg>
