<svg width="36" height="36" viewBox="0 0 36 36" fill="none" xmlns="http://www.w3.org/2000/svg">
<path d="M9.84375 7.92188L9.51562 9.09375C9.45312 9.34375 9.29688 9.51562 9.04688 9.60938C8.35938 9.82812 7.75 10.1719 7.21875 10.6406C7 10.8281 6.76562 10.8906 6.51562 10.8281L5.34375 10.5C5.21875 10.6562 5.10938 10.8125 5.01562 10.9688L4.92188 11.1562C4.82812 11.3125 4.75 11.4688 4.6875 11.625L5.53125 12.5156C5.71875 12.7031 5.79688 12.9219 5.76562 13.1719C5.67188 13.5156 5.625 13.875 5.625 14.25C5.625 14.625 5.65625 14.9844 5.71875 15.3281C5.78125 15.5781 5.71875 15.7969 5.53125 15.9844L4.6875 16.875C4.75 17.0312 4.82812 17.1875 4.92188 17.3438L5.01562 17.5312C5.10938 17.6875 5.21875 17.8438 5.34375 18L6.51562 17.6719C6.76562 17.6094 7 17.6719 7.21875 17.8594C7.75 18.3281 8.35938 18.6719 9.04688 18.8906C9.29688 18.9844 9.45312 19.1562 9.51562 19.4062L9.84375 20.5781C10.0625 20.6094 10.2812 20.625 10.5 20.625C10.7188 20.625 10.9375 20.6094 11.1562 20.5781L11.4844 19.4062C11.5469 19.1562 11.7031 18.9844 11.9531 18.8906C12.6719 18.6719 13.2812 18.3281 13.7812 17.8594C14 17.6719 14.2344 17.6094 14.4844 17.6719L15.7031 18C15.7969 17.8438 15.8906 17.6875 15.9844 17.5312L16.0781 17.3438C16.1719 17.1875 16.25 17.0312 16.3125 16.875L15.4688 15.9844C15.2812 15.7969 15.2188 15.5781 15.2812 15.3281C15.3438 14.9844 15.375 14.625 15.375 14.25C15.375 13.875 15.3438 13.5156 15.2812 13.1719C15.2188 12.9219 15.2812 12.7031 15.4688 12.5156L16.3125 11.625C16.25 11.4688 16.1719 11.3281 16.0781 11.2031L15.9844 10.9688C15.8906 10.8125 15.7969 10.6562 15.7031 10.5L14.4844 10.8281C14.2344 10.8906 14 10.8281 13.7812 10.6406C13.25 10.1719 12.6406 9.82812 11.9531 9.60938C11.7031 9.51562 11.5469 9.34375 11.4844 9.09375L11.1562 7.92188C10.9375 7.89062 10.7188 7.875 10.5 7.875C10.2812 7.875 10.0625 7.89062 9.84375 7.92188ZM9.14062 6.51562C9.57812 6.42188 10.0312 6.375 10.5 6.375C10.9688 6.375 11.4219 6.42188 11.8594 6.51562C12.1719 6.57812 12.375 6.75 12.4688 7.03125L12.7969 8.29688C13.4219 8.54688 13.9844 8.875 14.4844 9.28125L15.7969 8.95312C16.0781 8.89062 16.3281 8.96875 16.5469 9.1875C16.7969 9.5 17.0312 9.82812 17.25 10.1719V10.2188L17.3906 10.4531C17.5781 10.7969 17.75 11.1719 17.9062 11.5781C18 11.8594 17.9375 12.1094 17.7188 12.3281L16.8281 13.2656C16.8594 13.6094 16.875 13.9375 16.875 14.25C16.875 14.5938 16.8594 14.9219 16.8281 15.2344L17.7188 16.1719C17.9375 16.3906 18 16.6562 17.9062 16.9688C17.75 17.3438 17.5781 17.7031 17.3906 18.0469V18.0938L17.25 18.3281C17.0312 18.6719 16.7969 19 16.5469 19.3125C16.3281 19.5625 16.0625 19.6406 15.75 19.5469L14.4844 19.2188C13.9844 19.625 13.4219 19.9531 12.7969 20.2031L12.4688 21.4688C12.375 21.7812 12.1719 21.9688 11.8594 22.0312C11.4219 22.0938 10.9688 22.125 10.5 22.125C10.0312 22.125 9.57812 22.0938 9.14062 22.0312C8.82812 21.9375 8.625 21.75 8.53125 21.4688L8.20312 20.2031C7.57812 19.9531 7.01562 19.625 6.51562 19.2188L5.25 19.5469C4.9375 19.6094 4.67188 19.5312 4.45312 19.3125C4.20312 19 3.96875 18.6562 3.75 18.2812L3.60938 18.0938V18.0469C3.42188 17.7031 3.25 17.3438 3.09375 16.9688C3 16.6562 3.0625 16.3906 3.28125 16.1719L4.21875 15.2344C4.15625 14.8906 4.125 14.5625 4.125 14.25C4.125 13.9375 4.15625 13.6094 4.21875 13.2656L3.28125 12.3281C3.0625 12.1094 3 11.8594 3.09375 11.5781C3.25 11.1719 3.42188 10.7969 3.60938 10.4531V10.4062L3.75 10.2188C3.96875 9.84375 4.20312 9.5 4.45312 9.1875C4.67188 8.96875 4.9375 8.89062 5.25 8.95312L6.51562 9.28125C7.01562 8.875 7.57812 8.54688 8.20312 8.29688L8.53125 7.03125C8.625 6.75 8.82812 6.57812 9.14062 6.51562ZM7.875 14.25C7.90625 13.25 8.34375 12.5 9.1875 12C10.0625 11.5 10.9375 11.5 11.8125 12C12.6562 12.5 13.0938 13.25 13.125 14.25C13.0938 15.25 12.6562 16 11.8125 16.5C10.9375 17 10.0625 17 9.1875 16.5C8.34375 16 7.90625 15.25 7.875 14.25ZM10.5 15.375C11.1875 15.3125 11.5625 14.9375 11.625 14.25C11.5625 13.5625 11.1875 13.1875 10.5 13.125C9.8125 13.1875 9.4375 13.5625 9.375 14.25C9.4375 14.9375 9.8125 15.3125 10.5 15.375ZM18.4219 23.1562L19.5938 23.4844C19.8438 23.5469 20.0156 23.7031 20.1094 23.9531C20.3281 24.6406 20.6719 25.25 21.1406 25.7812C21.3281 26 21.3906 26.2344 21.3281 26.4844L21 27.6562C21.1562 27.7812 21.3125 27.8906 21.4688 27.9844L21.6562 28.0781C21.8125 28.1719 21.9688 28.25 22.125 28.3125L23.0156 27.4688C23.2031 27.2812 23.4219 27.2188 23.6719 27.2812C24.0156 27.3438 24.375 27.375 24.75 27.375C25.125 27.375 25.4688 27.3438 25.7812 27.2812C26.0625 27.2188 26.2969 27.2812 26.4844 27.4688L27.375 28.3125C27.5312 28.25 27.6875 28.1719 27.8438 28.0781L28.0312 27.9844C28.1875 27.8906 28.3438 27.7812 28.5 27.6562L28.1719 26.4844C28.1094 26.2344 28.1719 26 28.3594 25.7812C28.8281 25.25 29.1719 24.6406 29.3906 23.9531C29.4844 23.7031 29.6562 23.5469 29.9062 23.4844L31.0781 23.1562C31.1094 22.9375 31.125 22.7188 31.125 22.5C31.125 22.2812 31.1094 22.0625 31.0781 21.8438L29.9062 21.5156C29.6562 21.4531 29.4844 21.2969 29.3906 21.0469C29.1719 20.3281 28.8281 19.7188 28.3594 19.2188C28.1719 19 28.1094 18.7656 28.1719 18.5156L28.5 17.3438C28.3438 17.2188 28.1875 17.1094 28.0312 17.0156L27.8438 16.9219C27.6875 16.8281 27.5312 16.75 27.375 16.6875L26.4844 17.5312C26.2969 17.7188 26.0781 17.7812 25.8281 17.7188C25.4844 17.6562 25.125 17.625 24.75 17.625C24.375 17.625 24.0156 17.6562 23.6719 17.7188C23.4219 17.7812 23.2031 17.7188 23.0156 17.5312L22.125 16.6875C21.9688 16.75 21.8125 16.8281 21.6562 16.9219L21.4688 17.0156C21.3125 17.1094 21.1562 17.2188 21 17.3438L21.3281 18.5156C21.3906 18.7656 21.3281 19 21.1406 19.2188C20.6719 19.7188 20.3281 20.3281 20.1094 21.0469C20.0156 21.2969 19.8438 21.4531 19.5938 21.5156L18.4219 21.8438C18.3906 22.0625 18.375 22.2812 18.375 22.5C18.375 22.7188 18.3906 22.9375 18.4219 23.1562ZM17.0156 23.8594C16.9219 23.4219 16.875 22.9688 16.875 22.5C16.875 22.0312 16.9219 21.5781 17.0156 21.1406C17.0781 20.8281 17.25 20.625 17.5312 20.5312L18.7969 20.2031C19.0469 19.5781 19.375 19.0156 19.7812 18.5156L19.4531 17.2031C19.3906 16.9219 19.4688 16.6719 19.6875 16.4531C20 16.2031 20.3281 15.9688 20.6719 15.75H20.7188L20.9531 15.6094C21.2969 15.4219 21.6719 15.25 22.0781 15.0938C22.3594 15 22.6094 15.0625 22.8281 15.2812L23.7656 16.1719C24.1094 16.1406 24.4375 16.125 24.75 16.125C25.0938 16.125 25.4219 16.1406 25.7344 16.1719L26.6719 15.2812C26.8906 15.0625 27.1562 15 27.4688 15.0938C27.8438 15.25 28.2031 15.4219 28.5469 15.6094H28.5938L28.8281 15.75C29.1719 15.9688 29.5 16.2031 29.8125 16.4531C30.0312 16.6719 30.1094 16.9375 30.0469 17.25L29.7188 18.5156C30.125 19.0156 30.4531 19.5781 30.7031 20.2031L31.9688 20.5312C32.2812 20.625 32.4688 20.8281 32.5312 21.1406C32.5938 21.5781 32.625 22.0312 32.625 22.5C32.625 22.9688 32.5938 23.4219 32.5312 23.8594C32.4688 24.1719 32.2812 24.375 31.9688 24.4688L30.7031 24.7969C30.4531 25.4219 30.125 25.9844 29.7188 26.4844L30.0469 27.75C30.1406 28.0625 30.0625 28.3281 29.8125 28.5469C29.5 28.7969 29.1719 29.0312 28.8281 29.25H28.7812L28.5938 29.3906C28.2188 29.5781 27.8438 29.75 27.4688 29.9062C27.1562 30 26.8906 29.9375 26.6719 29.7188L25.7344 28.7812C25.4219 28.8438 25.0938 28.875 24.75 28.875C24.4375 28.875 24.125 28.8438 23.8125 28.7812L22.8281 29.7188C22.6094 29.9375 22.3594 30 22.0781 29.9062C21.6719 29.75 21.2969 29.5781 20.9531 29.3906L20.7188 29.25C20.375 29.0312 20.0312 28.7969 19.6875 28.5469C19.4688 28.3281 19.3906 28.0625 19.4531 27.75L19.7812 26.4844C19.375 25.9844 19.0625 25.4219 18.8438 24.7969L17.5312 24.4688C17.25 24.375 17.0781 24.1719 17.0156 23.8594ZM24.75 25.125C23.75 25.0938 23 24.6562 22.5 23.8125C22 22.9375 22 22.0625 22.5 21.1875C23 20.3438 23.75 19.9062 24.75 19.875C25.75 19.9062 26.5 20.3438 27 21.1875C27.5 22.0625 27.5 22.9375 27 23.8125C26.5 24.6562 25.75 25.0938 24.75 25.125ZM25.875 22.5C25.8125 21.8125 25.4375 21.4375 24.75 21.375C24.0625 21.4375 23.6875 21.8125 23.625 22.5C23.6875 23.1875 24.0625 23.5625 24.75 23.625C25.4375 23.5625 25.8125 23.1875 25.875 22.5Z" fill="#000000"/>
</svg>
