<svg width="37" height="36" viewBox="0 0 37 36" fill="none" xmlns="http://www.w3.org/2000/svg">
<path d="M12.3977 9H10.1477C9.92896 9.03125 9.80396 9.15625 9.77271 9.375V11.625C9.80396 11.8438 9.92896 11.9688 10.1477 12H12.3977C12.6165 11.9688 12.7415 11.8438 12.7727 11.625V9.375C12.7415 9.15625 12.6165 9.03125 12.3977 9ZM10.1477 7.5H12.3977C12.929 7.5 13.3665 7.6875 13.7102 8.0625C14.0852 8.40625 14.2727 8.84375 14.2727 9.375V11.625C14.2727 12.1562 14.0852 12.5938 13.7102 12.9375C13.3665 13.3125 12.929 13.5 12.3977 13.5H10.1477C9.61646 13.5 9.17896 13.3125 8.83521 12.9375C8.46021 12.5938 8.27271 12.1562 8.27271 11.625V9.375C8.27271 8.84375 8.46021 8.40625 8.83521 8.0625C9.17896 7.6875 9.61646 7.5 10.1477 7.5ZM12.3977 16.5H10.1477C9.92896 16.5312 9.80396 16.6562 9.77271 16.875V19.125C9.80396 19.3438 9.92896 19.4688 10.1477 19.5H12.3977C12.6165 19.4688 12.7415 19.3438 12.7727 19.125V16.875C12.7415 16.6562 12.6165 16.5312 12.3977 16.5ZM10.1477 15H12.3977C12.929 15 13.3665 15.1875 13.7102 15.5625C14.0852 15.9062 14.2727 16.3438 14.2727 16.875V19.125C14.2727 19.6562 14.0852 20.0938 13.7102 20.4375C13.3665 20.8125 12.929 21 12.3977 21H10.1477C9.61646 21 9.17896 20.8125 8.83521 20.4375C8.46021 20.0938 8.27271 19.6562 8.27271 19.125V16.875C8.27271 16.3438 8.46021 15.9062 8.83521 15.5625C9.17896 15.1875 9.61646 15 10.1477 15ZM10.1477 24C9.92896 24.0312 9.80396 24.1562 9.77271 24.375V26.625C9.80396 26.8438 9.92896 26.9688 10.1477 27H12.3977C12.6165 26.9688 12.7415 26.8438 12.7727 26.625V24.375C12.7415 24.1562 12.6165 24.0312 12.3977 24H10.1477ZM8.27271 24.375C8.27271 23.8438 8.46021 23.4062 8.83521 23.0625C9.17896 22.6875 9.61646 22.5 10.1477 22.5H12.3977C12.929 22.5 13.3665 22.6875 13.7102 23.0625C14.0852 23.4062 14.2727 23.8438 14.2727 24.375V26.625C14.2727 27.1562 14.0852 27.5938 13.7102 27.9375C13.3665 28.3125 12.929 28.5 12.3977 28.5H10.1477C9.61646 28.5 9.17896 28.3125 8.83521 27.9375C8.46021 27.5938 8.27271 27.1562 8.27271 26.625V24.375ZM19.8977 9H17.6477C17.429 9.03125 17.304 9.15625 17.2727 9.375V11.625C17.304 11.8438 17.429 11.9688 17.6477 12H19.8977C20.1165 11.9688 20.2415 11.8438 20.2727 11.625V9.375C20.2415 9.15625 20.1165 9.03125 19.8977 9ZM17.6477 7.5H19.8977C20.429 7.5 20.8665 7.6875 21.2102 8.0625C21.5852 8.40625 21.7727 8.84375 21.7727 9.375V11.625C21.7727 12.1562 21.5852 12.5938 21.2102 12.9375C20.8665 13.3125 20.429 13.5 19.8977 13.5H17.6477C17.1165 13.5 16.679 13.3125 16.3352 12.9375C15.9602 12.5938 15.7727 12.1562 15.7727 11.625V9.375C15.7727 8.84375 15.9602 8.40625 16.3352 8.0625C16.679 7.6875 17.1165 7.5 17.6477 7.5ZM17.6477 16.5C17.429 16.5312 17.304 16.6562 17.2727 16.875V19.125C17.304 19.3438 17.429 19.4688 17.6477 19.5H19.8977C20.1165 19.4688 20.2415 19.3438 20.2727 19.125V16.875C20.2415 16.6562 20.1165 16.5312 19.8977 16.5H17.6477ZM15.7727 16.875C15.7727 16.3438 15.9602 15.9062 16.3352 15.5625C16.679 15.1875 17.1165 15 17.6477 15H19.8977C20.429 15 20.8665 15.1875 21.2102 15.5625C21.5852 15.9062 21.7727 16.3438 21.7727 16.875V19.125C21.7727 19.6562 21.5852 20.0938 21.2102 20.4375C20.8665 20.8125 20.429 21 19.8977 21H17.6477C17.1165 21 16.679 20.8125 16.3352 20.4375C15.9602 20.0938 15.7727 19.6562 15.7727 19.125V16.875ZM19.8977 24H17.6477C17.429 24.0312 17.304 24.1562 17.2727 24.375V26.625C17.304 26.8438 17.429 26.9688 17.6477 27H19.8977C20.1165 26.9688 20.2415 26.8438 20.2727 26.625V24.375C20.2415 24.1562 20.1165 24.0312 19.8977 24ZM17.6477 22.5H19.8977C20.429 22.5 20.8665 22.6875 21.2102 23.0625C21.5852 23.4062 21.7727 23.8438 21.7727 24.375V26.625C21.7727 27.1562 21.5852 27.5938 21.2102 27.9375C20.8665 28.3125 20.429 28.5 19.8977 28.5H17.6477C17.1165 28.5 16.679 28.3125 16.3352 27.9375C15.9602 27.5938 15.7727 27.1562 15.7727 26.625V24.375C15.7727 23.8438 15.9602 23.4062 16.3352 23.0625C16.679 22.6875 17.1165 22.5 17.6477 22.5ZM25.1477 9C24.929 9.03125 24.804 9.15625 24.7727 9.375V11.625C24.804 11.8438 24.929 11.9688 25.1477 12H27.3977C27.6165 11.9688 27.7415 11.8438 27.7727 11.625V9.375C27.7415 9.15625 27.6165 9.03125 27.3977 9H25.1477ZM23.2727 9.375C23.2727 8.84375 23.4602 8.40625 23.8352 8.0625C24.179 7.6875 24.6165 7.5 25.1477 7.5H27.3977C27.929 7.5 28.3665 7.6875 28.7102 8.0625C29.0852 8.40625 29.2727 8.84375 29.2727 9.375V11.625C29.2727 12.1562 29.0852 12.5938 28.7102 12.9375C28.3665 13.3125 27.929 13.5 27.3977 13.5H25.1477C24.6165 13.5 24.179 13.3125 23.8352 12.9375C23.4602 12.5938 23.2727 12.1562 23.2727 11.625V9.375ZM27.3977 16.5H25.1477C24.929 16.5312 24.804 16.6562 24.7727 16.875V19.125C24.804 19.3438 24.929 19.4688 25.1477 19.5H27.3977C27.6165 19.4688 27.7415 19.3438 27.7727 19.125V16.875C27.7415 16.6562 27.6165 16.5312 27.3977 16.5ZM25.1477 15H27.3977C27.929 15 28.3665 15.1875 28.7102 15.5625C29.0852 15.9062 29.2727 16.3438 29.2727 16.875V19.125C29.2727 19.6562 29.0852 20.0938 28.7102 20.4375C28.3665 20.8125 27.929 21 27.3977 21H25.1477C24.6165 21 24.179 20.8125 23.8352 20.4375C23.4602 20.0938 23.2727 19.6562 23.2727 19.125V16.875C23.2727 16.3438 23.4602 15.9062 23.8352 15.5625C24.179 15.1875 24.6165 15 25.1477 15ZM25.1477 24C24.929 24.0312 24.804 24.1562 24.7727 24.375V26.625C24.804 26.8438 24.929 26.9688 25.1477 27H27.3977C27.6165 26.9688 27.7415 26.8438 27.7727 26.625V24.375C27.7415 24.1562 27.6165 24.0312 27.3977 24H25.1477ZM23.2727 24.375C23.2727 23.8438 23.4602 23.4062 23.8352 23.0625C24.179 22.6875 24.6165 22.5 25.1477 22.5H27.3977C27.929 22.5 28.3665 22.6875 28.7102 23.0625C29.0852 23.4062 29.2727 23.8438 29.2727 24.375V26.625C29.2727 27.1562 29.0852 27.5938 28.7102 27.9375C28.3665 28.3125 27.929 28.5 27.3977 28.5H25.1477C24.6165 28.5 24.179 28.3125 23.8352 27.9375C23.4602 27.5938 23.2727 27.1562 23.2727 26.625V24.375Z" fill="#000000"/>
</svg>
