<svg width="37" height="36" viewBox="0 0 37 36" fill="none" xmlns="http://www.w3.org/2000/svg">
<path d="M33.4999 7.5C33.4999 7.9375 33.3593 8.29688 33.078 8.57812C32.7968 8.85938 32.4374 9 31.9999 9C31.5624 9 31.203 8.85938 30.9218 8.57812C30.6405 8.29688 30.4999 7.9375 30.4999 7.5C30.4999 7.0625 30.6405 6.70312 30.9218 6.42188C31.203 6.14062 31.5624 6 31.9999 6C32.4374 6 32.7968 6.14062 33.078 6.42188C33.3593 6.70312 33.4999 7.0625 33.4999 7.5ZM4.99988 9H10.9999C11.5936 9.03125 12.0468 9.3125 12.3593 9.84375C12.6093 10.375 12.5624 10.8906 12.2186 11.3906L9.21863 15.375C10.1874 15.7812 10.9686 16.4219 11.5624 17.2969C12.1561 18.1406 12.4686 19.125 12.4999 20.25V22.5C12.4686 23.7812 12.0311 24.8438 11.1874 25.6875C10.3436 26.5312 9.28113 26.9688 7.99988 27H7.7655C6.5155 27 5.453 26.5625 4.578 25.6875L3.92175 25.0781C3.6405 24.7656 3.49988 24.4062 3.49988 24C3.49988 23.5938 3.6405 23.2344 3.92175 22.9219C4.23425 22.6406 4.59363 22.5 4.99988 22.5C5.40613 22.5 5.7655 22.6406 6.078 22.9219L6.68738 23.5781C6.96863 23.8594 7.328 24 7.7655 24H7.99988C8.43738 24 8.79675 23.8594 9.078 23.5781C9.35925 23.2969 9.49988 22.9375 9.49988 22.5V20.25C9.46863 19.625 9.24988 19.0938 8.84363 18.6562C8.40613 18.25 7.87488 18.0312 7.24988 18H6.49988C5.90613 17.9688 5.453 17.6875 5.1405 17.1562C4.8905 16.625 4.93738 16.1094 5.28113 15.6094L7.99988 12H4.99988C4.56238 12 4.203 11.8594 3.92175 11.5781C3.6405 11.2969 3.49988 10.9375 3.49988 10.5C3.49988 10.0625 3.6405 9.70312 3.92175 9.42188C4.203 9.14062 4.56238 9 4.99988 9ZM25.9999 12.75V23.25C26.0311 23.7188 26.2811 23.9688 26.7499 24C27.2186 23.9688 27.4686 23.7188 27.4999 23.25V12.75C27.4686 12.2812 27.2186 12.0312 26.7499 12C26.2811 12.0312 26.0311 12.2812 25.9999 12.75ZM30.4999 23.25C30.4686 24.3125 30.1093 25.2031 29.4218 25.9219C28.703 26.6094 27.8124 26.9688 26.7499 27C25.6874 26.9688 24.7968 26.6094 24.078 25.9219C23.3905 25.2031 23.0311 24.3125 22.9999 23.25V12.75C23.0311 11.6875 23.3905 10.7969 24.078 10.0781C24.7968 9.39062 25.6874 9.03125 26.7499 9C27.8124 9.03125 28.703 9.39062 29.4218 10.0781C30.1093 10.7969 30.4686 11.6875 30.4999 12.75V23.25ZM16.9999 13.5V15.0938C17.2499 15.0312 17.4999 15 17.7499 15C18.8124 15.0312 19.703 15.3906 20.4218 16.0781C21.1093 16.7969 21.4686 17.6875 21.4999 18.75V23.25C21.4686 24.3125 21.1093 25.2031 20.4218 25.9219C19.703 26.6094 18.8124 26.9688 17.7499 27C16.6874 26.9688 15.7968 26.6094 15.078 25.9219C14.3905 25.2031 14.0311 24.3125 13.9999 23.25V19.5V13.5C14.0311 12.2188 14.4686 11.1562 15.3124 10.3125C16.1561 9.46875 17.2186 9.03125 18.4999 9C18.9374 9 19.2968 9.14062 19.578 9.42188C19.8593 9.70312 19.9999 10.0625 19.9999 10.5C19.9999 10.9375 19.8593 11.2969 19.578 11.5781C19.2968 11.8594 18.9374 12 18.4999 12C18.0624 12 17.703 12.1406 17.4218 12.4219C17.1405 12.7031 16.9999 13.0625 16.9999 13.5ZM16.9999 18.75V23.25C17.0311 23.7188 17.2811 23.9688 17.7499 24C18.2186 23.9688 18.4686 23.7188 18.4999 23.25V18.75C18.4686 18.2812 18.2186 18.0312 17.7499 18C17.2811 18.0312 17.0311 18.2812 16.9999 18.75Z" fill="#000000"/>
</svg>
