<svg width="36" height="36" viewBox="0 0 36 36" fill="none" xmlns="http://www.w3.org/2000/svg">
<path d="M10.5 6H24C24.8438 6.03125 25.5469 6.32812 26.1094 6.89062C26.6719 7.45312 26.9688 8.15625 27 9V27C26.9688 27.8438 26.6719 28.5469 26.1094 29.1094C25.5469 29.6719 24.8438 29.9688 24 30H10.5C9.65625 29.9688 8.95312 29.6719 8.39062 29.1094C7.82812 28.5469 7.53125 27.8438 7.5 27V9C7.53125 8.15625 7.82812 7.45312 8.39062 6.89062C8.95312 6.32812 9.65625 6.03125 10.5 6ZM15.75 19.5C14.6875 19.5312 13.7969 19.8906 13.0781 20.5781C12.3906 21.2969 12.0312 22.1875 12 23.25C12.0312 23.7188 12.2812 23.9688 12.75 24H21.75C22.2188 23.9688 22.4688 23.7188 22.5 23.25C22.4688 22.1875 22.1094 21.2969 21.4219 20.5781C20.7031 19.8906 19.8125 19.5312 18.75 19.5H15.75ZM14.25 15C14.2812 16.125 14.7812 16.9844 15.75 17.5781C16.75 18.1406 17.75 18.1406 18.75 17.5781C19.7188 16.9844 20.2188 16.125 20.25 15C20.2188 13.875 19.7188 13.0156 18.75 12.4219C17.75 11.8594 16.75 11.8594 15.75 12.4219C14.7812 13.0156 14.2812 13.875 14.25 15ZM30 9.75V12.75C29.9688 13.2188 29.7188 13.4688 29.25 13.5C28.7812 13.4688 28.5312 13.2188 28.5 12.75V9.75C28.5312 9.28125 28.7812 9.03125 29.25 9C29.7188 9.03125 29.9688 9.28125 30 9.75ZM29.25 15C29.7188 15.0312 29.9688 15.2812 30 15.75V18.75C29.9688 19.2188 29.7188 19.4688 29.25 19.5C28.7812 19.4688 28.5312 19.2188 28.5 18.75V15.75C28.5312 15.2812 28.7812 15.0312 29.25 15ZM30 21.75V24.75C29.9688 25.2188 29.7188 25.4688 29.25 25.5C28.7812 25.4688 28.5312 25.2188 28.5 24.75V21.75C28.5312 21.2812 28.7812 21.0312 29.25 21C29.7188 21.0312 29.9688 21.2812 30 21.75Z" fill="#000000"/>
</svg>
