<svg width="36" height="36" viewBox="0 0 36 36" fill="none" xmlns="http://www.w3.org/2000/svg">
<path d="M16.9219 12.4219C17.2344 12.1406 17.5938 12 18 12C18.4062 12 18.7656 12.1406 19.0781 12.4219L26.5781 19.9219C26.8594 20.2344 27 20.5938 27 21C27 21.4062 26.8594 21.7656 26.5781 22.0781C26.2656 22.3594 25.9062 22.5 25.5 22.5C25.0938 22.5 24.7344 22.3594 24.4219 22.0781L18 15.6094L11.5781 22.0781C11.2656 22.3594 10.9062 22.5 10.5 22.5C10.0938 22.5 9.73438 22.3594 9.42188 22.0781C9.14062 21.7656 9 21.4062 9 21C9 20.5938 9.14062 20.2344 9.42188 19.9219L16.9219 12.4219Z" fill="#000000"/>
</svg>
