<svg width="36" height="36" viewBox="0 0 36 36" fill="none" xmlns="http://www.w3.org/2000/svg">
<path d="M23.5781 16.9219C23.8594 17.2344 24 17.5938 24 18C24 18.4062 23.8594 18.7656 23.5781 19.0781L16.0781 26.5781C15.7656 26.8594 15.4062 27 15 27C14.5938 27 14.2344 26.8594 13.9219 26.5781C13.6406 26.2656 13.5 25.9062 13.5 25.5C13.5 25.0938 13.6406 24.7344 13.9219 24.4219L20.3906 18L13.9219 11.5781C13.6406 11.2656 13.5 10.9062 13.5 10.5C13.5 10.0938 13.6406 9.73438 13.9219 9.42188C14.2344 9.14062 14.5938 9 15 9C15.4062 9 15.7656 9.14062 16.0781 9.42188L23.5781 16.9219Z" fill="#000000"/>
</svg>
