<svg width="36" height="36" viewBox="0 0 36 36" fill="none" xmlns="http://www.w3.org/2000/svg">
<path d="M12.4219 16.9219L19.9219 9.42188C20.2344 9.14062 20.5938 9 21 9C21.4062 9 21.7656 9.14062 22.0781 9.42188C22.3594 9.73438 22.5 10.0938 22.5 10.5C22.5 10.9062 22.3594 11.2656 22.0781 11.5781L15.6094 18L22.0781 24.4219C22.3594 24.7344 22.5 25.0938 22.5 25.5C22.5 25.9062 22.3594 26.2656 22.0781 26.5781C21.7656 26.8594 21.4062 27 21 27C20.5938 27 20.2344 26.8594 19.9219 26.5781L12.4219 19.0781C12.1406 18.7656 12 18.4062 12 18C12 17.5938 12.1406 17.2344 12.4219 16.9219Z" fill="#000000"/>
</svg>
