<svg width="36" height="36" viewBox="0 0 36 36" fill="none" xmlns="http://www.w3.org/2000/svg">
<path d="M16.9219 22.0781L9.42188 14.5781C9.14062 14.2656 9 13.9062 9 13.5C9 13.0938 9.14062 12.7344 9.42188 12.4219C9.73438 12.1406 10.0938 12 10.5 12C10.9062 12 11.2656 12.1406 11.5781 12.4219L18 18.8906L24.4219 12.4219C24.7344 12.1406 25.0938 12 25.5 12C25.9062 12 26.2656 12.1406 26.5781 12.4219C26.8594 12.7344 27 13.0938 27 13.5C27 13.9062 26.8594 14.2656 26.5781 14.5781L19.0781 22.0781C18.7656 22.3594 18.4062 22.5 18 22.5C17.5938 22.5 17.2344 22.3594 16.9219 22.0781Z" fill="#000000"/>
</svg>
