<svg width="36" height="36" viewBox="0 0 36 36" fill="none" xmlns="http://www.w3.org/2000/svg">
<path d="M28.0781 13.0781L23.5781 17.5781C23.2656 17.8594 22.9062 18 22.5 18C22.0938 18 21.7344 17.8594 21.4219 17.5781C21.1406 17.2656 21 16.9062 21 16.5C21 16.0938 21.1406 15.7344 21.4219 15.4219L23.3906 13.5H9C8.5625 13.5 8.20312 13.3594 7.92188 13.0781C7.64062 12.7969 7.5 12.4375 7.5 12C7.5 11.5625 7.64062 11.2031 7.92188 10.9219C8.20312 10.6406 8.5625 10.5 9 10.5H23.3906L21.4219 8.57812C21.1406 8.26562 21 7.90625 21 7.5C21 7.09375 21.1406 6.73438 21.4219 6.42188C21.7344 6.14062 22.0938 6 22.5 6C22.9062 6 23.2656 6.14062 23.5781 6.42188L28.0781 10.9219C28.3594 11.2344 28.5 11.5938 28.5 12C28.5 12.4062 28.3594 12.7656 28.0781 13.0781ZM12.4219 29.5781L7.92188 25.0781C7.64062 24.7656 7.5 24.4062 7.5 24C7.5 23.5938 7.64062 23.2344 7.92188 22.9219L12.4219 18.4219C12.7344 18.1406 13.0938 18 13.5 18C13.9062 18 14.2656 18.1406 14.5781 18.4219C14.8594 18.7344 15 19.0938 15 19.5C15 19.9062 14.8594 20.2656 14.5781 20.5781L12.6094 22.5H27C27.4375 22.5 27.7969 22.6406 28.0781 22.9219C28.3594 23.2031 28.5 23.5625 28.5 24C28.5 24.4375 28.3594 24.7969 28.0781 25.0781C27.7969 25.3594 27.4375 25.5 27 25.5H12.6094L14.5781 27.4219C14.8594 27.7344 15 28.0938 15 28.5C15 28.9062 14.8594 29.2656 14.5781 29.5781C14.2656 29.8594 13.9062 30 13.5 30C13.0938 30 12.7344 29.8594 12.4219 29.5781Z" fill="#000000"/>
</svg>
