<svg width="36" height="36" viewBox="0 0 36 36" fill="none" xmlns="http://www.w3.org/2000/svg">
<path d="M28.0781 19.0781L20.5781 26.5781C20.2656 26.8594 19.9062 27 19.5 27C19.0938 27 18.7344 26.8594 18.4219 26.5781C18.1406 26.2656 18 25.9062 18 25.5C18 25.0938 18.1406 24.7344 18.4219 24.4219L23.3906 19.5H9C8.5625 19.5 8.20312 19.3594 7.92188 19.0781C7.64062 18.7969 7.5 18.4375 7.5 18C7.5 17.5625 7.64062 17.2031 7.92188 16.9219C8.20312 16.6406 8.5625 16.5 9 16.5H23.3906L18.4219 11.5781C18.1406 11.2656 18 10.9062 18 10.5C18 10.0938 18.1406 9.73438 18.4219 9.42188C18.7344 9.14062 19.0938 9 19.5 9C19.9062 9 20.2656 9.14062 20.5781 9.42188L28.0781 16.9219C28.3594 17.2344 28.5 17.5938 28.5 18C28.5 18.4062 28.3594 18.7656 28.0781 19.0781Z" fill="#000000"/>
</svg>
