<svg width="36" height="36" viewBox="0 0 36 36" fill="none" xmlns="http://www.w3.org/2000/svg">
<path d="M19.0781 7.92188L26.5781 15.4219C26.8594 15.7344 27 16.0938 27 16.5C27 16.9062 26.8594 17.2656 26.5781 17.5781C26.2656 17.8594 25.9062 18 25.5 18C25.0938 18 24.7344 17.8594 24.4219 17.5781L19.5 12.6094V27C19.5 27.4375 19.3594 27.7969 19.0781 28.0781C18.7969 28.3594 18.4375 28.5 18 28.5C17.5625 28.5 17.2031 28.3594 16.9219 28.0781C16.6406 27.7969 16.5 27.4375 16.5 27V12.6094L11.5781 17.5781C11.2656 17.8594 10.9062 18 10.5 18C10.0938 18 9.73438 17.8594 9.42188 17.5781C9.14062 17.2656 9 16.9062 9 16.5C9 16.0938 9.14062 15.7344 9.42188 15.4219L16.9219 7.92188C17.2344 7.64062 17.5938 7.5 18 7.5C18.4062 7.5 18.7656 7.64062 19.0781 7.92188Z" fill="#000000"/>
</svg>
