<svg width="36" height="36" viewBox="0 0 36 36" fill="none" xmlns="http://www.w3.org/2000/svg">
<path d="M10.9219 15.5156C10.7656 15.8906 10.5156 16.1719 10.1719 16.3594C9.79688 16.5156 9.40625 16.5312 9 16.4062C8.625 16.25 8.34375 16 8.15625 15.6562C8 15.2812 7.98438 14.8906 8.10938 14.4844C8.60938 13.0469 9.4375 11.75 10.5938 10.5938C11.9688 9.21875 13.5469 8.29688 15.3281 7.82812C17.1094 7.39063 18.8906 7.39063 20.6719 7.82812C22.4531 8.29688 24.0312 9.21875 25.4062 10.5938L26.25 11.3906V9C26.25 8.5625 26.3906 8.20312 26.6719 7.92188C26.9531 7.64062 27.3125 7.5 27.75 7.5C28.1875 7.5 28.5469 7.64062 28.8281 7.92188C29.1094 8.20312 29.25 8.5625 29.25 9V15C29.25 15.4375 29.1094 15.7969 28.8281 16.0781C28.5469 16.3594 28.1875 16.5 27.75 16.5H21.75C21.3125 16.5 20.9531 16.3594 20.6719 16.0781C20.3906 15.7969 20.25 15.4375 20.25 15C20.25 14.5625 20.3906 14.2031 20.6719 13.9219C20.9531 13.6406 21.3125 13.5 21.75 13.5H24.0938L23.2969 12.7031C21.7656 11.2344 20 10.5 18 10.5C16 10.5 14.2344 11.2344 12.7031 12.7031C11.8906 13.5156 11.2969 14.4531 10.9219 15.5156ZM7.82812 19.5469C7.89062 19.5469 7.96875 19.5312 8.0625 19.5C8.125 19.5 8.1875 19.5 8.25 19.5H14.25C14.6875 19.5 15.0469 19.6406 15.3281 19.9219C15.6094 20.2031 15.75 20.5625 15.75 21C15.75 21.4375 15.6094 21.7969 15.3281 22.0781C15.0469 22.3594 14.6875 22.5 14.25 22.5H11.9062L12.7031 23.2969C14.2344 24.7656 16 25.5 18 25.5C20 25.5 21.7656 24.7656 23.2969 23.2969C24.1094 22.4844 24.7031 21.5469 25.0781 20.4844C25.2344 20.1094 25.4844 19.8281 25.8281 19.6406C26.2031 19.4844 26.5938 19.4688 27 19.5938C27.375 19.75 27.6562 20 27.8438 20.3438C28 20.7188 28.0156 21.1094 27.8906 21.5156C27.3906 22.9531 26.5625 24.25 25.4062 25.4062C24.0312 26.7812 22.4531 27.7031 20.6719 28.1719C18.8906 28.6094 17.1094 28.6094 15.3281 28.1719C13.5469 27.7031 11.9688 26.7812 10.5938 25.4062L9.75 24.6094V27C9.75 27.4375 9.60938 27.7969 9.32812 28.0781C9.04688 28.3594 8.6875 28.5 8.25 28.5C7.8125 28.5 7.45312 28.3594 7.17188 28.0781C6.89062 27.7969 6.75 27.4375 6.75 27V21C6.75 20.9375 6.75 20.8594 6.75 20.7656C6.78125 20.7031 6.79688 20.6562 6.79688 20.625C6.85938 20.375 6.98438 20.1562 7.17188 19.9688C7.35938 19.7812 7.57812 19.6406 7.82812 19.5469Z" fill="#000000"/>
</svg>
