<svg width="36" height="36" viewBox="0 0 36 36" fill="none" xmlns="http://www.w3.org/2000/svg">
<path d="M16.9219 28.0781L9.42188 20.5781C9.14062 20.2656 9 19.9062 9 19.5C9 19.0938 9.14062 18.7344 9.42188 18.4219C9.73438 18.1406 10.0938 18 10.5 18C10.9062 18 11.2656 18.1406 11.5781 18.4219L16.5 23.3906V9C16.5 8.5625 16.6406 8.20312 16.9219 7.92188C17.2031 7.64062 17.5625 7.5 18 7.5C18.4375 7.5 18.7969 7.64062 19.0781 7.92188C19.3594 8.20312 19.5 8.5625 19.5 9V23.3906L24.4219 18.4219C24.7344 18.1406 25.0938 18 25.5 18C25.9062 18 26.2656 18.1406 26.5781 18.4219C26.8594 18.7344 27 19.0938 27 19.5C27 19.9062 26.8594 20.2656 26.5781 20.5781L19.0781 28.0781C18.7656 28.3594 18.4062 28.5 18 28.5C17.5938 28.5 17.2344 28.3594 16.9219 28.0781Z" fill="#000000"/>
</svg>
