<svg width="36" height="36" viewBox="0 0 36 36" fill="none" xmlns="http://www.w3.org/2000/svg">
<path d="M10.5 28.5C10.0625 28.5 9.70312 28.3594 9.42188 28.0781C9.14062 27.7969 9 27.4375 9 27C9 26.5625 9.14062 26.2031 9.42188 25.9219C9.70312 25.6406 10.0625 25.5 10.5 25.5H25.5C25.9375 25.5 26.2969 25.6406 26.5781 25.9219C26.8594 26.2031 27 26.5625 27 27C27 27.4375 26.8594 27.7969 26.5781 28.0781C26.2969 28.3594 25.9375 28.5 25.5 28.5H10.5ZM19.0781 22.0781C18.7656 22.3594 18.4062 22.5 18 22.5C17.5938 22.5 17.2344 22.3594 16.9219 22.0781L10.9219 16.0781C10.6406 15.7656 10.5 15.4062 10.5 15C10.5 14.5938 10.6406 14.2344 10.9219 13.9219C11.2344 13.6406 11.5938 13.5 12 13.5C12.4062 13.5 12.7656 13.6406 13.0781 13.9219L16.5 17.3906V9C16.5 8.5625 16.6406 8.20312 16.9219 7.92188C17.2031 7.64062 17.5625 7.5 18 7.5C18.4375 7.5 18.7969 7.64062 19.0781 7.92188C19.3594 8.20312 19.5 8.5625 19.5 9V17.3906L22.9219 13.9219C23.2344 13.6406 23.5938 13.5 24 13.5C24.4062 13.5 24.7656 13.6406 25.0781 13.9219C25.3594 14.2344 25.5 14.5938 25.5 15C25.5 15.4062 25.3594 15.7656 25.0781 16.0781L19.0781 22.0781Z" fill="#000000"/>
</svg>
