<svg width="37" height="36" viewBox="0 0 37 36" fill="none" xmlns="http://www.w3.org/2000/svg">
<path d="M19.578 6.42188L25.578 12.4219C25.8593 12.7344 25.9999 13.0938 25.9999 13.5C25.9999 13.9062 25.8593 14.2656 25.578 14.5781C25.2655 14.8594 24.9061 15 24.4999 15C24.0936 15 23.7343 14.8594 23.4218 14.5781L19.9999 11.1094V21C19.9999 21.4375 19.8593 21.7969 19.578 22.0781C19.2968 22.3594 18.9374 22.5 18.4999 22.5C18.0624 22.5 17.703 22.3594 17.4218 22.0781C17.1405 21.7969 16.9999 21.4375 16.9999 21V11.1094L13.578 14.5781C13.2655 14.8594 12.9061 15 12.4999 15C12.0936 15 11.7343 14.8594 11.4218 14.5781C11.1405 14.2656 10.9999 13.9062 10.9999 13.5C10.9999 13.0938 11.1405 12.7344 11.4218 12.4219L17.4218 6.42188C17.7343 6.14062 18.0936 6 18.4999 6C18.9061 6 19.2655 6.14062 19.578 6.42188ZM10.9999 22.5V25.5C10.9999 25.9375 11.1405 26.2969 11.4218 26.5781C11.703 26.8594 12.0624 27 12.4999 27H24.4999C24.9374 27 25.2968 26.8594 25.578 26.5781C25.8593 26.2969 25.9999 25.9375 25.9999 25.5V22.5C25.9999 22.0625 26.1405 21.7031 26.4218 21.4219C26.703 21.1406 27.0624 21 27.4999 21C27.9374 21 28.2968 21.1406 28.578 21.4219C28.8593 21.7031 28.9999 22.0625 28.9999 22.5V25.5C28.9686 26.7812 28.5311 27.8438 27.6874 28.6875C26.8436 29.5312 25.7811 29.9688 24.4999 30H12.4999C11.2186 29.9688 10.1561 29.5312 9.31238 28.6875C8.46863 27.8438 8.03113 26.7812 7.99988 25.5V22.5C7.99988 22.0625 8.1405 21.7031 8.42175 21.4219C8.703 21.1406 9.06238 21 9.49988 21C9.93738 21 10.2968 21.1406 10.578 21.4219C10.8593 21.7031 10.9999 22.0625 10.9999 22.5Z" fill="#000000"/>
</svg>
