<svg width="36" height="36" viewBox="0 0 36 36" fill="none" xmlns="http://www.w3.org/2000/svg">
<path d="M7.92188 16.9219L15.4219 9.42188C15.7344 9.14062 16.0938 9 16.5 9C16.9062 9 17.2656 9.14062 17.5781 9.42188C17.8594 9.73438 18 10.0938 18 10.5C18 10.9062 17.8594 11.2656 17.5781 11.5781L12.6094 16.5H27C27.4375 16.5 27.7969 16.6406 28.0781 16.9219C28.3594 17.2031 28.5 17.5625 28.5 18C28.5 18.4375 28.3594 18.7969 28.0781 19.0781C27.7969 19.3594 27.4375 19.5 27 19.5H12.6094L17.5781 24.4219C17.8594 24.7344 18 25.0938 18 25.5C18 25.9062 17.8594 26.2656 17.5781 26.5781C17.2656 26.8594 16.9062 27 16.5 27C16.0938 27 15.7344 26.8594 15.4219 26.5781L7.92188 19.0781C7.64062 18.7656 7.5 18.4062 7.5 18C7.5 17.5938 7.64062 17.2344 7.92188 16.9219Z" fill="#000000"/>
</svg>
