<svg width="36" height="36" viewBox="0 0 36 36" fill="none" xmlns="http://www.w3.org/2000/svg">
<path d="M10.5 7.5H25.5C25.9375 7.5 26.2969 7.64062 26.5781 7.92188C26.8594 8.20312 27 8.5625 27 9C27 9.4375 26.8594 9.79688 26.5781 10.0781C26.2969 10.3594 25.9375 10.5 25.5 10.5H10.5C10.0625 10.5 9.70312 10.3594 9.42188 10.0781C9.14062 9.79688 9 9.4375 9 9C9 8.5625 9.14062 8.20312 9.42188 7.92188C9.70312 7.64062 10.0625 7.5 10.5 7.5ZM19.0781 13.9219L25.0781 19.9219C25.3594 20.2344 25.5 20.5938 25.5 21C25.5 21.4062 25.3594 21.7656 25.0781 22.0781C24.7656 22.3594 24.4062 22.5 24 22.5C23.5938 22.5 23.2344 22.3594 22.9219 22.0781L19.5 18.6094V27C19.5 27.4375 19.3594 27.7969 19.0781 28.0781C18.7969 28.3594 18.4375 28.5 18 28.5C17.5625 28.5 17.2031 28.3594 16.9219 28.0781C16.6406 27.7969 16.5 27.4375 16.5 27V18.6094L13.0781 22.0781C12.7656 22.3594 12.4062 22.5 12 22.5C11.5938 22.5 11.2344 22.3594 10.9219 22.0781C10.6406 21.7656 10.5 21.4062 10.5 21C10.5 20.5938 10.6406 20.2344 10.9219 19.9219L16.9219 13.9219C17.2344 13.6406 17.5938 13.5 18 13.5C18.4062 13.5 18.7656 13.6406 19.0781 13.9219Z" fill="#000000"/>
</svg>
