<svg width="36" height="36" viewBox="0 0 36 36" fill="none" xmlns="http://www.w3.org/2000/svg">
<path d="M23.0625 26.6719L14.0625 19.1719L13.5 18.7031V25.5C13.5 25.9375 13.3594 26.2969 13.0781 26.5781C12.7969 26.8594 12.4375 27 12 27C11.5625 27 11.2031 26.8594 10.9219 26.5781C10.6406 26.2969 10.5 25.9375 10.5 25.5V10.5C10.5 10.0625 10.6406 9.70312 10.9219 9.42188C11.2031 9.14062 11.5625 9 12 9C12.4375 9 12.7969 9.14062 13.0781 9.42188C13.3594 9.70312 13.5 10.0625 13.5 10.5V17.2969L14.0625 16.8281L23.0625 9.32812C23.5312 8.95312 24.0625 8.89062 24.6562 9.14062C25.1875 9.42188 25.4688 9.875 25.5 10.5V25.5C25.4688 26.125 25.1875 26.5781 24.6562 26.8594C24.0625 27.1094 23.5312 27.0469 23.0625 26.6719Z" fill="#000000"/>
</svg>
