<svg width="36" height="36" viewBox="0 0 36 36" fill="none" xmlns="http://www.w3.org/2000/svg">
<path d="M7.125 8.25C6.90625 8.28125 6.78125 8.40625 6.75 8.625V12.375C6.6875 13.0625 6.3125 13.4375 5.625 13.5C4.9375 13.4375 4.5625 13.0625 4.5 12.375V8.625C4.53125 7.875 4.78125 7.25 5.25 6.75C5.75 6.28125 6.375 6.03125 7.125 6H10.875C11.5625 6.0625 11.9375 6.4375 12 7.125C11.9375 7.8125 11.5625 8.1875 10.875 8.25H7.125ZM11.625 12H12.375C13.0625 12.0625 13.4375 12.4375 13.5 13.125V22.875C13.4375 23.5625 13.0625 23.9375 12.375 24H11.625C10.9375 23.9375 10.5625 23.5625 10.5 22.875V13.125C10.5625 12.4375 10.9375 12.0625 11.625 12ZM19.125 12H19.875C20.5625 12.0625 20.9375 12.4375 21 13.125V22.875C20.9375 23.5625 20.5625 23.9375 19.875 24H19.125C18.4375 23.9375 18.0625 23.5625 18 22.875V13.125C18.0625 12.4375 18.4375 12.0625 19.125 12ZM22.5 13.125C22.5625 12.4375 22.9375 12.0625 23.625 12H24.375C25.0625 12.0625 25.4375 12.4375 25.5 13.125V22.875C25.4375 23.5625 25.0625 23.9375 24.375 24H23.625C22.9375 23.9375 22.5625 23.5625 22.5 22.875V13.125ZM15.75 12C16.2188 12.0312 16.4688 12.2812 16.5 12.75V23.25C16.4688 23.7188 16.2188 23.9688 15.75 24C15.2812 23.9688 15.0312 23.7188 15 23.25V12.75C15.0312 12.2812 15.2812 12.0312 15.75 12ZM29.25 8.625C29.2188 8.40625 29.0938 8.28125 28.875 8.25H25.125C24.4375 8.1875 24.0625 7.8125 24 7.125C24.0625 6.4375 24.4375 6.0625 25.125 6H28.875C29.625 6.03125 30.25 6.28125 30.75 6.75C31.2188 7.25 31.4688 7.875 31.5 8.625V12.375C31.4375 13.0625 31.0625 13.4375 30.375 13.5C29.6875 13.4375 29.3125 13.0625 29.25 12.375V8.625ZM7.125 27.75H10.875C11.5625 27.8125 11.9375 28.1875 12 28.875C11.9375 29.5625 11.5625 29.9375 10.875 30H7.125C6.375 29.9688 5.75 29.7188 5.25 29.25C4.78125 28.75 4.53125 28.125 4.5 27.375V23.625C4.5625 22.9375 4.9375 22.5625 5.625 22.5C6.3125 22.5625 6.6875 22.9375 6.75 23.625V27.375C6.78125 27.5938 6.90625 27.7188 7.125 27.75ZM29.25 27.375V23.625C29.3125 22.9375 29.6875 22.5625 30.375 22.5C31.0625 22.5625 31.4375 22.9375 31.5 23.625V27.375C31.4688 28.125 31.2188 28.75 30.75 29.25C30.25 29.7188 29.625 29.9688 28.875 30H25.125C24.4375 29.9375 24.0625 29.5625 24 28.875C24.0625 28.1875 24.4375 27.8125 25.125 27.75H28.875C29.0938 27.7188 29.2188 27.5938 29.25 27.375Z" fill="#000000"/>
</svg>
