<svg width="36" height="36" viewBox="0 0 36 36" fill="none" xmlns="http://www.w3.org/2000/svg">
<path d="M7.5 10.5C7.5 10.0625 7.64062 9.70312 7.92188 9.42188C8.20312 9.14062 8.5625 9 9 9H27C27.4375 9 27.7969 9.14062 28.0781 9.42188C28.3594 9.70312 28.5 10.0625 28.5 10.5C28.5 10.9375 28.3594 11.2969 28.0781 11.5781C27.7969 11.8594 27.4375 12 27 12H9C8.5625 12 8.20312 11.8594 7.92188 11.5781C7.64062 11.2969 7.5 10.9375 7.5 10.5ZM7.5 18C7.5 17.5625 7.64062 17.2031 7.92188 16.9219C8.20312 16.6406 8.5625 16.5 9 16.5H27C27.4375 16.5 27.7969 16.6406 28.0781 16.9219C28.3594 17.2031 28.5 17.5625 28.5 18C28.5 18.4375 28.3594 18.7969 28.0781 19.0781C27.7969 19.3594 27.4375 19.5 27 19.5H9C8.5625 19.5 8.20312 19.3594 7.92188 19.0781C7.64062 18.7969 7.5 18.4375 7.5 18ZM28.5 25.5C28.5 25.9375 28.3594 26.2969 28.0781 26.5781C27.7969 26.8594 27.4375 27 27 27H9C8.5625 27 8.20312 26.8594 7.92188 26.5781C7.64062 26.2969 7.5 25.9375 7.5 25.5C7.5 25.0625 7.64062 24.7031 7.92188 24.4219C8.20312 24.1406 8.5625 24 9 24H27C27.4375 24 27.7969 24.1406 28.0781 24.4219C28.3594 24.7031 28.5 25.0625 28.5 25.5Z" fill="#000000"/>
</svg>
