<svg width="36" height="36" viewBox="0 0 36 36" fill="none" xmlns="http://www.w3.org/2000/svg">
<path d="M18 6C18.4375 6 18.7969 6.14062 19.0781 6.42188C19.3594 6.70312 19.5 7.0625 19.5 7.5V8.39062C21.25 8.76562 22.6719 9.625 23.7656 10.9688C24.8906 12.3125 25.4688 13.9062 25.5 15.75V16.6406C25.5312 18.9219 26.2969 20.9062 27.7969 22.5938L28.125 23.0156C28.5312 23.4844 28.6094 24.0156 28.3594 24.6094C28.0781 25.1719 27.625 25.4688 27 25.5H9C8.375 25.4688 7.92188 25.1719 7.64062 24.6094C7.39062 24.0156 7.46875 23.4844 7.875 23.0156L8.25 22.5938C9.71875 20.875 10.4688 18.8906 10.5 16.6406V15.75C10.5312 13.9062 11.1094 12.3125 12.2344 10.9688C13.3281 9.625 14.75 8.76562 16.5 8.39062V7.5C16.5 7.0625 16.6406 6.70312 16.9219 6.42188C17.2031 6.14062 17.5625 6 18 6ZM20.1094 29.1094C19.5156 29.7031 18.8125 30 18 30C17.1875 30 16.4844 29.7031 15.8906 29.1094C15.2969 28.5156 15 27.8125 15 27H18H21C21 27.8125 20.7031 28.5156 20.1094 29.1094Z" fill="#000000"/>
</svg>
