<svg width="37" height="36" viewBox="0 0 37 36" fill="none" xmlns="http://www.w3.org/2000/svg">
<path d="M9.49988 18L10.8593 7.3125C11.0155 6.5 11.4999 6.0625 12.3124 6H20.2343C20.578 6 20.8749 6.125 21.1249 6.375C21.3749 6.625 21.4999 6.92188 21.4999 7.26562C21.4999 7.42187 21.4686 7.57813 21.4061 7.73438L19.2499 13.5H25.7655C26.2655 13.5 26.6718 13.6719 26.9843 14.0156C27.328 14.3281 27.4999 14.7344 27.4999 15.2344C27.4999 15.5781 27.4061 15.8906 27.2186 16.1719L18.1718 29.3438C17.8905 29.7812 17.4999 30 16.9999 30H16.8593C16.4843 30 16.1561 29.875 15.8749 29.625C15.6249 29.375 15.4999 29.0625 15.4999 28.6875C15.4999 28.5625 15.5155 28.4531 15.5468 28.3594L17.7499 19.5H10.9999C10.5624 19.5 10.203 19.3594 9.92175 19.0781C9.6405 18.7969 9.49988 18.4375 9.49988 18Z" fill="#000000"/>
</svg>
