<svg width="36" height="36" viewBox="0 0 36 36" fill="none" xmlns="http://www.w3.org/2000/svg">
<path d="M5.76562 7.96875C5.92188 7.6875 6.17188 7.54688 6.51562 7.54688L18 9L29.4844 7.54688C29.8281 7.54688 30.0781 7.6875 30.2344 7.96875L32.2031 11.9062C32.3906 12.3438 32.3906 12.7656 32.2031 13.1719C32.0469 13.5781 31.7344 13.8594 31.2656 14.0156L23.625 16.1719C22.9062 16.3281 22.3281 16.1094 21.8906 15.5156L18 9L14.1094 15.5156C13.6719 16.1094 13.0938 16.3281 12.375 16.1719L4.73438 14.0156C4.26562 13.8594 3.95312 13.5781 3.79688 13.1719C3.60938 12.7656 3.60938 12.3438 3.79688 11.9062L5.76562 7.96875ZM18.0469 12L20.625 16.2656C21 16.8594 21.4844 17.2812 22.0781 17.5312C22.7031 17.7812 23.3594 17.8125 24.0469 17.625L30 15.9375V23.7656C30 24.2656 29.8438 24.7188 29.5312 25.125C29.2188 25.5312 28.8125 25.7969 28.3125 25.9219L18.7031 28.3125C18.2344 28.4375 17.75 28.4375 17.25 28.3125L7.6875 25.9219C7.1875 25.7969 6.78125 25.5312 6.46875 25.125C6.15625 24.7188 6 24.2656 6 23.7656V15.9375L12 17.625C12.6562 17.8125 13.2969 17.7812 13.9219 17.5312C14.5156 17.2812 15 16.8594 15.375 16.2656L17.9531 12H18.0469Z" fill="#000000"/>
</svg>
