<svg width="37" height="36" viewBox="0 0 37 36" fill="none" xmlns="http://www.w3.org/2000/svg">
<path d="M18.4999 6C19.7811 6.03125 20.8436 6.46875 21.6874 7.3125C22.5311 8.15625 22.9686 9.21875 22.9999 10.5V10.6875C22.9999 11.0625 22.8749 11.375 22.6249 11.625C22.3749 11.875 22.0624 12 21.6874 12H15.3124C14.9374 12 14.6249 11.875 14.3749 11.625C14.1249 11.375 13.9999 11.0625 13.9999 10.6875V10.5C14.0311 9.21875 14.4686 8.15625 15.3124 7.3125C16.1561 6.46875 17.2186 6.03125 18.4999 6ZM8.42175 10.9219C8.73425 10.6406 9.09363 10.5 9.49988 10.5C9.90613 10.5 10.2655 10.6406 10.578 10.9219L13.578 13.9219C13.6093 13.9531 13.6405 13.9844 13.6718 14.0156C13.6718 14.0156 13.6718 14.0312 13.6718 14.0625C14.328 13.6875 15.0624 13.5 15.8749 13.5H21.1249C21.9374 13.5 22.6874 13.6875 23.3749 14.0625C23.3749 14 23.3905 13.9531 23.4218 13.9219L26.4218 10.9219C26.7343 10.6406 27.0936 10.5 27.4999 10.5C27.9061 10.5 28.2655 10.6406 28.578 10.9219C28.8593 11.2344 28.9999 11.5938 28.9999 12C28.9999 12.4062 28.8593 12.7656 28.578 13.0781L25.578 16.0781C25.5468 16.1094 25.5155 16.1406 25.4843 16.1719C25.7655 16.7344 25.9374 17.3438 25.9999 18H28.9999C29.4374 18 29.7968 18.1406 30.078 18.4219C30.3593 18.7031 30.4999 19.0625 30.4999 19.5C30.4999 19.9375 30.3593 20.2969 30.078 20.5781C29.7968 20.8594 29.4374 21 28.9999 21H25.9999C25.9999 22.1562 25.7655 23.2344 25.2968 24.2344C25.3905 24.2969 25.4843 24.3594 25.578 24.4219L28.578 27.4219C28.8593 27.7344 28.9999 28.0938 28.9999 28.5C28.9999 28.9062 28.8593 29.2656 28.578 29.5781C28.2655 29.8594 27.9061 30 27.4999 30C27.0936 30 26.7343 29.8594 26.4218 29.5781L23.4686 26.625C22.3124 27.6562 20.9061 28.2656 19.2499 28.4531V17.25C19.2186 16.7812 18.9686 16.5312 18.4999 16.5C18.0311 16.5312 17.7811 16.7812 17.7499 17.25V28.4531C16.0936 28.2656 14.6874 27.6562 13.5311 26.625L10.578 29.5781C10.2655 29.8594 9.90613 30 9.49988 30C9.09363 30 8.73425 29.8594 8.42175 29.5781C8.1405 29.2656 7.99988 28.9062 7.99988 28.5C7.99988 28.0938 8.1405 27.7344 8.42175 27.4219L11.4218 24.4219C11.5155 24.3594 11.6093 24.2969 11.703 24.2344C11.2343 23.2344 10.9999 22.1562 10.9999 21H7.99988C7.56238 21 7.203 20.8594 6.92175 20.5781C6.6405 20.2969 6.49988 19.9375 6.49988 19.5C6.49988 19.0625 6.6405 18.7031 6.92175 18.4219C7.203 18.1406 7.56238 18 7.99988 18H10.9999C11.0624 17.3438 11.2343 16.7344 11.5155 16.1719C11.4843 16.1406 11.453 16.1094 11.4218 16.0781L8.42175 13.0781C8.1405 12.7656 7.99988 12.4062 7.99988 12C7.99988 11.5938 8.1405 11.2344 8.42175 10.9219Z" fill="#000000"/>
</svg>
