<svg width="36" height="36" viewBox="0 0 36 36" fill="none" xmlns="http://www.w3.org/2000/svg">
<path d="M13.5 6C13.9375 6 14.2969 6.14062 14.5781 6.42188C14.8594 6.70312 15 7.0625 15 7.5V9H21V7.5C21 7.0625 21.1406 6.70312 21.4219 6.42188C21.7031 6.14062 22.0625 6 22.5 6C22.9375 6 23.2969 6.14062 23.5781 6.42188C23.8594 6.70312 24 7.0625 24 7.5V9H26.25C26.875 9.03125 27.4062 9.25 27.8438 9.65625C28.25 10.0938 28.4688 10.625 28.5 11.25V13.5H7.5V11.25C7.53125 10.625 7.75 10.0938 8.15625 9.65625C8.59375 9.25 9.125 9.03125 9.75 9H12V7.5C12 7.0625 12.1406 6.70312 12.4219 6.42188C12.7031 6.14062 13.0625 6 13.5 6ZM7.5 15H28.5V27.75C28.4688 28.375 28.25 28.9062 27.8438 29.3438C27.4062 29.75 26.875 29.9688 26.25 30H9.75C9.125 29.9688 8.59375 29.75 8.15625 29.3438C7.75 28.9062 7.53125 28.375 7.5 27.75V15ZM10.5 18.75V20.25C10.5312 20.7188 10.7812 20.9688 11.25 21H12.75C13.2188 20.9688 13.4688 20.7188 13.5 20.25V18.75C13.4688 18.2812 13.2188 18.0312 12.75 18H11.25C10.7812 18.0312 10.5312 18.2812 10.5 18.75ZM16.5 18.75V20.25C16.5312 20.7188 16.7812 20.9688 17.25 21H18.75C19.2188 20.9688 19.4688 20.7188 19.5 20.25V18.75C19.4688 18.2812 19.2188 18.0312 18.75 18H17.25C16.7812 18.0312 16.5312 18.2812 16.5 18.75ZM23.25 18C22.7812 18.0312 22.5312 18.2812 22.5 18.75V20.25C22.5312 20.7188 22.7812 20.9688 23.25 21H24.75C25.2188 20.9688 25.4688 20.7188 25.5 20.25V18.75C25.4688 18.2812 25.2188 18.0312 24.75 18H23.25ZM10.5 24.75V26.25C10.5312 26.7188 10.7812 26.9688 11.25 27H12.75C13.2188 26.9688 13.4688 26.7188 13.5 26.25V24.75C13.4688 24.2812 13.2188 24.0312 12.75 24H11.25C10.7812 24.0312 10.5312 24.2812 10.5 24.75ZM17.25 24C16.7812 24.0312 16.5312 24.2812 16.5 24.75V26.25C16.5312 26.7188 16.7812 26.9688 17.25 27H18.75C19.2188 26.9688 19.4688 26.7188 19.5 26.25V24.75C19.4688 24.2812 19.2188 24.0312 18.75 24H17.25ZM22.5 24.75V26.25C22.5312 26.7188 22.7812 26.9688 23.25 27H24.75C25.2188 26.9688 25.4688 26.7188 25.5 26.25V24.75C25.4688 24.2812 25.2188 24.0312 24.75 24H23.25C22.7812 24.0312 22.5312 24.2812 22.5 24.75Z" fill="#000000"/>
</svg>
