<svg width="36" height="36" viewBox="0 0 36 36" fill="none" xmlns="http://www.w3.org/2000/svg">
<path d="M8.625 6H12.375C13.0625 6.0625 13.4375 6.4375 13.5 7.125C13.4375 7.8125 13.0625 8.1875 12.375 8.25H8.625C8.40625 8.28125 8.28125 8.40625 8.25 8.625V12.375C8.1875 13.0625 7.8125 13.4375 7.125 13.5C6.4375 13.4375 6.0625 13.0625 6 12.375V8.625C6.03125 7.875 6.28125 7.25 6.75 6.75C7.25 6.28125 7.875 6.03125 8.625 6ZM23.625 6H27.375C28.125 6.03125 28.75 6.28125 29.25 6.75C29.7188 7.25 29.9688 7.875 30 8.625V12.375C29.9375 13.0625 29.5625 13.4375 28.875 13.5C28.1875 13.4375 27.8125 13.0625 27.75 12.375V8.625C27.7188 8.40625 27.5938 8.28125 27.375 8.25H23.625C22.9375 8.1875 22.5625 7.8125 22.5 7.125C22.5625 6.4375 22.9375 6.0625 23.625 6ZM8.25 23.625V27.375C8.28125 27.5938 8.40625 27.7188 8.625 27.75H12.375C13.0625 27.8125 13.4375 28.1875 13.5 28.875C13.4375 29.5625 13.0625 29.9375 12.375 30H8.625C7.875 29.9688 7.25 29.7188 6.75 29.25C6.28125 28.75 6.03125 28.125 6 27.375V23.625C6.0625 22.9375 6.4375 22.5625 7.125 22.5C7.8125 22.5625 8.1875 22.9375 8.25 23.625ZM30 23.625V27.375C29.9688 28.125 29.7188 28.75 29.25 29.25C28.75 29.7188 28.125 29.9688 27.375 30H23.625C22.9375 29.9375 22.5625 29.5625 22.5 28.875C22.5625 28.1875 22.9375 27.8125 23.625 27.75H27.375C27.5938 27.7188 27.7188 27.5938 27.75 27.375V23.625C27.8125 22.9375 28.1875 22.5625 28.875 22.5C29.5625 22.5625 29.9375 22.9375 30 23.625ZM14.4375 12L14.7188 11.25C14.9375 10.7812 15.2969 10.5312 15.7969 10.5H20.2031C20.7344 10.5312 21.0938 10.7812 21.2812 11.25L21.5625 12H23.25C23.875 12.0312 24.4062 12.25 24.8438 12.6562C25.25 13.0938 25.4688 13.625 25.5 14.25V21.75C25.4688 22.375 25.25 22.9062 24.8438 23.3438C24.4062 23.75 23.875 23.9688 23.25 24H12.75C12.125 23.9688 11.5938 23.75 11.1562 23.3438C10.75 22.9062 10.5312 22.375 10.5 21.75V14.25C10.5312 13.625 10.75 13.0938 11.1562 12.6562C11.5938 12.25 12.125 12.0312 12.75 12H14.4375ZM21 18C20.9688 16.875 20.4688 16.0156 19.5 15.4219C18.5 14.8594 17.5 14.8594 16.5 15.4219C15.5312 16.0156 15.0312 16.875 15 18C15.0312 19.125 15.5312 19.9844 16.5 20.5781C17.5 21.1406 18.5 21.1406 19.5 20.5781C20.4688 19.9844 20.9688 19.125 21 18Z" fill="#000000"/>
</svg>
