<svg width="37" height="36" viewBox="0 0 37 36" fill="none" xmlns="http://www.w3.org/2000/svg">
<path d="M4.99988 6H5.74988C6.81238 6.03125 7.703 6.39062 8.42175 7.07812C9.10925 7.79687 9.46863 8.6875 9.49988 9.75V23.25C9.53113 23.7188 9.78113 23.9688 10.2499 24H31.9999C32.4374 24 32.7968 24.1406 33.078 24.4219C33.3593 24.7031 33.4999 25.0625 33.4999 25.5C33.4999 25.9375 33.3593 26.2969 33.078 26.5781C32.7968 26.8594 32.4374 27 31.9999 27H28.8593C28.953 27.25 28.9999 27.5 28.9999 27.75C28.9686 28.375 28.7499 28.9062 28.3436 29.3438C27.9061 29.75 27.3749 29.9688 26.7499 30C26.1249 29.9688 25.5936 29.75 25.1561 29.3438C24.7499 28.9062 24.5311 28.375 24.4999 27.75C24.4999 27.5 24.5468 27.25 24.6405 27H15.3593C15.453 27.25 15.4999 27.5 15.4999 27.75C15.4686 28.375 15.2499 28.9062 14.8436 29.3438C14.4061 29.75 13.8749 29.9688 13.2499 30C12.6249 29.9688 12.0936 29.75 11.6561 29.3438C11.2499 28.9062 11.0311 28.375 10.9999 27.75C10.9999 27.5 11.0468 27.25 11.1405 27H10.2499C9.18738 26.9688 8.29675 26.6094 7.578 25.9219C6.8905 25.2031 6.53113 24.3125 6.49988 23.25V9.75C6.46863 9.28125 6.21863 9.03125 5.74988 9H4.99988C4.56238 9 4.203 8.85938 3.92175 8.57812C3.6405 8.29688 3.49988 7.9375 3.49988 7.5C3.49988 7.0625 3.6405 6.70312 3.92175 6.42188C4.203 6.14062 4.56238 6 4.99988 6ZM13.9999 7.5H19.9999C20.4374 7.5 20.7968 7.64062 21.078 7.92188C21.3593 8.20312 21.4999 8.5625 21.4999 9V19.5C21.4999 19.9375 21.3593 20.2969 21.078 20.5781C20.7968 20.8594 20.4374 21 19.9999 21H13.9999C13.5624 21 13.203 20.8594 12.9218 20.5781C12.6405 20.2969 12.4999 19.9375 12.4999 19.5V9C12.4999 8.5625 12.6405 8.20312 12.9218 7.92188C13.203 7.64062 13.5624 7.5 13.9999 7.5ZM22.9999 9C22.9999 8.5625 23.1405 8.20312 23.4218 7.92188C23.703 7.64062 24.0624 7.5 24.4999 7.5H27.4999C27.9374 7.5 28.2968 7.64062 28.578 7.92188C28.8593 8.20312 28.9999 8.5625 28.9999 9V12C28.9999 12.4375 28.8593 12.7969 28.578 13.0781C28.2968 13.3594 27.9374 13.5 27.4999 13.5H24.4999C24.0624 13.5 23.703 13.3594 23.4218 13.0781C23.1405 12.7969 22.9999 12.4375 22.9999 12V9ZM24.4999 15H30.4999C30.9374 15 31.2968 15.1406 31.578 15.4219C31.8593 15.7031 31.9999 16.0625 31.9999 16.5V19.5C31.9999 19.9375 31.8593 20.2969 31.578 20.5781C31.2968 20.8594 30.9374 21 30.4999 21H24.4999C24.0624 21 23.703 20.8594 23.4218 20.5781C23.1405 20.2969 22.9999 19.9375 22.9999 19.5V16.5C22.9999 16.0625 23.1405 15.7031 23.4218 15.4219C23.703 15.1406 24.0624 15 24.4999 15Z" fill="#000000"/>
</svg>
