<svg width="36" height="36" viewBox="0 0 36 36" fill="none" xmlns="http://www.w3.org/2000/svg">
<path d="M4.5 7.125C4.5625 6.4375 4.9375 6.0625 5.625 6H7.78125C8.84375 6.0625 9.625 6.5625 10.125 7.5H29.3906C30.0156 7.53125 30.5156 7.78125 30.8906 8.25C31.2344 8.71875 31.3438 9.25 31.2188 9.84375L29.2969 17.0156C29.0781 17.7656 28.6719 18.3594 28.0781 18.7969C27.4844 19.2656 26.7969 19.5 26.0156 19.5H12.5156L12.75 20.8594C12.9062 21.4219 13.2812 21.7188 13.875 21.75H27.375C28.0625 21.8125 28.4375 22.1875 28.5 22.875C28.4375 23.5625 28.0625 23.9375 27.375 24H13.875C13.0312 24 12.3125 23.7344 11.7188 23.2031C11.0938 22.7031 10.7031 22.0625 10.5469 21.2812L8.10938 8.57812C8.07812 8.35938 7.96875 8.25 7.78125 8.25H5.625C4.9375 8.1875 4.5625 7.8125 4.5 7.125ZM10.5 27.75C10.5312 26.9062 10.9062 26.25 11.625 25.7812C12.375 25.4062 13.125 25.4062 13.875 25.7812C14.5938 26.25 14.9688 26.9062 15 27.75C14.9688 28.5938 14.5938 29.25 13.875 29.7188C13.125 30.0938 12.375 30.0938 11.625 29.7188C10.9062 29.25 10.5312 28.5938 10.5 27.75ZM26.25 25.5C27.0938 25.5312 27.75 25.9062 28.2188 26.625C28.5938 27.375 28.5938 28.125 28.2188 28.875C27.75 29.5938 27.0938 29.9688 26.25 30C25.4062 29.9688 24.75 29.5938 24.2812 28.875C23.9062 28.125 23.9062 27.375 24.2812 26.625C24.75 25.9062 25.4062 25.5312 26.25 25.5Z" fill="#000000"/>
</svg>
