<svg width="36" height="36" viewBox="0 0 36 36" fill="none" xmlns="http://www.w3.org/2000/svg">
<path d="M15 6H21C21.8438 6.03125 22.5469 6.32812 23.1094 6.89062C23.6719 7.45312 23.9688 8.15625 24 9V18H12V9C12.0312 8.15625 12.3281 7.45312 12.8906 6.89062C13.4531 6.32812 14.1562 6.03125 15 6ZM10.5 13.5V16.5C10.5 16.9375 10.3594 17.2969 10.0781 17.5781C9.79688 17.8594 9.4375 18 9 18C8.5625 18 8.20312 17.8594 7.92188 17.5781C7.64062 17.2969 7.5 16.9375 7.5 16.5V13.5C7.5 13.0625 7.64062 12.7031 7.92188 12.4219C8.20312 12.1406 8.5625 12 9 12C9.4375 12 9.79688 12.1406 10.0781 12.4219C10.3594 12.7031 10.5 13.0625 10.5 13.5ZM28.5 13.5V16.5C28.5 16.9375 28.3594 17.2969 28.0781 17.5781C27.7969 17.8594 27.4375 18 27 18C26.5625 18 26.2031 17.8594 25.9219 17.5781C25.6406 17.2969 25.5 16.9375 25.5 16.5V13.5C25.5 13.0625 25.6406 12.7031 25.9219 12.4219C26.2031 12.1406 26.5625 12 27 12C27.4375 12 27.7969 12.1406 28.0781 12.4219C28.3594 12.7031 28.5 13.0625 28.5 13.5ZM9.89062 20.3438C10.2031 19.8125 10.6562 19.5312 11.25 19.5H24.75C25.3438 19.5312 25.7969 19.8125 26.1094 20.3438L26.8594 21.8438C27.0781 22.3438 27.0469 22.8281 26.7656 23.2969C26.4844 23.7344 26.0625 23.9688 25.5 24H19.5V27H21C21.4375 27 21.7969 27.1406 22.0781 27.4219C22.3594 27.7031 22.5 28.0625 22.5 28.5C22.5 28.9375 22.3594 29.2969 22.0781 29.5781C21.7969 29.8594 21.4375 30 21 30H18H15C14.5625 30 14.2031 29.8594 13.9219 29.5781C13.6406 29.2969 13.5 28.9375 13.5 28.5C13.5 28.0625 13.6406 27.7031 13.9219 27.4219C14.2031 27.1406 14.5625 27 15 27H16.5V24H10.5C9.9375 24 9.51562 23.7656 9.23438 23.2969C8.95312 22.8281 8.92188 22.3438 9.14062 21.8438L9.89062 20.3438Z" fill="#000000"/>
</svg>
