<svg width="37" height="36" viewBox="0 0 37 36" fill="none" xmlns="http://www.w3.org/2000/svg">
<path d="M7.99988 7.5C8.43738 7.5 8.79675 7.64062 9.078 7.92188C9.35925 8.20312 9.49988 8.5625 9.49988 9V24.75C9.53113 25.2188 9.78113 25.4688 10.2499 25.5H28.9999C29.4374 25.5 29.7968 25.6406 30.078 25.9219C30.3593 26.2031 30.4999 26.5625 30.4999 27C30.4999 27.4375 30.3593 27.7969 30.078 28.0781C29.7968 28.3594 29.4374 28.5 28.9999 28.5H10.2499C9.18738 28.4688 8.29675 28.1094 7.578 27.4219C6.8905 26.7031 6.53113 25.8125 6.49988 24.75V9C6.49988 8.5625 6.6405 8.20312 6.92175 7.92188C7.203 7.64062 7.56238 7.5 7.99988 7.5ZM13.9999 16.5C14.4374 16.5 14.7968 16.6406 15.078 16.9219C15.3593 17.2031 15.4999 17.5625 15.4999 18V21C15.4999 21.4375 15.3593 21.7969 15.078 22.0781C14.7968 22.3594 14.4374 22.5 13.9999 22.5C13.5624 22.5 13.203 22.3594 12.9218 22.0781C12.6405 21.7969 12.4999 21.4375 12.4999 21V18C12.4999 17.5625 12.6405 17.2031 12.9218 16.9219C13.203 16.6406 13.5624 16.5 13.9999 16.5ZM19.9999 13.5V21C19.9999 21.4375 19.8593 21.7969 19.578 22.0781C19.2968 22.3594 18.9374 22.5 18.4999 22.5C18.0624 22.5 17.703 22.3594 17.4218 22.0781C17.1405 21.7969 16.9999 21.4375 16.9999 21V13.5C16.9999 13.0625 17.1405 12.7031 17.4218 12.4219C17.703 12.1406 18.0624 12 18.4999 12C18.9374 12 19.2968 12.1406 19.578 12.4219C19.8593 12.7031 19.9999 13.0625 19.9999 13.5ZM22.9999 15C23.4374 15 23.7968 15.1406 24.078 15.4219C24.3593 15.7031 24.4999 16.0625 24.4999 16.5V21C24.4999 21.4375 24.3593 21.7969 24.078 22.0781C23.7968 22.3594 23.4374 22.5 22.9999 22.5C22.5624 22.5 22.203 22.3594 21.9218 22.0781C21.6405 21.7969 21.4999 21.4375 21.4999 21V16.5C21.4999 16.0625 21.6405 15.7031 21.9218 15.4219C22.203 15.1406 22.5624 15 22.9999 15ZM28.9999 10.5V21C28.9999 21.4375 28.8593 21.7969 28.578 22.0781C28.2968 22.3594 27.9374 22.5 27.4999 22.5C27.0624 22.5 26.703 22.3594 26.4218 22.0781C26.1405 21.7969 25.9999 21.4375 25.9999 21V10.5C25.9999 10.0625 26.1405 9.70312 26.4218 9.42188C26.703 9.14062 27.0624 9 27.4999 9C27.9374 9 28.2968 9.14062 28.578 9.42188C28.8593 9.70312 28.9999 10.0625 28.9999 10.5Z" fill="#000000"/>
</svg>
