<svg width="36" height="36" viewBox="0 0 36 36" fill="none" xmlns="http://www.w3.org/2000/svg">
<path d="M28.0781 10.9219C28.3594 11.2344 28.5 11.5938 28.5 12C28.5 12.4062 28.3594 12.7656 28.0781 13.0781L16.0781 25.0781C15.7656 25.3594 15.4062 25.5 15 25.5C14.5938 25.5 14.2344 25.3594 13.9219 25.0781L7.92188 19.0781C7.64062 18.7656 7.5 18.4062 7.5 18C7.5 17.5938 7.64062 17.2344 7.92188 16.9219C8.23438 16.6406 8.59375 16.5 9 16.5C9.40625 16.5 9.76562 16.6406 10.0781 16.9219L15 21.8906L25.9219 10.9219C26.2344 10.6406 26.5938 10.5 27 10.5C27.4062 10.5 27.7656 10.6406 28.0781 10.9219Z" fill="#000000"/>
</svg>
