<svg width="36" height="36" viewBox="0 0 36 36" fill="none" xmlns="http://www.w3.org/2000/svg">
<path d="M18 30C15.8125 29.9688 13.8125 29.4375 12 28.4062C10.1875 27.3438 8.71875 25.875 7.59375 24C6.53125 22.0938 6 20.0938 6 18C6 15.9062 6.53125 13.9062 7.59375 12C8.71875 10.125 10.1875 8.65625 12 7.59375C13.8125 6.5625 15.8125 6.03125 18 6C20.1875 6.03125 22.1875 6.5625 24 7.59375C25.8125 8.65625 27.2812 10.125 28.4062 12C29.4688 13.9062 30 15.9062 30 18C30 20.0938 29.4688 22.0938 28.4062 24C27.2812 25.875 25.8125 27.3438 24 28.4062C22.1875 29.4375 20.1875 29.9688 18 30ZM14.2031 14.2031C13.7656 14.7344 13.7656 15.2656 14.2031 15.7969L16.4062 18L14.2031 20.2031C13.7656 20.7344 13.7656 21.2656 14.2031 21.7969C14.7344 22.2344 15.2656 22.2344 15.7969 21.7969L18 19.5938L20.2031 21.7969C20.7344 22.2344 21.2656 22.2344 21.7969 21.7969C22.2344 21.2656 22.2344 20.7344 21.7969 20.2031L19.5938 18L21.7969 15.7969C22.2344 15.2656 22.2344 14.7344 21.7969 14.2031C21.2656 13.7656 20.7344 13.7656 20.2031 14.2031L18 16.4062L15.7969 14.2031C15.2656 13.7656 14.7344 13.7656 14.2031 14.2031Z" fill="#000000"/>
</svg>
