<svg width="36" height="36" viewBox="0 0 36 36" fill="none" xmlns="http://www.w3.org/2000/svg">
<path d="M18 30C15.8125 29.9688 13.8125 29.4375 12 28.4062C10.1875 27.3438 8.71875 25.875 7.59375 24C6.53125 22.0938 6 20.0938 6 18C6 15.9062 6.53125 13.9062 7.59375 12C8.71875 10.125 10.1875 8.65625 12 7.59375C13.8125 6.5625 15.8125 6.03125 18 6C20.1875 6.03125 22.1875 6.5625 24 7.59375C25.8125 8.65625 27.2812 10.125 28.4062 12C29.4688 13.9062 30 15.9062 30 18C30 20.0938 29.4688 22.0938 28.4062 24C27.2812 25.875 25.8125 27.3438 24 28.4062C22.1875 29.4375 20.1875 29.9688 18 30ZM18 12C17.3125 12.0625 16.9375 12.4375 16.875 13.125V18.375C16.9375 19.0625 17.3125 19.4375 18 19.5C18.6875 19.4375 19.0625 19.0625 19.125 18.375V13.125C19.0625 12.4375 18.6875 12.0625 18 12ZM16.5 22.5C16.5 22.9375 16.6406 23.2969 16.9219 23.5781C17.2031 23.8594 17.5625 24 18 24C18.4375 24 18.7969 23.8594 19.0781 23.5781C19.3594 23.2969 19.5 22.9375 19.5 22.5C19.5 22.0625 19.3594 21.7031 19.0781 21.4219C18.7969 21.1406 18.4375 21 18 21C17.5625 21 17.2031 21.1406 16.9219 21.4219C16.6406 21.7031 16.5 22.0625 16.5 22.5Z" fill="#000000"/>
</svg>
