<svg width="37" height="36" viewBox="0 0 37 36" fill="none" xmlns="http://www.w3.org/2000/svg">
<path d="M18.4999 30C16.3124 29.9688 14.3124 29.4375 12.4999 28.4062C10.6874 27.3438 9.21863 25.875 8.09363 24C7.03113 22.0938 6.49988 20.0938 6.49988 18C6.49988 15.9062 7.03113 13.9062 8.09363 12C9.21863 10.125 10.6874 8.65625 12.4999 7.59375C14.3124 6.5625 16.3124 6.03125 18.4999 6C20.6874 6.03125 22.6874 6.5625 24.4999 7.59375C26.3124 8.65625 27.7811 10.125 28.9061 12C29.9686 13.9062 30.4999 15.9062 30.4999 18C30.4999 20.0938 29.9686 22.0938 28.9061 24C27.7811 25.875 26.3124 27.3438 24.4999 28.4062C22.6874 29.4375 20.6874 29.9688 18.4999 30ZM15.1249 16.875C14.4374 16.9375 14.0624 17.3125 13.9999 18C14.0624 18.6875 14.4374 19.0625 15.1249 19.125H21.8749C22.5624 19.0625 22.9374 18.6875 22.9999 18C22.9374 17.3125 22.5624 16.9375 21.8749 16.875H15.1249Z" fill="#000000"/>
</svg>
