<svg width="36" height="36" viewBox="0 0 36 36" fill="none" xmlns="http://www.w3.org/2000/svg">
<path d="M18 30C15.8125 29.9688 13.8125 29.4375 12 28.4062C10.1875 27.3438 8.71875 25.875 7.59375 24C6.53125 22.0938 6 20.0938 6 18C6 15.9062 6.53125 13.9062 7.59375 12C8.71875 10.125 10.1875 8.65625 12 7.59375C13.8125 6.5625 15.8125 6.03125 18 6C20.1875 6.03125 22.1875 6.5625 24 7.59375C25.8125 8.65625 27.2812 10.125 28.4062 12C29.4688 13.9062 30 15.9062 30 18C30 20.0938 29.4688 22.0938 28.4062 24C27.2812 25.875 25.8125 27.3438 24 28.4062C22.1875 29.4375 20.1875 29.9688 18 30ZM23.2969 15.7969C23.7344 15.2656 23.7344 14.7344 23.2969 14.2031C22.7656 13.7656 22.2344 13.7656 21.7031 14.2031L16.5 19.4062L14.2969 17.2031C13.7656 16.7656 13.2344 16.7656 12.7031 17.2031C12.2656 17.7344 12.2656 18.2656 12.7031 18.7969L15.7031 21.7969C16.2344 22.2344 16.7656 22.2344 17.2969 21.7969L23.2969 15.7969Z" fill="#000000"/>
</svg>
