<svg width="36" height="36" viewBox="0 0 36 36" fill="none" xmlns="http://www.w3.org/2000/svg">
<path d="M18 30C15.8125 29.9688 13.8125 29.4375 12 28.4062C10.1875 27.3438 8.71875 25.875 7.59375 24C6.53125 22.0938 6 20.0938 6 18C6 15.9062 6.53125 13.9062 7.59375 12C8.71875 10.125 10.1875 8.65625 12 7.59375C13.8125 6.5625 15.8125 6.03125 18 6C20.1875 6.03125 22.1875 6.5625 24 7.59375C25.8125 8.65625 27.2812 10.125 28.4062 12C29.4688 13.9062 30 15.9062 30 18C30 20.0938 29.4688 22.0938 28.4062 24C27.2812 25.875 25.8125 27.3438 24 28.4062C22.1875 29.4375 20.1875 29.9688 18 30ZM13.9688 13.7344V13.8281C13.7812 14.4844 14 14.9531 14.625 15.2344C15.2812 15.4219 15.7656 15.2031 16.0781 14.5781V14.4844C16.1406 14.3281 16.2656 14.25 16.4531 14.25H19.1719C19.6094 14.2812 19.8438 14.5156 19.875 14.9531C19.875 15.2344 19.75 15.4375 19.5 15.5625L17.4375 16.7812C17.0625 17 16.875 17.3281 16.875 17.7656V18.375C16.9375 19.0625 17.3125 19.4375 18 19.5C18.6875 19.4375 19.0625 19.0625 19.125 18.375L20.625 17.5312C21.5938 16.9375 22.0938 16.0781 22.125 14.9531C22.0938 14.1094 21.8125 13.4219 21.2812 12.8906C20.7188 12.3281 20.0156 12.0312 19.1719 12H16.4531C15.8594 12 15.3438 12.1562 14.9062 12.4688C14.4688 12.7812 14.1562 13.2031 13.9688 13.7344ZM16.5 22.5C16.5 22.9375 16.6406 23.2969 16.9219 23.5781C17.2031 23.8594 17.5625 24 18 24C18.4375 24 18.7969 23.8594 19.0781 23.5781C19.3594 23.2969 19.5 22.9375 19.5 22.5C19.5 22.0625 19.3594 21.7031 19.0781 21.4219C18.7969 21.1406 18.4375 21 18 21C17.5625 21 17.2031 21.1406 16.9219 21.4219C16.6406 21.7031 16.5 22.0625 16.5 22.5Z" fill="#000000"/>
</svg>
