<svg width="36" height="36" viewBox="0 0 36 36" fill="none" xmlns="http://www.w3.org/2000/svg">
<path d="M18 30C15.8125 29.9688 13.8125 29.4375 12 28.4062C10.1875 27.3438 8.71875 25.875 7.59375 24C6.53125 22.0938 6 20.0938 6 18C6 15.9062 6.53125 13.9062 7.59375 12C8.71875 10.125 10.1875 8.65625 12 7.59375C13.8125 6.5625 15.8125 6.03125 18 6C20.1875 6.03125 22.1875 6.5625 24 7.59375C25.8125 8.65625 27.2812 10.125 28.4062 12C29.4688 13.9062 30 15.9062 30 18C30 20.0938 29.4688 22.0938 28.4062 24C27.2812 25.875 25.8125 27.3438 24 28.4062C22.1875 29.4375 20.1875 29.9688 18 30ZM16.125 21.75C15.4375 21.8125 15.0625 22.1875 15 22.875C15.0625 23.5625 15.4375 23.9375 16.125 24H19.875C20.5625 23.9375 20.9375 23.5625 21 22.875C20.9375 22.1875 20.5625 21.8125 19.875 21.75H19.5V17.625C19.4375 16.9375 19.0625 16.5625 18.375 16.5H16.125C15.4375 16.5625 15.0625 16.9375 15 17.625C15.0625 18.3125 15.4375 18.6875 16.125 18.75H17.25V21.75H16.125ZM18 12C17.5625 12 17.2031 12.1406 16.9219 12.4219C16.6406 12.7031 16.5 13.0625 16.5 13.5C16.5 13.9375 16.6406 14.2969 16.9219 14.5781C17.2031 14.8594 17.5625 15 18 15C18.4375 15 18.7969 14.8594 19.0781 14.5781C19.3594 14.2969 19.5 13.9375 19.5 13.5C19.5 13.0625 19.3594 12.7031 19.0781 12.4219C18.7969 12.1406 18.4375 12 18 12Z" fill="#000000"/>
</svg>
