<svg width="36" height="36" viewBox="0 0 36 36" fill="none" xmlns="http://www.w3.org/2000/svg">
<path d="M18 6C19 6.03125 19.875 6.3125 20.625 6.84375C21.375 7.40625 21.9219 8.125 22.2656 9H24C24.8438 9.03125 25.5469 9.32812 26.1094 9.89062C26.6719 10.4531 26.9688 11.1562 27 12V27C26.9688 27.8438 26.6719 28.5469 26.1094 29.1094C25.5469 29.6719 24.8438 29.9688 24 30H12C11.1562 29.9688 10.4531 29.6719 9.89062 29.1094C9.32812 28.5469 9.03125 27.8438 9 27V12C9.03125 11.1562 9.32812 10.4531 9.89062 9.89062C10.4531 9.32812 11.1562 9.03125 12 9H13.7812C14.0938 8.125 14.625 7.40625 15.375 6.84375C16.125 6.3125 17 6.03125 18 6ZM18 9C17.5625 9 17.2031 9.14062 16.9219 9.42188C16.6406 9.70312 16.5 10.0625 16.5 10.5C16.5 10.9375 16.6406 11.2969 16.9219 11.5781C17.2031 11.8594 17.5625 12 18 12C18.4375 12 18.7969 11.8594 19.0781 11.5781C19.3594 11.2969 19.5 10.9375 19.5 10.5C19.5 10.0625 19.3594 9.70312 19.0781 9.42188C18.7969 9.14062 18.4375 9 18 9ZM12.375 18.75C12.4375 19.4375 12.8125 19.8125 13.5 19.875C14.1875 19.8125 14.5625 19.4375 14.625 18.75C14.5625 18.0625 14.1875 17.6875 13.5 17.625C12.8125 17.6875 12.4375 18.0625 12.375 18.75ZM17.25 18C16.7812 18.0312 16.5312 18.2812 16.5 18.75C16.5312 19.2188 16.7812 19.4688 17.25 19.5H23.25C23.7188 19.4688 23.9688 19.2188 24 18.75C23.9688 18.2812 23.7188 18.0312 23.25 18H17.25ZM12.375 23.25C12.4375 23.9375 12.8125 24.3125 13.5 24.375C14.1875 24.3125 14.5625 23.9375 14.625 23.25C14.5625 22.5625 14.1875 22.1875 13.5 22.125C12.8125 22.1875 12.4375 22.5625 12.375 23.25ZM16.5 23.25C16.5312 23.7188 16.7812 23.9688 17.25 24H23.25C23.7188 23.9688 23.9688 23.7188 24 23.25C23.9688 22.7812 23.7188 22.5312 23.25 22.5H17.25C16.7812 22.5312 16.5312 22.7812 16.5 23.25Z" fill="#000000"/>
</svg>
