<svg width="36" height="36" viewBox="0 0 36 36" fill="none" xmlns="http://www.w3.org/2000/svg">
<path d="M18 6C20.1875 6.03125 22.1875 6.5625 24 7.59375C25.8125 8.65625 27.2812 10.125 28.4062 12C29.4688 13.9062 30 15.9062 30 18C30 20.0938 29.4688 22.0938 28.4062 24C27.2812 25.875 25.8125 27.3438 24 28.4062C22.1875 29.4375 20.1875 29.9688 18 30C15.8125 29.9688 13.8125 29.4375 12 28.4062C10.1875 27.3438 8.71875 25.875 7.59375 24C6.53125 22.0938 6 20.0938 6 18C6 15.9062 6.53125 13.9062 7.59375 12C8.71875 10.125 10.1875 8.65625 12 7.59375C13.8125 6.5625 15.8125 6.03125 18 6ZM16.875 11.625V18C16.875 18.4062 17.0469 18.7188 17.3906 18.9375L21.8906 21.9375C22.4844 22.2812 23 22.1719 23.4375 21.6094C23.7812 21.0156 23.6719 20.5 23.1094 20.0625L19.125 17.3906V11.625C19.0625 10.9375 18.6875 10.5625 18 10.5C17.3125 10.5625 16.9375 10.9375 16.875 11.625Z" fill="#000000"/>
</svg>
