<svg width="36" height="36" viewBox="0 0 36 36" fill="none" xmlns="http://www.w3.org/2000/svg">
<path d="M30 17.25C29.9688 19.0625 29.4219 20.7031 28.3594 22.1719C27.2969 23.6406 25.8594 24.8125 24.0469 25.6875C22.2656 26.5312 20.25 26.9688 18 27C16.25 27 14.625 26.7188 13.125 26.1562C12.5312 26.5938 11.6875 27.0781 10.5938 27.6094C9.40625 28.1406 8.125 28.4375 6.75 28.5C6.4375 28.5 6.20312 28.3438 6.04688 28.0312C5.95312 27.7188 6.01562 27.4531 6.23438 27.2344V27.1875C6.23438 27.1875 6.25 27.1719 6.28125 27.1406C6.34375 27.0781 6.42188 26.9844 6.51562 26.8594C6.73438 26.6406 6.96875 26.3125 7.21875 25.875C7.75 25.0625 8.09375 24.0781 8.25 22.9219C6.78125 21.2969 6.03125 19.4062 6 17.25C6.03125 15.4375 6.57812 13.7969 7.64062 12.3281C8.70312 10.8594 10.1406 9.6875 11.9531 8.8125C13.7344 7.96875 15.75 7.53125 18 7.5C20.25 7.53125 22.2656 7.96875 24.0469 8.8125C25.8594 9.6875 27.2969 10.8594 28.3594 12.3281C29.4219 13.7969 29.9688 15.4375 30 17.25Z" fill="#000000"/>
</svg>
