<svg width="37" height="36" viewBox="0 0 37 36" fill="none" xmlns="http://www.w3.org/2000/svg">
<path d="M7.99988 7.5H28.9999C29.8436 7.53125 30.5468 7.82812 31.1093 8.39062C31.6718 8.95312 31.9686 9.65625 31.9999 10.5V12H4.99988V10.5C5.03113 9.65625 5.328 8.95312 5.8905 8.39062C6.453 7.82812 7.15613 7.53125 7.99988 7.5ZM31.9999 16.5V25.5C31.9686 26.3438 31.6718 27.0469 31.1093 27.6094C30.5468 28.1719 29.8436 28.4688 28.9999 28.5H7.99988C7.15613 28.4688 6.453 28.1719 5.8905 27.6094C5.328 27.0469 5.03113 26.3438 4.99988 25.5V16.5H31.9999ZM10.2499 22.5C9.78113 22.5312 9.53113 22.7812 9.49988 23.25C9.53113 23.7188 9.78113 23.9688 10.2499 24H13.2499C13.7186 23.9688 13.9686 23.7188 13.9999 23.25C13.9686 22.7812 13.7186 22.5312 13.2499 22.5H10.2499ZM15.4999 23.25C15.5311 23.7188 15.7811 23.9688 16.2499 24H22.2499C22.7186 23.9688 22.9686 23.7188 22.9999 23.25C22.9686 22.7812 22.7186 22.5312 22.2499 22.5H16.2499C15.7811 22.5312 15.5311 22.7812 15.4999 23.25Z" fill="#000000"/>
</svg>
