<svg width="37" height="36" viewBox="0 0 37 36" fill="none" xmlns="http://www.w3.org/2000/svg">
<path d="M18.4999 6C18.9374 6 19.2968 6.14062 19.578 6.42188C19.8593 6.70312 19.9999 7.0625 19.9999 7.5V7.96875C22.2499 8.34375 24.1405 9.29688 25.6718 10.8281C27.203 12.3906 28.1561 14.2812 28.5311 16.5H28.9999C29.4374 16.5 29.7968 16.6406 30.078 16.9219C30.3593 17.2031 30.4999 17.5625 30.4999 18C30.4999 18.4375 30.3593 18.7969 30.078 19.0781C29.7968 19.3594 29.4374 19.5 28.9999 19.5H28.5311C28.1561 21.75 27.203 23.6406 25.6718 25.1719C24.1093 26.7031 22.2186 27.6562 19.9999 28.0312V28.5C19.9999 28.9375 19.8593 29.2969 19.578 29.5781C19.2968 29.8594 18.9374 30 18.4999 30C18.0624 30 17.703 29.8594 17.4218 29.5781C17.1405 29.2969 16.9999 28.9375 16.9999 28.5V28.0312C14.7499 27.6562 12.8593 26.7031 11.328 25.1719C9.79675 23.6406 8.84363 21.75 8.46863 19.5H7.99988C7.56238 19.5 7.203 19.3594 6.92175 19.0781C6.6405 18.7969 6.49988 18.4375 6.49988 18C6.49988 17.5625 6.6405 17.2031 6.92175 16.9219C7.203 16.6406 7.56238 16.5 7.99988 16.5H8.46863C8.84363 14.25 9.79675 12.3594 11.328 10.8281C12.8593 9.29688 14.7499 8.34375 16.9999 7.96875V7.5C16.9999 7.0625 17.1405 6.70312 17.4218 6.42188C17.703 6.14062 18.0624 6 18.4999 6ZM11.5155 19.5C11.828 20.875 12.4843 22.0469 13.4843 23.0156C14.453 24.0156 15.6249 24.6719 16.9999 24.9844V24C16.9999 23.5625 17.1405 23.2031 17.4218 22.9219C17.703 22.6406 18.0624 22.5 18.4999 22.5C18.9374 22.5 19.2968 22.6406 19.578 22.9219C19.8593 23.2031 19.9999 23.5625 19.9999 24V24.9844C21.3749 24.6719 22.5468 24.0156 23.5155 23.0156C24.5155 22.0469 25.1718 20.875 25.4843 19.5H24.4999C24.0624 19.5 23.703 19.3594 23.4218 19.0781C23.1405 18.7969 22.9999 18.4375 22.9999 18C22.9999 17.5625 23.1405 17.2031 23.4218 16.9219C23.703 16.6406 24.0624 16.5 24.4999 16.5H25.4843C25.1718 15.125 24.5155 13.9531 23.5155 12.9844C22.5468 11.9844 21.3749 11.3281 19.9999 11.0156V12C19.9999 12.4375 19.8593 12.7969 19.578 13.0781C19.2968 13.3594 18.9374 13.5 18.4999 13.5C18.0624 13.5 17.703 13.3594 17.4218 13.0781C17.1405 12.7969 16.9999 12.4375 16.9999 12V11.0156C15.6249 11.3281 14.453 11.9844 13.4843 12.9844C12.4843 13.9531 11.828 15.125 11.5155 16.5H12.4999C12.9374 16.5 13.2968 16.6406 13.578 16.9219C13.8593 17.2031 13.9999 17.5625 13.9999 18C13.9999 18.4375 13.8593 18.7969 13.578 19.0781C13.2968 19.3594 12.9374 19.5 12.4999 19.5H11.5155ZM18.4999 16.5C18.9374 16.5 19.2968 16.6406 19.578 16.9219C19.8593 17.2031 19.9999 17.5625 19.9999 18C19.9999 18.4375 19.8593 18.7969 19.578 19.0781C19.2968 19.3594 18.9374 19.5 18.4999 19.5C18.0624 19.5 17.703 19.3594 17.4218 19.0781C17.1405 18.7969 16.9999 18.4375 16.9999 18C16.9999 17.5625 17.1405 17.2031 17.4218 16.9219C17.703 16.6406 18.0624 16.5 18.4999 16.5Z" fill="#000000"/>
</svg>
