<svg width="37" height="36" viewBox="0 0 37 36" fill="none" xmlns="http://www.w3.org/2000/svg">
<path d="M28.9999 9.75V12C28.9374 13.0625 27.9061 13.9531 25.9061 14.6719C23.9374 15.3594 21.4686 15.7188 18.4999 15.75C15.5311 15.7188 13.0624 15.3594 11.0936 14.6719C9.09363 13.9531 8.06238 13.0625 7.99988 12V9.75C8.06238 8.6875 9.09363 7.79687 11.0936 7.07812C13.0624 6.39062 15.5311 6.03125 18.4999 6C21.4686 6.03125 23.9374 6.39062 25.9061 7.07812C27.9061 7.79687 28.9374 8.6875 28.9999 9.75ZM26.4218 16.0781C27.4218 15.7344 28.2811 15.2812 28.9999 14.7188V19.5C28.9374 20.5625 27.9061 21.4531 25.9061 22.1719C23.9374 22.8594 21.4686 23.2188 18.4999 23.25C15.5311 23.2188 13.0624 22.8594 11.0936 22.1719C9.09363 21.4531 8.06238 20.5625 7.99988 19.5V14.7188C8.71863 15.2812 9.578 15.7344 10.578 16.0781C12.7655 16.8281 15.4061 17.2188 18.4999 17.25C21.5936 17.2188 24.2343 16.8281 26.4218 16.0781ZM7.99988 22.2188C8.71863 22.7812 9.578 23.2344 10.578 23.5781C12.7655 24.3281 15.4061 24.7188 18.4999 24.75C21.5936 24.7188 24.2343 24.3281 26.4218 23.5781C27.4218 23.2344 28.2811 22.7812 28.9999 22.2188V26.25C28.9374 27.3125 27.9061 28.2031 25.9061 28.9219C23.9374 29.6094 21.4686 29.9688 18.4999 30C15.5311 29.9688 13.0624 29.6094 11.0936 28.9219C9.09363 28.2031 8.06238 27.3125 7.99988 26.25V22.2188Z" fill="#000000"/>
</svg>
