<svg width="36" height="36" viewBox="0 0 36 36" fill="none" xmlns="http://www.w3.org/2000/svg">
<path d="M18 22.875C19 22.9062 19.75 23.3438 20.25 24.1875C20.75 25.0625 20.75 25.9375 20.25 26.8125C19.75 27.6562 19 28.0938 18 28.125C17 28.0938 16.25 27.6562 15.75 26.8125C15.25 25.9375 15.25 25.0625 15.75 24.1875C16.25 23.3438 17 22.9062 18 22.875ZM18 15.375C19 15.4062 19.75 15.8438 20.25 16.6875C20.75 17.5625 20.75 18.4375 20.25 19.3125C19.75 20.1562 19 20.5938 18 20.625C17 20.5938 16.25 20.1562 15.75 19.3125C15.25 18.4375 15.25 17.5625 15.75 16.6875C16.25 15.8438 17 15.4062 18 15.375ZM20.625 10.5C20.5938 11.5 20.1562 12.25 19.3125 12.75C18.4375 13.25 17.5625 13.25 16.6875 12.75C15.8438 12.25 15.4062 11.5 15.375 10.5C15.4062 9.5 15.8438 8.75 16.6875 8.25C17.5625 7.75 18.4375 7.75 19.3125 8.25C20.1562 8.75 20.5938 9.5 20.625 10.5Z" fill="#000000"/>
</svg>
