<svg width="36" height="36" viewBox="0 0 36 36" fill="none" xmlns="http://www.w3.org/2000/svg">
<path d="M7.875 18C7.90625 17 8.34375 16.25 9.1875 15.75C10.0625 15.25 10.9375 15.25 11.8125 15.75C12.6562 16.25 13.0938 17 13.125 18C13.0938 19 12.6562 19.75 11.8125 20.25C10.9375 20.75 10.0625 20.75 9.1875 20.25C8.34375 19.75 7.90625 19 7.875 18ZM15.375 18C15.4062 17 15.8438 16.25 16.6875 15.75C17.5625 15.25 18.4375 15.25 19.3125 15.75C20.1562 16.25 20.5938 17 20.625 18C20.5938 19 20.1562 19.75 19.3125 20.25C18.4375 20.75 17.5625 20.75 16.6875 20.25C15.8438 19.75 15.4062 19 15.375 18ZM25.5 15.375C26.5 15.4062 27.25 15.8438 27.75 16.6875C28.25 17.5625 28.25 18.4375 27.75 19.3125C27.25 20.1562 26.5 20.5938 25.5 20.625C24.5 20.5938 23.75 20.1562 23.25 19.3125C22.75 18.4375 22.75 17.5625 23.25 16.6875C23.75 15.8438 24.5 15.4062 25.5 15.375Z" fill="#000000"/>
</svg>
