<svg width="37" height="36" viewBox="0 0 37 36" fill="none" xmlns="http://www.w3.org/2000/svg">
<path d="M8.74988 9H28.2499C28.8749 9.03125 29.4061 9.25 29.8436 9.65625C30.2499 10.0938 30.4686 10.625 30.4999 11.25C30.4686 12 30.1718 12.5938 29.6093 13.0312L19.3905 20.7188C18.7968 21.0938 18.203 21.0938 17.6093 20.7188L7.3905 13.0312C6.828 12.5938 6.53113 12 6.49988 11.25C6.53113 10.625 6.74988 10.0938 7.15613 9.65625C7.59363 9.25 8.12488 9.03125 8.74988 9ZM6.49988 14.25L16.7186 21.8906C17.2499 22.2969 17.8436 22.5 18.4999 22.5C19.1561 22.5 19.7499 22.2969 20.2811 21.8906L30.4999 14.25V24C30.4686 24.8438 30.1718 25.5469 29.6093 26.1094C29.0468 26.6719 28.3436 26.9688 27.4999 27H9.49988C8.65613 26.9688 7.953 26.6719 7.3905 26.1094C6.828 25.5469 6.53113 24.8438 6.49988 24V14.25Z" fill="#000000"/>
</svg>
