<svg width="36" height="36" viewBox="0 0 36 36" fill="none" xmlns="http://www.w3.org/2000/svg">
<path d="M9.75 12H26.25C26.6875 12 27.0469 12.1406 27.3281 12.4219C27.6094 12.7031 27.75 13.0625 27.75 13.5C27.75 13.9375 27.6094 14.2969 27.3281 14.5781C27.0469 14.8594 26.6875 15 26.25 15H9.75C9.3125 15 8.95312 14.8594 8.67188 14.5781C8.39062 14.2969 8.25 13.9375 8.25 13.5C8.25 13.0625 8.39062 12.7031 8.67188 12.4219C8.95312 12.1406 9.3125 12 9.75 12ZM9.75 21H26.25C26.6875 21 27.0469 21.1406 27.3281 21.4219C27.6094 21.7031 27.75 22.0625 27.75 22.5C27.75 22.9375 27.6094 23.2969 27.3281 23.5781C27.0469 23.8594 26.6875 24 26.25 24H9.75C9.3125 24 8.95312 23.8594 8.67188 23.5781C8.39062 23.2969 8.25 22.9375 8.25 22.5C8.25 22.0625 8.39062 21.7031 8.67188 21.4219C8.95312 21.1406 9.3125 21 9.75 21Z" fill="#000000"/>
</svg>
