<svg width="36" height="36" viewBox="0 0 36 36" fill="none" xmlns="http://www.w3.org/2000/svg">
<path d="M9 7.5H13.5C13.9375 7.5 14.2969 7.64062 14.5781 7.92188C14.8594 8.20312 15 8.5625 15 9C15 9.4375 14.8594 9.79688 14.5781 10.0781C14.2969 10.3594 13.9375 10.5 13.5 10.5H10.5V13.5C10.5 13.9375 10.3594 14.2969 10.0781 14.5781C9.79688 14.8594 9.4375 15 9 15C8.5625 15 8.20312 14.8594 7.92188 14.5781C7.64062 14.2969 7.5 13.9375 7.5 13.5V9C7.5 8.5625 7.64062 8.20312 7.92188 7.92188C8.20312 7.64062 8.5625 7.5 9 7.5ZM10.5 22.5V25.5H13.5C13.9375 25.5 14.2969 25.6406 14.5781 25.9219C14.8594 26.2031 15 26.5625 15 27C15 27.4375 14.8594 27.7969 14.5781 28.0781C14.2969 28.3594 13.9375 28.5 13.5 28.5H9C8.5625 28.5 8.20312 28.3594 7.92188 28.0781C7.64062 27.7969 7.5 27.4375 7.5 27V22.5C7.5 22.0625 7.64062 21.7031 7.92188 21.4219C8.20312 21.1406 8.5625 21 9 21C9.4375 21 9.79688 21.1406 10.0781 21.4219C10.3594 21.7031 10.5 22.0625 10.5 22.5ZM22.5 7.5H27C27.4375 7.5 27.7969 7.64062 28.0781 7.92188C28.3594 8.20312 28.5 8.5625 28.5 9V13.5C28.5 13.9375 28.3594 14.2969 28.0781 14.5781C27.7969 14.8594 27.4375 15 27 15C26.5625 15 26.2031 14.8594 25.9219 14.5781C25.6406 14.2969 25.5 13.9375 25.5 13.5V10.5H22.5C22.0625 10.5 21.7031 10.3594 21.4219 10.0781C21.1406 9.79688 21 9.4375 21 9C21 8.5625 21.1406 8.20312 21.4219 7.92188C21.7031 7.64062 22.0625 7.5 22.5 7.5ZM28.5 22.5V27C28.5 27.4375 28.3594 27.7969 28.0781 28.0781C27.7969 28.3594 27.4375 28.5 27 28.5H22.5C22.0625 28.5 21.7031 28.3594 21.4219 28.0781C21.1406 27.7969 21 27.4375 21 27C21 26.5625 21.1406 26.2031 21.4219 25.9219C21.7031 25.6406 22.0625 25.5 22.5 25.5H25.5V22.5C25.5 22.0625 25.6406 21.7031 25.9219 21.4219C26.2031 21.1406 26.5625 21 27 21C27.4375 21 27.7969 21.1406 28.0781 21.4219C28.3594 21.7031 28.5 22.0625 28.5 22.5Z" fill="#000000"/>
</svg>
