<svg width="36" height="36" viewBox="0 0 36 36" fill="none" xmlns="http://www.w3.org/2000/svg">
<path d="M4.82812 6.23438L10.0781 10.3594C11.1094 9.51562 12.2812 8.82812 13.5938 8.29688C14.9375 7.79687 16.4062 7.53125 18 7.5C19.9062 7.53125 21.6094 7.90625 23.1094 8.625C24.6094 9.34375 25.9219 10.2344 27.0469 11.2969C28.1406 12.3281 29.0469 13.3906 29.7656 14.4844C30.4844 15.5781 31.0312 16.5625 31.4062 17.4375C31.5312 17.8125 31.5312 18.1875 31.4062 18.5625C31.0625 19.3438 30.5781 20.2188 29.9531 21.1875C29.3281 22.1875 28.5625 23.1719 27.6562 24.1406L32.5781 27.9844C33.0781 28.4531 33.1406 28.9844 32.7656 29.5781C32.2969 30.0781 31.7656 30.1406 31.1719 29.7656L3.42188 8.01562C2.92188 7.54688 2.85938 7.01563 3.23438 6.42188C3.70312 5.92187 4.23438 5.85938 4.82812 6.23438ZM13.4531 13.0312L17.6719 16.3125C17.8906 15.9375 18 15.5 18 15C18 14.6562 17.9531 14.3438 17.8594 14.0625C17.7969 13.75 17.9062 13.5625 18.1875 13.5C19.1562 13.5625 20.0312 13.8906 20.8125 14.4844C21.5625 15.0781 22.0781 15.8594 22.3594 16.8281C22.6094 17.8906 22.5312 18.8906 22.125 19.8281L23.9531 21.2344C24.4844 20.2656 24.75 19.1875 24.75 18C24.6875 16.0938 24.0312 14.5 22.7812 13.2188C21.5 11.9688 19.9062 11.3125 18 11.25C16.2188 11.2812 14.7031 11.875 13.4531 13.0312ZM20.4844 24.2812L23.9062 27C22.2188 27.9375 20.25 28.4375 18 28.5C16.0938 28.4688 14.3906 28.0938 12.8906 27.375C11.3906 26.6562 10.0938 25.7656 9 24.7031C7.875 23.6719 6.95312 22.6094 6.23438 21.5156C5.51562 20.4219 4.98438 19.4375 4.64062 18.5625C4.48438 18.1875 4.48438 17.8125 4.64062 17.4375C5.07812 16.3125 5.82812 15.0312 6.89062 13.5938L11.2969 17.0625C11.2656 17.375 11.25 17.6875 11.25 18C11.3125 19.9062 11.9688 21.5 13.2188 22.7812C14.5 24.0312 16.0938 24.6875 18 24.75C18.875 24.75 19.7031 24.5938 20.4844 24.2812Z" fill="#000000"/>
</svg>
