<svg width="36" height="36" viewBox="0 0 36 36" fill="none" xmlns="http://www.w3.org/2000/svg">
<path d="M18 7.5C19.9062 7.53125 21.6094 7.90625 23.1094 8.625C24.6094 9.34375 25.9219 10.2344 27.0469 11.2969C28.1406 12.3281 29.0469 13.3906 29.7656 14.4844C30.4844 15.5781 31.0312 16.5625 31.4062 17.4375C31.5625 17.8125 31.5625 18.1875 31.4062 18.5625C31.0312 19.4375 30.4844 20.4219 29.7656 21.5156C29.0469 22.6094 28.1406 23.6719 27.0469 24.7031C25.9219 25.7656 24.6094 26.6562 23.1094 27.375C21.6094 28.0938 19.9062 28.4688 18 28.5C16.0938 28.4688 14.3906 28.0938 12.8906 27.375C11.3906 26.6562 10.0781 25.7656 8.95312 24.7031C7.85938 23.6719 6.95312 22.6094 6.23438 21.5156C5.51562 20.4219 4.98438 19.4375 4.64062 18.5625C4.48438 18.1875 4.48438 17.8125 4.64062 17.4375C4.98438 16.5625 5.51562 15.5781 6.23438 14.4844C6.95312 13.3906 7.85938 12.3281 8.95312 11.2969C10.0781 10.2344 11.3906 9.34375 12.8906 8.625C14.3906 7.90625 16.0938 7.53125 18 7.5ZM11.25 18C11.25 19.2188 11.5469 20.3438 12.1406 21.375C12.7344 22.4062 13.5625 23.2344 14.625 23.8594C15.6875 24.4531 16.8125 24.75 18 24.75C19.1875 24.75 20.3125 24.4531 21.375 23.8594C22.4375 23.2344 23.2656 22.4062 23.8594 21.375C24.4531 20.3438 24.75 19.2188 24.75 18C24.75 16.7812 24.4531 15.6562 23.8594 14.625C23.2656 13.5938 22.4375 12.7656 21.375 12.1406C20.3125 11.5469 19.1875 11.25 18 11.25C16.8125 11.25 15.6875 11.5469 14.625 12.1406C13.5625 12.7656 12.7344 13.5938 12.1406 14.625C11.5469 15.6562 11.25 16.7812 11.25 18ZM18 15C18 14.6562 17.9531 14.3438 17.8594 14.0625C17.7969 13.75 17.9062 13.5625 18.1875 13.5C19.1562 13.5625 20.0312 13.8906 20.8125 14.4844C21.5625 15.0781 22.0781 15.8594 22.3594 16.8281C22.6406 18.0781 22.4844 19.2188 21.8906 20.25C21.2969 21.2812 20.3906 21.9844 19.1719 22.3594C17.9219 22.6406 16.7812 22.4844 15.75 21.8906C14.7188 21.2969 14.0156 20.3906 13.6406 19.1719C13.5469 18.8281 13.5 18.5 13.5 18.1875C13.5625 17.9062 13.75 17.7969 14.0625 17.8594C14.3438 17.9531 14.6562 18 15 18C15.8438 17.9688 16.5469 17.6719 17.1094 17.1094C17.6719 16.5469 17.9688 15.8438 18 15Z" fill="#000000"/>
</svg>
