<svg width="36" height="36" viewBox="0 0 36 36" fill="none" xmlns="http://www.w3.org/2000/svg">
<path d="M12 6H19.5V12C19.5 12.4375 19.6406 12.7969 19.9219 13.0781C20.2031 13.3594 20.5625 13.5 21 13.5H27V27C26.9688 27.8438 26.6719 28.5469 26.1094 29.1094C25.5469 29.6719 24.8438 29.9688 24 30H12C11.1562 29.9688 10.4531 29.6719 9.89062 29.1094C9.32812 28.5469 9.03125 27.8438 9 27V9C9.03125 8.15625 9.32812 7.45312 9.89062 6.89062C10.4531 6.32812 11.1562 6.03125 12 6ZM21 6L27 12H21V6ZM19.125 16.875C19.0625 16.1875 18.6875 15.8125 18 15.75C17.3125 15.8125 16.9375 16.1875 16.875 16.875V21.6562L15.4219 20.2031C14.8906 19.7656 14.3594 19.7656 13.8281 20.2031C13.3906 20.7344 13.3906 21.2656 13.8281 21.7969L17.2031 25.1719C17.7344 25.6094 18.2656 25.6094 18.7969 25.1719L22.1719 21.7969C22.6094 21.2656 22.6094 20.7344 22.1719 20.2031C21.6406 19.7656 21.1094 19.7656 20.5781 20.2031L19.125 21.6562V16.875Z" fill="#000000"/>
</svg>
