<svg width="36" height="36" viewBox="0 0 36 36" fill="none" xmlns="http://www.w3.org/2000/svg">
<path d="M12 6H19.5V12C19.5 12.4375 19.6406 12.7969 19.9219 13.0781C20.2031 13.3594 20.5625 13.5 21 13.5H27V27C26.9688 27.8438 26.6719 28.5469 26.1094 29.1094C25.5469 29.6719 24.8438 29.9688 24 30H12C11.1562 29.9688 10.4531 29.6719 9.89062 29.1094C9.32812 28.5469 9.03125 27.8438 9 27V9C9.03125 8.15625 9.32812 7.45312 9.89062 6.89062C10.4531 6.32812 11.1562 6.03125 12 6ZM21 6L27 12H21V6ZM12.75 9C12.2812 9.03125 12.0312 9.28125 12 9.75C12.0312 10.2188 12.2812 10.4688 12.75 10.5H15.75C16.2188 10.4688 16.4688 10.2188 16.5 9.75C16.4688 9.28125 16.2188 9.03125 15.75 9H12.75ZM12.75 12C12.2812 12.0312 12.0312 12.2812 12 12.75C12.0312 13.2188 12.2812 13.4688 12.75 13.5H15.75C16.2188 13.4688 16.4688 13.2188 16.5 12.75C16.4688 12.2812 16.2188 12.0312 15.75 12H12.75ZM13.5 16.5C13.0625 16.5 12.7031 16.6406 12.4219 16.9219C12.1406 17.2031 12 17.5625 12 18V21C12 21.4375 12.1406 21.7969 12.4219 22.0781C12.7031 22.3594 13.0625 22.5 13.5 22.5H22.5C22.9375 22.5 23.2969 22.3594 23.5781 22.0781C23.8594 21.7969 24 21.4375 24 21V18C24 17.5625 23.8594 17.2031 23.5781 16.9219C23.2969 16.6406 22.9375 16.5 22.5 16.5H13.5ZM13.5 18H22.5V21H13.5V18ZM20.25 25.5C19.7812 25.5312 19.5312 25.7812 19.5 26.25C19.5312 26.7188 19.7812 26.9688 20.25 27H23.25C23.7188 26.9688 23.9688 26.7188 24 26.25C23.9688 25.7812 23.7188 25.5312 23.25 25.5H20.25Z" fill="#000000"/>
</svg>
