<svg width="36" height="36" viewBox="0 0 36 36" fill="none" xmlns="http://www.w3.org/2000/svg">
<path d="M23.8594 8.10938L20.2969 16.5H25.5C26.1875 16.5312 26.6562 16.8594 26.9062 17.4844C27.125 18.1094 26.9844 18.6562 26.4844 19.125L14.4844 29.625C13.8906 30.0938 13.2656 30.125 12.6094 29.7188C12.0156 29.2188 11.8594 28.6094 12.1406 27.8906L15.75 19.5H10.5C9.84375 19.4688 9.375 19.1406 9.09375 18.5156C8.875 17.8906 9.01562 17.3438 9.51562 16.875L21.5156 6.375C22.1094 5.90625 22.7344 5.875 23.3906 6.28125C23.9844 6.78125 24.1406 7.39063 23.8594 8.10938Z" fill="#000000"/>
</svg>
