<svg width="36" height="36" viewBox="0 0 36 36" fill="none" xmlns="http://www.w3.org/2000/svg">
<path d="M12.9844 26.6719C12.4844 27.0469 11.9375 27.1094 11.3438 26.8594C10.8125 26.5781 10.5312 26.125 10.5 25.5V10.5C10.5312 9.875 10.8125 9.42188 11.3438 9.14062C11.9375 8.89062 12.4844 8.95312 12.9844 9.32812L21.9844 16.8281L22.5 17.2969V10.5C22.5 10.0625 22.6406 9.70312 22.9219 9.42188C23.2031 9.14062 23.5625 9 24 9C24.4375 9 24.7969 9.14062 25.0781 9.42188C25.3594 9.70312 25.5 10.0625 25.5 10.5V25.5C25.5 25.9375 25.3594 26.2969 25.0781 26.5781C24.7969 26.8594 24.4375 27 24 27C23.5625 27 23.2031 26.8594 22.9219 26.5781C22.6406 26.2969 22.5 25.9375 22.5 25.5V18.7031L21.9844 19.1719L12.9844 26.6719Z" fill="#000000"/>
</svg>
