<svg width="36" height="36" viewBox="0 0 36 36" fill="none" xmlns="http://www.w3.org/2000/svg">
<path d="M6 18C6.03125 15.8125 6.5625 13.8125 7.59375 12C8.65625 10.1875 10.125 8.71875 12 7.59375C13.9062 6.53125 15.9062 6 18 6C20.0938 6 22.0938 6.53125 24 7.59375C25.875 8.71875 27.3438 10.1875 28.4062 12C29.4375 13.8125 29.9688 15.8125 30 18C29.9688 20.1875 29.4375 22.1875 28.4062 24C27.3438 25.8125 25.875 27.2812 24 28.4062C22.0938 29.4688 20.0938 30 18 30C15.9062 30 13.9062 29.4688 12 28.4062C10.125 27.2812 8.65625 25.8125 7.59375 24C6.5625 22.1875 6.03125 20.1875 6 18ZM21 22.5C21 21.875 20.8281 21.3125 20.4844 20.8125C20.1406 20.3125 19.6875 19.9531 19.125 19.7344V10.125C19.0625 9.4375 18.6875 9.0625 18 9C17.3125 9.0625 16.9375 9.4375 16.875 10.125V19.7344C16.3125 19.9531 15.8594 20.3125 15.5156 20.8125C15.1719 21.3125 15 21.875 15 22.5C15.0312 23.3438 15.3281 24.0469 15.8906 24.6094C16.4531 25.1719 17.1562 25.4688 18 25.5C18.8438 25.4688 19.5469 25.1719 20.1094 24.6094C20.6719 24.0469 20.9688 23.3438 21 22.5ZM12.75 14.25C13.1875 14.25 13.5469 14.1094 13.8281 13.8281C14.1094 13.5469 14.25 13.1875 14.25 12.75C14.25 12.3125 14.1094 11.9531 13.8281 11.6719C13.5469 11.3906 13.1875 11.25 12.75 11.25C12.3125 11.25 11.9531 11.3906 11.6719 11.6719C11.3906 11.9531 11.25 12.3125 11.25 12.75C11.25 13.1875 11.3906 13.5469 11.6719 13.8281C11.9531 14.1094 12.3125 14.25 12.75 14.25ZM12 18C12 17.5625 11.8594 17.2031 11.5781 16.9219C11.2969 16.6406 10.9375 16.5 10.5 16.5C10.0625 16.5 9.70312 16.6406 9.42188 16.9219C9.14062 17.2031 9 17.5625 9 18C9 18.4375 9.14062 18.7969 9.42188 19.0781C9.70312 19.3594 10.0625 19.5 10.5 19.5C10.9375 19.5 11.2969 19.3594 11.5781 19.0781C11.8594 18.7969 12 18.4375 12 18ZM25.5 19.5C25.9375 19.5 26.2969 19.3594 26.5781 19.0781C26.8594 18.7969 27 18.4375 27 18C27 17.5625 26.8594 17.2031 26.5781 16.9219C26.2969 16.6406 25.9375 16.5 25.5 16.5C25.0625 16.5 24.7031 16.6406 24.4219 16.9219C24.1406 17.2031 24 17.5625 24 18C24 18.4375 24.1406 18.7969 24.4219 19.0781C24.7031 19.3594 25.0625 19.5 25.5 19.5ZM24.75 12.75C24.75 12.3125 24.6094 11.9531 24.3281 11.6719C24.0469 11.3906 23.6875 11.25 23.25 11.25C22.8125 11.25 22.4531 11.3906 22.1719 11.6719C21.8906 11.9531 21.75 12.3125 21.75 12.75C21.75 13.1875 21.8906 13.5469 22.1719 13.8281C22.4531 14.1094 22.8125 14.25 23.25 14.25C23.6875 14.25 24.0469 14.1094 24.3281 13.8281C24.6094 13.5469 24.75 13.1875 24.75 12.75Z" fill="#000000"/>
</svg>
