<svg width="36" height="36" viewBox="0 0 36 36" fill="none" xmlns="http://www.w3.org/2000/svg">
<path d="M17.4844 12.3281H17.4375L16.4062 13.2656C16.4688 13.5781 16.5 13.9062 16.5 14.25C16.5 14.5938 16.4688 14.9219 16.4062 15.2344L17.4375 16.1719C17.8125 16.4844 17.9219 16.875 17.7656 17.3438C17.6406 17.5938 17.5156 17.8281 17.3906 18.0469L17.25 18.3281C17.0938 18.5469 16.9375 18.7656 16.7812 18.9844C16.4688 19.3594 16.0781 19.4688 15.6094 19.3125L14.2969 18.8906C13.7969 19.2969 13.2344 19.625 12.6094 19.875L12.3281 21.2344C12.2031 21.7031 11.9062 21.9844 11.4375 22.0781C11.125 22.1094 10.8125 22.125 10.5 22.125C10.1875 22.125 9.875 22.1094 9.5625 22.0781C9.09375 21.9844 8.79688 21.7031 8.67188 21.2344L8.39062 19.875C7.76562 19.625 7.20312 19.2969 6.70312 18.8906L5.39062 19.3125C4.92188 19.4688 4.53125 19.3594 4.21875 18.9844C4.03125 18.7656 3.875 18.5469 3.75 18.3281L3.60938 18.0469C3.48438 17.8281 3.35938 17.5938 3.23438 17.3438C3.07812 16.875 3.1875 16.4844 3.5625 16.1719L4.59375 15.2344C4.53125 14.9219 4.5 14.5938 4.5 14.25C4.5 13.9062 4.53125 13.5781 4.59375 13.2656L3.5625 12.3281C3.1875 12.0156 3.07812 11.625 3.23438 11.1562C3.35938 10.9062 3.48438 10.6719 3.60938 10.4531L3.75 10.2188C3.90625 9.96875 4.0625 9.73438 4.21875 9.51562C4.53125 9.14062 4.92188 9.03125 5.39062 9.1875L6.70312 9.60938C7.20312 9.20312 7.76562 8.875 8.39062 8.625L8.67188 7.26562C8.79688 6.79688 9.09375 6.51562 9.5625 6.42188C9.875 6.39062 10.1875 6.375 10.5 6.375C10.8438 6.375 11.1719 6.39062 11.4844 6.42188C11.9219 6.51562 12.2031 6.79688 12.3281 7.26562L12.6094 8.625C13.2344 8.875 13.7969 9.20312 14.2969 9.60938L15.6562 9.1875C16.0938 9.03125 16.4688 9.14062 16.7812 9.51562C16.9375 9.73438 17.0938 9.95312 17.25 10.1719L17.3906 10.4531C17.5156 10.6719 17.6406 10.9062 17.7656 11.1562C17.9219 11.625 17.8281 12.0156 17.4844 12.3281ZM8.25 14.25C8.28125 15.0938 8.65625 15.75 9.375 16.2188C10.125 16.5938 10.875 16.5938 11.625 16.2188C12.3438 15.75 12.7188 15.0938 12.75 14.25C12.7188 13.4062 12.3438 12.75 11.625 12.2812C10.875 11.9062 10.125 11.9062 9.375 12.2812C8.65625 12.75 8.28125 13.4062 8.25 14.25ZM26.6719 29.4844V29.4375L25.7344 28.4062C25.4219 28.4688 25.0938 28.5 24.75 28.5C24.4062 28.5 24.0781 28.4688 23.7656 28.4062L22.8281 29.4375C22.5156 29.8125 22.125 29.9219 21.6562 29.7656C21.4062 29.6406 21.1719 29.5156 20.9531 29.3906L20.7188 29.25C20.4688 29.0938 20.2344 28.9375 20.0156 28.7812C19.6406 28.4688 19.5312 28.0781 19.6875 27.6094L20.1094 26.2969C19.7031 25.7969 19.375 25.2344 19.125 24.6094L17.7656 24.3281C17.2969 24.2031 17.0156 23.9062 16.9219 23.4375C16.8906 23.125 16.875 22.8125 16.875 22.5C16.875 22.1875 16.8906 21.875 16.9219 21.5625C17.0156 21.0938 17.2969 20.7969 17.7656 20.6719L19.125 20.3906C19.375 19.7656 19.7031 19.2031 20.1094 18.7031L19.6875 17.3906C19.5312 16.9219 19.6406 16.5312 20.0156 16.2188C20.2344 16.0625 20.4688 15.9062 20.7188 15.75L20.9531 15.6094C21.1719 15.4844 21.4062 15.3594 21.6562 15.2344C22.125 15.0781 22.5156 15.1875 22.8281 15.5625L23.7656 16.5938C24.0781 16.5312 24.4062 16.5 24.75 16.5C25.0938 16.5 25.4219 16.5312 25.7344 16.5938L26.6719 15.5625C26.9844 15.1875 27.375 15.0781 27.8438 15.2344C28.0938 15.3594 28.3281 15.4844 28.5469 15.6094L28.8281 15.75C29.0469 15.9062 29.2656 16.0625 29.4844 16.2188C29.8594 16.5312 29.9688 16.9219 29.8125 17.3906L29.3906 18.7031C29.7969 19.2031 30.125 19.7656 30.375 20.3906L31.7344 20.6719C32.2031 20.7969 32.4844 21.0938 32.5781 21.5625C32.6094 21.875 32.625 22.1875 32.625 22.5C32.625 22.8125 32.6094 23.125 32.5781 23.4375C32.4844 23.9062 32.2031 24.2031 31.7344 24.3281L30.375 24.6094C30.125 25.2344 29.7969 25.7969 29.3906 26.2969L29.8125 27.6562C29.9688 28.0938 29.8594 28.4688 29.4844 28.7812C29.2656 28.9375 29.0469 29.0938 28.8281 29.25L28.5469 29.3906C28.3281 29.5156 28.0938 29.6406 27.8438 29.7656C27.375 29.9219 26.9844 29.8281 26.6719 29.4844ZM24.75 20.25C23.9062 20.2812 23.25 20.6562 22.7812 21.375C22.4062 22.125 22.4062 22.875 22.7812 23.625C23.25 24.3438 23.9062 24.7188 24.75 24.75C25.5938 24.7188 26.25 24.3438 26.7188 23.625C27.0938 22.875 27.0938 22.125 26.7188 21.375C26.25 20.6562 25.5938 20.2812 24.75 20.25Z" fill="#000000"/>
</svg>
