<svg width="37" height="36" viewBox="0 0 37 36" fill="none" xmlns="http://www.w3.org/2000/svg">
<path d="M29.7499 13.8281C29.8749 14.2656 29.7811 14.6406 29.4686 14.9531L27.4061 16.8281C27.4686 17.2031 27.4999 17.5938 27.4999 18C27.4999 18.4062 27.4686 18.7969 27.4061 19.1719L29.4686 21.0469C29.7811 21.3594 29.8749 21.7344 29.7499 22.1719C29.5311 22.7344 29.2811 23.2812 28.9999 23.8125L28.7655 24.1875C28.453 24.6875 28.1093 25.1719 27.7343 25.6406C27.4218 25.9844 27.0468 26.0938 26.6093 25.9688L23.9843 25.125C23.3593 25.625 22.6718 26.0156 21.9218 26.2969L21.3593 29.0156C21.2343 29.4531 20.9374 29.7188 20.4686 29.8125C19.8436 29.9375 19.1874 30 18.4999 30C17.8124 30 17.1405 29.9375 16.4843 29.8125C16.0468 29.7188 15.7655 29.4531 15.6405 29.0156L15.078 26.2969C14.328 26.0156 13.6405 25.625 13.0155 25.125L10.3905 25.9688C9.953 26.0938 9.578 25.9844 9.2655 25.6406C8.85925 25.1719 8.5155 24.6875 8.23425 24.1875L7.99988 23.8125C7.71863 23.2812 7.46863 22.75 7.24988 22.2188C7.12488 21.75 7.21863 21.3594 7.53113 21.0469L9.59363 19.2188C9.53113 18.8125 9.49988 18.4062 9.49988 18C9.49988 17.5938 9.53113 17.2031 9.59363 16.8281L7.53113 14.9531C7.21863 14.6406 7.12488 14.2656 7.24988 13.8281C7.46863 13.2656 7.71863 12.7188 7.99988 12.1875L8.23425 11.8125C8.5155 11.3125 8.85925 10.8281 9.2655 10.3594C9.578 10.0156 9.953 9.90625 10.3905 10.0312L13.0155 10.875C13.6405 10.375 14.328 9.96875 15.078 9.65625L15.6405 6.98438C15.7655 6.54688 16.0624 6.28125 16.5311 6.1875C17.1561 6.0625 17.8124 6 18.4999 6C19.1874 6 19.8593 6.0625 20.5155 6.1875C20.953 6.28125 21.2343 6.54688 21.3593 6.98438L21.9218 9.65625C22.6718 9.96875 23.3593 10.375 23.9843 10.875L26.6093 10.0312C27.0468 9.90625 27.4218 10.0156 27.7343 10.3594C28.1405 10.8281 28.4999 11.3125 28.8124 11.8125L28.9999 12.1875C29.2811 12.7188 29.5311 13.2656 29.7499 13.8281ZM18.4999 21.75C19.9061 21.7188 20.9843 21.0938 21.7343 19.875C22.4218 18.625 22.4218 17.375 21.7343 16.125C20.9843 14.9062 19.9061 14.2812 18.4999 14.25C17.0936 14.2812 16.0155 14.9062 15.2655 16.125C14.578 17.375 14.578 18.625 15.2655 19.875C16.0155 21.0938 17.0936 21.7188 18.4999 21.75Z" fill="#000000"/>
</svg>
