<svg width="36" height="36" viewBox="0 0 36 36" fill="none" xmlns="http://www.w3.org/2000/svg">
<path d="M22.5 18C22.5 19.0312 22.4531 20.0312 22.3594 21H13.6406C13.5469 20.0312 13.5 19.0312 13.5 18C13.5 16.9688 13.5469 15.9688 13.6406 15H22.3594C22.4531 15.9688 22.5 16.9688 22.5 18ZM23.8594 15H29.625C29.875 15.9688 30 16.9688 30 18C30 19.0312 29.875 20.0312 29.625 21H23.8594C23.9531 20.0312 24 19.0312 24 18C24 16.9688 23.9531 15.9688 23.8594 15ZM29.1094 13.5H23.6719C23.1719 10.4375 22.2969 8.0625 21.0469 6.375C22.9219 6.90625 24.5625 7.78125 25.9688 9C27.3438 10.25 28.3906 11.75 29.1094 13.5ZM22.125 13.5H13.875C14.1562 11.7812 14.5781 10.2969 15.1406 9.04688C15.6406 7.95313 16.1562 7.15625 16.6875 6.65625C17.2188 6.1875 17.6562 5.96875 18 6C18.3438 5.96875 18.7812 6.1875 19.3125 6.65625C19.8438 7.15625 20.3594 7.95313 20.8594 9.04688C21.4219 10.2969 21.8438 11.7812 22.125 13.5ZM12.3281 13.5H6.89062C7.60938 11.75 8.65625 10.25 10.0312 9C11.4375 7.78125 13.0781 6.90625 14.9531 6.375C13.7031 8.0625 12.8281 10.4375 12.3281 13.5ZM6.375 15H12.1406C12.0469 15.9688 12 16.9688 12 18C12 19.0312 12.0469 20.0312 12.1406 21H6.375C6.125 20.0312 6 19.0312 6 18C6 16.9688 6.125 15.9688 6.375 15ZM15.1406 26.9531C14.5781 25.7031 14.1562 24.2188 13.875 22.5H22.125C21.8438 24.2188 21.4219 25.7031 20.8594 26.9531C20.3594 28.0469 19.8438 28.8438 19.3125 29.3438C18.7812 29.8125 18.3438 30.0312 18 30C17.6562 30.0312 17.2188 29.8125 16.6875 29.3438C16.1562 28.8438 15.6406 28.0469 15.1406 26.9531ZM12.3281 22.5C12.8281 25.5625 13.7031 27.9375 14.9531 29.625C13.0781 29.0938 11.4375 28.2188 10.0312 27C8.65625 25.75 7.60938 24.25 6.89062 22.5H12.3281ZM29.1094 22.5C28.3906 24.25 27.3438 25.75 25.9688 27C24.5625 28.2188 22.9375 29.0938 21.0938 29.625C22.3125 27.9375 23.1719 25.5625 23.6719 22.5H29.1094Z" fill="#000000"/>
</svg>
