<svg width="37" height="36" viewBox="0 0 37 36" fill="none" xmlns="http://www.w3.org/2000/svg">
<path d="M7.99988 9.375C7.99988 8.84375 8.18738 8.40625 8.56238 8.0625C8.90613 7.6875 9.34363 7.5 9.87488 7.5H12.1249C12.6561 7.5 13.0936 7.6875 13.4374 8.0625C13.8124 8.40625 13.9999 8.84375 13.9999 9.375V11.625C13.9999 12.1562 13.8124 12.5938 13.4374 12.9375C13.0936 13.3125 12.6561 13.5 12.1249 13.5H9.87488C9.34363 13.5 8.90613 13.3125 8.56238 12.9375C8.18738 12.5938 7.99988 12.1562 7.99988 11.625V9.375ZM7.99988 16.875C7.99988 16.3438 8.18738 15.9062 8.56238 15.5625C8.90613 15.1875 9.34363 15 9.87488 15H12.1249C12.6561 15 13.0936 15.1875 13.4374 15.5625C13.8124 15.9062 13.9999 16.3438 13.9999 16.875V19.125C13.9999 19.6562 13.8124 20.0938 13.4374 20.4375C13.0936 20.8125 12.6561 21 12.1249 21H9.87488C9.34363 21 8.90613 20.8125 8.56238 20.4375C8.18738 20.0938 7.99988 19.6562 7.99988 19.125V16.875ZM13.9999 24.375V26.625C13.9999 27.1562 13.8124 27.5938 13.4374 27.9375C13.0936 28.3125 12.6561 28.5 12.1249 28.5H9.87488C9.34363 28.5 8.90613 28.3125 8.56238 27.9375C8.18738 27.5938 7.99988 27.1562 7.99988 26.625V24.375C7.99988 23.8438 8.18738 23.4062 8.56238 23.0625C8.90613 22.6875 9.34363 22.5 9.87488 22.5H12.1249C12.6561 22.5 13.0936 22.6875 13.4374 23.0625C13.8124 23.4062 13.9999 23.8438 13.9999 24.375ZM15.4999 9.375C15.4999 8.84375 15.6874 8.40625 16.0624 8.0625C16.4061 7.6875 16.8436 7.5 17.3749 7.5H19.6249C20.1561 7.5 20.5936 7.6875 20.9374 8.0625C21.3124 8.40625 21.4999 8.84375 21.4999 9.375V11.625C21.4999 12.1562 21.3124 12.5938 20.9374 12.9375C20.5936 13.3125 20.1561 13.5 19.6249 13.5H17.3749C16.8436 13.5 16.4061 13.3125 16.0624 12.9375C15.6874 12.5938 15.4999 12.1562 15.4999 11.625V9.375ZM21.4999 16.875V19.125C21.4999 19.6562 21.3124 20.0938 20.9374 20.4375C20.5936 20.8125 20.1561 21 19.6249 21H17.3749C16.8436 21 16.4061 20.8125 16.0624 20.4375C15.6874 20.0938 15.4999 19.6562 15.4999 19.125V16.875C15.4999 16.3438 15.6874 15.9062 16.0624 15.5625C16.4061 15.1875 16.8436 15 17.3749 15H19.6249C20.1561 15 20.5936 15.1875 20.9374 15.5625C21.3124 15.9062 21.4999 16.3438 21.4999 16.875ZM15.4999 24.375C15.4999 23.8438 15.6874 23.4062 16.0624 23.0625C16.4061 22.6875 16.8436 22.5 17.3749 22.5H19.6249C20.1561 22.5 20.5936 22.6875 20.9374 23.0625C21.3124 23.4062 21.4999 23.8438 21.4999 24.375V26.625C21.4999 27.1562 21.3124 27.5938 20.9374 27.9375C20.5936 28.3125 20.1561 28.5 19.6249 28.5H17.3749C16.8436 28.5 16.4061 28.3125 16.0624 27.9375C15.6874 27.5938 15.4999 27.1562 15.4999 26.625V24.375ZM28.9999 9.375V11.625C28.9999 12.1562 28.8124 12.5938 28.4374 12.9375C28.0936 13.3125 27.6561 13.5 27.1249 13.5H24.8749C24.3436 13.5 23.9061 13.3125 23.5624 12.9375C23.1874 12.5938 22.9999 12.1562 22.9999 11.625V9.375C22.9999 8.84375 23.1874 8.40625 23.5624 8.0625C23.9061 7.6875 24.3436 7.5 24.8749 7.5H27.1249C27.6561 7.5 28.0936 7.6875 28.4374 8.0625C28.8124 8.40625 28.9999 8.84375 28.9999 9.375ZM22.9999 16.875C22.9999 16.3438 23.1874 15.9062 23.5624 15.5625C23.9061 15.1875 24.3436 15 24.8749 15H27.1249C27.6561 15 28.0936 15.1875 28.4374 15.5625C28.8124 15.9062 28.9999 16.3438 28.9999 16.875V19.125C28.9999 19.6562 28.8124 20.0938 28.4374 20.4375C28.0936 20.8125 27.6561 21 27.1249 21H24.8749C24.3436 21 23.9061 20.8125 23.5624 20.4375C23.1874 20.0938 22.9999 19.6562 22.9999 19.125V16.875ZM28.9999 24.375V26.625C28.9999 27.1562 28.8124 27.5938 28.4374 27.9375C28.0936 28.3125 27.6561 28.5 27.1249 28.5H24.8749C24.3436 28.5 23.9061 28.3125 23.5624 27.9375C23.1874 27.5938 22.9999 27.1562 22.9999 26.625V24.375C22.9999 23.8438 23.1874 23.4062 23.5624 23.0625C23.9061 22.6875 24.3436 22.5 24.8749 22.5H27.1249C27.6561 22.5 28.0936 22.6875 28.4374 23.0625C28.8124 23.4062 28.9999 23.8438 28.9999 24.375Z" fill="#000000"/>
</svg>
