<svg width="37" height="36" viewBox="0 0 37 36" fill="none" xmlns="http://www.w3.org/2000/svg">
<path d="M14.7499 12.75C13.9061 12.7188 13.2499 12.3438 12.7811 11.625C12.4061 10.875 12.4061 10.125 12.7811 9.375C13.2499 8.65625 13.9061 8.28125 14.7499 8.25C15.5936 8.28125 16.2499 8.65625 16.7186 9.375C17.0936 10.125 17.0936 10.875 16.7186 11.625C16.2499 12.3438 15.5936 12.7188 14.7499 12.75ZM14.7499 20.25C13.9061 20.2188 13.2499 19.8438 12.7811 19.125C12.4061 18.375 12.4061 17.625 12.7811 16.875C13.2499 16.1562 13.9061 15.7812 14.7499 15.75C15.5936 15.7812 16.2499 16.1562 16.7186 16.875C17.0936 17.625 17.0936 18.375 16.7186 19.125C16.2499 19.8438 15.5936 20.2188 14.7499 20.25ZM16.9999 25.5C16.9686 26.3438 16.5936 27 15.8749 27.4688C15.1249 27.8438 14.3749 27.8438 13.6249 27.4688C12.9061 27 12.5311 26.3438 12.4999 25.5C12.5311 24.6562 12.9061 24 13.6249 23.5312C14.3749 23.1562 15.1249 23.1562 15.8749 23.5312C16.5936 24 16.9686 24.6562 16.9999 25.5ZM22.2499 12.75C21.4061 12.7188 20.7499 12.3438 20.2811 11.625C19.9061 10.875 19.9061 10.125 20.2811 9.375C20.7499 8.65625 21.4061 8.28125 22.2499 8.25C23.0936 8.28125 23.7499 8.65625 24.2186 9.375C24.5936 10.125 24.5936 10.875 24.2186 11.625C23.7499 12.3438 23.0936 12.7188 22.2499 12.75ZM24.4999 18C24.4686 18.8438 24.0936 19.5 23.3749 19.9688C22.6249 20.3438 21.8749 20.3438 21.1249 19.9688C20.4061 19.5 20.0311 18.8438 19.9999 18C20.0311 17.1562 20.4061 16.5 21.1249 16.0312C21.8749 15.6562 22.6249 15.6562 23.3749 16.0312C24.0936 16.5 24.4686 17.1562 24.4999 18ZM22.2499 27.75C21.4061 27.7188 20.7499 27.3438 20.2811 26.625C19.9061 25.875 19.9061 25.125 20.2811 24.375C20.7499 23.6562 21.4061 23.2812 22.2499 23.25C23.0936 23.2812 23.7499 23.6562 24.2186 24.375C24.5936 25.125 24.5936 25.875 24.2186 26.625C23.7499 27.3438 23.0936 27.7188 22.2499 27.75Z" fill="#000000"/>
</svg>
