<svg width="36" height="36" viewBox="0 0 36 36" fill="none" xmlns="http://www.w3.org/2000/svg">
<path d="M18 8.25C15.25 8.3125 12.9531 9.26562 11.1094 11.1094C9.26562 12.9531 8.3125 15.25 8.25 18V19.875C8.1875 20.5625 7.8125 20.9375 7.125 21C6.4375 20.9375 6.0625 20.5625 6 19.875V18C6.03125 15.75 6.57812 13.7344 7.64062 11.9531C8.70312 10.1406 10.1406 8.70312 11.9531 7.64062C13.7344 6.57812 15.75 6.03125 18 6C20.25 6.03125 22.2656 6.57812 24.0469 7.64062C25.8594 8.70312 27.2969 10.1406 28.3594 11.9531C29.4219 13.7344 29.9688 15.75 30 18V24.75C29.9688 25.9062 29.5625 26.875 28.7812 27.6562C28 28.4375 27.0312 28.8438 25.875 28.875H20.7188C20.2812 29.5938 19.625 29.9688 18.75 30H17.25C16.625 29.9688 16.0938 29.75 15.6562 29.3438C15.25 28.9062 15.0312 28.375 15 27.75C15.0312 27.125 15.25 26.5938 15.6562 26.1562C16.0938 25.75 16.625 25.5312 17.25 25.5H18.75C19.625 25.5312 20.2812 25.9062 20.7188 26.625H25.875C26.4062 26.625 26.8438 26.4375 27.1875 26.0625C27.5625 25.7188 27.75 25.2812 27.75 24.75V18C27.6875 15.25 26.7344 12.9531 24.8906 11.1094C23.0469 9.26562 20.75 8.3125 18 8.25ZM12.75 15.75H13.5C13.9375 15.75 14.2969 15.8906 14.5781 16.1719C14.8594 16.4531 15 16.8125 15 17.25V22.5C15 22.9375 14.8594 23.2969 14.5781 23.5781C14.2969 23.8594 13.9375 24 13.5 24H12.75C11.9062 23.9688 11.2031 23.6719 10.6406 23.1094C10.0781 22.5469 9.78125 21.8438 9.75 21V18.75C9.78125 17.9062 10.0781 17.2031 10.6406 16.6406C11.2031 16.0781 11.9062 15.7812 12.75 15.75ZM23.25 15.75C24.0938 15.7812 24.7969 16.0781 25.3594 16.6406C25.9219 17.2031 26.2188 17.9062 26.25 18.75V21C26.2188 21.8438 25.9219 22.5469 25.3594 23.1094C24.7969 23.6719 24.0938 23.9688 23.25 24H22.5C22.0625 24 21.7031 23.8594 21.4219 23.5781C21.1406 23.2969 21 22.9375 21 22.5V17.25C21 16.8125 21.1406 16.4531 21.4219 16.1719C21.7031 15.8906 22.0625 15.75 22.5 15.75H23.25Z" fill="#000000"/>
</svg>
