<svg width="37" height="36" viewBox="0 0 37 36" fill="none" xmlns="http://www.w3.org/2000/svg">
<path d="M17.1874 27.9844L8.74988 20.0625C8.53113 19.9062 8.34363 19.7188 8.18738 19.5H12.2655C13.3905 19.4375 14.1874 18.9062 14.6561 17.9062L15.1718 16.6875L17.4686 21.8438C17.6874 22.25 18.0311 22.4688 18.4999 22.5C18.9374 22.5 19.2811 22.2969 19.5311 21.8906L21.4999 17.9062L21.5936 18.0469C22.0936 18.9844 22.8749 19.4688 23.9374 19.5H28.8124C28.6561 19.7188 28.4686 19.9219 28.2499 20.1094L19.8124 27.9844C19.4374 28.3281 18.9999 28.5 18.4999 28.5C17.9999 28.5 17.5624 28.3281 17.1874 27.9844ZM30.1249 17.25H23.9374C23.7811 17.25 23.6718 17.1875 23.6093 17.0625L22.4843 14.8594C22.2655 14.4844 21.9374 14.2812 21.4999 14.25C21.0311 14.2812 20.6874 14.4844 20.4686 14.8594L18.5468 18.75L16.1561 13.4062C15.9374 12.9688 15.5936 12.75 15.1249 12.75C14.6249 12.7812 14.2811 13.0156 14.0936 13.4531L12.5936 17.0156C12.5311 17.1719 12.4218 17.25 12.2655 17.25H7.24988C7.12488 17.25 7.0155 17.2656 6.92175 17.2969C6.6405 16.5469 6.49988 15.7656 6.49988 14.9531V14.6719C6.53113 12.9844 7.06238 11.5469 8.09363 10.3594C9.12488 9.14062 10.453 8.375 12.078 8.0625C13.1718 7.90625 14.2343 7.98437 15.2655 8.29688C16.2655 8.60938 17.1561 9.15625 17.9374 9.9375L18.4999 10.5L19.0624 9.9375C19.8436 9.15625 20.7343 8.60938 21.7343 8.29688C22.7655 7.98437 23.828 7.90625 24.9218 8.0625C26.5468 8.375 27.8749 9.14062 28.9061 10.3594C29.9374 11.5469 30.4686 12.9844 30.4999 14.6719V14.9531C30.4999 15.7344 30.3749 16.5 30.1249 17.25Z" fill="#000000"/>
</svg>
