<svg width="37" height="36" viewBox="0 0 37 36" fill="none" xmlns="http://www.w3.org/2000/svg">
<path d="M31.9999 18C31.9686 18.4062 31.8124 18.75 31.5311 19.0312C31.2499 19.3125 30.9061 19.4688 30.4999 19.5H28.9999L29.0468 27C29.0155 27.125 28.9999 27.25 28.9999 27.375V28.125C28.9999 28.6562 28.8124 29.0938 28.4374 29.4375C28.0936 29.8125 27.6561 30 27.1249 30H26.3749C26.3124 30 26.2655 30 26.2343 30C26.1718 30 26.1093 30 26.0468 30H24.4999H23.3749C22.8436 30 22.4061 29.8125 22.0624 29.4375C21.6874 29.0938 21.4999 28.6562 21.4999 28.125V27V24C21.4999 23.5625 21.3593 23.2031 21.078 22.9219C20.7968 22.6406 20.4374 22.5 19.9999 22.5H16.9999C16.5624 22.5 16.203 22.6406 15.9218 22.9219C15.6405 23.2031 15.4999 23.5625 15.4999 24V27V28.125C15.4999 28.6562 15.3124 29.0938 14.9374 29.4375C14.5936 29.8125 14.1561 30 13.6249 30H12.4999H10.9999C10.9686 30 10.9374 30 10.9061 30C10.8749 30 10.8436 30 10.8124 30C10.7499 30 10.6874 30 10.6249 30H9.87488C9.34363 30 8.90613 29.8125 8.56238 29.4375C8.18738 29.0938 7.99988 28.6562 7.99988 28.125V22.875C7.99988 22.8438 7.99988 22.7969 7.99988 22.7344V19.5H6.49988C6.06238 19.4688 5.703 19.3125 5.42175 19.0312C5.1405 18.75 4.99988 18.4062 4.99988 18C4.99988 17.5625 5.15613 17.1875 5.46863 16.875L17.4686 6.375C17.8124 6.09375 18.1561 5.96875 18.4999 6C18.8749 6 19.203 6.10937 19.4843 6.32812L31.4843 16.875C31.8593 17.1875 32.0311 17.5625 31.9999 18Z" fill="#000000"/>
</svg>
