<svg width="36" height="36" viewBox="0 0 36 36" fill="none" xmlns="http://www.w3.org/2000/svg">
<path d="M19.125 29.3906C18.8125 29.7656 18.4375 29.9531 18 29.9531C17.5625 29.9531 17.1875 29.7656 16.875 29.3906C16.0312 28.3594 15 26.9688 13.7812 25.2188C12.5625 23.5 11.4688 21.7188 10.5 19.875C9.5625 18.0312 9.0625 16.4062 9 15C9.0625 12.4375 9.9375 10.3125 11.625 8.625C13.3125 6.9375 15.4375 6.0625 18 6C20.5625 6.0625 22.6875 6.9375 24.375 8.625C26.0625 10.3125 26.9375 12.4375 27 15C26.9375 16.4062 26.4375 18.0312 25.5 19.875C24.5312 21.7188 23.4375 23.5 22.2188 25.2188C21 26.9688 19.9688 28.3594 19.125 29.3906ZM18 12C16.875 12.0312 16.0156 12.5312 15.4219 13.5C14.8594 14.5 14.8594 15.5 15.4219 16.5C16.0156 17.4688 16.875 17.9688 18 18C19.125 17.9688 19.9844 17.4688 20.5781 16.5C21.1406 15.5 21.1406 14.5 20.5781 13.5C19.9844 12.5312 19.125 12.0312 18 12Z" fill="#000000"/>
</svg>
