<svg width="36" height="36" viewBox="0 0 36 36" fill="none" xmlns="http://www.w3.org/2000/svg">
<path d="M14.25 12.75V15H21.75V12.75C21.7188 11.6875 21.3594 10.7969 20.6719 10.0781C19.9531 9.39062 19.0625 9.03125 18 9C16.9375 9.03125 16.0469 9.39062 15.3281 10.0781C14.6406 10.7969 14.2812 11.6875 14.25 12.75ZM11.25 15V12.75C11.3125 10.8438 11.9688 9.25 13.2188 7.96875C14.5 6.71875 16.0938 6.0625 18 6C19.9062 6.0625 21.5 6.71875 22.7812 7.96875C24.0312 9.25 24.6875 10.8438 24.75 12.75V15H25.5C26.3438 15.0312 27.0469 15.3281 27.6094 15.8906C28.1719 16.4531 28.4688 17.1562 28.5 18V27C28.4688 27.8438 28.1719 28.5469 27.6094 29.1094C27.0469 29.6719 26.3438 29.9688 25.5 30H10.5C9.65625 29.9688 8.95312 29.6719 8.39062 29.1094C7.82812 28.5469 7.53125 27.8438 7.5 27V18C7.53125 17.1562 7.82812 16.4531 8.39062 15.8906C8.95312 15.3281 9.65625 15.0312 10.5 15H11.25Z" fill="#000000"/>
</svg>
