<svg width="36" height="36" viewBox="0 0 36 36" fill="none" xmlns="http://www.w3.org/2000/svg">
<path d="M25.5 15.75C25.4688 17.9375 24.8438 19.8594 23.625 21.5156L29.5781 27.4219C29.8594 27.7344 30 28.0938 30 28.5C30 28.9062 29.8594 29.2656 29.5781 29.5781C29.2656 29.8594 28.9062 30 28.5 30C28.0938 30 27.7344 29.8594 27.4219 29.5781L21.5156 23.625C19.8594 24.8438 17.9375 25.4688 15.75 25.5C13 25.4375 10.7031 24.4844 8.85938 22.6406C7.01562 20.7969 6.0625 18.5 6 15.75C6.0625 13 7.01562 10.7031 8.85938 8.85938C10.7031 7.01563 13 6.0625 15.75 6C18.5 6.0625 20.7969 7.01563 22.6406 8.85938C24.4844 10.7031 25.4375 13 25.5 15.75ZM15.75 22.5C16.9688 22.5 18.0938 22.2031 19.125 21.6094C20.1562 21.0156 20.9844 20.1875 21.6094 19.125C22.2031 18.0625 22.5 16.9375 22.5 15.75C22.5 14.5625 22.2031 13.4375 21.6094 12.375C20.9844 11.3125 20.1562 10.4844 19.125 9.89062C18.0938 9.29688 16.9688 9 15.75 9C14.5312 9 13.4062 9.29688 12.375 9.89062C11.3438 10.4844 10.5156 11.3125 9.89062 12.375C9.29688 13.4375 9 14.5625 9 15.75C9 16.9375 9.29688 18.0625 9.89062 19.125C10.5156 20.1875 11.3438 21.0156 12.375 21.6094C13.4062 22.2031 14.5312 22.5 15.75 22.5Z" fill="#000000"/>
</svg>
