<svg width="36" height="36" viewBox="0 0 36 36" fill="none" xmlns="http://www.w3.org/2000/svg">
<path d="M24.5625 9.9375C23.9688 9.34375 23.2812 9.0625 22.5 9.09375C21.7188 9.09375 21.0312 9.375 20.4375 9.9375L11.8125 18.5625C10.8125 19.5938 10.3125 20.7812 10.3125 22.125C10.3125 23.4688 10.8125 24.6562 11.8125 25.6875C12.8438 26.6875 14.0312 27.1875 15.375 27.1875C16.7188 27.1875 17.9062 26.6875 18.9375 25.6875L26.0625 18.5625C26.3438 18.3125 26.6562 18.1875 27 18.1875C27.3438 18.1875 27.6562 18.3125 27.9375 18.5625C28.1875 18.8438 28.3125 19.1562 28.3125 19.5C28.3125 19.8438 28.1875 20.1562 27.9375 20.4375L20.8125 27.5625C19.2188 29.0625 17.4062 29.8125 15.375 29.8125C13.3438 29.8125 11.5312 29.0625 9.9375 27.5625C8.4375 25.9688 7.6875 24.1562 7.6875 22.125C7.6875 20.0938 8.4375 18.2812 9.9375 16.6875L18.5625 8.0625C19.7188 6.96875 21.0312 6.42188 22.5 6.42188C23.9688 6.42188 25.2812 6.96875 26.4375 8.0625C27.5312 9.21875 28.0781 10.5312 28.0781 12C28.0781 13.4688 27.5312 14.7812 26.4375 15.9375L18.1875 24.1875C17.4688 24.8438 16.6562 25.1719 15.75 25.1719C14.8438 25.1719 14.0312 24.8438 13.3125 24.1875C12.6562 23.4688 12.3281 22.6562 12.3281 21.75C12.3281 20.8438 12.6562 20.0312 13.3125 19.3125L20.0625 12.5625C20.3438 12.3125 20.6562 12.1875 21 12.1875C21.3438 12.1875 21.6562 12.3125 21.9375 12.5625C22.1875 12.8438 22.3125 13.1562 22.3125 13.5C22.3125 13.8438 22.1875 14.1562 21.9375 14.4375L15.1875 21.1875C14.875 21.5625 14.875 21.9375 15.1875 22.3125C15.5625 22.625 15.9375 22.625 16.3125 22.3125L24.5625 14.0625C25.1562 13.4688 25.4531 12.7812 25.4531 12C25.4531 11.2188 25.1562 10.5312 24.5625 9.9375Z" fill="#000000"/>
</svg>
