<svg width="36" height="36" viewBox="0 0 36 36" fill="none" xmlns="http://www.w3.org/2000/svg">
<path d="M12.75 9H14.25C14.875 9.03125 15.4062 9.25 15.8438 9.65625C16.25 10.0938 16.4688 10.625 16.5 11.25V24.75C16.4688 25.375 16.25 25.9062 15.8438 26.3438C15.4062 26.75 14.875 26.9688 14.25 27H12.75C12.125 26.9688 11.5938 26.75 11.1562 26.3438C10.75 25.9062 10.5312 25.375 10.5 24.75V11.25C10.5312 10.625 10.75 10.0938 11.1562 9.65625C11.5938 9.25 12.125 9.03125 12.75 9ZM21.75 9H23.25C23.875 9.03125 24.4062 9.25 24.8438 9.65625C25.25 10.0938 25.4688 10.625 25.5 11.25V24.75C25.4688 25.375 25.25 25.9062 24.8438 26.3438C24.4062 26.75 23.875 26.9688 23.25 27H21.75C21.125 26.9688 20.5938 26.75 20.1562 26.3438C19.75 25.9062 19.5312 25.375 19.5 24.75V11.25C19.5312 10.625 19.75 10.0938 20.1562 9.65625C20.5938 9.25 21.125 9.03125 21.75 9Z" fill="#000000"/>
</svg>
