<svg width="36" height="36" viewBox="0 0 36 36" fill="none" xmlns="http://www.w3.org/2000/svg">
<path d="M25.2188 16.8281L24.1875 17.9062L14.8594 27.2344C14.3594 27.7344 13.7656 28.0781 13.0781 28.2656L7.45312 29.9531C7.01562 30.0469 6.64062 29.9375 6.32812 29.625C6.01562 29.3125 5.92188 28.9531 6.04688 28.5469L7.6875 22.875C7.90625 22.2188 8.26562 21.6406 8.76562 21.1406L18.0938 11.8125L19.125 10.7344L19.6875 10.2188L21.2812 11.8125L24.1875 14.7188L25.7812 16.3125L25.2188 16.8281ZM13.5 24.7031V24.75H12C11.5312 24.6875 11.2812 24.4375 11.25 24V22.5L10.1719 22.9219C10.0469 23.1094 9.9375 23.3125 9.84375 23.5312L8.76562 27.1875L12.4688 26.1094C12.6875 26.0469 12.8906 25.9375 13.0781 25.7812L13.5 24.7031ZM23.0156 6.89062C23.6406 6.29687 24.3438 6 25.125 6C25.9375 6 26.6406 6.29687 27.2344 6.89062L29.1094 8.71875C29.6719 9.34375 29.9531 10.0469 29.9531 10.8281C29.9531 11.6406 29.6719 12.3594 29.1094 12.9844L28.4062 13.6406L27.3281 14.7188L26.8125 15.2344L25.2188 13.6406L22.3125 10.7344L20.7188 9.14062L21.2812 8.625L22.3125 7.54688L23.0156 6.89062ZM20.7656 14.7656C21.0781 14.3906 21.0781 14.0312 20.7656 13.6875C20.4219 13.4062 20.0781 13.4062 19.7344 13.6875L12.9844 20.4375C12.6719 20.7812 12.6719 21.1406 12.9844 21.5156C13.3281 21.7969 13.6719 21.7969 14.0156 21.5156L20.7656 14.7656Z" fill="#000000"/>
</svg>
