<svg width="36" height="36" viewBox="0 0 36 36" fill="none" xmlns="http://www.w3.org/2000/svg">
<path d="M6 10.5C6.03125 9.65625 6.32812 8.95312 6.89062 8.39062C7.45312 7.82812 8.15625 7.53125 9 7.5H27C27.8438 7.53125 28.5469 7.82812 29.1094 8.39062C29.6719 8.95312 29.9688 9.65625 30 10.5V25.5C29.9688 26.3438 29.6719 27.0469 29.1094 27.6094C28.5469 28.1719 27.8438 28.4688 27 28.5H9C8.15625 28.4688 7.45312 28.1719 6.89062 27.6094C6.32812 27.0469 6.03125 26.3438 6 25.5V10.5ZM21.1875 15.5156C20.9375 15.1719 20.625 15 20.25 15C19.8438 15 19.5312 15.1719 19.3125 15.5156L15.2344 21.4688L14.0156 19.9219C13.7656 19.6406 13.4688 19.5 13.125 19.5C12.7812 19.5 12.4844 19.6406 12.2344 19.9219L9.23438 23.6719C8.98438 24.0469 8.9375 24.4375 9.09375 24.8438C9.3125 25.25 9.65625 25.4688 10.125 25.5H14.625H16.125H25.875C26.3125 25.5 26.6406 25.2969 26.8594 24.8906C27.0469 24.4844 27.0312 24.1094 26.8125 23.7656L21.1875 15.5156ZM11.25 15C12.0938 14.9688 12.75 14.5938 13.2188 13.875C13.5938 13.125 13.5938 12.375 13.2188 11.625C12.75 10.9062 12.0938 10.5312 11.25 10.5C10.4062 10.5312 9.75 10.9062 9.28125 11.625C8.90625 12.375 8.90625 13.125 9.28125 13.875C9.75 14.5938 10.4062 14.9688 11.25 15Z" fill="#000000"/>
</svg>
