<svg width="36" height="36" viewBox="0 0 36 36" fill="none" xmlns="http://www.w3.org/2000/svg">
<path d="M19.5 9.75V16.5H26.25C26.6875 16.5 27.0469 16.6406 27.3281 16.9219C27.6094 17.2031 27.75 17.5625 27.75 18C27.75 18.4375 27.6094 18.7969 27.3281 19.0781C27.0469 19.3594 26.6875 19.5 26.25 19.5H19.5V26.25C19.5 26.6875 19.3594 27.0469 19.0781 27.3281C18.7969 27.6094 18.4375 27.75 18 27.75C17.5625 27.75 17.2031 27.6094 16.9219 27.3281C16.6406 27.0469 16.5 26.6875 16.5 26.25V19.5H9.75C9.3125 19.5 8.95312 19.3594 8.67188 19.0781C8.39062 18.7969 8.25 18.4375 8.25 18C8.25 17.5625 8.39062 17.2031 8.67188 16.9219C8.95312 16.6406 9.3125 16.5 9.75 16.5H16.5V9.75C16.5 9.3125 16.6406 8.95312 16.9219 8.67188C17.2031 8.39062 17.5625 8.25 18 8.25C18.4375 8.25 18.7969 8.39062 19.0781 8.67188C19.3594 8.95312 19.5 9.3125 19.5 9.75Z" fill="#000000"/>
</svg>
