<svg width="36" height="36" viewBox="0 0 36 36" fill="none" xmlns="http://www.w3.org/2000/svg">
<path d="M12 6H22.6406C23.4531 6 24.1562 6.29687 24.75 6.89062L26.1094 8.25C26.7031 8.84375 27 9.54688 27 10.3594V13.5H24V10.3594L22.6406 9H12V13.5H9V9C9.03125 8.15625 9.32812 7.45312 9.89062 6.89062C10.4531 6.32812 11.1562 6.03125 12 6ZM24 22.5H12V23.25V24V27H24V24V22.5ZM27 24V27C26.9688 27.8438 26.6719 28.5469 26.1094 29.1094C25.5469 29.6719 24.8438 29.9688 24 30H12C11.1562 29.9688 10.4531 29.6719 9.89062 29.1094C9.32812 28.5469 9.03125 27.8438 9 27V24H7.5C7.0625 24 6.70312 23.8594 6.42188 23.5781C6.14062 23.2969 6 22.9375 6 22.5V18C6.03125 17.1562 6.32812 16.4531 6.89062 15.8906C7.45312 15.3281 8.15625 15.0312 9 15H27C27.8438 15.0312 28.5469 15.3281 29.1094 15.8906C29.6719 16.4531 29.9688 17.1562 30 18V22.5C30 22.9375 29.8594 23.2969 29.5781 23.5781C29.2969 23.8594 28.9375 24 28.5 24H27ZM26.25 17.625C25.5625 17.6875 25.1875 18.0625 25.125 18.75C25.1875 19.4375 25.5625 19.8125 26.25 19.875C26.9375 19.8125 27.3125 19.4375 27.375 18.75C27.3125 18.0625 26.9375 17.6875 26.25 17.625Z" fill="#000000"/>
</svg>
