<svg width="36" height="36" viewBox="0 0 36 36" fill="none" xmlns="http://www.w3.org/2000/svg">
<path d="M6 16.5C6.0625 14.375 6.79688 12.6094 8.20312 11.2031C9.60938 9.79688 11.375 9.0625 13.5 9H21V7.5C21.0312 6.84375 21.3438 6.39062 21.9375 6.14062C22.5312 5.89063 23.0781 5.98438 23.5781 6.42188L26.5781 9.42188C26.8594 9.73438 27 10.0938 27 10.5C27 10.9062 26.8594 11.2656 26.5781 11.5781L23.5781 14.5781C23.0781 15.0156 22.5312 15.125 21.9375 14.9062C21.3438 14.625 21.0312 14.1562 21 13.5V12H13.5C12.2188 12.0312 11.1562 12.4688 10.3125 13.3125C9.46875 14.1562 9.03125 15.2188 9 16.5C9 16.9375 8.85938 17.2969 8.57812 17.5781C8.29688 17.8594 7.9375 18 7.5 18C7.0625 18 6.70312 17.8594 6.42188 17.5781C6.14062 17.2969 6 16.9375 6 16.5ZM30 19.5C29.9375 21.625 29.2031 23.3906 27.7969 24.7969C26.3906 26.2031 24.625 26.9375 22.5 27H15V28.5C14.9688 29.1562 14.6562 29.6094 14.0625 29.8594C13.4688 30.1094 12.9219 30.0156 12.4219 29.5781L9.42188 26.5781C9.14062 26.2656 9 25.9062 9 25.5C9 25.0938 9.14062 24.7344 9.42188 24.4219L12.4219 21.4219C12.9219 20.9844 13.4688 20.875 14.0625 21.0938C14.6562 21.375 14.9688 21.8438 15 22.5V24H22.5C23.7812 23.9688 24.8438 23.5312 25.6875 22.6875C26.5312 21.8438 26.9688 20.7812 27 19.5C27 19.0625 27.1406 18.7031 27.4219 18.4219C27.7031 18.1406 28.0625 18 28.5 18C28.9375 18 29.2969 18.1406 29.5781 18.4219C29.8594 18.7031 30 19.0625 30 19.5Z" fill="#000000"/>
</svg>
