<svg width="36" height="36" viewBox="0 0 36 36" fill="none" xmlns="http://www.w3.org/2000/svg">
<path d="M24.9375 7.59375C25.5312 7.375 26.0781 7.48438 26.5781 7.92188L29.5781 10.9219C29.8594 11.2344 30 11.5938 30 12C30 12.4062 29.8594 12.7656 29.5781 13.0781L26.5781 16.0781C26.0781 16.5156 25.5312 16.6094 24.9375 16.3594C24.3438 16.1094 24.0312 15.6562 24 15V13.5H22.5C22 13.5 21.5938 13.7031 21.2812 14.1094L19.3125 16.7344L17.4375 14.25L18.8906 12.2812C19.8281 11.125 21.0312 10.5312 22.5 10.5H24V9C24.0312 8.34375 24.3438 7.875 24.9375 7.59375ZM13.6875 19.2656L15.5625 21.75L14.1094 23.7188C13.1719 24.875 11.9688 25.4688 10.5 25.5H7.5C7.0625 25.5 6.70312 25.3594 6.42188 25.0781C6.14062 24.7969 6 24.4375 6 24C6 23.5625 6.14062 23.2031 6.42188 22.9219C6.70312 22.6406 7.0625 22.5 7.5 22.5H10.5C11 22.5 11.4062 22.2969 11.7188 21.8906L13.6875 19.2656ZM26.5781 28.0781C26.0781 28.5156 25.5312 28.625 24.9375 28.4062C24.3438 28.125 24.0312 27.6562 24 27V25.5H22.5C21.0312 25.4688 19.8281 24.875 18.8906 23.7188L11.7188 14.1094C11.4062 13.7031 11 13.5 10.5 13.5H7.5C7.0625 13.5 6.70312 13.3594 6.42188 13.0781C6.14062 12.7969 6 12.4375 6 12C6 11.5625 6.14062 11.2031 6.42188 10.9219C6.70312 10.6406 7.0625 10.5 7.5 10.5H10.5C11.9688 10.5312 13.1719 11.125 14.1094 12.2812L21.2812 21.8906C21.5938 22.2969 22 22.5 22.5 22.5H24V21C24.0312 20.3438 24.3438 19.875 24.9375 19.5938C25.5312 19.375 26.0781 19.4844 26.5781 19.9219L29.5781 22.9219C29.8594 23.2344 30 23.5938 30 24C30 24.4062 29.8594 24.7656 29.5781 25.0781L26.5781 28.0781Z" fill="#000000"/>
</svg>
