<svg width="36" height="36" viewBox="0 0 36 36" fill="none" xmlns="http://www.w3.org/2000/svg">
<path d="M16.9219 7.92188C17.2344 7.64062 17.5938 7.5 18 7.5C18.4062 7.5 18.7656 7.64062 19.0781 7.92188L25.0781 13.9219C25.5156 14.4219 25.625 14.9688 25.4062 15.5625C25.125 16.1562 24.6562 16.4688 24 16.5H12C11.3438 16.4688 10.875 16.1562 10.5938 15.5625C10.375 14.9688 10.4844 14.4219 10.9219 13.9219L16.9219 7.92188ZM16.9219 28.0781L10.9219 22.0781C10.4844 21.5781 10.375 21.0312 10.5938 20.4375C10.875 19.8438 11.3438 19.5312 12 19.5H24C24.6562 19.5312 25.125 19.8438 25.4062 20.4375C25.625 21.0312 25.5156 21.5781 25.0781 22.0781L19.0781 28.0781C18.7656 28.3594 18.4062 28.5 18 28.5C17.5938 28.5 17.2344 28.3594 16.9219 28.0781Z" fill="#000000"/>
</svg>
