<svg width="37" height="36" viewBox="0 0 37 36" fill="none" xmlns="http://www.w3.org/2000/svg">
<path d="M26.7499 7.5C27.3749 7.5 27.9061 7.71875 28.3436 8.15625C28.7811 8.59375 28.9999 9.125 28.9999 9.75V26.25C28.9999 26.875 28.7811 27.4062 28.3436 27.8438C27.9061 28.2812 27.3749 28.5 26.7499 28.5H20.328V21.375H23.0468L23.5624 18H20.328V15.7969C20.2968 15.3281 20.4218 14.9219 20.703 14.5781C20.9843 14.2031 21.4843 14.0156 22.203 14.0156H23.6561V11.1562C23.6249 11.125 23.3593 11.0781 22.8593 11.0156C22.328 10.9531 21.7343 10.9219 21.078 10.9219C19.7343 10.9219 18.6718 11.3125 17.8905 12.0938C17.1093 12.875 16.703 13.9844 16.6718 15.4219V18H13.7186V21.375H16.6718V28.5H10.2499C9.62488 28.5 9.09363 28.2812 8.65613 27.8438C8.21863 27.4062 7.99988 26.875 7.99988 26.25V9.75C7.99988 9.125 8.21863 8.59375 8.65613 8.15625C9.09363 7.71875 9.62488 7.5 10.2499 7.5H26.7499Z" fill="#000000"/>
</svg>
