<svg width="36" height="36" viewBox="0 0 36 36" fill="none" xmlns="http://www.w3.org/2000/svg">
<path d="M7.5 10.5C7.53125 9.65625 7.82812 8.95312 8.39062 8.39062C8.95312 7.82812 9.65625 7.53125 10.5 7.5H25.5C26.3438 7.53125 27.0469 7.82812 27.6094 8.39062C28.1719 8.95312 28.4688 9.65625 28.5 10.5V25.5C28.4688 26.3438 28.1719 27.0469 27.6094 27.6094C27.0469 28.1719 26.3438 28.4688 25.5 28.5H10.5C9.65625 28.4688 8.95312 28.1719 8.39062 27.6094C7.82812 27.0469 7.53125 26.3438 7.5 25.5V10.5ZM12 19.5C12.4375 19.5 12.7969 19.3594 13.0781 19.0781C13.3594 18.7969 13.5 18.4375 13.5 18C13.5 17.5625 13.3594 17.2031 13.0781 16.9219C12.7969 16.6406 12.4375 16.5 12 16.5C11.5625 16.5 11.2031 16.6406 10.9219 16.9219C10.6406 17.2031 10.5 17.5625 10.5 18C10.5 18.4375 10.6406 18.7969 10.9219 19.0781C11.2031 19.3594 11.5625 19.5 12 19.5ZM13.5 13.5C13.5 13.0625 13.3594 12.7031 13.0781 12.4219C12.7969 12.1406 12.4375 12 12 12C11.5625 12 11.2031 12.1406 10.9219 12.4219C10.6406 12.7031 10.5 13.0625 10.5 13.5C10.5 13.9375 10.6406 14.2969 10.9219 14.5781C11.2031 14.8594 11.5625 15 12 15C12.4375 15 12.7969 14.8594 13.0781 14.5781C13.3594 14.2969 13.5 13.9375 13.5 13.5ZM12 24C12.4375 24 12.7969 23.8594 13.0781 23.5781C13.3594 23.2969 13.5 22.9375 13.5 22.5C13.5 22.0625 13.3594 21.7031 13.0781 21.4219C12.7969 21.1406 12.4375 21 12 21C11.5625 21 11.2031 21.1406 10.9219 21.4219C10.6406 21.7031 10.5 22.0625 10.5 22.5C10.5 22.9375 10.6406 23.2969 10.9219 23.5781C11.2031 23.8594 11.5625 24 12 24ZM16.5 12.375C15.8125 12.4375 15.4375 12.8125 15.375 13.5C15.4375 14.1875 15.8125 14.5625 16.5 14.625H24C24.6875 14.5625 25.0625 14.1875 25.125 13.5C25.0625 12.8125 24.6875 12.4375 24 12.375H16.5ZM16.5 16.875C15.8125 16.9375 15.4375 17.3125 15.375 18C15.4375 18.6875 15.8125 19.0625 16.5 19.125H24C24.6875 19.0625 25.0625 18.6875 25.125 18C25.0625 17.3125 24.6875 16.9375 24 16.875H16.5ZM16.5 21.375C15.8125 21.4375 15.4375 21.8125 15.375 22.5C15.4375 23.1875 15.8125 23.5625 16.5 23.625H24C24.6875 23.5625 25.0625 23.1875 25.125 22.5C25.0625 21.8125 24.6875 21.4375 24 21.375H16.5Z" fill="#000000"/>
</svg>
