<svg width="37" height="36" viewBox="0 0 37 36" fill="none" xmlns="http://www.w3.org/2000/svg">
<path d="M18.4999 15.5156C19.1874 15.5156 19.7811 15.75 20.2811 16.2188C20.7499 16.7188 20.9843 17.3125 20.9843 18C20.953 19.0938 20.4374 19.8594 19.4374 20.2969C18.4374 20.6719 17.5311 20.5 16.7186 19.7812C15.9999 18.9688 15.828 18.0625 16.203 17.0625C16.6405 16.0625 17.4061 15.5469 18.4999 15.5156ZM24.3593 13.5938C24.5155 14.0312 24.6093 14.625 24.6405 15.375C24.6718 16.125 24.6718 16.8281 24.6405 17.4844C24.6405 17.6719 24.6405 17.8438 24.6405 18C24.6405 18.1562 24.6405 18.3281 24.6405 18.5156C24.6718 19.1719 24.6718 19.875 24.6405 20.625C24.6093 21.375 24.5155 21.9688 24.3593 22.4062C24.078 23.0938 23.5936 23.5781 22.9061 23.8594C22.4686 24.0156 21.8749 24.1094 21.1249 24.1406C20.3749 24.1719 19.6718 24.1719 19.0155 24.1406C18.828 24.1406 18.6561 24.1406 18.4999 24.1406C18.3436 24.1406 18.1718 24.1406 17.9843 24.1406C17.3593 24.1719 16.6561 24.1719 15.8749 24.1406C15.1249 24.1094 14.5311 24.0156 14.0936 23.8594C13.4061 23.5781 12.9218 23.0938 12.6405 22.4062C12.4843 21.9688 12.3905 21.3594 12.3593 20.5781C12.328 19.8281 12.328 19.1406 12.3593 18.5156C12.3593 18.3281 12.3593 18.1562 12.3593 18C12.3593 17.8438 12.3593 17.6719 12.3593 17.4844C12.328 16.8594 12.328 16.1562 12.3593 15.375C12.3905 14.625 12.4843 14.0312 12.6405 13.5938C12.9218 12.9062 13.4061 12.4219 14.0936 12.1406C14.5311 11.9844 15.1249 11.8906 15.8749 11.8594C16.6249 11.8281 17.328 11.8281 17.9843 11.8594C18.1718 11.8594 18.3436 11.8594 18.4999 11.8594C18.6561 11.8594 18.828 11.8594 19.0155 11.8594C19.6405 11.8281 20.3436 11.8281 21.1249 11.8594C21.8749 11.8906 22.4686 11.9844 22.9061 12.1406C23.5936 12.4219 24.078 12.9062 24.3593 13.5938ZM18.4999 21.8438C19.5624 21.8438 20.4686 21.4688 21.2186 20.7188C21.9686 19.9688 22.3436 19.0625 22.3436 18C22.3436 17.2188 22.1249 16.5 21.6874 15.8438C21.2811 15.2188 20.703 14.75 19.953 14.4375C19.2343 14.1562 18.4999 14.0938 17.7499 14.25C16.9999 14.375 16.3436 14.7188 15.7811 15.2812C15.2186 15.8438 14.8749 16.5 14.7499 17.25C14.5936 18 14.6561 18.7344 14.9374 19.4531C15.2499 20.2031 15.7186 20.7812 16.3436 21.1875C16.9999 21.625 17.7186 21.8438 18.4999 21.8438ZM22.4843 14.9062C22.7343 14.9062 22.953 14.8125 23.1405 14.625C23.2968 14.4375 23.3905 14.2344 23.4218 14.0156C23.3905 13.6094 23.203 13.3281 22.8593 13.1719C22.4843 13.0469 22.1561 13.1094 21.8749 13.3594C21.5936 13.6406 21.5311 13.9688 21.6874 14.3438C21.8436 14.6875 22.1093 14.875 22.4843 14.9062ZM26.7499 7.5C27.3749 7.5 27.9061 7.71875 28.3436 8.15625C28.7811 8.59375 28.9999 9.125 28.9999 9.75V26.25C28.9999 26.875 28.7811 27.4062 28.3436 27.8438C27.9061 28.2812 27.3749 28.5 26.7499 28.5H10.2499C9.62488 28.5 9.09363 28.2812 8.65613 27.8438C8.21863 27.4062 7.99988 26.875 7.99988 26.25V9.75C7.99988 9.125 8.21863 8.59375 8.65613 8.15625C9.09363 7.71875 9.62488 7.5 10.2499 7.5H26.7499ZM25.953 21.0938C25.9843 20.6562 25.9999 20.0312 25.9999 19.2188C25.9999 18.4062 25.9999 17.5938 25.9999 16.7812C25.9999 15.9688 25.9843 15.3438 25.953 14.9062C25.953 13.6875 25.5468 12.6406 24.7343 11.7656C23.8593 10.9531 22.8124 10.5469 21.5936 10.5469C21.1561 10.5156 20.5311 10.5 19.7186 10.5C18.9061 10.5 18.0936 10.5 17.2811 10.5C16.4686 10.5 15.8436 10.5156 15.4061 10.5469C14.1874 10.5469 13.1405 10.9531 12.2655 11.7656C11.453 12.6406 11.0468 13.6875 11.0468 14.9062C11.0155 15.3438 10.9999 15.9688 10.9999 16.7812C10.9999 17.5938 10.9999 18.4062 10.9999 19.2188C10.9999 20.0312 11.0155 20.6562 11.0468 21.0938C11.0468 22.3125 11.453 23.3594 12.2655 24.2344C13.1405 25.0469 14.1874 25.4531 15.4061 25.4531C15.8436 25.4844 16.4686 25.5 17.2811 25.5C18.0936 25.5 18.9061 25.5 19.7186 25.5C20.5311 25.5 21.1561 25.4844 21.5936 25.4531C22.8124 25.4531 23.8593 25.0469 24.7343 24.2344C25.5468 23.3594 25.953 22.3125 25.953 21.0938Z" fill="#000000"/>
</svg>
