<svg width="37" height="36" viewBox="0 0 37 36" fill="none" xmlns="http://www.w3.org/2000/svg">
<path d="M27.4999 7.5C27.9374 7.5 28.2968 7.64062 28.578 7.92188C28.8593 8.23438 28.9999 8.59375 28.9999 9V27C28.9999 27.4062 28.8593 27.7656 28.578 28.0781C28.2968 28.3594 27.9374 28.5 27.4999 28.5H9.49988C9.06238 28.5 8.703 28.3594 8.42175 28.0781C8.1405 27.7656 7.99988 27.4062 7.99988 27V9C7.99988 8.59375 8.1405 8.23438 8.42175 7.92188C8.703 7.64062 9.06238 7.5 9.49988 7.5H27.4999ZM14.328 25.5H14.3749V15.4688H11.2343V25.5H14.328ZM12.7811 14.1094C13.3124 14.1094 13.7343 13.9375 14.0468 13.5938C14.3905 13.25 14.578 12.8281 14.6093 12.3281C14.578 11.7969 14.3905 11.3594 14.0468 11.0156C13.7343 10.6719 13.3124 10.5 12.7811 10.5C12.2811 10.5 11.8593 10.6719 11.5155 11.0156C11.1718 11.3594 10.9999 11.7969 10.9999 12.3281C10.9999 12.8281 11.1718 13.25 11.5155 13.5938C11.8593 13.9375 12.2811 14.1094 12.7811 14.1094ZM25.9999 25.5V20.0156C26.0624 18.6406 25.8436 17.5 25.3436 16.5938C24.8436 15.7188 23.828 15.2656 22.2968 15.2344C21.5155 15.2344 20.8749 15.4062 20.3749 15.75C19.8749 16.0625 19.5311 16.4219 19.3436 16.8281H19.2968V15.4688H16.2968V25.5H19.4374V20.5312C19.4061 19.8438 19.4999 19.25 19.7186 18.75C19.9686 18.25 20.4843 17.9844 21.2655 17.9531C22.0468 18.0156 22.5155 18.3125 22.6718 18.8438C22.8593 19.4062 22.9374 20 22.9061 20.625V25.5H25.9999Z" fill="#000000"/>
</svg>
