<svg width="37" height="36" viewBox="0 0 37 36" fill="none" xmlns="http://www.w3.org/2000/svg">
<path d="M16.7655 15.4688L21.2186 18L16.7655 20.5312V15.4688ZM28.9999 9.75V26.25C28.9686 26.875 28.7499 27.4062 28.3436 27.8438C27.9061 28.25 27.3749 28.4688 26.7499 28.5H10.2499C9.62488 28.4688 9.09363 28.25 8.65613 27.8438C8.24988 27.4062 8.03113 26.875 7.99988 26.25V9.75C8.03113 9.125 8.24988 8.59375 8.65613 8.15625C9.09363 7.75 9.62488 7.53125 10.2499 7.5H26.7499C27.3749 7.53125 27.9061 7.75 28.3436 8.15625C28.7499 8.59375 28.9686 9.125 28.9999 9.75ZM27.0311 18C27.0311 17.9062 27.0155 17.3906 26.9843 16.4531C26.953 15.4844 26.8436 14.625 26.6561 13.875C26.4374 13.0938 25.9374 12.5938 25.1561 12.375C24.6561 12.25 23.8905 12.1562 22.8593 12.0938C21.7968 12.0625 20.828 12.0312 19.953 12C19.0468 12 18.5624 12 18.4999 12C18.4374 12 17.953 12 17.0468 12C16.1718 12.0312 15.203 12.0625 14.1405 12.0938C13.1093 12.1562 12.3436 12.25 11.8436 12.375C11.0624 12.5938 10.5624 13.0938 10.3436 13.875C10.1561 14.625 10.0468 15.4844 10.0155 16.4531C9.98425 17.3906 9.96863 17.9062 9.96863 18C9.96863 18.0938 9.98425 18.625 10.0155 19.5938C10.0468 20.5312 10.1561 21.3906 10.3436 22.1719C10.5624 22.9219 11.0624 23.4062 11.8436 23.625C12.3436 23.75 13.1093 23.8438 14.1405 23.9062C15.203 23.9375 16.1718 23.9688 17.0468 24C17.953 24 18.4374 24 18.4999 24C18.5624 24 19.0468 24 19.953 24C20.828 23.9688 21.7968 23.9375 22.8593 23.9062C23.8905 23.8438 24.6561 23.75 25.1561 23.625C25.9374 23.4062 26.4374 22.9062 26.6561 22.125C26.8436 21.375 26.953 20.5312 26.9843 19.5938C27.0155 18.625 27.0311 18.0938 27.0311 18Z" fill="#000000"/>
</svg>
