<svg width="36" height="36" viewBox="0 0 36 36" fill="none" xmlns="http://www.w3.org/2000/svg">
<path d="M19.3594 6.84375L22.3594 13.0312L29.1094 14.0625C29.7031 14.1562 30.1094 14.4844 30.3281 15.0469C30.4844 15.6406 30.3594 16.1562 29.9531 16.5938L25.0781 21.4219L26.2031 28.2656C26.2969 28.8594 26.0938 29.3438 25.5938 29.7188C25.0938 30.0625 24.5781 30.0938 24.0469 29.8125L18 26.625L12 29.8125C11.4375 30.0938 10.9062 30.0625 10.4062 29.7188C9.9375 29.3438 9.73438 28.8594 9.79688 28.2656L10.9688 21.4219L6.09375 16.5938C5.65625 16.1562 5.53125 15.6406 5.71875 15.0469C5.90625 14.4844 6.29688 14.1562 6.89062 14.0625L13.6406 13.0312L16.6406 6.84375C16.9531 6.3125 17.4062 6.03125 18 6C18.625 6.03125 19.0781 6.3125 19.3594 6.84375Z" fill="#000000"/>
</svg>
