<svg width="37" height="36" viewBox="0 0 37 36" fill="none" xmlns="http://www.w3.org/2000/svg">
<path d="M30.6874 10.875C31.3436 12.0312 31.4374 13.1875 30.9686 14.3438C30.4686 15.5 29.5624 16.2031 28.2499 16.4531C28.0624 16.4844 27.8749 16.5 27.6874 16.5C26.4061 16.4688 25.3749 16.0156 24.5936 15.1406C23.8124 16.0156 22.7968 16.4688 21.5468 16.5C20.2968 16.4688 19.2811 16.0156 18.4999 15.1406C17.7186 16.0156 16.703 16.4688 15.453 16.5C14.1718 16.4688 13.1561 16.0156 12.4061 15.1406C11.6249 16.0156 10.5936 16.4688 9.31238 16.5C9.12488 16.5 8.93738 16.4844 8.74988 16.4531C7.43738 16.2031 6.53113 15.5 6.03113 14.3438C5.56238 13.1875 5.65613 12.0312 6.31238 10.875L9.03113 6.60938C9.28113 6.20312 9.65613 6 10.1561 6H26.8436C27.3436 6 27.7186 6.20312 27.9686 6.60938L30.6874 10.875ZM28.4374 17.9531C28.6249 17.9219 28.8124 17.8906 28.9999 17.8594V24V27C28.9686 27.8438 28.6718 28.5469 28.1093 29.1094C27.5468 29.6719 26.8436 29.9688 25.9999 30H10.9999C10.1561 29.9688 9.453 29.6719 8.8905 29.1094C8.328 28.5469 8.03113 27.8438 7.99988 27V24V17.8594C8.18738 17.8906 8.37488 17.9219 8.56238 17.9531C8.81238 17.9844 9.06238 18 9.31238 18C9.90613 18 10.4686 17.9219 10.9999 17.7656V24H25.9999V17.7656C26.5311 17.9219 27.078 18 27.6405 18C27.9218 18 28.1874 17.9844 28.4374 17.9531Z" fill="#000000"/>
</svg>
