<svg width="36" height="36" viewBox="0 0 36 36" fill="none" xmlns="http://www.w3.org/2000/svg">
<path d="M7.5 9.75C7.53125 9.125 7.75 8.59375 8.15625 8.15625C8.59375 7.75 9.125 7.53125 9.75 7.5H16.7344C17.5781 7.5 18.2969 7.79687 18.8906 8.39062L27.1406 16.6406C27.7031 17.2656 27.9844 17.9688 27.9844 18.75C27.9844 19.5625 27.7031 20.2656 27.1406 20.8594L20.8594 27.1406C20.2344 27.7344 19.5312 28.0312 18.75 28.0312C17.9375 28.0312 17.2344 27.7344 16.6406 27.1406L8.39062 18.8906C7.79688 18.2969 7.5 17.5938 7.5 16.7812V9.75ZM12.75 11.25C12.3125 11.25 11.9531 11.3906 11.6719 11.6719C11.3906 11.9531 11.25 12.3125 11.25 12.75C11.25 13.1875 11.3906 13.5469 11.6719 13.8281C11.9531 14.1094 12.3125 14.25 12.75 14.25C13.1875 14.25 13.5469 14.1094 13.8281 13.8281C14.1094 13.5469 14.25 13.1875 14.25 12.75C14.25 12.3125 14.1094 11.9531 13.8281 11.6719C13.5469 11.3906 13.1875 11.25 12.75 11.25Z" fill="#000000"/>
</svg>
