<svg width="36" height="36" viewBox="0 0 36 36" fill="none" xmlns="http://www.w3.org/2000/svg">
<path d="M20.6719 7.54688C21.2969 7.67188 21.7812 7.98437 22.125 8.48438C22.4688 8.98438 22.5781 9.54688 22.4531 10.1719L22.3594 10.7344C22.1094 11.9844 21.6562 13.1562 21 14.25H27.75C28.375 14.2812 28.9062 14.5 29.3438 14.9062C29.75 15.3438 29.9688 15.875 30 16.5C29.9688 17.4062 29.5625 18.0781 28.7812 18.5156C29.3125 18.9531 29.5938 19.5312 29.625 20.25C29.625 20.8125 29.4531 21.2969 29.1094 21.7031C28.7656 22.1094 28.3281 22.3594 27.7969 22.4531C28.0156 22.7969 28.125 23.1875 28.125 23.625C28.0625 24.6875 27.5469 25.4062 26.5781 25.7812C26.6094 25.9375 26.625 26.0938 26.625 26.25C26.5938 26.875 26.375 27.4062 25.9688 27.8438C25.5312 28.25 25 28.4688 24.375 28.5H19.8281C18.8906 28.5 18.0469 28.25 17.2969 27.75L15.5156 26.5312C14.2031 25.625 13.5312 24.375 13.5 22.7812V21V18.75V17.5781C13.5312 16.1406 14.0938 14.9688 15.1875 14.0625L15.5156 13.7812C16.7969 12.75 17.6094 11.4375 17.9531 9.84375L18.0469 9.32812C18.1719 8.70312 18.4844 8.21875 18.9844 7.875C19.4844 7.53125 20.0469 7.42187 20.6719 7.54688ZM7.5 15H10.5C10.9375 15 11.2969 15.1406 11.5781 15.4219C11.8594 15.7031 12 16.0625 12 16.5V27C12 27.4375 11.8594 27.7969 11.5781 28.0781C11.2969 28.3594 10.9375 28.5 10.5 28.5H7.5C7.0625 28.5 6.70312 28.3594 6.42188 28.0781C6.14062 27.7969 6 27.4375 6 27V16.5C6 16.0625 6.14062 15.7031 6.42188 15.4219C6.70312 15.1406 7.0625 15 7.5 15Z" fill="#000000"/>
</svg>
