<svg width="36" height="36" viewBox="0 0 36 36" fill="none" xmlns="http://www.w3.org/2000/svg">
<path d="M20.6719 28.4531C20.0469 28.5781 19.4844 28.4688 18.9844 28.125C18.4844 27.7812 18.1719 27.2969 18.0469 26.6719L17.9531 26.1562C17.6094 24.5625 16.7969 23.25 15.5156 22.2188L15.1875 21.9375C14.0938 21.0312 13.5312 19.8594 13.5 18.4219V17.25V15V13.2188C13.5312 11.625 14.2031 10.375 15.5156 9.46875L17.2969 8.25C18.0469 7.75 18.8906 7.5 19.8281 7.5H24.375C25 7.53125 25.5312 7.75 25.9688 8.15625C26.375 8.59375 26.5938 9.125 26.625 9.75C26.625 9.90625 26.6094 10.0625 26.5781 10.2188C27.5469 10.5938 28.0625 11.3125 28.125 12.375C28.125 12.8125 28.0156 13.2031 27.7969 13.5469C28.3281 13.6406 28.7656 13.8906 29.1094 14.2969C29.4531 14.7031 29.625 15.1875 29.625 15.75C29.5938 16.4688 29.3125 17.0469 28.7812 17.4844C29.5625 17.9219 29.9688 18.5938 30 19.5C29.9688 20.125 29.75 20.6562 29.3438 21.0938C28.9062 21.5 28.375 21.7188 27.75 21.75H21C21.6562 22.8438 22.1094 24.0156 22.3594 25.2656L22.4531 25.8281C22.5781 26.4531 22.4688 27.0156 22.125 27.5156C21.7812 28.0156 21.2969 28.3281 20.6719 28.4531ZM7.5 24C7.0625 24 6.70312 23.8594 6.42188 23.5781C6.14062 23.2969 6 22.9375 6 22.5V12C6 11.5625 6.14062 11.2031 6.42188 10.9219C6.70312 10.6406 7.0625 10.5 7.5 10.5H10.5C10.9375 10.5 11.2969 10.6406 11.5781 10.9219C11.8594 11.2031 12 11.5625 12 12V22.5C12 22.9375 11.8594 23.2969 11.5781 23.5781C11.2969 23.8594 10.9375 24 10.5 24H7.5Z" fill="#000000"/>
</svg>
