<svg width="36" height="36" viewBox="0 0 36 36" fill="none" xmlns="http://www.w3.org/2000/svg">
<path d="M13.8281 6.84375C14.1094 6.3125 14.5625 6.03125 15.1875 6H20.8125C21.4375 6.03125 21.8906 6.3125 22.1719 6.84375L22.5 7.5H27C27.4375 7.5 27.7969 7.64062 28.0781 7.92188C28.3594 8.20312 28.5 8.5625 28.5 9C28.5 9.4375 28.3594 9.79688 28.0781 10.0781C27.7969 10.3594 27.4375 10.5 27 10.5H9C8.5625 10.5 8.20312 10.3594 7.92188 10.0781C7.64062 9.79688 7.5 9.4375 7.5 9C7.5 8.5625 7.64062 8.20312 7.92188 7.92188C8.20312 7.64062 8.5625 7.5 9 7.5H13.5L13.8281 6.84375ZM9 12H27V27C26.9688 27.8438 26.6719 28.5469 26.1094 29.1094C25.5469 29.6719 24.8438 29.9688 24 30H12C11.1562 29.9688 10.4531 29.6719 9.89062 29.1094C9.32812 28.5469 9.03125 27.8438 9 27V12ZM13.5 15C13.0312 15.0312 12.7812 15.2812 12.75 15.75V26.25C12.7812 26.7188 13.0312 26.9688 13.5 27C13.9688 26.9688 14.2188 26.7188 14.25 26.25V15.75C14.2188 15.2812 13.9688 15.0312 13.5 15ZM18 15C17.5312 15.0312 17.2812 15.2812 17.25 15.75V26.25C17.2812 26.7188 17.5312 26.9688 18 27C18.4688 26.9688 18.7188 26.7188 18.75 26.25V15.75C18.7188 15.2812 18.4688 15.0312 18 15ZM22.5 15C22.0312 15.0312 21.7812 15.2812 21.75 15.75V26.25C21.7812 26.7188 22.0312 26.9688 22.5 27C22.9688 26.9688 23.2188 26.7188 23.25 26.25V15.75C23.2188 15.2812 22.9688 15.0312 22.5 15Z" fill="#000000"/>
</svg>
