<svg width="36" height="36" viewBox="0 0 36 36" fill="none" xmlns="http://www.w3.org/2000/svg">
<path d="M18 7.5C18.7188 7.53125 19.2656 7.84375 19.6406 8.4375L29.7656 25.6875C30.0781 26.3125 30.0781 26.9375 29.7656 27.5625C29.3906 28.1562 28.8438 28.4688 28.125 28.5H7.875C7.15625 28.4688 6.60938 28.1562 6.23438 27.5625C5.92188 26.9375 5.92188 26.3125 6.23438 25.6875L16.4062 8.4375C16.7812 7.84375 17.3125 7.53125 18 7.5ZM18 13.5C17.3125 13.5625 16.9375 13.9375 16.875 14.625V19.875C16.9375 20.5625 17.3125 20.9375 18 21C18.6875 20.9375 19.0625 20.5625 19.125 19.875V14.625C19.0625 13.9375 18.6875 13.5625 18 13.5ZM19.5 24C19.5 23.5625 19.3594 23.2031 19.0781 22.9219C18.7969 22.6406 18.4375 22.5 18 22.5C17.5625 22.5 17.2031 22.6406 16.9219 22.9219C16.6406 23.2031 16.5 23.5625 16.5 24C16.5 24.4375 16.6406 24.7969 16.9219 25.0781C17.2031 25.3594 17.5625 25.5 18 25.5C18.4375 25.5 18.7969 25.3594 19.0781 25.0781C19.3594 24.7969 19.5 24.4375 19.5 24Z" fill="#000000"/>
</svg>
