<svg width="36" height="36" viewBox="0 0 36 36" fill="none" xmlns="http://www.w3.org/2000/svg">
<path d="M5.25 6H20.25C20.875 6.03125 21.4062 6.25 21.8438 6.65625C22.25 7.09375 22.4688 7.625 22.5 8.25V10.5H24.8906C25.7031 10.5 26.4062 10.7969 27 11.3906L30.6094 15C31.2031 15.5938 31.5 16.2969 31.5 17.1094V18V19.5V22.5C31.9375 22.5 32.2969 22.6406 32.5781 22.9219C32.8594 23.2031 33 23.5625 33 24C33 24.4375 32.8594 24.7969 32.5781 25.0781C32.2969 25.3594 31.9375 25.5 31.5 25.5H30C29.9688 26.7812 29.5312 27.8438 28.6875 28.6875C27.8438 29.5312 26.7812 29.9688 25.5 30C24.2188 29.9688 23.1562 29.5312 22.3125 28.6875C21.4688 27.8438 21.0312 26.7812 21 25.5H15C14.9688 26.7812 14.5312 27.8438 13.6875 28.6875C12.8438 29.5312 11.7812 29.9688 10.5 30C9.21875 29.9688 8.15625 29.5312 7.3125 28.6875C6.46875 27.8438 6.03125 26.7812 6 25.5H5.25C4.625 25.4688 4.09375 25.25 3.65625 24.8438C3.25 24.4062 3.03125 23.875 3 23.25V8.25C3.03125 7.625 3.25 7.09375 3.65625 6.65625C4.09375 6.25 4.625 6.03125 5.25 6ZM22.5 13.5V18H28.5V17.1094L24.8906 13.5H22.5ZM8.25 25.5C8.28125 26.3438 8.65625 27 9.375 27.4688C10.125 27.8438 10.875 27.8438 11.625 27.4688C12.3438 27 12.7188 26.3438 12.75 25.5C12.7188 24.6562 12.3438 24 11.625 23.5312C10.875 23.1562 10.125 23.1562 9.375 23.5312C8.65625 24 8.28125 24.6562 8.25 25.5ZM25.5 23.25C24.6562 23.2812 24 23.6562 23.5312 24.375C23.1562 25.125 23.1562 25.875 23.5312 26.625C24 27.3438 24.6562 27.7188 25.5 27.75C26.3438 27.7188 27 27.3438 27.4688 26.625C27.8438 25.875 27.8438 25.125 27.4688 24.375C27 23.6562 26.3438 23.2812 25.5 23.25Z" fill="#000000"/>
</svg>
