<svg width="37" height="36" viewBox="0 0 37 36" fill="none" xmlns="http://www.w3.org/2000/svg">
<path d="M10.9999 7.5H25.9999C26.8436 7.53125 27.5468 7.82812 28.1093 8.39062C28.6718 8.95312 28.9686 9.65625 28.9999 10.5V25.5C28.9686 26.3438 28.6718 27.0469 28.1093 27.6094C27.5468 28.1719 26.8436 28.4688 25.9999 28.5H10.9999C10.1561 28.4688 9.453 28.1719 8.8905 27.6094C8.328 27.0469 8.03113 26.3438 7.99988 25.5V10.5C8.03113 9.65625 8.328 8.95312 8.8905 8.39062C9.453 7.82812 10.1561 7.53125 10.9999 7.5ZM24.9218 11.4375H22.7186L19.0155 15.6562L15.8749 11.4375H11.2811L16.7655 18.6094L11.5624 24.5625H13.7655L17.7968 19.9688L21.3124 24.5625H25.7655L20.0468 17.0156L24.9218 11.4375ZM23.1405 23.25H21.9218L13.8593 12.7031H15.1718L23.1405 23.25Z" fill="#000000"/>
</svg>
