<svg width="36" height="36" viewBox="0 0 36 36" fill="none" xmlns="http://www.w3.org/2000/svg">
<path d="M14.25 12.75V15H25.5C26.3438 15.0312 27.0469 15.3281 27.6094 15.8906C28.1719 16.4531 28.4688 17.1562 28.5 18V27C28.4688 27.8438 28.1719 28.5469 27.6094 29.1094C27.0469 29.6719 26.3438 29.9688 25.5 30H10.5C9.65625 29.9688 8.95312 29.6719 8.39062 29.1094C7.82812 28.5469 7.53125 27.8438 7.5 27V18C7.53125 17.1562 7.82812 16.4531 8.39062 15.8906C8.95312 15.3281 9.65625 15.0312 10.5 15H11.25V12.75C11.3125 10.8438 11.9688 9.25 13.2188 7.96875C14.5 6.71875 16.0938 6.0625 18 6C19.375 6.03125 20.5938 6.39062 21.6562 7.07812C22.7188 7.76563 23.5312 8.6875 24.0938 9.84375C24.2812 10.25 24.2969 10.6406 24.1406 11.0156C24.0156 11.3906 23.7656 11.6719 23.3906 11.8594C23.0156 12.0156 22.625 12.0312 22.2188 11.9062C21.8438 11.7812 21.5625 11.5312 21.375 11.1562C21.0625 10.5 20.6094 9.98438 20.0156 9.60938C19.4219 9.20312 18.75 9 18 9C16.9375 9.03125 16.0469 9.39062 15.3281 10.0781C14.6406 10.7969 14.2812 11.6875 14.25 12.75Z" fill="#000000"/>
</svg>
