<svg width="36" height="36" viewBox="0 0 36 36" fill="none" xmlns="http://www.w3.org/2000/svg">
<path d="M19.5 11.1094V22.5C19.5 22.9375 19.3594 23.2969 19.0781 23.5781C18.7969 23.8594 18.4375 24 18 24C17.5625 24 17.2031 23.8594 16.9219 23.5781C16.6406 23.2969 16.5 22.9375 16.5 22.5V11.1094L13.0781 14.5781C12.7656 14.8594 12.4062 15 12 15C11.5938 15 11.2344 14.8594 10.9219 14.5781C10.6406 14.2656 10.5 13.9062 10.5 13.5C10.5 13.0938 10.6406 12.7344 10.9219 12.4219L16.9219 6.42188C17.2344 6.14062 17.5938 6 18 6C18.4062 6 18.7656 6.14062 19.0781 6.42188L25.0781 12.4219C25.3594 12.7344 25.5 13.0938 25.5 13.5C25.5 13.9062 25.3594 14.2656 25.0781 14.5781C24.7656 14.8594 24.4062 15 24 15C23.5938 15 23.2344 14.8594 22.9219 14.5781L19.5 11.1094ZM9 22.5H15C15.0312 23.3438 15.3281 24.0469 15.8906 24.6094C16.4531 25.1719 17.1562 25.4688 18 25.5C18.8438 25.4688 19.5469 25.1719 20.1094 24.6094C20.6719 24.0469 20.9688 23.3438 21 22.5H27C27.8438 22.5312 28.5469 22.8281 29.1094 23.3906C29.6719 23.9531 29.9688 24.6562 30 25.5V27C29.9688 27.8438 29.6719 28.5469 29.1094 29.1094C28.5469 29.6719 27.8438 29.9688 27 30H9C8.15625 29.9688 7.45312 29.6719 6.89062 29.1094C6.32812 28.5469 6.03125 27.8438 6 27V25.5C6.03125 24.6562 6.32812 23.9531 6.89062 23.3906C7.45312 22.8281 8.15625 22.5312 9 22.5ZM26.25 27.375C26.9375 27.3125 27.3125 26.9375 27.375 26.25C27.3125 25.5625 26.9375 25.1875 26.25 25.125C25.5625 25.1875 25.1875 25.5625 25.125 26.25C25.1875 26.9375 25.5625 27.3125 26.25 27.375Z" fill="#000000"/>
</svg>
