<svg width="36" height="36" viewBox="0 0 36 36" fill="none" xmlns="http://www.w3.org/2000/svg">
<path d="M18 18C16.9062 18 15.9062 17.7344 15 17.2031C14.0938 16.6719 13.3594 15.9375 12.7969 15C12.2656 14.0625 12 13.0625 12 12C12 10.9375 12.2656 9.9375 12.7969 9C13.3594 8.0625 14.0938 7.32812 15 6.79688C15.9062 6.26563 16.9062 6 18 6C19.0938 6 20.0938 6.26563 21 6.79688C21.9062 7.32812 22.6406 8.0625 23.2031 9C23.7344 9.9375 24 10.9375 24 12C24 13.0625 23.7344 14.0625 23.2031 15C22.6406 15.9375 21.9062 16.6719 21 17.2031C20.0938 17.7344 19.0938 18 18 18ZM15.8438 20.25H20.1562C22.5 20.3125 24.4688 21.125 26.0625 22.6875C27.625 24.2812 28.4375 26.25 28.5 28.5938C28.5 29 28.3594 29.3281 28.0781 29.5781C27.8281 29.8594 27.5 30 27.0938 30H8.90625C8.5 30 8.17188 29.8594 7.92188 29.5781C7.64062 29.3281 7.5 29 7.5 28.5938C7.5625 26.25 8.375 24.2812 9.9375 22.6875C11.5312 21.125 13.5 20.3125 15.8438 20.25Z" fill="#000000"/>
</svg>
