<svg width="36" height="36" viewBox="0 0 36 36" fill="none" xmlns="http://www.w3.org/2000/svg">
<path d="M20.1094 7.64062C20.6719 7.92188 20.9688 8.375 21 9V27C20.9688 27.625 20.6719 28.0781 20.1094 28.3594C19.5156 28.6094 18.9844 28.5312 18.5156 28.125L12.1875 22.5H9C8.15625 22.4688 7.45312 22.1719 6.89062 21.6094C6.32812 21.0469 6.03125 20.3438 6 19.5V16.5C6.03125 15.6562 6.32812 14.9531 6.89062 14.3906C7.45312 13.8281 8.15625 13.5312 9 13.5H12.1875L18.5156 7.875C18.9844 7.46875 19.5156 7.39063 20.1094 7.64062ZM28.1719 11.0156C29.2031 11.8594 30.0156 12.875 30.6094 14.0625C31.2031 15.2812 31.5 16.5938 31.5 18C31.5 19.4062 31.2031 20.7188 30.6094 21.9375C30.0156 23.125 29.2031 24.1406 28.1719 24.9844C27.6094 25.3594 27.0781 25.3125 26.5781 24.8438C26.2031 24.25 26.2656 23.7188 26.7656 23.25C28.3594 21.9375 29.1875 20.1875 29.25 18C29.1875 15.8125 28.3594 14.0625 26.7656 12.75C26.2656 12.2812 26.2031 11.75 26.5781 11.1562C27.0781 10.6875 27.6094 10.6406 28.1719 11.0156ZM25.3594 14.5312C26.3906 15.375 26.9375 16.5312 27 18C26.9375 19.4688 26.3906 20.6406 25.3594 21.5156C24.7656 21.8906 24.2344 21.8281 23.7656 21.3281C23.3906 20.7656 23.4375 20.2344 23.9062 19.7344C24.4375 19.2969 24.7188 18.7188 24.75 18C24.7188 17.2812 24.4375 16.7031 23.9062 16.2656C23.4375 15.7656 23.3906 15.2344 23.7656 14.6719C24.2344 14.1719 24.7656 14.1094 25.3594 14.4844V14.5312Z" fill="#000000"/>
</svg>
