<svg width="36" height="36" viewBox="0 0 36 36" fill="none" xmlns="http://www.w3.org/2000/svg">
<path d="M4.82812 6.23438L12.2812 12.0938L17.0156 7.875C17.4844 7.46875 18.0156 7.39063 18.6094 7.64062C19.1719 7.92188 19.4688 8.375 19.5 9V17.7656L22.2656 19.9219C22.2969 19.8594 22.3438 19.7969 22.4062 19.7344C22.9375 19.2969 23.2188 18.7188 23.25 18C23.2188 17.2812 22.9375 16.7031 22.4062 16.2656C21.9375 15.7656 21.8906 15.2344 22.2656 14.6719C22.7344 14.1719 23.2656 14.125 23.8594 14.5312C24.8906 15.375 25.4375 16.5312 25.5 18C25.4688 19.3438 24.9844 20.4531 24.0469 21.3281L25.8281 22.7344C27.0781 21.4531 27.7188 19.875 27.75 18C27.6875 15.8125 26.8594 14.0625 25.2656 12.75C24.7656 12.2812 24.7031 11.7656 25.0781 11.2031C25.5781 10.7031 26.1094 10.6406 26.6719 11.0156C27.7031 11.8594 28.5156 12.875 29.1094 14.0625C29.7031 15.2812 30 16.5938 30 18C29.9375 20.4062 29.1406 22.4375 27.6094 24.0938L32.5781 27.9844C33.0781 28.4531 33.1406 28.9844 32.7656 29.5781C32.2969 30.0781 31.7656 30.1406 31.1719 29.7656L3.42188 8.01562C2.92188 7.54688 2.85938 7.01563 3.23438 6.42188C3.70312 5.92187 4.23438 5.85938 4.82812 6.23438ZM19.5 23.4844V27C19.4688 27.625 19.1719 28.0781 18.6094 28.3594C18.0156 28.6094 17.4844 28.5312 17.0156 28.125L10.6875 22.5H7.5C6.65625 22.4688 5.95312 22.1719 5.39062 21.6094C4.82812 21.0469 4.53125 20.3438 4.5 19.5V16.5C4.5 15.75 4.73438 15.1094 5.20312 14.5781C5.64062 14.0469 6.20312 13.7031 6.89062 13.5469L19.5 23.4844Z" fill="#000000"/>
</svg>
