<svg width="36" height="36" viewBox="0 0 36 36" fill="none" xmlns="http://www.w3.org/2000/svg">
<path d="M17.9531 6C18.7031 6.03125 19.2031 6.40625 19.4531 7.125L22.9219 19.8281L23.7656 18.1406C24.3281 17.0781 25.2188 16.5312 26.4375 16.5H31.5C31.9375 16.5 32.2969 16.6406 32.5781 16.9219C32.8594 17.2031 33 17.5625 33 18C33 18.4375 32.8594 18.7969 32.5781 19.0781C32.2969 19.3594 31.9375 19.5 31.5 19.5H26.4375L23.8594 24.6562C23.5156 25.25 23.0156 25.5312 22.3594 25.5C21.7031 25.4062 21.2656 25.0312 21.0469 24.375L18.1875 13.8281L14.9531 28.8281C14.7656 29.5469 14.2969 29.9375 13.5469 30C12.7969 29.9688 12.2969 29.6094 12.0469 28.9219L9.375 19.5H4.5C4.0625 19.5 3.70312 19.3594 3.42188 19.0781C3.14062 18.7969 3 18.4375 3 18C3 17.5625 3.14062 17.2031 3.42188 16.9219C3.70312 16.6406 4.0625 16.5 4.5 16.5H9.375C10.0625 16.5 10.6562 16.7031 11.1562 17.1094C11.6875 17.4844 12.0469 18 12.2344 18.6562L13.3125 22.3125L16.5469 7.17188C16.7344 6.45313 17.2031 6.0625 17.9531 6Z" fill="#000000"/>
</svg>
