<svg width="36" height="36" viewBox="0 0 36 36" fill="none" xmlns="http://www.w3.org/2000/svg">
<path d="M25.0781 13.0781L20.1094 18L25.0781 22.9219C25.3594 23.2344 25.5 23.5938 25.5 24C25.5 24.4062 25.3594 24.7656 25.0781 25.0781C24.7656 25.3594 24.4062 25.5 24 25.5C23.5938 25.5 23.2344 25.3594 22.9219 25.0781L18 20.1094L13.0781 25.0781C12.7656 25.3594 12.4062 25.5 12 25.5C11.5938 25.5 11.2344 25.3594 10.9219 25.0781C10.6406 24.7656 10.5 24.4062 10.5 24C10.5 23.5938 10.6406 23.2344 10.9219 22.9219L15.8906 18L10.9219 13.0781C10.6406 12.7656 10.5 12.4062 10.5 12C10.5 11.5938 10.6406 11.2344 10.9219 10.9219C11.2344 10.6406 11.5938 10.5 12 10.5C12.4062 10.5 12.7656 10.6406 13.0781 10.9219L18 15.8906L22.9219 10.9219C23.2344 10.6406 23.5938 10.5 24 10.5C24.4062 10.5 24.7656 10.6406 25.0781 10.9219C25.3594 11.2344 25.5 11.5938 25.5 12C25.5 12.4062 25.3594 12.7656 25.0781 13.0781Z" fill="#000000"/>
</svg>
